<svg xmlns="http://www.w3.org/2000/svg" width="150" height="42" viewBox="0 0 150 42">
    <defs>
        <style>
            .cls-2{fill:#fff}
        </style>
    </defs>
    <g id="logo_mqnic" transform="translate(-1241 -20)">
        <g id="path" transform="translate(1241.001 21)">
            <path id="패스_1" d="M154.609 181.435l11.818-12.389v8.519h8.273v-18.744l.013-9.98-20.111 20.8-20.1-20.8v28.727h8.273v-8.522l11.825 12.388" class="cls-2" transform="translate(-134.497 -148.838)"/>
            <path id="패스_2" d="M330.238 148.881v17.178l-12.794-17.178h-8.276v28.663h8.276v-17.181l12.791 17.171v.012h8.278v-28.665z" class="cls-2" transform="translate(-232.548 -148.862)"/>
            <path id="사각형_33" d="M0 0H8.277V28.663H0z" class="cls-2" transform="translate(109.566 0.019)"/>
            <path id="패스_3" fill="#c8002d" d="M263.274 163.494c0-.08.008-.158.008-.234a14.591 14.591 0 1 0-14.588 14.361 14.7 14.7 0 0 0 6.386-1.451v5.367h8.2v-18.042zm-14.58 6.041a6.279 6.279 0 1 1 6.378-6.275 6.33 6.33 0 0 1-6.378 6.275z" transform="translate(-190.407 -148.87)"/>
            <path id="패스_4" d="M425.9 169.479a6.262 6.262 0 1 1 0-12.523 6.4 6.4 0 0 1 4.868 2.225h9.119a14.325 14.325 0 1 0 0 8.074h-9.119a6.405 6.405 0 0 1-4.868 2.224z" class="cls-2" transform="translate(-289.883 -148.87)"/>
            <path id="패스_5" d="M139.288 235.72c-.061 0-.1-.009-.113-.025a.184.184 0 0 1-.021-.109v-3.546l-1.377 3.524a.266.266 0 0 1-.064.1.183.183 0 0 1-.106.022h-.614a.141.141 0 0 1-.17-.12l-1.377-3.524v3.545a.185.185 0 0 1-.021.109c-.014.016-.052.025-.113.025h-.692c-.062 0-.1-.009-.113-.025a.184.184 0 0 1-.021-.109v-5.092a.3.3 0 0 1 .032-.181.286.286 0 0 1 .173-.032h.791a.188.188 0 0 1 .1.022.182.182 0 0 1 .064.091l1.653 4.1 1.66-4.1a.17.17 0 0 1 .177-.113h.77a.16.16 0 0 1 .212.212v5.092a.162.162 0 0 1-.025.109.165.165 0 0 1-.109.025z" class="cls-2" transform="translate(-134.485 -195.85)"/>
            <path id="패스_6" d="M154.374 237.441a.152.152 0 0 1-.081-.014c-.011-.01-.018-.038-.018-.085v-.3a.931.931 0 0 1-.392.325 1.211 1.211 0 0 1-.54.135 1.94 1.94 0 0 1-.558-.081 1.043 1.043 0 0 1-.441-.254 1.249 1.249 0 0 1-.272-.417 1.463 1.463 0 0 1-.1-.554 1.276 1.276 0 0 1 .646-1.126 2.2 2.2 0 0 1 .7-.241 3.747 3.747 0 0 1 .89-.045q-.042-.559-.48-.615a1.173 1.173 0 0 0-.286.007 1.748 1.748 0 0 0-.283.067 2.511 2.511 0 0 0-.265.106 1.933 1.933 0 0 0-.226.124.48.48 0 0 1-.212.1c-.042 0-.064-.046-.064-.141v-.586a.346.346 0 0 1 .018-.13.213.213 0 0 1 .1-.081 3.553 3.553 0 0 1 .5-.2 2.211 2.211 0 0 1 .674-.091 1.437 1.437 0 0 1 1.077.367 1.578 1.578 0 0 1 .357 1.137V236.882c0 .075 0 .148.007.216s.006.128.011.18c.01.094 0 .146-.014.155a.247.247 0 0 1-.1.014zm-.1-1.949a3.786 3.786 0 0 0-.664.06 1.412 1.412 0 0 0-.42.145.488.488 0 0 0-.215.219.685.685 0 0 0-.057.282.452.452 0 0 0 .134.35.528.528 0 0 0 .374.124.752.752 0 0 0 .611-.279 1.447 1.447 0 0 0 .238-.901z" class="cls-2" transform="translate(-144.255 -197.557)"/>
            <path id="패스_7" d="M164.015 237.467a.169.169 0 0 1-.06.066.138.138 0 0 1-.06.011h-.8c-.052 0-.08-.011-.085-.032s.014-.065.057-.131l1.193-1.914-1.116-1.73c-.047-.071-.066-.117-.057-.141s.054-.036.134-.036h.756a.139.139 0 0 1 .127.071l.657 1.081.657-1.081a.14.14 0 0 1 .127-.071h.756c.08 0 .125.012.134.036s-.009.071-.056.141l-1.116 1.73 1.194 1.914c.042.066.061.109.056.131s-.033.032-.085.032h-.8a.139.139 0 0 1-.06-.011.169.169 0 0 1-.06-.066l-.749-1.243z" class="cls-2" transform="translate(-150.421 -197.682)"/>
            <path id="패스_8" d="M175.141 230.844a.515.515 0 0 1-.388-.163.55.55 0 0 1-.155-.4.567.567 0 0 1 .152-.4.508.508 0 0 1 .392-.166.52.52 0 0 1 .4.166.562.562 0 0 1 .155.4.552.552 0 0 1-.155.4.524.524 0 0 1-.401.163zm-.36 4.562a.113.113 0 0 1-.088-.029.179.179 0 0 1-.025-.113v-3.68a.2.2 0 0 1 .021-.113.111.111 0 0 1 .092-.029h.7a.124.124 0 0 1 .1.029.179.179 0 0 1 .025.113v3.68a.182.182 0 0 1-.025.113.124.124 0 0 1-.1.029z" class="cls-2" transform="translate(-156.891 -195.537)"/>
            <path id="패스_9" d="M186.094 237.489a.163.163 0 0 1-.113-.032.154.154 0 0 1-.035-.116v-2.373a.656.656 0 0 0-.155-.456.5.5 0 0 0-.388-.173.632.632 0 0 0-.318.081.758.758 0 0 0-.24.222 1.1 1.1 0 0 0-.152.325 1.371 1.371 0 0 0-.053.382v2c0 .094-.045.142-.134.142h-.664a.163.163 0 0 1-.113-.032.154.154 0 0 1-.035-.116v-2.373a.721.721 0 0 0-.131-.48.478.478 0 0 0-.378-.148.673.673 0 0 0-.537.229.813.813 0 0 0-.2.548v2.232a.165.165 0 0 1-.028.113.15.15 0 0 1-.106.029h-.657a.142.142 0 0 1-.113-.035.182.182 0 0 1-.028-.113v-3.3c0-.177 0-.312-.014-.406a.12.12 0 0 1 .018-.109.207.207 0 0 1 .138-.032h.657a.206.206 0 0 1 .1.015c.014.009.021.035.021.078v.29a1.583 1.583 0 0 1 .378-.286.912.912 0 0 1 .448-.123 1.243 1.243 0 0 1 .639.176 1.227 1.227 0 0 1 .463.473 1.809 1.809 0 0 1 .212-.254 1.722 1.722 0 0 1 .258-.211 1.312 1.312 0 0 1 .3-.148.966.966 0 0 1 .328-.057 1.769 1.769 0 0 1 .579.091 1.258 1.258 0 0 1 .448.269 1.181 1.181 0 0 1 .29.434 1.592 1.592 0 0 1 .1.59v2.514a.15.15 0 0 1-.032.113.164.164 0 0 1-.109.029z" class="cls-2" transform="translate(-160.747 -197.62)"/>
            <path id="패스_10" d="M201.4 237.584a.172.172 0 0 1-.1-.021.1.1 0 0 1-.025-.078v-.269a.748.748 0 0 1-.166.18 1.172 1.172 0 0 1-.222.138 1.611 1.611 0 0 1-.247.091.872.872 0 0 1-.24.036 1.282 1.282 0 0 1-1.038-.41 1.756 1.756 0 0 1-.346-1.166v-2.344a.18.18 0 0 1 .028-.113.127.127 0 0 1 .106-.035h.65a.124.124 0 0 1 .113.045.21.21 0 0 1 .028.109v2.218a1.751 1.751 0 0 0 .039.406.7.7 0 0 0 .109.254.382.382 0 0 0 .173.135.649.649 0 0 0 .23.038.676.676 0 0 0 .526-.244 1.125 1.125 0 0 0 .215-.759v-2.055a.18.18 0 0 1 .028-.113.127.127 0 0 1 .106-.035h.657a.111.111 0 0 1 .109.049.25.25 0 0 1 .025.113v2.832c0 .141 0 .289.007.441s.007.289.007.406a.263.263 0 0 1-.018.12c-.012.019-.051.029-.117.029z" class="cls-2" transform="translate(-170.678 -197.7)"/>
            <path id="패스_11" d="M215.822 237.489a.165.165 0 0 1-.113-.032.154.154 0 0 1-.035-.116v-2.373a.658.658 0 0 0-.155-.456.5.5 0 0 0-.389-.173.632.632 0 0 0-.317.081.753.753 0 0 0-.24.222 1.088 1.088 0 0 0-.152.325 1.37 1.37 0 0 0-.053.382v2c0 .094-.045.142-.134.142h-.664a.165.165 0 0 1-.113-.032.154.154 0 0 1-.035-.116v-2.373a.718.718 0 0 0-.131-.48.478.478 0 0 0-.378-.148.673.673 0 0 0-.536.229.814.814 0 0 0-.2.548v2.232a.162.162 0 0 1-.028.113.148.148 0 0 1-.106.029h-.657a.143.143 0 0 1-.113-.035.185.185 0 0 1-.028-.113v-3.3c0-.177 0-.312-.015-.406a.121.121 0 0 1 .018-.109.209.209 0 0 1 .138-.032h.657a.206.206 0 0 1 .1.015c.014.009.021.035.021.078v.29a1.583 1.583 0 0 1 .378-.286.911.911 0 0 1 .448-.123 1.242 1.242 0 0 1 .639.176 1.224 1.224 0 0 1 .463.473 1.813 1.813 0 0 1 .212-.254 1.723 1.723 0 0 1 .258-.211 1.3 1.3 0 0 1 .3-.148.963.963 0 0 1 .328-.057 1.769 1.769 0 0 1 .579.091 1.252 1.252 0 0 1 .448.269 1.182 1.182 0 0 1 .29.434 1.592 1.592 0 0 1 .1.59v2.514a.148.148 0 0 1-.032.113.163.163 0 0 1-.109.029z" class="cls-2" transform="translate(-177.532 -197.62)"/>
            <path id="패스_12" d="M239.186 236.612a.421.421 0 0 1-.124-.011.326.326 0 0 1-.081-.067l-.749-.777c-.052 0-.106.009-.162.011s-.113 0-.17 0a2.478 2.478 0 0 1-1.045-.207 2.034 2.034 0 0 1-.752-.587 2.639 2.639 0 0 1-.456-.9 4.052 4.052 0 0 1-.155-1.158 4.107 4.107 0 0 1 .134-1.07 2.6 2.6 0 0 1 .431-.894 2.146 2.146 0 0 1 .8-.656 2.391 2.391 0 0 1 1.045-.227 2.3 2.3 0 0 1 1.049.227 2.334 2.334 0 0 1 .787.656 2.6 2.6 0 0 1 .367.678 3.345 3.345 0 0 1 .187.8 3.912 3.912 0 0 1 0 .851 3.676 3.676 0 0 1-.184.826 2.947 2.947 0 0 1-.367.724 2.108 2.108 0 0 1-.554.547l.989 1q.233.233-.064.233zm-.24-5.05a1.187 1.187 0 0 0-1.045-.614 1.132 1.132 0 0 0-.632.173 1.408 1.408 0 0 0-.434.452 2.131 2.131 0 0 0-.251.632 3.177 3.177 0 0 0-.081.714 3.109 3.109 0 0 0 .085.727 2.094 2.094 0 0 0 .258.629 1.381 1.381 0 0 0 .438.441 1.168 1.168 0 0 0 .632.166 1.138 1.138 0 0 0 .572-.145 1.323 1.323 0 0 0 .434-.406 1.978 1.978 0 0 0 .275-.622 3.083 3.083 0 0 0 .1-.791 3.14 3.14 0 0 0-.085-.735 1.948 1.948 0 0 0-.266-.62z" class="cls-2" transform="translate(-191.141 -195.733)"/>
            <path id="패스_13" d="M253.7 237.584a.172.172 0 0 1-.1-.021.1.1 0 0 1-.025-.078v-.269a.749.749 0 0 1-.166.18 1.172 1.172 0 0 1-.222.138 1.611 1.611 0 0 1-.247.091.87.87 0 0 1-.24.036 1.283 1.283 0 0 1-1.038-.41 1.756 1.756 0 0 1-.346-1.166v-2.344a.18.18 0 0 1 .028-.113.127.127 0 0 1 .106-.035h.65a.124.124 0 0 1 .113.045.206.206 0 0 1 .028.109v2.218a1.75 1.75 0 0 0 .039.406.711.711 0 0 0 .109.254.382.382 0 0 0 .173.135.649.649 0 0 0 .23.038.676.676 0 0 0 .526-.244 1.125 1.125 0 0 0 .215-.759v-2.055a.18.18 0 0 1 .028-.113.127.127 0 0 1 .106-.035h.657a.111.111 0 0 1 .109.049.25.25 0 0 1 .025.113v2.832c0 .141 0 .289.007.441s.007.289.007.406a.257.257 0 0 1-.018.12c-.012.019-.051.029-.117.029z" class="cls-2" transform="translate(-200.014 -197.7)"/>
            <path id="패스_14" d="M265.413 237.441a.151.151 0 0 1-.081-.014c-.012-.01-.018-.038-.018-.085v-.3a.932.932 0 0 1-.392.325 1.212 1.212 0 0 1-.54.135 1.938 1.938 0 0 1-.558-.081 1.04 1.04 0 0 1-.441-.254 1.236 1.236 0 0 1-.272-.417 1.455 1.455 0 0 1-.1-.554 1.276 1.276 0 0 1 .646-1.126 2.192 2.192 0 0 1 .7-.241 3.746 3.746 0 0 1 .89-.045q-.042-.559-.48-.615a1.177 1.177 0 0 0-.286.007 1.752 1.752 0 0 0-.282.067 2.511 2.511 0 0 0-.265.106 1.932 1.932 0 0 0-.226.124.48.48 0 0 1-.212.1c-.042 0-.064-.046-.064-.141v-.586a.337.337 0 0 1 .018-.13.211.211 0 0 1 .1-.081 3.586 3.586 0 0 1 .5-.2 2.211 2.211 0 0 1 .674-.091 1.438 1.438 0 0 1 1.077.367 1.58 1.58 0 0 1 .357 1.137V236.882c0 .075 0 .148.007.216s.006.128.011.18c.009.094 0 .146-.014.155a.248.248 0 0 1-.1.014zm-.1-1.949a3.781 3.781 0 0 0-.663.06 1.412 1.412 0 0 0-.42.145.486.486 0 0 0-.215.219.679.679 0 0 0-.057.282.452.452 0 0 0 .134.35.528.528 0 0 0 .374.124.753.753 0 0 0 .611-.279 1.444 1.444 0 0 0 .237-.901z" class="cls-2" transform="translate(-206.573 -197.557)"/>
            <path id="패스_15" d="M275.045 235.248a.113.113 0 0 1-.088-.028.184.184 0 0 1-.025-.113v-5.516a.2.2 0 0 1 .021-.113.111.111 0 0 1 .092-.029h.7a.124.124 0 0 1 .1.029.182.182 0 0 1 .025.113v5.516a.184.184 0 0 1-.025.113.124.124 0 0 1-.1.028z" class="cls-2" transform="translate(-213.255 -195.385)"/>
            <path id="패스_16" d="M281.892 230.844a.515.515 0 0 1-.388-.163.55.55 0 0 1-.155-.4.567.567 0 0 1 .152-.4.508.508 0 0 1 .392-.166.52.52 0 0 1 .4.166.563.563 0 0 1 .155.4.552.552 0 0 1-.155.4.524.524 0 0 1-.401.163zm-.36 4.562a.113.113 0 0 1-.088-.029.178.178 0 0 1-.025-.113v-3.68a.2.2 0 0 1 .021-.113.111.111 0 0 1 .092-.029h.7a.124.124 0 0 1 .1.029.179.179 0 0 1 .025.113v3.68a.182.182 0 0 1-.025.113.124.124 0 0 1-.1.029z" class="cls-2" transform="translate(-216.854 -195.537)"/>
            <path id="패스_17" d="M289.828 236.126a1.763 1.763 0 0 1-.339.109 1.731 1.731 0 0 1-.452.039.972.972 0 0 1-.474-.13.824.824 0 0 1-.311-.3 1.318 1.318 0 0 1-.12-.463c-.014-.172-.021-.394-.021-.667v-1.666h-.5c-.089 0-.134-.048-.134-.142v-.586q0-.141.134-.141h.5v-.939a.125.125 0 0 1 .141-.141h.65c.09 0 .135.046.135.141v.939h.6c.056 0 .093.01.109.032a.186.186 0 0 1 .024.109v.586a.185.185 0 0 1-.024.109.14.14 0 0 1-.109.032h-.6v1.995a.972.972 0 0 0 .014.209.211.211 0 0 0 .12.169.4.4 0 0 0 .2.022.975.975 0 0 0 .2-.05 1.354 1.354 0 0 0 .156-.063c.038-.019.065-.02.084 0a.153.153 0 0 1 .036.1l.064.53a.232.232 0 0 1-.007.1.129.129 0 0 1-.076.067z" class="cls-2" transform="translate(-220.294 -196.306)"/>
            <path id="패스_18" d="M297.651 237.719a1.684 1.684 0 0 1-.459.752.993.993 0 0 1-.657.23c-.052 0-.127 0-.226-.011a.947.947 0 0 1-.29-.068.38.38 0 0 1-.1-.059.136.136 0 0 1-.018-.1l.05-.579c0-.042.019-.068.042-.074a.145.145 0 0 1 .092.011 1.25 1.25 0 0 0 .2.053.844.844 0 0 0 .209.011.369.369 0 0 0 .105-.029.18.18 0 0 0 .085-.084c.052-.109.1-.214.145-.317s.088-.224.131-.36l-1.173-3.334c-.023-.071-.026-.116-.007-.135a.17.17 0 0 1 .113-.027h.671a.161.161 0 0 1 .088.017.18.18 0 0 1 .046.1l.7 2.246.7-2.246a.186.186 0 0 1 .046-.1.166.166 0 0 1 .089-.017h.685c.066 0 .105.011.117.035a.2.2 0 0 1-.018.134z" class="cls-2" transform="translate(-224.946 -197.7)"/>
            <path id="패스_19" d="M306.8 236.213a.094.094 0 0 1-.064-.024.077.077 0 0 1-.028-.06v-.706a.078.078 0 0 1 .028-.06.092.092 0 0 1 .064-.024h1.85a.09.09 0 0 1 .068.024.084.084 0 0 1 .024.06v.706a.082.082 0 0 1-.024.06.092.092 0 0 1-.068.024z" class="cls-2" transform="translate(-231.079 -198.675)"/>
            <path id="패스_20" d="M315.882 235.72a.263.263 0 0 1-.1-.015c-.024-.009-.035-.046-.035-.113v-5.156a.3.3 0 0 1 .017-.117c.012-.026.051-.039.117-.039h1.257a2.73 2.73 0 0 1 .717.088 1.554 1.554 0 0 1 .548.266 1.179 1.179 0 0 1 .349.448 1.508 1.508 0 0 1 .124.632 1.179 1.179 0 0 1-.053.349 1.279 1.279 0 0 1-.152.325 1.336 1.336 0 0 1-.24.276 1.421 1.421 0 0 1-.318.207 1.457 1.457 0 0 1 .378.205 1.389 1.389 0 0 1 .283.286 1.256 1.256 0 0 1 .177.335 1.1 1.1 0 0 1 .06.353 1.529 1.529 0 0 1-.508 1.236 2.338 2.338 0 0 1-1.539.431zm.813-2.43v1.575h.282a1.9 1.9 0 0 0 .523-.06.907.907 0 0 0 .328-.162.552.552 0 0 0 .172-.243.978.978 0 0 0 .049-.315.905.905 0 0 0-.053-.314.579.579 0 0 0-.184-.251.962.962 0 0 0-.354-.166 2.2 2.2 0 0 0-.554-.059zm.014-2.155v1.365h.31a1.378 1.378 0 0 0 .424-.056.7.7 0 0 0 .271-.156.551.551 0 0 0 .145-.229.911.911 0 0 0 .042-.286.824.824 0 0 0-.035-.243.469.469 0 0 0-.123-.2.671.671 0 0 0-.237-.137 1.1 1.1 0 0 0-.367-.053z" class="cls-2" transform="translate(-236.153 -195.85)"/>
            <path id="패스_21" d="M329.876 237.441a.155.155 0 0 1-.082-.014c-.011-.01-.017-.038-.017-.085v-.3a.931.931 0 0 1-.392.325 1.211 1.211 0 0 1-.54.135 1.948 1.948 0 0 1-.558-.081 1.048 1.048 0 0 1-.441-.254 1.254 1.254 0 0 1-.271-.417 1.463 1.463 0 0 1-.1-.554 1.276 1.276 0 0 1 .646-1.126 2.195 2.195 0 0 1 .7-.241 3.742 3.742 0 0 1 .889-.045q-.042-.559-.48-.615a1.173 1.173 0 0 0-.286.007 1.748 1.748 0 0 0-.283.067 2.511 2.511 0 0 0-.265.106 1.935 1.935 0 0 0-.226.124.479.479 0 0 1-.212.1c-.042 0-.063-.046-.063-.141v-.586a.345.345 0 0 1 .018-.13.21.21 0 0 1 .1-.081 3.576 3.576 0 0 1 .5-.2 2.212 2.212 0 0 1 .675-.091 1.437 1.437 0 0 1 1.077.367 1.578 1.578 0 0 1 .357 1.137V236.882c0 .075 0 .148.007.216s.006.128.011.18c.009.094 0 .146-.014.155a.247.247 0 0 1-.1.014zm-.1-1.949a3.787 3.787 0 0 0-.664.06 1.416 1.416 0 0 0-.42.145.485.485 0 0 0-.215.219.685.685 0 0 0-.057.282.452.452 0 0 0 .135.35.526.526 0 0 0 .374.124.752.752 0 0 0 .611-.279 1.445 1.445 0 0 0 .237-.901z" class="cls-2" transform="translate(-242.729 -197.557)"/>
            <path id="패스_22" d="M341.039 237.3a1.11 1.11 0 0 1-.416.2 2.36 2.36 0 0 1-.494.064 2.454 2.454 0 0 1-.29-.018c-.1-.011-.2-.026-.3-.042a2.363 2.363 0 0 1-.261-.06 1.645 1.645 0 0 1-.184-.064.4.4 0 0 1-.1-.06c-.017-.016-.022-.05-.018-.1l.057-.516c0-.056.016-.091.035-.105s.054-.012.106.007a4.37 4.37 0 0 0 .456.133 2.088 2.088 0 0 0 .49.057.491.491 0 0 0 .375-.128.444.444 0 0 0 .12-.317.385.385 0 0 0-.124-.264 1.659 1.659 0 0 0-.293-.244q-.17-.113-.346-.209c-.118-.063-.212-.116-.283-.158a1.315 1.315 0 0 1-.392-.364.871.871 0 0 1-.159-.519 1.263 1.263 0 0 1 .109-.547 1.1 1.1 0 0 1 .29-.378 1.19 1.19 0 0 1 .417-.219 1.675 1.675 0 0 1 .484-.071 2.23 2.23 0 0 1 .272.018c.1.011.188.027.275.046s.169.039.243.063a1.842 1.842 0 0 1 .177.064c.047.024.074.045.081.064a.181.181 0 0 1 0 .085l-.063.537c-.01.056-.026.088-.05.095a.178.178 0 0 1-.113-.024 1.644 1.644 0 0 0-.784-.163.471.471 0 0 0-.328.109.389.389 0 0 0-.1.286.33.33 0 0 0 .092.191 1.1 1.1 0 0 0 .325.241c.146.08.278.156.4.229s.207.131.269.173a1.724 1.724 0 0 1 .385.395.951.951 0 0 1 .131.53 1.281 1.281 0 0 1-.121.561 1.119 1.119 0 0 1-.37.422z" class="cls-2" transform="translate(-249.178 -197.575)"/>
            <path id="패스_23" d="M351.922 235.584a.269.269 0 0 1-.039.13.132.132 0 0 1-.117.045h-2.211a1.054 1.054 0 0 0 .3.7.922.922 0 0 0 .6.24 1.636 1.636 0 0 0 .569-.064 2.065 2.065 0 0 0 .469-.219c.067-.042.111-.054.135-.036s.035.069.035.148v.531a.224.224 0 0 1-.018.106.369.369 0 0 1-.082.077 1.48 1.48 0 0 1-.519.212 2.833 2.833 0 0 1-.618.07 1.713 1.713 0 0 1-1.338-.543 2.23 2.23 0 0 1-.491-1.547 2.946 2.946 0 0 1 .1-.749 2.011 2.011 0 0 1 .318-.674 1.757 1.757 0 0 1 .537-.487 1.456 1.456 0 0 1 .756-.187 1.589 1.589 0 0 1 .752.162 1.411 1.411 0 0 1 .5.438 1.82 1.82 0 0 1 .279.639 3.431 3.431 0 0 1 .085.773zm-1.6-1.427a.557.557 0 0 0-.276.071.794.794 0 0 0-.223.184 1.189 1.189 0 0 0-.166.261 1.029 1.029 0 0 0-.092.311H351a.977.977 0 0 0-.046-.289.958.958 0 0 0-.127-.265.686.686 0 0 0-.208-.194.558.558 0 0 0-.293-.079z" class="cls-2" transform="translate(-254.577 -197.557)"/>
            <path id="패스_24" d="M362.777 234.848a.809.809 0 0 1-.156.155 1.15 1.15 0 0 1-.215.135 1.481 1.481 0 0 1-.243.092.956.956 0 0 1-.254.035 1.408 1.408 0 0 1-1.2-.562 2.523 2.523 0 0 1-.42-1.543 3.063 3.063 0 0 1 .113-.865 1.945 1.945 0 0 1 .321-.654 1.42 1.42 0 0 1 .509-.413 1.546 1.546 0 0 1 .682-.145 1.1 1.1 0 0 1 .466.113 1.223 1.223 0 0 1 .388.275V229.5a.219.219 0 0 1 .022-.124c.014-.017.049-.025.106-.025h.671a.161.161 0 0 1 .106.025c.019.016.028.057.028.124v5.558c0 .066-.011.107-.032.123a.2.2 0 0 1-.117.025h-.652a.137.137 0 0 1-.1-.025.149.149 0 0 1-.024-.1zm-.763-2.917a.663.663 0 0 0-.565.3 2.188 2.188 0 0 0 .008 1.892.671.671 0 0 0 .558.29.592.592 0 0 0 .286-.074.707.707 0 0 0 .243-.226 1.287 1.287 0 0 0 .173-.388 2.081 2.081 0 0 0 .067-.562 2.341 2.341 0 0 0-.06-.572 1.121 1.121 0 0 0-.166-.379.66.66 0 0 0-.247-.211.68.68 0 0 0-.297-.07z" class="cls-2" transform="translate(-261.135 -195.331)"/>
            <path id="패스_25" d="M380.755 235.726c-.113 0-.181-.014-.2-.042a.41.41 0 0 1-.035-.219v-4.936a.407.407 0 0 1 .032-.205c.021-.028.086-.042.194-.042h2.514c.08 0 .125.014.134.042a.435.435 0 0 1 .014.128V231a.263.263 0 0 1-.021.13c-.015.022-.057.032-.127.032h-1.78v1.341h1.688c.075 0 .119.015.13.043a.331.331 0 0 1 .018.127v.551a.236.236 0 0 1-.025.131c-.016.021-.058.031-.124.031h-1.688v1.455h1.85c.075 0 .119.012.131.035a.322.322 0 0 1 .018.127v.551a.351.351 0 0 1-.018.131c-.012.026-.056.039-.131.039z" class="cls-2" transform="translate(-272.477 -195.85)"/>
            <path id="패스_26" d="M392.164 235.248a.115.115 0 0 1-.089-.028.185.185 0 0 1-.024-.113v-5.516a.2.2 0 0 1 .021-.113c.014-.019.044-.029.092-.029h.7a.123.123 0 0 1 .095.029.179.179 0 0 1 .025.113v5.516a.181.181 0 0 1-.025.113.123.123 0 0 1-.095.028z" class="cls-2" transform="translate(-278.94 -195.385)"/>
            <path id="패스_27" d="M401.665 235.584a.269.269 0 0 1-.04.13.13.13 0 0 1-.117.045H399.3a1.052 1.052 0 0 0 .3.7.923.923 0 0 0 .6.24 1.632 1.632 0 0 0 .568-.064 2.077 2.077 0 0 0 .47-.219c.066-.042.11-.054.134-.036s.035.069.035.148v.531a.219.219 0 0 1-.017.106.391.391 0 0 1-.081.077 1.493 1.493 0 0 1-.519.212 2.833 2.833 0 0 1-.618.07 1.714 1.714 0 0 1-1.339-.543 2.234 2.234 0 0 1-.49-1.547 2.908 2.908 0 0 1 .1-.749 2 2 0 0 1 .317-.674 1.769 1.769 0 0 1 .537-.487 1.458 1.458 0 0 1 .756-.187 1.589 1.589 0 0 1 .752.162 1.416 1.416 0 0 1 .5.438 1.8 1.8 0 0 1 .279.639 3.4 3.4 0 0 1 .085.773zm-1.6-1.427a.552.552 0 0 0-.275.071.77.77 0 0 0-.222.184 1.186 1.186 0 0 0-.166.261 1 1 0 0 0-.091.311h1.434a.951.951 0 0 0-.047-.289.922.922 0 0 0-.127-.265.681.681 0 0 0-.208-.194.559.559 0 0 0-.295-.079z" class="cls-2" transform="translate(-282.475 -197.557)"/>
            <path id="패스_28" d="M412.727 237.433a1.126 1.126 0 0 1-.194.064 2.359 2.359 0 0 1-.254.045 2.7 2.7 0 0 1-.286.022 2.345 2.345 0 0 1-.283-.011 2.139 2.139 0 0 1-.787-.2 1.8 1.8 0 0 1-.576-.441 1.858 1.858 0 0 1-.353-.64 2.558 2.558 0 0 1-.12-.8 2.386 2.386 0 0 1 .141-.834 1.93 1.93 0 0 1 .4-.657 1.77 1.77 0 0 1 .621-.427 2.074 2.074 0 0 1 .809-.153 3.883 3.883 0 0 1 .448.029 2.083 2.083 0 0 1 .448.1q.064.021.074.049a.25.25 0 0 1 0 .106l-.07.544a.2.2 0 0 1-.047.113c-.021.019-.067.016-.137-.007a1.5 1.5 0 0 0-.361-.081 2.328 2.328 0 0 0-.374-.018.939.939 0 0 0-.753.35 1.387 1.387 0 0 0-.265.886 1.358 1.358 0 0 0 .251.854.977.977 0 0 0 .7.374 1.682 1.682 0 0 0 .448.011 1.914 1.914 0 0 0 .392-.081c.075-.023.121-.029.137-.017s.027.043.032.095l.042.544a.212.212 0 0 1-.011.117.2.2 0 0 1-.072.064z" class="cls-2" transform="translate(-289.079 -197.592)"/>
            <path id="패스_29" d="M422.289 236.126a1.791 1.791 0 0 1-.791.148.973.973 0 0 1-.474-.13.825.825 0 0 1-.311-.3 1.308 1.308 0 0 1-.12-.463q-.021-.258-.022-.667v-1.666h-.5c-.09 0-.135-.048-.135-.142v-.586q0-.141.135-.141h.5v-.939a.125.125 0 0 1 .141-.141h.65c.09 0 .135.046.135.141v.939h.6c.056 0 .093.01.109.032a.185.185 0 0 1 .025.109v.586a.184.184 0 0 1-.025.109.14.14 0 0 1-.109.032h-.6v1.995a.944.944 0 0 0 .014.209.21.21 0 0 0 .12.169.4.4 0 0 0 .2.022.958.958 0 0 0 .2-.05 1.246 1.246 0 0 0 .155-.063c.038-.019.066-.02.085 0a.153.153 0 0 1 .035.1l.063.53a.22.22 0 0 1-.007.1.129.129 0 0 1-.073.067z" class="cls-2" transform="translate(-294.702 -196.306)"/>
            <path id="패스_30" d="M431.319 234.382a.884.884 0 0 0-.248-.066.47.47 0 0 0-.2.017.577.577 0 0 0-.272.184.888.888 0 0 0-.155.3 1.585 1.585 0 0 0-.067.354c-.01.122-.014.24-.014.353v1.823a.2.2 0 0 1-.025.116.125.125 0 0 1-.1.032h-.678c-.052 0-.084-.01-.1-.029a.248.248 0 0 1-.021-.127v-2.8q0-.226-.007-.473c0-.165-.007-.3-.007-.41a.178.178 0 0 1 .028-.12.155.155 0 0 1 .106-.028h.678c.071 0 .106.037.106.113v.269a1.452 1.452 0 0 1 .233-.262.608.608 0 0 1 .3-.155 1.115 1.115 0 0 1 .293-.018.426.426 0 0 1 .222.067.145.145 0 0 1 .045.053.232.232 0 0 1 .011.082v.614a.178.178 0 0 1-.029.113c-.018.022-.052.022-.099-.002z" class="cls-2" transform="translate(-300.001 -197.62)"/>
            <path id="패스_31" d="M440.722 236.893a1.677 1.677 0 0 1-.625.5 1.916 1.916 0 0 1-.809.166 1.857 1.857 0 0 1-.816-.17 1.726 1.726 0 0 1-.586-.456 1.95 1.95 0 0 1-.357-.667 2.659 2.659 0 0 1-.12-.806 2.739 2.739 0 0 1 .117-.805 1.9 1.9 0 0 1 .354-.667 1.677 1.677 0 0 1 .589-.452 1.9 1.9 0 0 1 .819-.166 1.872 1.872 0 0 1 .819.17 1.713 1.713 0 0 1 .59.455 1.964 1.964 0 0 1 .357.664 2.737 2.737 0 0 1 0 1.589 1.983 1.983 0 0 1-.332.645zm-1.434-2.7a.766.766 0 0 0-.41.109.95.95 0 0 0-.293.286 1.347 1.347 0 0 0-.177.4 1.828 1.828 0 0 0 0 .933 1.41 1.41 0 0 0 .177.406.924.924 0 0 0 .293.289.758.758 0 0 0 .41.109.768.768 0 0 0 .416-.109.915.915 0 0 0 .293-.289 1.359 1.359 0 0 0 .173-.406 1.9 1.9 0 0 0 .057-.467 1.872 1.872 0 0 0-.057-.459 1.359 1.359 0 0 0-.173-.406.923.923 0 0 0-.293-.29.776.776 0 0 0-.415-.104z" class="cls-2" transform="translate(-304.462 -197.575)"/>
            <path id="패스_32" d="M451.357 237.339a.168.168 0 0 1-.027.113.15.15 0 0 1-.106.029h-.657a.142.142 0 0 1-.113-.035.182.182 0 0 1-.029-.113v-2.761-.544a2.808 2.808 0 0 0-.017-.416c-.01-.052-.005-.085.014-.1a.247.247 0 0 1 .127-.022h.672a.2.2 0 0 1 .1.015c.015.009.022.035.022.078v.268a1.616 1.616 0 0 1 .384-.286.992.992 0 0 1 .485-.13 1.256 1.256 0 0 1 1.035.4 1.815 1.815 0 0 1 .328 1.172v2.33a.162.162 0 0 1-.029.113.15.15 0 0 1-.106.029h-.657c-.094 0-.141-.05-.141-.148v-2.183q0-.853-.516-.854a.711.711 0 0 0-.565.234.928.928 0 0 0-.205.635z" class="cls-2" transform="translate(-311.721 -197.611)"/>
            <path id="패스_33" d="M462.993 230.844a.515.515 0 0 1-.389-.163.55.55 0 0 1-.155-.4.569.569 0 0 1 .152-.4.509.509 0 0 1 .392-.166.519.519 0 0 1 .4.166.562.562 0 0 1 .155.4.552.552 0 0 1-.155.4.522.522 0 0 1-.4.163zm-.361 4.562a.112.112 0 0 1-.088-.029.181.181 0 0 1-.025-.113v-3.68a.2.2 0 0 1 .022-.113c.014-.019.044-.029.091-.029h.7a.124.124 0 0 1 .1.029.18.18 0 0 1 .024.113v3.68a.182.182 0 0 1-.024.113.124.124 0 0 1-.1.029z" class="cls-2" transform="translate(-318.448 -195.537)"/>
            <path id="패스_34" d="M471.863 237.433a1.138 1.138 0 0 1-.194.064 2.338 2.338 0 0 1-.254.045 2.682 2.682 0 0 1-.286.022 2.329 2.329 0 0 1-.282-.011 2.141 2.141 0 0 1-.788-.2 1.8 1.8 0 0 1-.575-.441 1.867 1.867 0 0 1-.354-.64 2.556 2.556 0 0 1-.12-.8 2.365 2.365 0 0 1 .141-.834 1.922 1.922 0 0 1 .4-.657 1.772 1.772 0 0 1 .621-.427 2.076 2.076 0 0 1 .809-.153 3.9 3.9 0 0 1 .449.029 2.114 2.114 0 0 1 .448.1q.064.021.074.049a.308.308 0 0 1 0 .106l-.071.544a.2.2 0 0 1-.045.113c-.022.019-.067.016-.138-.007a1.492 1.492 0 0 0-.36-.081 2.33 2.33 0 0 0-.374-.018.937.937 0 0 0-.752.35 1.389 1.389 0 0 0-.265.886 1.359 1.359 0 0 0 .251.854.979.979 0 0 0 .7.374 1.685 1.685 0 0 0 .449.011 1.909 1.909 0 0 0 .392-.081c.075-.023.122-.029.138-.017s.026.043.032.095l.042.544a.237.237 0 0 1-.011.117.2.2 0 0 1-.077.064z" class="cls-2" transform="translate(-322.112 -197.592)"/>
        </g>
    </g>
</svg>
