<?xml version="1.0" encoding="UTF-8"?>
<svg xmlns="http://www.w3.org/2000/svg" width="135" height="32" version="1.1" xmlns:xlink="http://www.w3.org/1999/xlink" viewBox="0 0 135 32">
  <defs>
    <style>
      .cls-1 {
        fill: none;
      }

      .cls-2 {
        clip-path: url(#clippath);
      }
    </style>
    <clipPath id="clippath">
      <rect class="cls-1" width="135" height="32"/>
    </clipPath>
  </defs>
  <!-- Generator: Adobe Illustrator 28.7.0, SVG Export Plug-In . SVG Version: 1.2.0 Build 136)  -->
  <g>
    <g id="Layer_1">
      <g class="cls-2">
        <g>
          <path d="M39.6,15.3c3.1,0,4.9,1.9,4,5.1-.8,3.1-3.4,4.9-6.4,4.9h-8.5l.9-3.3h7.5c1.5,0,2.7-.1,3.1-1.6.4-1.4-.6-1.6-2-1.6h-2.2c-3.7,0-5.7-1.5-4.7-5.3.7-2.7,3.3-5.1,6.2-5.1h7.7l-.9,3.5h-6.3c-1.4,0-2.6.2-3,1.7-.2.9.2,1.6,1.3,1.6h3.4s0,0,0,0Z"/>
          <path d="M66.6,8.5h3.5l-4.5,16.9h-3.5l4.5-16.9Z"/>
          <path d="M59.4,8.5l-1.8,6.7h-6.3l1.8-6.7h-3.5l-4.5,16.9h3.5l1.8-6.8h6.3l-1.8,6.8h3.5l4.5-16.9h-3.5Z"/>
          <path d="M75.6,14.7l-2.9,10.7h-3.3l4.5-16.9h3.3l3.4,10.8,2.9-10.8h3.3l-4.5,16.9h-3.3l-3.5-10.7Z"/>
          <path d="M113.5,15.3c3.1,0,4.9,1.9,4,5.1-.8,3.1-3.4,4.9-6.4,4.9h-8.5l.9-3.3h7.5c1.5,0,2.7-.1,3.1-1.6.4-1.4-.6-1.6-2-1.6h-2.2c-3.7,0-5.7-1.5-4.7-5.3.7-2.7,3.3-5.1,6.2-5.1h7.7l-.9,3.5h-6.3c-1.4,0-2.6.2-3,1.7-.2.9.2,1.6,1.3,1.6h3.4s0,0,0,0Z"/>
          <path d="M126,11.8h-4.8l.9-3.3h12.9l-.9,3.3h-4.8l-3.6,13.6h-3.3l3.6-13.6Z"/>
          <path d="M88.7,14.9l-2.8,10.5h12.8l.8-3h-9.3l1.2-4.5h9.3l.8-3h-12.8Z"/>
          <path d="M90.4,8.5h12.8l-.8,3h-12.8l.8-3Z"/>
          <path d="M25.6,2.6c-2.7-3.1-7.5-3.5-10.7-.9l-6.9,5.6c-1.6,1.3-2.5,3-2.7,5-.2,2,.4,3.8,1.7,5.3,1.3,1.5,3.1,2.4,5.1,2.6.2,0,.5,0,.7,0,1.8,0,4.3-1.5,5.7-2.6-.1-.5-.3-1-.7-1.5-.4-.4-.8-.7-1.4-.9-.9.7-2.9,1.9-4,1.8-1.2-.1-2.2-.6-2.9-1.5-1.5-1.8-1.3-4.4.5-5.9l6.9-5.6c1.8-1.5,4.6-1.3,6.1.5.7.9,1.1,1.9,1,3.1-.1,1.1-.6,2.1-1.5,2.8l-3.6,2.9c.4.3.8.7,1.2,1.1.4.4.7.9.9,1.3l3.6-2.9c3.2-2.6,3.6-7.2.9-10.3"/>
          <path d="M20.2,14.4c-1.4-1.7-3.6-2.6-5.8-2.6s-4.2,1.4-5.6,2.4c.1.5.3,1,.7,1.5.4.4.8.7,1.4.9.8-.6,2.5-1.7,3.5-1.7s2.5.5,3.3,1.5c.7.9,1.1,1.9,1,3.1-.1,1.1-.6,2.1-1.5,2.8l-6.9,5.6c-.8.6-1.8,1-2.8,1s-2.5-.5-3.3-1.5c-.7-.9-1.1-1.9-1-3.1.1-1.1.6-2.1,1.5-2.8l3.6-3c-.4-.3-.8-.7-1.2-1.1-.4-.4-.7-.8-.9-1.3l-3.6,3C1.2,20.3.2,22.1,0,24c-.2,2,.4,3.8,1.7,5.3,1.4,1.7,3.6,2.6,5.8,2.6s3.5-.6,4.9-1.7l6.9-5.6c3.2-2.6,3.6-7.2.9-10.3"/>
        </g>
      </g>
    </g>
  </g>
</svg>