<svg xmlns="http://www.w3.org/2000/svg" width="217.503" height="60">
    <defs>
        <style>
            .cls-1{fill:#404040}.cls-3{fill:#adadad}
        </style>
    </defs>
    <g id="그룹_1496" data-name="그룹 1496" transform="translate(-340 -65)">
        <path id="패스_10923" data-name="패스 10923" class="cls-1" d="M370.93 102.338a12.062 12.062 0 0 1-2.963-.326 15.086 15.086 0 0 1-2.373-.809v-3.49h.336a8.281 8.281 0 0 0 2.436 1.439 7.278 7.278 0 0 0 2.584.5 6.642 6.642 0 0 0 .834-.069 2.889 2.889 0 0 0 .834-.217 1.837 1.837 0 0 0 .65-.469 1.152 1.152 0 0 0 .267-.792 1.094 1.094 0 0 0-.435-.9 2.778 2.778 0 0 0-1.035-.5c-.5-.132-1.035-.257-1.6-.375a13.5 13.5 0 0 1-1.592-.433 4.954 4.954 0 0 1-2.445-1.619 4.2 4.2 0 0 1-.74-2.543 3.951 3.951 0 0 1 1.747-3.339 7.181 7.181 0 0 1 4.357-1.277 12.906 12.906 0 0 1 2.609.266 11.443 11.443 0 0 1 2.322.72v3.355h-.325a7.328 7.328 0 0 0-2-1.184 6.323 6.323 0 0 0-2.422-.482 5.072 5.072 0 0 0-.868.068 3.387 3.387 0 0 0-.808.266 1.653 1.653 0 0 0-.6.47 1.074 1.074 0 0 0-.252.695 1.1 1.1 0 0 0 .4.893 4.049 4.049 0 0 0 1.545.6l1.424.327a13.008 13.008 0 0 1 1.465.434 4.991 4.991 0 0 1 2.272 1.483 3.823 3.823 0 0 1 .746 2.461 4.234 4.234 0 0 1-1.721 3.52 7.411 7.411 0 0 1-4.651 1.332"/>
        <path id="패스_10924" data-name="패스 10924" class="cls-1" d="M383.722 102.338a12.085 12.085 0 0 1-2.965-.326 15.014 15.014 0 0 1-2.37-.809v-3.49h.335a8.218 8.218 0 0 0 2.436 1.439 7.272 7.272 0 0 0 2.582.5 6.543 6.543 0 0 0 .833-.069 2.887 2.887 0 0 0 .835-.217 1.81 1.81 0 0 0 .65-.469 1.142 1.142 0 0 0 .267-.792 1.092 1.092 0 0 0-.433-.9 2.78 2.78 0 0 0-1.037-.5q-.749-.2-1.6-.375a13.571 13.571 0 0 1-1.593-.433 4.959 4.959 0 0 1-2.445-1.619 4.205 4.205 0 0 1-.741-2.543 3.953 3.953 0 0 1 1.747-3.339 7.185 7.185 0 0 1 4.359-1.277 12.913 12.913 0 0 1 2.609.266 11.5 11.5 0 0 1 2.322.72v3.355h-.326a7.337 7.337 0 0 0-2-1.184 6.334 6.334 0 0 0-2.422-.482 5.047 5.047 0 0 0-.868.068 3.358 3.358 0 0 0-.808.266 1.643 1.643 0 0 0-.6.47 1.073 1.073 0 0 0-.251.695 1.1 1.1 0 0 0 .4.893 4.065 4.065 0 0 0 1.544.6l1.425.327a12.949 12.949 0 0 1 1.465.434 4.98 4.98 0 0 1 2.272 1.483 3.823 3.823 0 0 1 .745 2.461 4.231 4.231 0 0 1-1.72 3.52 7.41 7.41 0 0 1-4.65 1.332"/>
        <path id="패스_10925" data-name="패스 10925" d="M399.619 91.885a1.983 1.983 0 0 0-.213-.952 1.392 1.392 0 0 0-.7-.617 2.611 2.611 0 0 0-.77-.188 11.944 11.944 0 0 0-1.055-.037h-1.231v3.953h1.05a7.791 7.791 0 0 0 1.306-.093 1.961 1.961 0 0 0 .913-.4 1.724 1.724 0 0 0 .527-.661 2.465 2.465 0 0 0 .173-1m5.936 10.187h-4.5l-4.094-5.386h-1.319v5.386h-3.669v-14.69h5.906a12.855 12.855 0 0 1 2.13.153 4.6 4.6 0 0 1 1.678.636 3.825 3.825 0 0 1 1.25 1.278 3.765 3.765 0 0 1 .465 1.966 4.558 4.558 0 0 1-.76 2.736 5.312 5.312 0 0 1-2.031 1.673z" style="fill:#9c3324"/>
        <path id="패스_10926" data-name="패스 10926" class="cls-3" d="M370.254 118.69a23.985 23.985 0 0 1-23.944-23.263H340a30.266 30.266 0 0 0 58.81 9.35H392a23.985 23.985 0 0 1-21.743 13.913"/>
        <path id="패스_10927" data-name="패스 10927" class="cls-3" d="M392 84.682h6.813A30.316 30.316 0 0 0 375.956 65v6.468A24.056 24.056 0 0 1 392 84.682"/>
        <path id="패스_10928" data-name="패스 10928" class="cls-3" d="M370.254 109.608a14.9 14.9 0 0 1-14.862-14.181c-.01-.231-.018-.464-.018-.7a14.871 14.871 0 0 1 25.841-10.047h7.7a21.192 21.192 0 0 0-39.849 10.047c0 .234.01.465.017.7a21.188 21.188 0 0 0 39.832 9.349h-7.7a14.83 14.83 0 0 1-10.961 4.832"/>
        <path id="패스_10929" data-name="패스 10929" class="cls-1" d="M418.247 104.842h-1.991a41.773 41.773 0 0 1-2.329-4.05 14.123 14.123 0 0 1 0-11.6 39.267 39.267 0 0 1 2.329-4.038h1.991a23.03 23.03 0 0 0-2.3 5.165 16.058 16.058 0 0 0 0 9.333 23.413 23.413 0 0 0 2.3 5.186"/>
        <path id="패스_10930" data-name="패스 10930" class="cls-1" d="M436.975 94.492a18.29 18.29 0 0 1-3.5-1.17 9.923 9.923 0 0 1-3.2-2.252 6.514 6.514 0 0 1-2.663 2.1 14.661 14.661 0 0 1-4.028 1.343l-1.684-2.079a13.608 13.608 0 0 0 4.212-1.407 4.349 4.349 0 0 0 2.5-2.448h-5.761v-2.467h14.813v2.467h-5.718a4.953 4.953 0 0 0 2.744 2.521 15.459 15.459 0 0 0 3.974 1.331zm-5.24 3.854v6.128h-2.924v-6.128h-8.077v-2.49h19.057v2.49z"/>
        <path id="패스_10931" data-name="패스 10931" class="cls-1" d="M444.377 99.656a16.058 16.058 0 0 0 0-9.333 22.519 22.519 0 0 0-2.317-5.165h2.014a37.912 37.912 0 0 1 2.317 4.039 14.227 14.227 0 0 1 0 11.6 40.671 40.671 0 0 1-2.317 4.05h-2.014a22.913 22.913 0 0 0 2.317-5.187"/>
        <path id="패스_10932" data-name="패스 10932" class="cls-1" d="M469.586 104.474h-2.794V85.418h2.794zM458.3 94.167a10.1 10.1 0 0 0-.455-3.281c-.3-.873-.708-1.31-1.212-1.31q-.8 0-1.246 1.3a10.372 10.372 0 0 0-.442 3.292 10.519 10.519 0 0 0 .442 3.281q.444 1.331 1.246 1.331c.5 0 .91-.44 1.212-1.321a10.2 10.2 0 0 0 .455-3.291m7.212 9.409H462.7v-8.468h-1.646a8.427 8.427 0 0 1-1.385 4.581 3.663 3.663 0 0 1-6.258-.261 9.6 9.6 0 0 1-1.234-5.272 9.686 9.686 0 0 1 1.234-5.262 3.688 3.688 0 0 1 3.2-1.928 3.551 3.551 0 0 1 2.869 1.441 7.768 7.768 0 0 1 1.482 3.93h1.738V85.85h2.816z"/>
        <path id="패스_10933" data-name="패스 10933" class="cls-1" d="M512.9 104.474h-2.8V85.418h2.8zm-11.287-10.307a10.133 10.133 0 0 0-.454-3.281q-.455-1.31-1.212-1.31-.8 0-1.247 1.3a10.369 10.369 0 0 0-.443 3.292 10.516 10.516 0 0 0 .443 3.281q.445 1.331 1.247 1.331.756 0 1.212-1.321a10.228 10.228 0 0 0 .454-3.291m7.211 9.409h-2.814v-8.468h-1.647a8.419 8.419 0 0 1-1.385 4.581 3.663 3.663 0 0 1-6.258-.261 9.6 9.6 0 0 1-1.235-5.272 9.677 9.677 0 0 1 1.235-5.262 3.689 3.689 0 0 1 3.2-1.928 3.551 3.551 0 0 1 2.869 1.441 7.759 7.759 0 0 1 1.483 3.93h1.733V85.85h2.814z"/>
        <path id="사각형_1105" data-name="사각형 1105" class="cls-1" transform="translate(473.116 99.861)" d="M0 0h19.056v2.469H0z"/>
        <path id="사각형_1106" data-name="사각형 1106" class="cls-1" transform="translate(516.426 99.861)" d="M0 0h19.056v2.469H0z"/>
        <path id="패스_10934" data-name="패스 10934" class="cls-1" d="M557.5 91.545h-2.576v3.747h-2.881v-9.874h2.881v3.638h2.576zm-10.52-1.168a1.9 1.9 0 0 0-.758-1.526 2.725 2.725 0 0 0-1.776-.619 2.672 2.672 0 0 0-1.754.629 1.908 1.908 0 0 0-.758 1.516 1.975 1.975 0 0 0 .758 1.57 2.634 2.634 0 0 0 1.754.638 2.663 2.663 0 0 0 1.776-.638 1.978 1.978 0 0 0 .758-1.57m8.356 13.881H541.3v-5.112h10.512v-1H541.3v-2.139h13.631v5.046H544.38v.974h10.959zm-5.5-13.838a4.093 4.093 0 0 1-1.635 3.357 6.055 6.055 0 0 1-7.481.011 4.265 4.265 0 0 1-.011-6.725 6.133 6.133 0 0 1 7.492 0 4.059 4.059 0 0 1 1.635 3.357"/>
        <path id="패스_10935" data-name="패스 10935" class="cls-1" d="M484.818 90.767a7.994 7.994 0 0 0 1.611 2.208 10.447 10.447 0 0 0 2.309 1.7 10.23 10.23 0 0 0 2.693 1.025q-.519.519-1 1.093t-.823.979a12.041 12.041 0 0 1-1.938-.8 13.1 13.1 0 0 1-1.916-1.205 13.9 13.9 0 0 1-1.734-1.511 8.788 8.788 0 0 1-1.351-1.78 9.538 9.538 0 0 1-2.942 3.291 14.9 14.9 0 0 1-3.953 2.027q-.339-.406-.834-.969a39.172 39.172 0 0 0-1.081-1.172 14 14 0 0 0 2.8-1.092 9.682 9.682 0 0 0 2.31-1.656 7.38 7.38 0 0 0 1.566-2.141 5.882 5.882 0 0 0 .575-2.591q0-.428-.023-.924c-.016-.33-.037-.645-.067-.946h3.289a7.171 7.171 0 0 0-.079.946q-.012.519-.012.924a5.793 5.793 0 0 0 .6 2.591"/>
        <path id="사각형_1108" data-name="사각형 1108" class="cls-1" transform="translate(516.426 99.861)" d="M0 0h19.056v2.469H0z"/>
        <path id="패스_10936" data-name="패스 10936" class="cls-1" d="M528.127 90.767a7.993 7.993 0 0 0 1.611 2.208 10.465 10.465 0 0 0 2.308 1.7 10.257 10.257 0 0 0 2.693 1.025q-.518.519-1 1.093t-.824.979a12.078 12.078 0 0 1-1.938-.8 13.089 13.089 0 0 1-1.915-1.205 13.832 13.832 0 0 1-1.734-1.511 8.831 8.831 0 0 1-1.352-1.78 9.518 9.518 0 0 1-2.942 3.291 14.87 14.87 0 0 1-3.954 2.033q-.338-.406-.833-.969a37.965 37.965 0 0 0-1.082-1.172 14.019 14.019 0 0 0 2.806-1.092 9.737 9.737 0 0 0 2.309-1.656 7.38 7.38 0 0 0 1.566-2.141 5.9 5.9 0 0 0 .574-2.591q0-.428-.022-.924c-.017-.33-.038-.645-.067-.946h3.289a7 7 0 0 0-.079.946c-.009.346-.012.654-.012.924a5.806 5.806 0 0 0 .6 2.591"/>
    </g>
</svg>
