<?xml version="1.0" encoding="UTF-8"?>
<svg id="_레이어_2" data-name="레이어 2" xmlns="http://www.w3.org/2000/svg" viewBox="0 0 256.6 28.43">
  <defs>
    <style>
      .cls-1 {
        fill: #ed1a2e;
      }

      .cls-2 {
        fill: #7f2629;
      }

      .cls-3 {
        fill: #0071ce;
      }

      .cls-4 {
        fill: #0a1f8f;
      }
    </style>
  </defs>
  <g id="Layer_1" data-name="Layer 1">
    <g>
      <g>
        <path class="cls-1" d="M61.31,19.24c-2.27,2.24-4.96,2.7-8.3,2.7h-28.61c-2.28,0-4.3-1.84-5.24-4.43h-7.43c1.35,6.25,6.52,10.92,12.68,10.92h28.61c4.07,0,9.29-.55,13.63-4.81l4.68-4.61-4.89-4.81c-2.79,2.75-5.12,5.04-5.12,5.04Z"/>
        <path class="cls-1" d="M24.4,6.58h18.65c.82,0,1.74.91,1.74,2.21s-.92,2.22-1.74,2.22h-23.89c-.36.99-.57,2.1-.57,3.25s.21,2.25.57,3.25h23.89c4.94,0,8.96-3.91,8.96-8.71S47.99.08,43.05.08h-18.65C18.25.08,13.08,4.75,11.73,11.01h7.43c.94-2.59,2.96-4.43,5.24-4.43Z"/>
        <path class="cls-2" d="M18.59,14.25c0-1.15.21-2.25.57-3.25h-7.43c-.23,1.04-.35,2.13-.35,3.25s.12,2.2.35,3.25h7.43c-.36-1-.57-2.1-.57-3.25Z"/>
        <path class="cls-1" d="M11.73,11.01H3.61c-1.99,0-3.61,1.45-3.61,3.25s1.62,3.25,3.61,3.25h8.12c-.23-1.05-.35-2.13-.35-3.25s.12-2.2.35-3.25Z"/>
        <path class="cls-1" d="M81.21,9.27c2.27-2.24,4.96-2.7,8.3-2.7h2.38c1.99,0,3.61-1.45,3.61-3.25s-1.62-3.25-3.61-3.25h-2.38c-4.07,0-9.3.55-13.63,4.81,0,0-2.03,1.99-4.57,4.5l4.89,4.81,5-4.92Z"/>
        <path class="cls-3" d="M66.17,4.33c-2.06-2.03-4.63-3.58-7.48-4.15-1.94-.39-3.91.53-4.44,2.26-.53,1.73.59,3.52,2.51,4,1.62.4,2.92,1.13,4.08,2.27l5.59,5.49c1.59-1.57,3.34-3.28,4.89-4.81l-5.15-5.06Z"/>
        <path class="cls-3" d="M91.94,21.88h-2.38c-3.34,0-6.03-.46-8.3-2.7l-5.05-4.98-4.89,4.81,4.61,4.55c4.33,4.26,9.56,4.81,13.62,4.81h2.38c1.99,0,3.61-1.45,3.61-3.25s-1.62-3.25-3.61-3.25Z"/>
        <path class="cls-4" d="M71.32,9.39c-1.55,1.53-3.3,3.24-4.89,4.81l4.89,4.81,4.89-4.81-4.89-4.81Z"/>
      </g>
      <g>
        <g>
          <polygon class="cls-4" points="253.52 .92 249.81 .92 249.81 27.27 253.52 27.27 253.52 11.53 256.6 11.53 256.6 8.98 253.52 8.98 253.52 .92"/>
          <path class="cls-4" d="M242.01,6.58V1.13h-3.7v5.44c0,4.45-1.78,8.14-5.92,10.73l1.63,2.1c2.75-1.44,4.8-3.62,6.15-5.99,1.34,2.36,3.4,4.54,6.14,5.99l1.63-2.1c-4.15-2.59-5.93-6.28-5.93-10.73Z"/>
        </g>
        <g>
          <polygon class="cls-4" points="130.73 7.83 130.73 .92 127.03 .92 127.03 20.11 130.73 20.11 130.73 10.38 133.81 10.38 133.81 7.83 130.73 7.83"/>
          <path class="cls-4" d="M123.74,9.7c0-2.01-.95-3.7-2.43-4.8h2.59v-2.56h-5.18V0h-3.71v2.33h-5.18v2.56h2.68c-1.48,1.11-2.43,2.79-2.43,4.8,0,3.62,3.06,6.56,6.83,6.56s6.83-2.94,6.83-6.56ZM113.79,9.7c0-2.25,1.4-4.08,3.12-4.08s3.12,1.82,3.12,4.08-1.4,4.08-3.12,4.08-3.12-1.83-3.12-4.08Z"/>
          <path class="cls-4" d="M130.93,27.19v-2.56h-13.88v-5.72h-3.7v6.1c0,1.13.89,2.18,2.33,2.18h15.26Z"/>
        </g>
        <path class="cls-4" d="M163.07,1.27v11.6c0,1.13.89,2.19,2.33,2.19h4.76v7.71h-8.45v2.56h20.61v-2.56h-8.45v-7.71h6.67v-2.56h-13.76V3.83h13.76V1.27h-17.47Z"/>
        <path class="cls-4" d="M148.73,17.36v-4.42h8.84v-2.56h-1.86V3.46c0-1.13-.9-2.19-2.33-2.19h-15.9v2.56h14.52v6.55h-15.82v2.56h8.84v4.42h-7.54v2.56h14.52v7.35h3.71v-9.91h-6.98Z"/>
        <path class="cls-4" d="M186.91,14.43c0,1.13.89,2.19,2.33,2.19h4.96v6.15h-8.65v2.56h21v-2.56h-8.65v-6.15h6.87v-2.56h-14.16v-3.66h14.16V3.46c0-1.13-.89-2.19-2.33-2.19h-15.53v2.56h14.15v4.01h-14.15v6.59Z"/>
        <g>
          <path class="cls-4" d="M210.99,1.27v2.56h14.33v8.4h-5.17v-4.98h-3.71v4.98h-7.34v2.56h22.17v-2.56h-2.25V3.46c0-1.13-.9-2.19-2.33-2.19h-15.7Z"/>
          <path class="cls-4" d="M220.07,16.18c-4.38,0-7.93,2.72-7.93,6.08s3.55,6.08,7.93,6.08,7.93-2.72,7.93-6.08-3.55-6.08-7.93-6.08ZM220.07,25.85c-2.34,0-4.23-1.61-4.23-3.59s1.89-3.59,4.23-3.59,4.23,1.61,4.23,3.59-1.89,3.59-4.23,3.59Z"/>
        </g>
      </g>
    </g>
  </g>
</svg>