<?xml version="1.0" encoding="UTF-8"?>
<svg id="_레이어_2" data-name="레이어 2" xmlns="http://www.w3.org/2000/svg" viewBox="0 0 234.74 98.38">
  <defs>
    <style>
      .cls-1 {
        fill: #262626;
      }

      .cls-2 {
        fill: #ed7100;
      }

      .cls-3 {
        fill: #fff;
      }

      .cls-4 {
        fill: #e2e2e3;
      }

      .cls-5 {
        fill: #f49c00;
      }
    </style>
  </defs>
  <g id="_레이어_1-2" data-name="레이어 1">
    <g>
      <path class="cls-3" d="M52.78,73.9c-19.91-10.54-34.17-5.76-41.24-2.45-.91.43-1.86.9-1.86.9,0,0,.46-1,1.24-2.64,6.36-13.5,5.98-22.09,5.25-28.08-.1-.89-.33-2.3-.33-2.3,0,0,1.36.08,2.35.09,6.6.21,11.87-.69,20.58-4.31,8.39-3.49,16.76-11.17,16.76-11.17-8.08,19.65-4.18,35.89-.77,44.84,1.63,4.28,3.69,8.23,3.69,8.23,0,0-1.67-.92-5.64-3.1Z"/>
      <g>
        <g>
          <path class="cls-4" d="M61.48,45.43C61.99,23,79.58,2.45,72.71.17c-7.96-2.65-27.77,27.35-44.62,33.14-8.56,2.95-15.41-2.76-18.17.66-2.73,3.38,3.07,8.97,1.36,20.12-1.79,11.8-13.51,24.81-10.91,28.17,2.71,3.48,11.21-7.9,23.58-7.84,16.22.07,48.57,31.53,56.54,22.24,7.65-8.92-19.48-30.63-19.02-51.24ZM63.96,88.79c-17.15-9-27.19-17.35-37.45-17.56-10.33-.22-17.83,5.52-21.32,7.5-1.88,1.07-2.2-.69-1.17-2.72,3.51-6.9,7.65-14.09,8.85-20.48,1.76-9.3-.88-14.27-1.11-17.22-.17-2.07,1.42-2.88,2.42-2.87,5.16.06,9.43,2.03,18.01-2.17,14.46-7.07,22.01-17.35,30.36-24.47,5.84-4.98,7.66-2.58,5.65,1.66-5.11,10.7-9.6,20.24-9.95,33.99-.46,17.29,10.09,29.49,13.7,38.89,2.83,7.35-1.22,9-7.98,5.45Z"/>
          <path class="cls-2" d="M58.23,44.45c.35-13.75,4.84-23.29,9.95-33.99,2.01-4.23.19-6.64-5.65-1.66-8.35,7.11-15.9,17.39-30.36,24.47-8.57,4.2-12.85,2.23-18.01,2.17-.99,0-2.59.8-2.42,2.87.24,2.94,2.88,7.92,1.11,17.22-1.19,6.39-5.34,13.58-8.85,20.48-1.03,2.02-.71,3.79,1.17,2.72,3.5-1.99,10.99-7.72,21.32-7.5,10.26.21,20.3,8.56,37.45,17.56,6.76,3.55,10.81,1.91,7.98-5.45-3.61-9.41-14.16-21.6-13.7-38.89Z"/>
        </g>
        <path class="cls-3" d="M52.72,73.85c-19.94-10.54-34.21-5.76-41.29-2.45-.92.43-1.87.9-1.87.9,0,0,.46-1,1.24-2.64,6.37-13.5,5.99-22.09,5.25-28.08-.1-.89-.33-2.3-.33-2.3,0,0,1.36.08,2.35.09,6.61.21,11.89-.69,20.6-4.31,8.4-3.49,16.78-11.17,16.78-11.17-8.09,19.65-4.18,35.89-.77,44.84,1.63,4.28,3.69,8.23,3.69,8.23,0,0-1.67-.92-5.64-3.1Z"/>
      </g>
      <g>
        <g>
          <g>
            <path class="cls-1" d="M81.86,61.64c1.05-.39,2.18-1.1,3.08-1.98.89-.86,1.53-1.9,1.67-2.96h-4.12v-1.37h5.94c-.11,1.81-.78,3.31-1.77,4.54-1.07,1.3-2.48,2.25-3.97,2.86l-.82-1.08ZM90.6,65.82v-1.24h-5.64v-1.28h7.22v3.76h-5.63v1.34h5.92v1.34h-7.51v-3.91h5.64ZM90.89,54.67h1.46v7.85h-1.46v-7.85Z"/>
            <path class="cls-1" d="M98.24,55.31c1.92,0,3.49,1.78,3.49,3.96s-1.57,3.96-3.49,3.96-3.47-1.78-3.47-3.96,1.55-3.96,3.47-3.96ZM98.24,56.78c-1.14,0-2,1.1-2,2.49s.85,2.48,2,2.48,2-1.1,2-2.48-.85-2.49-2-2.49ZM103.69,54.68h1.48v12.93h-1.48v-12.93Z"/>
            <path class="cls-1" d="M113.74,54.92c1.83,0,3.32,1.64,3.32,3.66s-1.49,3.66-3.32,3.66-3.32-1.64-3.32-3.66,1.5-3.66,3.32-3.66ZM113.74,56.38c-1.02,0-1.84.95-1.84,2.2s.82,2.2,1.84,2.2,1.84-.95,1.84-2.2-.82-2.2-1.84-2.2ZM119.33,65.82v-1.24h-5.64v-1.28h7.22v3.76h-5.62v1.34h5.91v1.34h-7.51v-3.91h5.64ZM119.62,54.67h1.46v7.94h-1.46v-1.78h-2.17v-1.32h2.17v-1.84h-2.17v-1.32h2.17v-1.68Z"/>
            <path class="cls-1" d="M131.04,63.67c-1.37.27-3.76.44-5,.44h-2.47v-5.08h4.11v-2.18h-4.1v-1.4h5.57v4.89h-4.08v2.39l1.55-.02c1.16-.01,2.77-.1,4.41-.38v1.35ZM131.92,54.68h1.48v12.93h-1.48v-12.93Z"/>
            <path class="cls-1" d="M134.98,62.4h12.26v1.37h-12.26v-1.37ZM138.94,54.87v4.18h5.96v1.34h-7.46v-5.52h1.51ZM138.99,65.03v3.27h6.17v1.39h-7.71v-4.65h1.54Z"/>
          </g>
          <g>
            <g>
              <path class="cls-1" d="M175.37,60.93v-5.39c0-1.16,1.17-2.03,1.27-2.1h-5.77v18.32c-1.1.37-2.76.63-4.69.63h-2.93v-3.01c2.7-.87,4.62-3.23,4.62-5.96,0-1.66-.76-3.23-1.96-4.32h3.03v-2.53h-5.69v-1.63c0-1,1.03-1.63,1.1-1.66h-5.59v3.3h-5.69v2.53h2.99c-1.2,1.1-1.96,2.66-1.96,4.32,0,2.73,1.96,5.09,4.66,5.96v3.01h-5.86v2.53h13.08c1.87,0,3.63-.4,4.89-.97v7.04h4.5v-17.54h4.49v-2.53h-4.49ZM160.99,67.33c-1.4,0-2.6-1.83-2.6-3.89s1.2-3.89,2.6-3.89,2.59,1.83,2.59,3.89-1.16,3.89-2.59,3.89Z"/>
              <g>
                <path class="cls-1" d="M196.36,68.22l2.16-1.89c-3.6-.7-6.92-4.12-6.92-9.22v-1.2c0-1.13,1.11-2.03,1.17-2.1h-5.74v3.29c0,5.03-3.29,8.52-6.96,9.22l2.23,1.89c2.76-.26,6.29-2.66,6.98-5.05.8,2.39,4.23,4.79,7.06,5.05Z"/>
                <path class="cls-1" d="M200.36,53.45v4.86h-5.53v2.53h5.53v8.39h4.49v-13.68c0-1.16,1.18-2.03,1.27-2.09h-5.76Z"/>
              </g>
              <g>
                <path class="cls-1" d="M220.32,59.34v-3.2c0-1.1,1.14-2.03,1.18-2.1h-5.7v5.29c0,5.26-3.29,9.38-6.96,10.09l2.2,1.93c2.93-.27,6.35-2.93,7.02-5.46.74,2.53,4.13,5.22,7.06,5.46l2.16-1.93c-3.63-.7-6.96-4.79-6.96-10.09Z"/>
                <path class="cls-1" d="M234.74,53.45h-5.74v27.56h4.49v-25.46c0-1.16,1.18-2.03,1.24-2.1Z"/>
              </g>
            </g>
            <path class="cls-1" d="M196.79,69.99c-4.39,0-7.89,3.04-7.89,6.84s3.5,6.8,7.89,6.8,7.86-3.01,7.86-6.8-3.51-6.84-7.86-6.84ZM196.79,81.25c-1.86,0-3.46-2.13-3.46-4.42s1.6-4.5,3.46-4.5,3.46,2.18,3.46,4.5-1.63,4.42-3.46,4.42Z"/>
          </g>
        </g>
        <g>
          <path class="cls-5" d="M89.61,33.45v1.33h-3.13v10.74h-1.51v-10.74h-3.11v-1.33h7.75Z"/>
          <path class="cls-5" d="M94.77,45.52v-5.72c0-1.03-.33-1.77-1.48-1.77-1.34,0-1.69,1.11-1.69,2.53v4.97h-1.34v-12.07h1.34v4.71h.07c.53-.98,1.17-1.24,2.24-1.24,1.41,0,2.21.71,2.21,2.62v5.99h-1.35Z"/>
          <path class="cls-5" d="M98.97,41.74c0,2.36.62,2.83,1.68,2.83.91,0,1.4-.76,1.44-1.61h1.48c-.02,1.87-1.15,2.73-2.89,2.73s-3.15-.54-3.15-4.26c0-2.47.28-4.51,3.15-4.51,2.37,0,2.96,1.31,2.96,4.11v.71h-4.66ZM102.21,40.71c0-2.45-.68-2.76-1.67-2.76-.84,0-1.55.41-1.56,2.76h3.24Z"/>
          <path class="cls-5" d="M108.43,33.45h1.61l2.23,10.46h.03l2.38-10.46h1.95l2.15,10.46h.03l2.42-10.46h1.58l-3.14,12.07h-1.85l-2.25-10.47h-.03l-2.4,10.47h-1.84l-2.89-12.07Z"/>
          <path class="cls-5" d="M127.14,44.3h-.03c-.41.96-1.05,1.38-2.08,1.38-1.75,0-2.27-1.15-2.27-2.78,0-2.56,2.47-2.68,4.35-2.61.03-1.12.06-2.35-1.39-2.35-.9,0-1.38.62-1.3,1.5h-1.46c.08-1.89,1.05-2.53,2.81-2.53,2.13,0,2.69,1.11,2.69,2.53v4.07c0,.68.07,1.35.17,2.01h-1.48v-1.22ZM124.1,43.01c0,.82.4,1.56,1.3,1.56.82,0,1.85-.52,1.71-3.25-1.28.02-3.01-.1-3.01,1.69Z"/>
          <path class="cls-5" d="M132.86,43.94h.03l1.99-6.86h1.47l-3.75,11.63h-1.39l.94-3.19-2.81-8.44h1.55l1.99,6.86Z"/>
          <path class="cls-5" d="M141.45,37.08v-1.62l1.35-.62v2.25h1.82v1.03h-1.82v5.17c0,.54,0,1.22,1.23,1.22.1,0,.32-.03.61-.06v1.05c-.44.03-.89.12-1.33.12-1.28,0-1.86-.52-1.86-1.5v-6.01h-1.37v-1.03h1.37Z"/>
          <path class="cls-5" d="M145.28,41.43c0-2.47.28-4.51,3.15-4.51s3.15,2.04,3.15,4.51c0,3.72-1.39,4.26-3.15,4.26s-3.15-.54-3.15-4.26ZM150.17,40.84c0-2.31-.72-2.81-1.74-2.81s-1.75.5-1.75,2.81c0,2.74.35,3.73,1.75,3.73s1.74-.99,1.74-3.73Z"/>
          <path class="cls-5" d="M157.65,45.52v-12.07h3.85c1.64,0,2.2.57,2.65,1.24.41.65.47,1.36.47,1.6,0,1.5-.51,2.51-2.04,2.86v.08c1.69.2,2.43,1.24,2.43,2.89,0,3.09-2.22,3.4-3.56,3.4h-3.81ZM159.16,38.53h2.2c1.19-.02,1.76-.75,1.76-1.92,0-1-.55-1.82-1.82-1.82h-2.14v3.75ZM159.16,44.19h2.14c1.61,0,2.18-1.17,2.18-2.06,0-1.93-1.16-2.26-2.7-2.26h-1.62v4.32Z"/>
          <path class="cls-5" d="M167.76,41.74c0,2.36.63,2.83,1.68,2.83.91,0,1.39-.76,1.44-1.61h1.48c-.01,1.87-1.15,2.73-2.89,2.73s-3.16-.54-3.16-4.26c0-2.47.28-4.51,3.16-4.51,2.36,0,2.94,1.31,2.94,4.11v.71h-4.66ZM170.99,40.71c0-2.45-.67-2.76-1.65-2.76-.85,0-1.56.41-1.58,2.76h3.24Z"/>
          <path class="cls-5" d="M174.54,37.08v-1.62l1.35-.62v2.25h1.81v1.03h-1.81v5.17c0,.54,0,1.22,1.22,1.22.1,0,.32-.03.62-.06v1.05c-.45.03-.9.12-1.33.12-1.28,0-1.86-.52-1.86-1.5v-6.01h-1.36v-1.03h1.36Z"/>
          <path class="cls-5" d="M179.21,37.08v-1.62l1.34-.62v2.25h1.8v1.03h-1.8v5.17c0,.54,0,1.22,1.24,1.22.09,0,.31-.03.61-.06v1.05c-.45.03-.89.12-1.34.12-1.28,0-1.85-.52-1.85-1.5v-6.01h-1.36v-1.03h1.36Z"/>
          <path class="cls-5" d="M184.79,41.74c0,2.36.62,2.83,1.68,2.83.93,0,1.4-.76,1.44-1.61h1.48c-.02,1.87-1.15,2.73-2.89,2.73s-3.16-.54-3.16-4.26c0-2.47.27-4.51,3.16-4.51,2.35,0,2.95,1.31,2.95,4.11v.71h-4.66ZM188.02,40.71c0-2.45-.66-2.76-1.65-2.76-.86,0-1.56.41-1.58,2.76h3.23Z"/>
          <path class="cls-5" d="M192.38,38.35h.03c.55-1.29,1.25-1.43,2.56-1.43v1.41c-.25-.02-.48-.07-.71-.07-1.5,0-1.88,1.14-1.88,2.28v4.98h-1.35v-8.44h1.35v1.27Z"/>
          <path class="cls-5" d="M200.24,45.52v-12.07h1.51v10.74h4.35v1.33h-5.85Z"/>
          <path class="cls-5" d="M207.05,33.45h1.52v1.48h-1.52v-1.48ZM208.48,45.52h-1.34v-8.44h1.34v8.44Z"/>
          <path class="cls-5" d="M209.66,37.08h1.51l1.86,7.15h.03l2.01-7.15h1.4l-2.59,8.44h-1.76l-2.46-8.44Z"/>
          <path class="cls-5" d="M217.28,33.45h1.51v1.48h-1.51v-1.48ZM218.71,45.52h-1.34v-8.44h1.34v8.44Z"/>
          <path class="cls-5" d="M225.03,45.52v-5.85c0-.9-.31-1.64-1.45-1.64-1.48,0-1.7,1.33-1.7,2.49v5h-1.36v-6.69c0-.58-.03-1.17-.08-1.75h1.43v1.08h.06c.54-.95,1.16-1.24,2.22-1.24,1.77,0,2.22,1.07,2.22,2.75v5.85h-1.35Z"/>
          <path class="cls-5" d="M232.15,37.08h1.34v9.29c0,1.89-1.23,2.34-3.04,2.34-1.39,0-2.64-.7-2.51-2.25h1.5c.02.79.54,1.22,1.27,1.22.93,0,1.44-.58,1.44-1.45v-1.75h-.06c-.34.67-1.09,1.05-1.81,1.05-2.26,0-2.7-1.97-2.7-4.48,0-3.88,1.92-4.13,2.59-4.13.86,0,1.56.38,1.94,1.19h.03v-1.03ZM230.57,38.05c-1.53,0-1.58,1.87-1.58,3,0,2.7.61,3.34,1.61,3.34,1.63,0,1.58-1.95,1.58-3.13,0-1.25.08-3.21-1.61-3.21Z"/>
        </g>
      </g>
    </g>
  </g>
</svg>