<?xml version="1.0" encoding="UTF-8"?>
<svg id="_레이어_2" data-name="레이어 2" xmlns="http://www.w3.org/2000/svg" viewBox="0 0 232.9 44.4">
  <defs>
    <style>
      .cls-1 {
        fill: #fff;
      }

      .cls-2 {
        fill: #0055a2;
      }

      .cls-3 {
        fill: #f15a21;
      }

      .cls-4 {
        fill: #0099da;
      }
    </style>
  </defs>
  <g id="_레이어_1-2" data-name="레이어 1">
    <g>
      <rect class="cls-2" x="55.75" y="9.88" width="4.96" height="29.6"/>
      <path class="cls-2" d="M67.56,9.88v29.6h9.01c7.67-.02,11.29-2.72,11.3-8.13,0-3.39-1.92-5.97-5.1-6.92l-.29-.09.28-.12c2.95-1.25,4.37-3.38,4.37-6.6,0-5.06-3.45-7.73-10.44-7.74h-9.14M75.72,26.39c3.54,0,6.94.57,6.95,4.59,0,1.45-.5,2.62-1.58,3.29-1.08.68-2.7.98-4.97.98h-3.61v-8.86h3.2M77.35,14.1c1.42,0,4.82.49,4.83,3.93,0,1.9-.76,2.97-2.01,3.51-1.24.56-2.94.62-4.86.63h-2.79v-8.07h4.83"/>
      <path class="cls-2" d="M115.66,9.88c-1.56,1.63-13.32,14.03-13.32,14.03,0,0,12.75,13.84,14.36,15.57h-6.91c-.64-.74-11.57-13.34-11.57-13.34v13.34h-4.95V9.88h4.95v11.97s10.43-11.31,11.05-11.97h6.39"/>
      <path class="cls-2" d="M171.52,26.8v3.04h-12.05v-3.03h-3.92v12.57h19.98v-12.57h-4.01M171.52,32.69v3.6h-12.05v-3.6h12.05ZM163.68,23.13c1.46-1.1,2.4-2.6,2.77-4.32h5.09v6.44h3.96v-15.36h-3.96v6.07h-5.04c-.29-1.84-1.18-3.35-2.69-4.51-1.5-1.16-3.28-1.76-5.31-1.76-2.18,0-4.09.72-5.73,2.14-1.66,1.42-2.5,3.24-2.49,5.42-.01,2.16.83,3.97,2.49,5.4,1.65,1.45,3.56,2.16,5.73,2.16,1.98,0,3.71-.55,5.18-1.67ZM155.47,20.59c-.8-.91-1.19-2-1.19-3.32.01-1.32.41-2.41,1.22-3.29.8-.87,1.8-1.3,3-1.3,1.3,0,2.29.44,3.03,1.3.75.88,1.12,1.97,1.12,3.29s-.38,2.41-1.15,3.32c-.78.91-1.79,1.35-3.07,1.35-1.18,0-2.15-.45-2.97-1.35ZM142.54,9.87v29.61h3.96V9.87h-3.96ZM122.6,13.51h10.37v2.25c-.14,7.14-5.14,13.08-11.84,14.65l-.18.04,2.02,2.49.08-.02c7.61-2.23,13.91-9.32,13.91-17.12v-5.19h-14.37v2.88Z"/>
      <polyline class="cls-2" points="187.27 29.8 183.26 29.8 183.26 39.37 203.24 39.37 203.24 36.51 187.27 36.51 187.27 29.8"/>
      <path class="cls-2" d="M199.65,10.92c-1.85-1.26-4.06-1.9-6.64-1.9s-4.81.64-6.65,1.9c-1.85,1.28-2.79,3.06-2.79,5.32s.95,4,2.79,5.25c1.84,1.25,4.07,1.88,6.65,1.88s4.8-.63,6.64-1.88c1.85-1.26,2.79-3.03,2.79-5.25s-.93-4.05-2.79-5.32M196.86,19.35c-1,.81-2.28,1.22-3.86,1.22s-2.83-.4-3.83-1.22c-1-.82-1.5-1.84-1.5-3.11s.5-2.32,1.5-3.19c1.01-.87,2.27-1.31,3.83-1.31s2.86.44,3.85,1.31c1,.87,1.5,1.92,1.5,3.19s-.49,2.29-1.49,3.11Z"/>
      <rect class="cls-2" x="179.73" y="24.87" width="26.41" height="3.1"/>
      <g>
        <path class="cls-1" d="M11.15.55c-1.24.62-2.16,1.68-2.6,3L.27,28.45c-.44,1.31-.34,2.72.29,3.96.62,1.23,1.68,2.15,2.99,2.59l27.18,9.13c1.32.44,2.72.33,3.96-.28,1.24-.62,2.16-1.68,2.59-3l8.29-24.9c.91-2.71-.57-5.65-3.28-6.56L15.11.27c-1.32-.44-2.72-.34-3.96.28"/>
        <path class="cls-4" d="M24.44,24.47c-1.48,1.65-3.32,2.98-5.45,3.8l-1.22.48v-11.54l1.21.47c2.14.82,3.98,2.14,5.47,3.78,1.06-1.7,1.71-3.67,1.85-5.81.34-5.54-3.13-10.61-7.89-12.38l-3.92-1.31c-1.77-.59-3.66.39-4.24,2.15L1.91,29.04c-.59,1.77.4,3.7,2.18,4.28l18.86,6.3c1.92-2.05,3.17-4.76,3.35-7.78.17-2.7-.54-5.24-1.87-7.37M13.54,16.52v12.94h-1.87v-12.94h1.87Z"/>
        <path class="cls-2" d="M41.69,11.05l-17.31-5.79c2.32,2.54,3.74,5.93,3.75,9.63,0,2.93-.91,5.73-2.5,8.07,1.59,2.34,2.51,5.13,2.52,8.06,0,3.5-1.26,6.72-3.35,9.21l6.5,2.17c1.78.59,3.65-.39,4.24-2.16l8.32-24.92c.59-1.77-.41-3.69-2.18-4.28M37.1,29.42h-2.34s-4.81-6.46-4.81-6.46l4.89-6.47h2.36s-4.9,6.48-4.9,6.48l4.8,6.46Z"/>
        <path class="cls-3" d="M23.35,22.97c-1.05-1.23-2.32-2.27-3.79-3.03v6.08c1.47-.76,2.75-1.81,3.79-3.05"/>
      </g>
      <g>
        <path class="cls-2" d="M229.44,29.89c-1.77-1.05-3.88-1.56-6.36-1.56s-4.6.51-6.36,1.56c-1.77,1.04-2.65,2.49-2.65,4.34s.88,3.27,2.65,4.31c1.76,1.03,3.88,1.55,6.36,1.55s4.58-.52,6.36-1.55c1.76-1.04,2.63-2.47,2.63-4.31s-.88-3.31-2.63-4.34M226.82,36.52c-.97.6-2.21.9-3.73.9s-2.73-.3-3.72-.9c-.96-.6-1.45-1.36-1.45-2.29s.49-1.71,1.45-2.34c.99-.64,2.22-.96,3.72-.96s2.76.32,3.73.96c.97.64,1.45,1.41,1.45,2.34s-.48,1.69-1.45,2.29Z"/>
        <rect class="cls-2" x="209.54" y="10.25" width="8.97" height="2.66"/>
        <polyline class="cls-2" points="229.11 9.87 229.11 16.7 226.87 16.7 226.87 9.87 223.08 9.87 223.08 26.6 226.87 26.6 226.87 19.36 229.11 19.36 229.11 27.76 232.9 27.76 232.9 9.87 229.11 9.87"/>
        <path class="cls-2" d="M221.73,13.87h-13.77v2.64h2.89c-1.67,1.08-2.77,2.8-2.77,4.76,0,3.28,3.04,5.94,6.78,5.94s6.8-2.66,6.8-5.94c0-1.96-1.1-3.68-2.77-4.76h2.85v-2.64M214.86,24.82c-1.78,0-3.22-1.59-3.22-3.54s1.44-3.55,3.22-3.55,3.24,1.59,3.24,3.55-1.45,3.54-3.24,3.54Z"/>
      </g>
    </g>
  </g>
</svg>