<svg width="606" height="250" viewBox="0 0 606 250" fill="none" xmlns="http://www.w3.org/2000/svg">
<g clip-path="url(#clip0_209_62)">
<line x1="106" y1="44.5" x2="516" y2="44.5" stroke="#D9D9D9"/>
<rect x="56.5" y="0.5" width="89" height="89" rx="7.5" fill="#FBFBFB" stroke="#D9D9D9"/>
<path d="M92.029 24.816V40.44H90.697V24.816H92.029ZM79.285 36.66V26.724H85.153V27.876H80.617V35.508C82.867 35.49 84.289 35.4 85.981 35.04L86.089 36.192C84.307 36.57 82.777 36.642 80.257 36.66H79.285ZM84.109 31.944V30.756H87.529V25.176H88.825V39.612H87.529V31.944H84.109ZM106.722 24.816V40.44H105.354V24.816H106.722ZM94.4457 31.44C94.4457 28.128 96.1017 26.022 98.4417 26.004C100.746 26.022 102.42 28.128 102.438 31.44C102.42 34.788 100.746 36.894 98.4417 36.912C96.1017 36.894 94.4457 34.788 94.4457 31.44ZM95.7777 31.44C95.7777 33.996 96.8577 35.67 98.4417 35.652C99.9897 35.67 101.07 33.996 101.07 31.44C101.07 28.92 99.9897 27.246 98.4417 27.228C96.8577 27.246 95.7777 28.92 95.7777 31.44ZM121.99 24.816V40.44H120.622V31.836H117.346V30.72H120.622V24.816H121.99ZM109.786 36.696V26.22H117.058V27.372H111.154V30.648H116.374V31.764H111.154V35.544C114.016 35.526 115.87 35.454 118.03 35.076L118.174 36.192C115.906 36.57 113.98 36.678 110.974 36.696H109.786ZM94.0834 48.256C94.1014 50.452 96.9814 52.36 99.8074 52.756L99.2314 53.872C96.8014 53.476 94.4074 52.126 93.3994 50.218C92.3914 52.144 89.9974 53.476 87.5674 53.872L86.9914 52.756C89.8174 52.36 92.6794 50.488 92.6794 48.256V47.356H94.0834V48.256ZM86.2714 56.752V55.6H100.491V56.752H94.0114V62.44H92.6794V56.752H86.2714ZM107.084 49.372C107.084 51.424 108.776 53.224 111.116 53.944L110.396 55.024C108.56 54.448 107.102 53.188 106.4 51.568C105.716 53.296 104.24 54.646 102.368 55.312L101.648 54.196C104.006 53.458 105.68 51.532 105.68 49.372V48.976H102.044V47.86H110.684V48.976H107.084V49.372ZM104.24 62.224V56.032H105.608V57.904H112.988V56.032H114.356V62.224H104.24ZM105.608 61.072H112.988V59.02H105.608V61.072ZM112.988 55.24V46.816H114.356V55.24H112.988Z" fill="#1B1B1D"/>
<path d="M19.7348 21.08V38.72H17.5348V21.08H19.7348ZM5.13484 33.88C9.73484 31.68 11.8748 28.7 12.2748 24.68H6.01484V22.96H14.4948C14.4748 28.22 12.4348 32.68 6.25484 35.6L5.13484 33.88ZM36.54 21.88V23.64H31.4C31.62 25.32 33.76 26.92 37.18 27.32L36.34 29.04C33.18 28.64 30.86 27.22 29.92 25.32C28.98 27.22 26.66 28.64 23.5 29.04L22.7 27.32C26.1 26.92 28.22 25.32 28.44 23.64H23.34V21.88H36.54ZM21.9 32.16V30.4H28.82V27.76H30.98V30.4H37.98V32.16H21.9ZM23.86 38.4V33.32H26.06V36.64H36.14V38.4H23.86ZM8.87937 46.84H11.9994L16.1994 57.12H16.3594L20.5594 46.84H23.6794V61H21.2394V51.28H21.1194L17.1994 60.96H15.3594L11.4394 51.24H11.3194V61H8.87937V46.84ZM25.9208 61V46.84H28.4408V58.88H34.6808V61H25.9208Z" fill="#1B1B1D"/>
<path d="M3.55109 161H0.871094L5.83109 146.84H8.99109L13.9511 161H11.2311L10.0711 157.52H4.73109L3.55109 161ZM5.43109 155.44H9.37109L7.47109 149.76H7.35109L5.43109 155.44ZM21.9178 156.52V150.4H24.3978V161H21.9978V159.12H21.8778C21.3978 160.3 20.2978 161.14 18.6778 161.12C16.5978 161.14 15.1578 159.7 15.1578 157.16V150.4H17.6378V156.76C17.6378 158.12 18.4578 158.96 19.6378 158.96C20.7578 158.96 21.9178 158.16 21.9178 156.52ZM31.6784 150.4V152.32H29.5984V157.8C29.5984 158.84 30.0984 159.04 30.7184 159.04C31.0184 159.06 31.4984 159.02 31.8384 159V161.04C31.5184 161.1 31.0384 161.14 30.3984 161.16C28.5384 161.14 27.0984 160.22 27.1184 158.24V152.32H25.5984V150.4H27.1184V147.84H29.5984V150.4H31.6784ZM37.7283 161.2C34.6083 161.22 32.6283 159.02 32.6483 155.76C32.6283 152.44 34.6083 150.26 37.7283 150.24C40.8083 150.26 42.7883 152.44 42.8083 155.76C42.7883 159.02 40.8083 161.22 37.7283 161.2ZM35.1683 155.72C35.1483 157.68 36.0083 159.22 37.7283 159.2C39.4283 159.22 40.2683 157.68 40.2883 155.72C40.2683 153.78 39.4283 152.22 37.7283 152.24C36.0083 152.22 35.1483 153.78 35.1683 155.72ZM9.37937 170.84H12.4994L16.6994 181.12H16.8594L21.0594 170.84H24.1794V185H21.7394V175.28H21.6194L17.6994 184.96H15.8594L11.9394 175.24H11.8194V185H9.37937V170.84ZM26.4208 185V170.84H28.9408V182.88H35.1808V185H26.4208Z" fill="#657DFF"/>
<rect x="171.5" y="0.5" width="89" height="89" rx="7.5" fill="#FBFBFB" stroke="#D9D9D9"/>
<path d="M207.029 24.816V40.44H205.697V24.816H207.029ZM194.285 36.66V26.724H200.153V27.876H195.617V35.508C197.867 35.49 199.289 35.4 200.981 35.04L201.089 36.192C199.307 36.57 197.777 36.642 195.257 36.66H194.285ZM199.109 31.944V30.756H202.529V25.176H203.825V39.612H202.529V31.944H199.109ZM221.722 24.816V40.44H220.354V24.816H221.722ZM209.446 31.44C209.446 28.128 211.102 26.022 213.442 26.004C215.746 26.022 217.42 28.128 217.438 31.44C217.42 34.788 215.746 36.894 213.442 36.912C211.102 36.894 209.446 34.788 209.446 31.44ZM210.778 31.44C210.778 33.996 211.858 35.67 213.442 35.652C214.99 35.67 216.07 33.996 216.07 31.44C216.07 28.92 214.99 27.246 213.442 27.228C211.858 27.246 210.778 28.92 210.778 31.44ZM236.99 24.816V40.44H235.622V31.836H232.346V30.72H235.622V24.816H236.99ZM224.786 36.696V26.22H232.058V27.372H226.154V30.648H231.374V31.764H226.154V35.544C229.016 35.526 230.87 35.454 233.03 35.076L233.174 36.192C230.906 36.57 228.98 36.678 225.974 36.696H224.786ZM209.191 47.752V48.94H203.359V50.884H208.903V52H203.359V54.088C206.419 54.106 208.147 54.052 210.199 53.656L210.379 54.772C208.201 55.15 206.401 55.222 203.179 55.204H201.991V47.752H209.191ZM203.611 62.224V56.824H213.475V62.224H203.611ZM204.979 61.072H212.107V57.904H204.979V61.072ZM212.107 55.996V46.816H213.475V50.668H215.815V51.856H213.475V55.996H212.107ZM221.112 49.876C221.112 51.64 222.3 53.422 224.316 54.196L223.56 55.276C222.084 54.664 221.004 53.512 220.464 52.144C219.888 53.656 218.754 54.988 217.224 55.672L216.468 54.592C218.538 53.692 219.78 51.64 219.78 49.876V47.752H221.112V49.876ZM219.204 58.264V57.112H229.716V62.44H228.348V58.264H219.204ZM225.036 56.176V47.104H226.332V50.884H228.42V46.816H229.716V56.248H228.42V52.036H226.332V56.176H225.036Z" fill="#1B1B1D"/>
<rect x="286.5" y="0.5" width="89" height="89" rx="7.5" fill="#FBFBFB" stroke="#D9D9D9"/>
<path d="M322.029 24.816V40.44H320.697V24.816H322.029ZM309.285 36.66V26.724H315.153V27.876H310.617V35.508C312.867 35.49 314.289 35.4 315.981 35.04L316.089 36.192C314.307 36.57 312.777 36.642 310.257 36.66H309.285ZM314.109 31.944V30.756H317.529V25.176H318.825V39.612H317.529V31.944H314.109ZM336.722 24.816V40.44H335.354V24.816H336.722ZM324.446 31.44C324.446 28.128 326.102 26.022 328.442 26.004C330.746 26.022 332.42 28.128 332.438 31.44C332.42 34.788 330.746 36.894 328.442 36.912C326.102 36.894 324.446 34.788 324.446 31.44ZM325.778 31.44C325.778 33.996 326.858 35.67 328.442 35.652C329.99 35.67 331.07 33.996 331.07 31.44C331.07 28.92 329.99 27.246 328.442 27.228C326.858 27.246 325.778 28.92 325.778 31.44ZM351.99 24.816V40.44H350.622V31.836H347.346V30.72H350.622V24.816H351.99ZM339.786 36.696V26.22H347.058V27.372H341.154V30.648H346.374V31.764H341.154V35.544C344.016 35.526 345.87 35.454 348.03 35.076L348.174 36.192C345.906 36.57 343.98 36.678 340.974 36.696H339.786ZM321.597 46.816V58.264H320.229V52.288H317.025V51.136H320.229V46.816H321.597ZM308.709 55.132C311.031 54.34 312.705 52.27 312.705 50.02V49.228H309.177V48.076H317.601V49.228H314.109V50.02C314.091 52.054 315.657 54.016 317.961 54.808L317.241 55.888C315.459 55.258 314.091 53.962 313.425 52.36C312.741 54.16 311.283 55.582 309.429 56.284L308.709 55.132ZM311.589 62.08V57.256H312.957V60.928H322.065V62.08H311.589ZM336.794 46.816V62.44H335.426V54.232H332.006V53.08H335.426V46.816H336.794ZM323.906 58.336C326.174 57.256 327.902 54.592 327.902 51.892V50.632H324.302V49.516H327.902V47.104H329.27V49.516H332.798V50.632H329.234V51.892C329.252 54.466 331.016 57.004 333.338 58.048L332.546 59.128C330.764 58.318 329.288 56.608 328.586 54.556C327.902 56.734 326.444 58.534 324.662 59.38L323.906 58.336ZM351.954 46.816V62.44H350.586V46.816H351.954ZM339.93 49.408V48.256H347.202V53.8H341.37V57.508C343.98 57.508 346.266 57.4 349.074 56.932L349.218 58.084C346.338 58.552 343.962 58.66 341.262 58.66H339.966V52.684H345.798V49.408H339.93Z" fill="#1B1B1D"/>
<rect x="401.5" y="0.5" width="89" height="89" rx="7.5" fill="#FBFBFB" stroke="#D9D9D9"/>
<path d="M437.965 49.272V50.424H423.673V49.272H430.081V45.456H425.365V38.112H436.201V45.456H431.449V49.272H437.965ZM426.697 44.34H434.833V39.228H426.697V44.34ZM452.154 36.816V45.132H450.858V36.816H452.154ZM439.626 44.34V37.716H445.602V38.832H440.994V43.188C443.136 43.206 444.594 43.134 446.358 42.792L446.466 43.944C444.558 44.268 443.028 44.34 440.598 44.34H439.626ZM441.75 46.932V45.816H452.154V49.452H443.154V51.108H452.766V52.224H441.786V48.372H450.822V46.932H441.75ZM444.594 41.352V40.272H447.834V37.14H449.166V44.988H447.834V41.352H444.594ZM466.954 36.816V46.428H465.586V36.816H466.954ZM454.822 38.94V37.788H461.986V42.072H456.226V44.304C459.016 44.304 461.086 44.232 463.606 43.8L463.786 44.952C461.158 45.384 459.016 45.456 456.154 45.456H454.858V40.992H460.618V38.94H454.822ZM456.478 49.56C456.496 47.778 458.476 46.752 461.77 46.752C465.046 46.752 467.062 47.778 467.062 49.56C467.062 51.36 465.046 52.386 461.77 52.404C458.476 52.386 456.496 51.36 456.478 49.56ZM457.846 49.56C457.864 50.658 459.34 51.288 461.77 51.288C464.2 51.288 465.676 50.658 465.658 49.56C465.676 48.498 464.2 47.85 461.77 47.868C459.34 47.85 457.864 48.498 457.846 49.56Z" fill="#1B1B1D"/>
<rect x="516.5" y="0.5" width="89" height="89" rx="44.5" fill="#FBFBFB" stroke="#D9D9D9"/>
<path d="M560.215 36.08V53.72H558.135V36.08H560.215ZM545.175 43.72C545.175 39.84 546.675 37.42 548.975 37.44C550.475 37.42 551.635 38.4 552.295 40.12H554.615V36.4H556.655V52.88H554.615V47.32H552.295C551.655 49.06 550.475 50.04 548.975 50.04C546.675 50.04 545.175 47.62 545.175 43.72ZM547.175 43.72C547.155 46.48 547.835 47.96 548.975 47.96C550.155 47.96 550.875 46.48 550.895 43.72C550.875 40.96 550.155 39.46 548.975 39.48C547.835 39.46 547.155 40.96 547.175 43.72ZM552.735 41.88C552.815 42.44 552.855 43.06 552.855 43.72C552.855 44.36 552.815 44.96 552.735 45.52H554.615V41.88H552.735ZM577.98 44.88V46.64H561.9V44.88H577.98ZM562.66 42.48C566.34 42.22 568.42 41 568.68 39.48H563.46V37.8H568.82V36.12H570.98V37.8H576.38V39.48H571.12C571.38 41 573.46 42.22 577.18 42.48L576.5 44.12C573.34 43.86 571 42.88 569.92 41.34C568.8 42.88 566.46 43.86 563.34 44.12L562.66 42.48ZM563.66 49.88V48.16H576.02V53.72H573.82V49.88H563.66Z" fill="#344EDE"/>
<g opacity="0.4">
<rect x="171" y="124" width="90" height="90" rx="45" fill="#F5F5F5"/>
<path d="M206.272 148.08V165.72H204.192V148.08H206.272ZM191.632 161.68V150.16H198.352V151.88H193.752V159.88C195.852 159.86 197.352 159.76 199.072 159.4L199.272 161.2C197.272 161.6 195.512 161.68 192.832 161.68H191.632ZM197.152 156.4V154.64H200.552V148.44H202.592V164.88H200.552V156.4H197.152ZM222.637 148.08V165.76H220.437V148.08H222.637ZM208.517 155.6C208.497 151.8 210.437 149.38 213.117 149.36C215.777 149.38 217.717 151.8 217.717 155.6C217.717 159.44 215.777 161.86 213.117 161.84C210.437 161.86 208.497 159.44 208.517 155.6ZM210.597 155.6C210.597 158.32 211.617 159.9 213.117 159.88C214.597 159.9 215.617 158.32 215.637 155.6C215.617 152.92 214.597 151.32 213.117 151.32C211.617 151.32 210.597 152.92 210.597 155.6ZM239.643 148.08V165.76H237.483V156.2H234.163V154.48H237.483V148.08H239.643ZM225.643 161.68V149.6H233.883V151.36H227.803V154.56H233.203V156.28H227.803V159.92C230.503 159.88 232.503 159.8 234.763 159.44L235.003 161.16C232.423 161.58 230.163 161.68 227.003 161.68H225.643ZM208.475 173.12V174.88H202.395V176.52H208.115V178.28H202.395V180C205.435 180 207.355 179.92 209.515 179.52L209.755 181.24C207.335 181.66 205.235 181.72 201.635 181.72H200.235V173.12H208.475ZM202.035 189.52V183.24H213.435V189.52H202.035ZM204.155 187.76H211.275V184.96H204.155V187.76ZM211.235 182.44V172.08H213.435V176.28H215.915V178.12H213.435V182.44H211.235ZM221.92 175.28C221.9 177.26 223 179.2 225.32 180.12L224.16 181.8C222.6 181.18 221.5 180.02 220.86 178.6C220.22 180.18 219.06 181.52 217.4 182.24L216.24 180.56C218.66 179.52 219.8 177.28 219.8 175.28V173.12H221.92V175.28ZM219.4 185.36V183.64H231.48V189.72H229.32V185.36H219.4ZM225.64 182.68V172.4H227.64V176.48H229.44V172.12H231.48V182.76H229.44V178.28H227.64V182.68H225.64Z" fill="#1B1B1D" fill-opacity="0.6"/>
</g>
<g opacity="0.4">
<rect x="286" y="124" width="90" height="90" rx="45" fill="#F5F5F5"/>
<path d="M321.272 148.08V165.72H319.192V148.08H321.272ZM306.632 161.68V150.16H313.352V151.88H308.752V159.88C310.852 159.86 312.352 159.76 314.072 159.4L314.272 161.2C312.272 161.6 310.512 161.68 307.832 161.68H306.632ZM312.152 156.4V154.64H315.552V148.44H317.592V164.88H315.552V156.4H312.152ZM337.637 148.08V165.76H335.437V148.08H337.637ZM323.517 155.6C323.497 151.8 325.437 149.38 328.117 149.36C330.777 149.38 332.717 151.8 332.717 155.6C332.717 159.44 330.777 161.86 328.117 161.84C325.437 161.86 323.497 159.44 323.517 155.6ZM325.597 155.6C325.597 158.32 326.617 159.9 328.117 159.88C329.597 159.9 330.617 158.32 330.637 155.6C330.617 152.92 329.597 151.32 328.117 151.32C326.617 151.32 325.597 152.92 325.597 155.6ZM354.643 148.08V165.76H352.483V156.2H349.163V154.48H352.483V148.08H354.643ZM340.643 161.68V149.6H348.883V151.36H342.803V154.56H348.203V156.28H342.803V159.92C345.503 159.88 347.503 159.8 349.763 159.44L350.003 161.16C347.423 161.58 345.163 161.68 342.003 161.68H340.643ZM320.832 172.12V185H318.672V178.52H315.552V176.76H318.672V172.12H320.832ZM306.032 181.16C308.832 180.26 310.332 177.94 310.352 175.6V175.12H306.672V173.36H316.192V175.12H312.552V175.6C312.552 177.74 313.972 179.94 316.712 180.84L315.592 182.56C313.632 181.9 312.232 180.54 311.472 178.88C310.692 180.72 309.232 182.2 307.152 182.92L306.032 181.16ZM309.272 189.4V183.88H311.432V187.64H321.272V189.4H309.272ZM337.757 172.08V189.76H335.557V180.72H332.157V178.96H335.557V172.08H337.757ZM322.917 184.72C325.657 183.48 327.217 180.46 327.237 177.68V176.76H323.437V175.04H327.237V172.48H329.397V175.04H333.117V176.76H329.397V177.68C329.377 180.36 330.977 183.2 333.757 184.44L332.597 186.12C330.577 185.26 329.097 183.48 328.317 181.36C327.557 183.6 326.097 185.5 324.077 186.4L322.917 184.72ZM354.523 172.08V189.76H352.363V172.08H354.523ZM340.803 185.6V178.52H346.883V175.4H340.803V173.64H349.123V180.24H343.043V183.8C345.823 183.78 348.203 183.64 350.963 183.2L351.163 184.96C348.163 185.48 345.523 185.58 342.363 185.6H340.803Z" fill="#1B1B1D" fill-opacity="0.6"/>
</g>
<g opacity="0.4">
<rect x="401" y="124" width="90" height="90" rx="45" fill="#F5F5F5"/>
<path d="M437.192 173.8V175.6H421.072V173.8H428.032V169.96H422.832V161.44H435.352V169.96H430.152V173.8H437.192ZM424.952 168.24H433.192V163.2H424.952V168.24ZM453.117 160.12V169.4H451.037V160.12H453.117ZM438.717 168.8V161H445.557V162.72H440.917V167.04C443.017 167.04 444.477 166.98 446.197 166.68L446.317 168.4C444.337 168.74 442.677 168.8 439.917 168.8H438.717ZM441.077 171.72V170.04H453.117V174.52H443.277V175.8H453.717V177.52H441.117V172.88H450.997V171.72H441.077ZM444.517 165.52V163.84H447.557V160.44H449.637V169.28H447.557V165.52H444.517ZM469.523 160.12V170.88H467.363V160.12H469.523ZM455.723 162.92V161.16H463.883V166.36H457.883V168.24C460.903 168.2 463.063 168.12 465.603 167.72L465.883 169.48C463.083 169.94 460.683 170.02 457.283 170H455.763V164.72H461.723V162.92H455.723ZM457.563 174.44C457.563 172.36 459.843 171.18 463.603 171.16C467.343 171.18 469.643 172.36 469.643 174.44C469.643 176.52 467.343 177.72 463.603 177.72C459.843 177.72 457.563 176.52 457.563 174.44ZM459.723 174.44C459.723 175.48 461.103 176.02 463.603 176C466.083 176.02 467.463 175.48 467.483 174.44C467.463 173.42 466.083 172.88 463.603 172.88C461.103 172.88 459.723 173.42 459.723 174.44Z" fill="#1B1B1D" fill-opacity="0.6"/>
</g>
<g filter="url(#filter0_d_209_62)">
<line x1="106" y1="166.5" x2="562" y2="166.5" stroke="#657DFF" stroke-width="3"/>
</g>
<g filter="url(#filter1_d_209_62)">
<rect x="516" y="124" width="90" height="90" rx="45" fill="#657DFF"/>
<rect x="517.5" y="125.5" width="87" height="87" rx="43.5" stroke="#657DFF" stroke-width="3"/>
</g>
<path d="M560.215 160.08V177.72H558.135V160.08H560.215ZM545.175 167.72C545.175 163.84 546.675 161.42 548.975 161.44C550.475 161.42 551.635 162.4 552.295 164.12H554.615V160.4H556.655V176.88H554.615V171.32H552.295C551.655 173.06 550.475 174.04 548.975 174.04C546.675 174.04 545.175 171.62 545.175 167.72ZM547.175 167.72C547.155 170.48 547.835 171.96 548.975 171.96C550.155 171.96 550.875 170.48 550.895 167.72C550.875 164.96 550.155 163.46 548.975 163.48C547.835 163.46 547.155 164.96 547.175 167.72ZM552.735 165.88C552.815 166.44 552.855 167.06 552.855 167.72C552.855 168.36 552.815 168.96 552.735 169.52H554.615V165.88H552.735ZM577.98 168.88V170.64H561.9V168.88H577.98ZM562.66 166.48C566.34 166.22 568.42 165 568.68 163.48H563.46V161.8H568.82V160.12H570.98V161.8H576.38V163.48H571.12C571.38 165 573.46 166.22 577.18 166.48L576.5 168.12C573.34 167.86 571 166.88 569.92 165.34C568.8 166.88 566.46 167.86 563.34 168.12L562.66 166.48ZM563.66 173.88V172.16H576.02V177.72H573.82V173.88H563.66Z" fill="white"/>
<g filter="url(#filter2_d_209_62)">
<rect x="56" y="124" width="90" height="90" rx="8" fill="#FBFBFB" fill-opacity="0.984314" shape-rendering="crispEdges"/>
<rect x="56.5" y="124.5" width="89" height="89" rx="7.5" stroke="#657DFF" shape-rendering="crispEdges"/>
</g>
<path d="M92.029 148.816V164.44H90.697V148.816H92.029ZM79.285 160.66V150.724H85.153V151.876H80.617V159.508C82.867 159.49 84.289 159.4 85.981 159.04L86.089 160.192C84.307 160.57 82.777 160.642 80.257 160.66H79.285ZM84.109 155.944V154.756H87.529V149.176H88.825V163.612H87.529V155.944H84.109ZM106.722 148.816V164.44H105.354V148.816H106.722ZM94.4457 155.44C94.4457 152.128 96.1017 150.022 98.4417 150.004C100.746 150.022 102.42 152.128 102.438 155.44C102.42 158.788 100.746 160.894 98.4417 160.912C96.1017 160.894 94.4457 158.788 94.4457 155.44ZM95.7777 155.44C95.7777 157.996 96.8577 159.67 98.4417 159.652C99.9897 159.67 101.07 157.996 101.07 155.44C101.07 152.92 99.9897 151.246 98.4417 151.228C96.8577 151.246 95.7777 152.92 95.7777 155.44ZM121.99 148.816V164.44H120.622V155.836H117.346V154.72H120.622V148.816H121.99ZM109.786 160.696V150.22H117.058V151.372H111.154V154.648H116.374V155.764H111.154V159.544C114.016 159.526 115.87 159.454 118.03 159.076L118.174 160.192C115.906 160.57 113.98 160.678 110.974 160.696H109.786ZM94.0834 172.256C94.1014 174.452 96.9814 176.36 99.8074 176.756L99.2314 177.872C96.8014 177.476 94.4074 176.126 93.3994 174.218C92.3914 176.144 89.9974 177.476 87.5674 177.872L86.9914 176.756C89.8174 176.36 92.6794 174.488 92.6794 172.256V171.356H94.0834V172.256ZM86.2714 180.752V179.6H100.491V180.752H94.0114V186.44H92.6794V180.752H86.2714ZM107.084 173.372C107.084 175.424 108.776 177.224 111.116 177.944L110.396 179.024C108.56 178.448 107.102 177.188 106.4 175.568C105.716 177.296 104.24 178.646 102.368 179.312L101.648 178.196C104.006 177.458 105.68 175.532 105.68 173.372V172.976H102.044V171.86H110.684V172.976H107.084V173.372ZM104.24 186.224V180.032H105.608V181.904H112.988V180.032H114.356V186.224H104.24ZM105.608 185.072H112.988V183.02H105.608V185.072ZM112.988 179.24V170.816H114.356V179.24H112.988Z" fill="#1B1B1D"/>
<path d="M234.117 245H231.437L236.397 230.84H239.557L244.517 245H241.797L240.637 241.52H235.297L234.117 245ZM235.997 239.44H239.937L238.037 233.76H237.917L235.997 239.44ZM252.484 240.52V234.4H254.964V245H252.564V243.12H252.444C251.964 244.3 250.864 245.14 249.244 245.12C247.164 245.14 245.724 243.7 245.724 241.16V234.4H248.204V240.76C248.204 242.12 249.024 242.96 250.204 242.96C251.324 242.96 252.484 242.16 252.484 240.52ZM262.244 234.4V236.32H260.164V241.8C260.164 242.84 260.664 243.04 261.284 243.04C261.584 243.06 262.064 243.02 262.404 243V245.04C262.084 245.1 261.604 245.14 260.964 245.16C259.104 245.14 257.664 244.22 257.684 242.24V236.32H256.164V234.4H257.684V231.84H260.164V234.4H262.244ZM268.294 245.2C265.174 245.22 263.194 243.02 263.214 239.76C263.194 236.44 265.174 234.26 268.294 234.24C271.374 234.26 273.354 236.44 273.374 239.76C273.354 243.02 271.374 245.22 268.294 245.2ZM265.734 239.72C265.714 241.68 266.574 243.22 268.294 243.2C269.994 243.22 270.834 241.68 270.854 239.72C270.834 237.78 269.994 236.22 268.294 236.24C266.574 236.22 265.714 237.78 265.734 239.72ZM279.381 230.84H282.501L286.701 241.12H286.861L291.061 230.84H294.181V245H291.741V235.28H291.621L287.701 244.96H285.861L281.941 235.24H281.821V245H279.381V230.84ZM296.422 245V230.84H298.942V242.88H305.182V245H296.422ZM316.827 234.08C316.807 236.82 318.447 239.94 321.227 241.24L320.027 242.96C318.027 242.02 316.567 240.12 315.767 237.9C314.967 240.34 313.427 242.42 311.387 243.4L310.107 241.68C312.927 240.34 314.647 237.04 314.667 234.08V232.6H310.787V230.84H320.507V232.6H316.827V234.08ZM322.147 246.72V229.08H324.307V235.96H327.027V237.76H324.307V246.72H322.147ZM343.473 237.56V239.28H327.393V237.56H334.393V235.84H329.353V229.88H341.553V231.6H331.513V234.12H341.633V235.84H336.513V237.56H343.473ZM329.233 243.52C329.253 241.44 331.573 240.28 335.393 240.28C339.213 240.28 341.513 241.44 341.513 243.52C341.513 245.56 339.213 246.74 335.393 246.76C331.573 246.74 329.253 245.56 329.233 243.52ZM331.473 243.52C331.453 244.54 332.833 245.06 335.393 245.04C337.933 245.06 339.333 244.54 339.353 243.52C339.333 242.5 337.933 241.96 335.393 241.96C332.833 241.96 331.453 242.5 331.473 243.52ZM358.238 229.08V236.36H360.718V238.2H358.238V246.72H356.038V229.08H358.238ZM344.038 241.84C345.378 241.84 346.938 241.84 348.558 241.8V240.14C346.638 239.82 345.378 238.62 345.398 236.96C345.378 234.96 347.138 233.64 349.678 233.64C352.178 233.64 353.958 234.96 353.958 236.96C353.958 238.62 352.678 239.82 350.758 240.16V241.72C352.238 241.64 353.718 241.52 355.118 241.32L355.238 242.92C351.458 243.6 347.378 243.62 344.358 243.64L344.038 241.84ZM344.398 232.84V231.12H348.558V229.16H350.758V231.12H354.918V232.84H344.398ZM347.438 236.96C347.438 237.96 348.338 238.56 349.678 238.56C350.998 238.56 351.878 237.96 351.878 236.96C351.878 235.92 350.998 235.3 349.678 235.32C348.338 235.3 347.438 235.92 347.438 236.96Z" fill="#1B85AB"/>
<line x1="294.5" y1="222" x2="294.5" y2="168" stroke="#657DFF" stroke-opacity="0.7" stroke-width="3" stroke-dasharray="4 4"/>
</g>
<defs>
<filter id="filter0_d_209_62" x="36" y="95" width="596" height="143" filterUnits="userSpaceOnUse" color-interpolation-filters="sRGB">
<feFlood flood-opacity="0" result="BackgroundImageFix"/>
<feColorMatrix in="SourceAlpha" type="matrix" values="0 0 0 0 0 0 0 0 0 0 0 0 0 0 0 0 0 0 127 0" result="hardAlpha"/>
<feOffset/>
<feGaussianBlur stdDeviation="35"/>
<feComposite in2="hardAlpha" operator="out"/>
<feColorMatrix type="matrix" values="0 0 0 0 0.396078 0 0 0 0 0.490196 0 0 0 0 1 0 0 0 0.25 0"/>
<feBlend mode="normal" in2="BackgroundImageFix" result="effect1_dropShadow_209_62"/>
<feBlend mode="normal" in="SourceGraphic" in2="effect1_dropShadow_209_62" result="shape"/>
</filter>
<filter id="filter1_d_209_62" x="446" y="54" width="230" height="230" filterUnits="userSpaceOnUse" color-interpolation-filters="sRGB">
<feFlood flood-opacity="0" result="BackgroundImageFix"/>
<feColorMatrix in="SourceAlpha" type="matrix" values="0 0 0 0 0 0 0 0 0 0 0 0 0 0 0 0 0 0 127 0" result="hardAlpha"/>
<feOffset/>
<feGaussianBlur stdDeviation="35"/>
<feComposite in2="hardAlpha" operator="out"/>
<feColorMatrix type="matrix" values="0 0 0 0 0.396078 0 0 0 0 0.490196 0 0 0 0 1 0 0 0 0.25 0"/>
<feBlend mode="normal" in2="BackgroundImageFix" result="effect1_dropShadow_209_62"/>
<feBlend mode="normal" in="SourceGraphic" in2="effect1_dropShadow_209_62" result="shape"/>
</filter>
<filter id="filter2_d_209_62" x="6" y="74" width="190" height="190" filterUnits="userSpaceOnUse" color-interpolation-filters="sRGB">
<feFlood flood-opacity="0" result="BackgroundImageFix"/>
<feColorMatrix in="SourceAlpha" type="matrix" values="0 0 0 0 0 0 0 0 0 0 0 0 0 0 0 0 0 0 127 0" result="hardAlpha"/>
<feOffset/>
<feGaussianBlur stdDeviation="25"/>
<feComposite in2="hardAlpha" operator="out"/>
<feColorMatrix type="matrix" values="0 0 0 0 0.396078 0 0 0 0 0.490196 0 0 0 0 1 0 0 0 0.15 0"/>
<feBlend mode="normal" in2="BackgroundImageFix" result="effect1_dropShadow_209_62"/>
<feBlend mode="normal" in="SourceGraphic" in2="effect1_dropShadow_209_62" result="shape"/>
</filter>
<clipPath id="clip0_209_62">
<rect width="606" height="250" fill="white"/>
</clipPath>
</defs>
</svg>
