<svg width="60" height="58" viewBox="0 0 60 58" fill="none" xmlns="http://www.w3.org/2000/svg">
<g clip-path="url(#clip0_242_197)">
<path d="M43.206 34.375L25.5585 34.375V16.763C25.5585 7.51205 33.0829 -0.0010249 42.3563 -0.0010249H60.0038L60.0038 17.611C60 26.8657 52.4756 34.375 43.206 34.375Z" fill="#5AD018" fill-opacity="0.3"/>
<path d="M24.6246 41.0303C24.4218 41.0303 24.2227 40.9921 24.0314 40.9119L0.937679 31.2331C0.371244 30.9963 0 30.4387 0 29.8237C0 29.2088 0.371244 28.6549 0.937679 28.4143L24.0314 18.7356C24.4103 18.5751 24.8389 18.5751 25.2178 18.7356L48.3115 28.4143C48.878 28.6511 49.2492 29.2088 49.2492 29.8237C49.2492 30.4387 48.878 30.9925 48.3115 31.2331L25.2178 40.9119C25.0265 40.9921 24.8275 41.0303 24.6246 41.0303ZM5.48447 29.8275L24.6246 37.8486L43.7648 29.8275L24.6246 21.8065L5.48447 29.8275Z" fill="#333333"/>
<path d="M24.6246 52.4312C21.758 52.4312 18.8914 51.9194 16.151 50.8919C15.3588 50.594 14.9569 49.7155 15.2555 48.9248C15.554 48.1342 16.4343 47.7331 17.2265 48.0311C22.1484 49.8759 27.5486 49.8186 32.4284 47.8745L38.9194 45.2886L37.488 35.7703L25.2178 40.9114C24.8389 41.0718 24.4103 41.0718 24.0314 40.9114L11.7612 35.7703L10.3298 45.2886L12.0291 45.9647C12.8137 46.2779 13.1964 47.1678 12.8826 47.9509C12.5687 48.7339 11.677 49.1158 10.8924 48.8026L8.06786 47.6758C7.40957 47.4123 7.01536 46.7324 7.12252 46.0296L9.02467 33.3716C9.09356 32.9056 9.37678 32.4969 9.79012 32.2677C10.2035 32.0386 10.6972 32.008 11.1335 32.1914L24.6246 37.8443L38.1157 32.1914C38.552 32.008 39.0457 32.0386 39.4591 32.2677C39.8724 32.4969 40.1518 32.9056 40.2245 33.3716L42.1267 46.0296C42.2338 46.7324 41.8396 47.4123 41.1813 47.6758L33.5651 50.7086C30.6908 51.8544 27.6596 52.4274 24.6246 52.4274V52.4312Z" fill="#333333"/>
<path d="M47.7183 42.7979C46.8725 42.7979 46.1874 42.1142 46.1874 41.2701V29.8267C46.1874 28.9825 46.8725 28.2988 47.7183 28.2988C48.5641 28.2988 49.2492 28.9825 49.2492 29.8267V41.2701C49.2492 42.1142 48.5641 42.7979 47.7183 42.7979Z" fill="#333333"/>
<path d="M48.2847 58.0004H46.4553C44.4154 58.0004 42.7582 56.3465 42.7582 54.3107V54.0663C42.7582 49.3835 43.8796 44.7007 46.0037 40.5259C46.2639 40.0141 46.7921 39.6895 47.37 39.6895C47.9479 39.6895 48.4723 40.0141 48.7364 40.5259C50.8605 44.7007 51.9819 49.3835 51.9819 54.0663V54.3107C51.9819 56.3465 50.3247 58.0004 48.2847 58.0004ZM47.37 45.0865C46.352 47.9626 45.82 51.0106 45.82 54.0624V54.3069C45.82 54.6583 46.107 54.9409 46.4553 54.9409H48.2847C48.6369 54.9409 48.9201 54.6545 48.9201 54.3069V54.0624C48.9201 51.0106 48.3881 47.9626 47.37 45.0865Z" fill="#333333"/>
<path d="M24.6246 31.3545C23.7788 31.3545 23.0937 30.6708 23.0937 29.8267V29.227C23.0937 28.3829 23.7788 27.6992 24.6246 27.6992C25.4704 27.6992 26.1555 28.3829 26.1555 29.227V29.8267C26.1555 30.6708 25.4704 31.3545 24.6246 31.3545Z" fill="#333333"/>
</g>
<defs>
<clipPath id="clip0_242_197">
<rect width="60" height="58" fill="white"/>
</clipPath>
</defs>
</svg>
