<svg width="60" height="59" viewBox="0 0 60 59" fill="none" xmlns="http://www.w3.org/2000/svg">
<g clip-path="url(#clip0_241_129)">
<path d="M41.7103 37.418L22.4911 37.418V18.2474C22.4911 8.17782 30.6856 -0.000110328 40.785 -0.000110328H60.0042L60.0042 19.1704C60.0042 29.2442 51.8055 37.418 41.7103 37.418Z" fill="#F79D25" fill-opacity="0.3"/>
<path d="M25.6047 52.8218H17.3602C11.2414 52.8218 6.26465 47.8577 6.26465 41.7544V31.1235C6.26465 28.4127 8.47375 26.2051 11.1955 26.2051H31.7735C34.4911 26.2051 36.7044 28.4086 36.7044 31.1235V41.7544C36.7044 47.8577 31.7277 52.8218 25.6089 52.8218H25.6047ZM11.1955 29.5311C10.3161 29.5311 9.59914 30.2462 9.59914 31.1235V41.7544C9.59914 46.0242 13.0795 49.4958 17.3602 49.4958H25.6047C29.8853 49.4958 33.3657 46.0242 33.3657 41.7544V31.1235C33.3657 30.2462 32.6488 29.5311 31.7693 29.5311H11.1955Z" fill="#333333"/>
<path d="M35.5332 59.0003H33.3449C32.4238 59.0003 31.6777 58.2561 31.6777 57.3373C31.6777 56.4184 32.4238 55.6742 33.3449 55.6742H35.5332C37.3588 55.6742 38.9135 54.4727 39.4387 52.8221H3.52622C4.05141 54.4727 5.60195 55.6742 7.43175 55.6742H26.776C27.6971 55.6742 28.4432 56.4184 28.4432 57.3373C28.4432 58.2561 27.6971 59.0003 26.776 59.0003H7.43175C3.33449 59.0003 0 55.6742 0 51.5873C0 50.4357 0.941994 49.4961 2.09656 49.4961H40.8684C42.0229 49.4961 42.9649 50.4357 42.9649 51.5873C42.9649 55.6742 39.6304 59.0003 35.5332 59.0003Z" fill="#333333"/>
<path d="M39.8888 45.0561H35.033C34.1118 45.0561 33.3657 44.3119 33.3657 43.393V33.1904C33.3657 32.2715 34.1118 31.5273 35.033 31.5273H42.3939C44.0444 31.5273 45.3866 32.8661 45.3866 34.5125V39.5681C45.3866 42.5948 42.919 45.0561 39.8847 45.0561H39.8888ZM36.7002 41.73H39.8888C41.0851 41.73 42.0562 40.7613 42.0562 39.5681V34.8534H36.7002V41.73Z" fill="#333333"/>
<path d="M21.3948 23.3119C21.0989 23.3119 20.803 23.2329 20.532 23.0708C19.7443 22.5968 19.4942 21.574 19.9694 20.7883C20.753 19.4953 21.2781 17.562 20.1736 16.3688C18.4397 14.4979 17.2351 12.9596 17.556 10.1532C17.8603 7.50484 19.6901 6.10374 19.8943 5.95407C20.6363 5.41359 21.6824 5.57573 22.2243 6.31578C22.7662 7.05582 22.6036 8.09937 21.8617 8.63986C21.845 8.65233 21.0072 9.31754 20.8697 10.5274C20.7238 11.7954 21.003 12.3609 22.6203 14.1071C24.9878 16.6556 24.2083 20.227 22.8245 22.5095C22.5119 23.025 21.9617 23.3119 21.3948 23.3119Z" fill="#333333"/>
<path d="M13.0003 22.8463C12.6085 22.8463 12.2125 22.7091 11.8958 22.4306C11.2038 21.8236 11.1413 20.7717 11.754 20.0815C12.0083 19.7822 13.2671 18.1358 11.8707 16.3688C8.84052 12.5356 11.0871 8.61497 11.183 8.45283C11.6498 7.65873 12.671 7.3968 13.463 7.85829C14.2507 8.31978 14.5217 9.33007 14.0632 10.12C13.934 10.3487 12.9169 12.3235 14.4842 14.3067C17.0309 17.5288 15.4428 20.9338 14.2466 22.2809C13.9173 22.6509 13.4588 22.8422 12.9961 22.8422L13.0003 22.8463Z" fill="#333333"/>
<path d="M29.6686 22.6222C29.4227 22.6222 29.1726 22.5681 28.9392 22.4517C28.1139 22.0484 27.7679 21.0506 28.1764 20.2274C28.2306 20.1152 28.3348 19.8699 28.3973 19.5248C28.5557 18.6184 29.4227 18.0156 30.3272 18.1736C31.2358 18.3316 31.8402 19.1922 31.6818 20.0985C31.5568 20.8095 31.3358 21.3583 31.1733 21.6909C30.8857 22.2813 30.2897 22.6222 29.6728 22.6222H29.6686Z" fill="#333333"/>
<path d="M28.71 16.747C28.1931 16.747 27.6805 16.5059 27.3553 16.0568C24.7003 12.3774 26.355 9.22596 27.6054 8.07432C28.2807 7.45068 29.3352 7.4881 29.9604 8.16578C30.5815 8.83515 30.5439 9.87454 29.8896 10.4982C29.5519 10.8349 28.5933 12.0781 30.0604 14.1111C30.5981 14.8553 30.4314 15.8947 29.6811 16.431C29.3852 16.6431 29.0476 16.7428 28.71 16.7428V16.747Z" fill="#333333"/>
</g>
<defs>
<clipPath id="clip0_241_129">
<rect width="60" height="59" fill="white"/>
</clipPath>
</defs>
</svg>
