<svg width="64" height="60" viewBox="0 0 64 60" fill="none" xmlns="http://www.w3.org/2000/svg">
<path d="M2 2H18.3918C27.0053 2 33.9943 9.00178 33.9943 17.6311V34.0529H17.6026C8.98898 34.0529 2 27.0511 2 18.4218V2Z" fill="#BA70D6" fill-opacity="0.3"/>
<path d="M41.3602 25.4014C35.6865 25.4014 31.2464 22.5914 31.2464 19.0015C31.2464 15.4115 35.6901 12.6016 41.3602 12.6016C47.0303 12.6016 51.4775 15.4115 51.4775 19.0015C51.4775 22.5914 47.0338 25.4014 41.3602 25.4014ZM41.3602 15.4507C37.1973 15.4507 34.0903 17.324 34.0903 19.0015C34.0903 20.6789 37.2009 22.5522 41.3602 22.5522C45.5194 22.5522 48.6335 20.6789 48.6335 19.0015C48.6335 17.324 45.523 15.4507 41.3602 15.4507Z" fill="#333333"/>
<path d="M41.3602 31.0403C35.6865 31.0403 31.2464 28.2304 31.2464 24.6404V19.0027C31.2464 18.2156 31.8827 17.5781 32.6684 17.5781C33.454 17.5781 34.0903 18.2156 34.0903 19.0027C34.0903 20.6766 37.2009 22.5534 41.3602 22.5534C45.5194 22.5534 48.6335 20.6801 48.6335 19.0027C48.6335 18.2156 49.2699 17.5781 50.0555 17.5781C50.8411 17.5781 51.4775 18.2156 51.4775 19.0027V24.6404C51.4775 28.2304 47.0338 31.0403 41.3602 31.0403ZM34.0903 23.4937V24.644C34.0903 26.3214 37.2009 28.1948 41.3602 28.1948C45.5194 28.1948 48.6335 26.3214 48.6335 24.644V23.4937C46.8063 24.6796 44.2432 25.4026 41.3602 25.4026C38.4771 25.4026 35.914 24.6761 34.0903 23.4937Z" fill="#333333"/>
<path d="M41.3602 36.6849C35.6865 36.6849 31.2464 33.8749 31.2464 30.285V24.6472C31.2464 23.8602 31.8827 23.2227 32.6684 23.2227C33.454 23.2227 34.0903 23.8602 34.0903 24.6472C34.0903 26.3247 37.2009 28.198 41.3602 28.198C45.5194 28.198 48.6335 26.3247 48.6335 24.6472C48.6335 23.8602 49.2699 23.2227 50.0555 23.2227C50.8411 23.2227 51.4775 23.8602 51.4775 24.6472V30.285C51.4775 33.8749 47.0338 36.6849 41.3602 36.6849ZM34.0903 29.1346V30.285C34.0903 31.9589 37.2009 33.8357 41.3602 33.8357C45.5194 33.8357 48.6335 31.9624 48.6335 30.285V29.1346C46.8063 30.317 44.2432 31.0436 41.3602 31.0436C38.4771 31.0436 35.914 30.317 34.0903 29.1346Z" fill="#333333"/>
<path d="M49.5756 38.9849C49.1063 38.9849 48.6584 38.7498 48.3918 38.3509C48.0861 37.8915 48.0719 37.2968 48.3598 36.8231C48.5411 36.5204 48.63 36.2319 48.63 35.9363C48.63 35.1492 49.2663 34.5117 50.0519 34.5117C50.8376 34.5117 51.4739 35.1492 51.4739 35.9363V37.4998C51.4739 38.2299 50.9229 38.8424 50.1977 38.9172C50.0591 38.9315 49.924 38.9493 49.7889 38.9706C49.7178 38.9813 49.6467 38.9884 49.5756 38.9884V38.9849Z" fill="#333333"/>
<path d="M41.3602 47.97C35.6865 47.97 31.2464 45.1601 31.2464 41.5701V35.9324C31.2464 35.1453 31.8827 34.5078 32.6684 34.5078C33.454 34.5078 34.0903 35.1453 34.0903 35.9324C34.0903 37.6098 37.2009 39.4831 41.3602 39.4831C42.128 39.4831 42.8923 39.419 43.6246 39.2944C44.2183 39.1911 44.812 39.476 45.107 40.0031C45.4021 40.5302 45.331 41.1855 44.9329 41.6378C43.7206 43.0161 43.0061 44.7826 42.9172 46.6131C42.8817 47.3682 42.2631 47.9629 41.5095 47.97H41.3637H41.3602ZM34.0903 40.4234V41.5737C34.0903 43.0944 36.6534 44.779 40.2368 45.0782C40.4074 44.1272 40.7025 43.2048 41.1113 42.3323C38.3314 42.2931 35.8607 41.5737 34.0903 40.4234Z" fill="#333333"/>
<path d="M41.3602 42.3255C35.6865 42.3255 31.2464 39.5155 31.2464 35.9256V30.2879C31.2464 29.5008 31.8827 28.8633 32.6684 28.8633C33.454 28.8633 34.0903 29.5008 34.0903 30.2879C34.0903 31.9653 37.2009 33.8386 41.3602 33.8386C45.5194 33.8386 48.6335 31.9653 48.6335 30.2879C48.6335 29.5008 49.2699 28.8633 50.0555 28.8633C50.8411 28.8633 51.4775 29.5008 51.4775 30.2879V35.9256C51.4775 36.7483 51.2464 37.5461 50.7878 38.2975C50.571 38.6572 50.2048 38.903 49.7889 38.9671C47.9225 39.252 46.1984 40.1993 44.9364 41.631C44.7231 41.8732 44.4316 42.037 44.1117 42.094C43.2194 42.2472 42.2915 42.3255 41.3602 42.3255ZM34.0903 34.7788V35.9292C34.0903 37.6066 37.2009 39.4799 41.3602 39.4799C41.9681 39.4799 42.5759 39.4407 43.1661 39.3588C44.6449 37.8345 46.5326 36.7697 48.5873 36.2996C48.6193 36.1749 48.6335 36.0538 48.6335 35.9292V34.7788C46.8063 35.9648 44.2432 36.6878 41.3602 36.6878C38.4771 36.6878 35.914 35.9612 34.0903 34.7788Z" fill="#333333"/>
<path d="M23.9339 36.0866C18.2602 36.0866 13.8201 33.2766 13.8201 29.6867C13.8201 28.4651 14.3356 27.2863 15.3132 26.2819C15.8607 25.7192 16.7601 25.705 17.3253 26.2534C17.887 26.8019 17.9012 27.7029 17.3537 28.2692C16.8987 28.7393 16.6676 29.2166 16.6676 29.6867C16.6676 31.3641 19.7782 33.2374 23.9374 33.2374C28.0967 33.2374 31.2073 31.3641 31.2073 29.6867C31.2073 28.0092 28.0967 26.1359 23.9374 26.1359C23.1269 26.1359 22.3306 26.2071 21.5699 26.3425C20.7984 26.4814 20.059 25.9685 19.9168 25.1921C19.7782 24.4193 20.2901 23.6785 21.0651 23.5361C21.9929 23.3687 22.9563 23.2832 23.9339 23.2832C29.6075 23.2832 34.0476 26.0932 34.0476 29.6831C34.0476 33.273 29.604 36.083 23.9339 36.083V36.0866Z" fill="#333333"/>
<path d="M23.9339 41.7239C18.2602 41.7239 13.8201 38.914 13.8201 35.324V29.6863C13.8201 28.8992 14.4565 28.2617 15.2421 28.2617C16.0277 28.2617 16.6641 28.8992 16.6641 29.6863C16.6641 31.3637 19.7746 33.237 23.9339 33.237C28.0931 33.237 31.2037 31.3637 31.2037 29.6863C31.2037 28.8992 31.84 28.2617 32.6257 28.2617C33.4113 28.2617 34.0476 28.8992 34.0476 29.6863V35.324C34.0476 38.914 29.604 41.7239 23.9339 41.7239ZM16.6605 34.1773V35.3276C16.6605 37.0015 19.7711 38.8784 23.9303 38.8784C28.0896 38.8784 31.2001 37.005 31.2001 35.3276V34.1773C29.3729 35.3597 26.8098 36.0862 23.9303 36.0862C21.0508 36.0862 18.4842 35.3597 16.6605 34.1773Z" fill="#333333"/>
<path d="M23.9339 47.3685C18.2602 47.3685 13.8201 44.5585 13.8201 40.9686V35.3308C13.8201 34.5437 14.4565 33.9062 15.2421 33.9062C16.0277 33.9062 16.6641 34.5437 16.6641 35.3308C16.6641 37.0083 19.7746 38.8816 23.9339 38.8816C28.0931 38.8816 31.2037 37.0083 31.2037 35.3308C31.2037 34.5437 31.84 33.9062 32.6257 33.9062C33.4113 33.9062 34.0476 34.5437 34.0476 35.3308V40.9686C34.0476 44.5585 29.604 47.3685 23.9339 47.3685ZM16.6605 39.8218V40.9721C16.6605 42.6496 19.7711 44.5229 23.9303 44.5229C28.0896 44.5229 31.2001 42.6496 31.2001 40.9721V39.8218C29.3729 41.0042 26.8098 41.7307 23.9303 41.7307C21.0508 41.7307 18.4842 41.0042 16.6605 39.8218Z" fill="#333333"/>
<path d="M23.9339 53.013C18.2602 53.013 13.8201 50.203 13.8201 46.6131V40.9754C13.8201 40.1883 14.4565 39.5508 15.2421 39.5508C16.0277 39.5508 16.6641 40.1883 16.6641 40.9754C16.6641 42.6528 19.7746 44.5261 23.9339 44.5261C28.0931 44.5261 31.2037 42.6528 31.2037 40.9754C31.2037 40.1883 31.84 39.5508 32.6257 39.5508C33.4113 39.5508 34.0476 40.1883 34.0476 40.9754V46.6131C34.0476 50.203 29.604 53.013 23.9339 53.013ZM16.6605 45.4628V46.6131C16.6605 48.2905 19.7711 50.1639 23.9303 50.1639C28.0896 50.1639 31.2001 48.2905 31.2001 46.6131V45.4628C29.3729 46.6452 26.8098 47.3717 23.9303 47.3717C21.0508 47.3717 18.4842 46.6452 16.6605 45.4628Z" fill="#333333"/>
<path d="M51.0296 57.9994C44.9826 57.9994 40.0626 53.0704 40.0626 47.0124C40.0626 40.9544 44.9826 36.0254 51.0296 36.0254C57.0765 36.0254 61.9965 40.9544 61.9965 47.0124C61.9965 48.6293 61.6552 50.1857 60.9798 51.6387C60.6492 52.351 59.8031 52.6609 59.0921 52.3296C58.3811 51.9984 58.0719 51.1508 58.4025 50.4385C58.9002 49.363 59.1561 48.2091 59.1561 47.0124C59.1561 42.525 55.5123 38.8745 51.0331 38.8745C46.5539 38.8745 42.9101 42.525 42.9101 47.0124C42.9101 51.4998 46.5539 55.1503 51.0331 55.1503C52.4693 55.1503 53.8806 54.7692 55.1142 54.0498C55.7932 53.6545 56.6641 53.886 57.0587 54.5627C57.4533 55.2429 57.2222 56.1154 56.5432 56.5108C54.876 57.483 52.9705 57.9959 51.0331 57.9959L51.0296 57.9994Z" fill="#333333"/>
<path d="M53.0523 51.994C52.4302 51.994 51.8828 51.5916 51.6979 51.0004L51.0331 48.892L50.3684 51.0004C50.18 51.5916 49.6325 51.994 49.0139 51.994C48.3954 51.994 47.8444 51.5916 47.6595 51.0004L45.6368 44.5934C45.3986 43.8419 45.8145 43.0441 46.5646 42.8055C47.3147 42.5669 48.111 42.9836 48.3492 43.7351L49.0139 45.847L49.6787 43.7351C49.8671 43.1439 50.4146 42.7414 51.0331 42.7414C51.6552 42.7414 52.2027 43.1439 52.3876 43.7351L53.0523 45.8434L53.7171 43.7351C53.9553 42.9836 54.7516 42.5705 55.5017 42.8055C56.2518 43.0441 56.6641 43.8419 56.4295 44.5934L54.4068 51.0004C54.2183 51.5916 53.6709 51.994 53.0523 51.994Z" fill="#333333"/>
<path d="M55.8252 48.6402H46.2375C45.4519 48.6402 44.8156 48.0027 44.8156 47.2156C44.8156 46.4285 45.4519 45.791 46.2375 45.791H55.8252C56.6108 45.791 57.2471 46.4285 57.2471 47.2156C57.2471 48.0027 56.6108 48.6402 55.8252 48.6402Z" fill="#333333"/>
</svg>
