<svg width="60" height="58" viewBox="0 0 60 58" fill="none" xmlns="http://www.w3.org/2000/svg">
<g clip-path="url(#clip0_242_208)">
<path d="M41.6168 37.4316L22.3037 37.4316V18.2536C22.3037 8.18001 30.5382 -0.00113428 40.6869 -0.00113428H60L60 19.1769C60 29.2547 51.7613 37.4316 41.6168 37.4316Z" fill="#FFA0AC" fill-opacity="0.3"/>
<path d="M40.3435 37.9304H1.67539C0.749738 37.9304 0 37.1859 0 36.2668V28.8676C0 26.4178 1.94764 24.4297 4.34346 24.4297H37.6754C40.0712 24.4297 42.0188 26.4219 42.0188 28.8676V36.2668C42.0188 37.1859 41.2691 37.9304 40.3435 37.9304ZM3.35079 34.6031H38.6681V28.8676C38.6681 28.2561 38.2241 27.757 37.6754 27.757H4.34346C3.79476 27.757 3.35079 28.2561 3.35079 28.8676V34.6031Z" fill="#333333"/>
<path d="M33.3487 57.999H8.67016C4.9089 57.999 1.85131 54.9628 1.85131 51.2278V36.2672C1.85131 35.348 2.60105 34.6035 3.5267 34.6035H38.488C39.4136 34.6035 40.1634 35.348 40.1634 36.2672C40.1634 37.1864 39.4136 37.9309 38.488 37.9309H5.20209V51.2278C5.20209 53.1244 6.75602 54.6716 8.67016 54.6716H33.3487C35.2586 54.6716 36.8168 53.1286 36.8168 51.2278V42.9261C36.8168 42.0069 37.5665 41.2624 38.4921 41.2624C39.4178 41.2624 40.1675 42.0069 40.1675 42.9261V51.2278C40.1675 54.9628 37.1099 57.999 33.3487 57.999Z" fill="#333333"/>
<path d="M17.8429 51.8183C16.9173 51.8183 16.1675 51.0738 16.1675 50.1546V26.0895C16.1675 25.1703 16.9173 24.4258 17.8429 24.4258C18.7686 24.4258 19.5183 25.1703 19.5183 26.0895V50.1546C19.5183 51.0738 18.7686 51.8183 17.8429 51.8183Z" fill="#333333"/>
<path d="M24.2429 57.9988C23.3173 57.9988 22.5675 57.2543 22.5675 56.3351V26.0895C22.5675 25.1703 23.3173 24.4258 24.2429 24.4258C25.1686 24.4258 25.9183 25.1703 25.9183 26.0895V56.3351C25.9183 57.2543 25.1686 57.9988 24.2429 57.9988Z" fill="#333333"/>
<path d="M27.5937 27.7538C24.3937 27.7538 21.2105 26.8804 20.6953 26.7348C19.8073 26.4811 19.2963 25.5577 19.5518 24.676C19.778 23.8941 21.8681 16.9856 25.6628 14.906C29.6461 12.7183 33.9309 13.6333 35.8492 17.0771C36.7707 18.7325 36.9131 20.6374 36.2513 22.4342C35.5937 24.2226 34.2199 25.7324 32.2806 26.7972C30.9738 27.5167 29.2817 27.758 27.5979 27.758L27.5937 27.7538ZM23.3298 23.944C25.8346 24.4514 29.1016 24.7342 30.6597 23.8816C31.866 23.2203 32.733 22.3011 33.1058 21.2904C33.4325 20.4003 33.3696 19.4978 32.9173 18.6868C31.9246 16.9025 29.6084 16.5448 27.288 17.8216C25.7298 18.6743 24.2346 21.5732 23.334 23.9481L23.3298 23.944Z" fill="#333333"/>
<path d="M14.7309 27.7532C13.0471 27.7532 11.355 27.512 10.0482 26.7924C8.1089 25.7277 6.73508 24.2179 6.07749 22.4294C5.41571 20.6326 5.55812 18.7277 6.47958 17.0724C7.40105 15.417 8.9466 14.2857 10.8314 13.8823C12.7079 13.483 14.7225 13.8365 16.666 14.9013C20.4565 16.9809 22.5508 23.8893 22.777 24.6712C23.0325 25.553 22.5215 26.4763 21.6293 26.73C21.1141 26.8798 17.9309 27.749 14.7309 27.749V27.7532ZM12.3393 17.0557C12.0628 17.0557 11.7906 17.0849 11.5309 17.1389C10.5969 17.3386 9.86387 17.8709 9.41152 18.682C8.95916 19.493 8.89215 20.3956 9.22304 21.2856C9.59581 22.2963 10.4628 23.2155 11.6691 23.8768C13.2314 24.7336 16.4984 24.4508 18.999 23.9434C18.0984 21.5685 16.6031 18.6695 15.045 17.8127C14.1361 17.3136 13.1979 17.0516 12.3393 17.0516V17.0557Z" fill="#333333"/>
</g>
<defs>
<clipPath id="clip0_242_208">
<rect width="60" height="58" fill="white"/>
</clipPath>
</defs>
</svg>
