<svg width="60" height="62" viewBox="0 0 60 62" fill="none" xmlns="http://www.w3.org/2000/svg">
<g clip-path="url(#clip0_241_155)">
<path d="M41.6081 38.0254L22.2815 38.0254V18.5432C22.2815 8.30984 30.5218 -0.00104833 40.6776 -0.00104833H60.0042L60.0042 19.4812C60 29.7187 51.7597 38.0254 41.6081 38.0254Z" fill="#F79D25" fill-opacity="0.3"/>
<path d="M26.6197 62C26.0077 62 25.4377 61.662 25.1443 61.1127L22.9019 56.9298C22.7175 56.5875 22.6588 56.1904 22.73 55.8059C23.2917 52.8652 23.8743 49.5611 24.0545 48.1879L19.0961 43.4938L10.4785 60.6437C10.1893 61.2183 9.6193 61.5775 8.96964 61.569C8.33254 61.5648 7.75413 61.193 7.47749 60.6141L4.44711 54.3017C4.27107 53.9384 4.23334 53.5285 4.33394 53.1356L9.24627 34.2449L2.90467 28.1691C1.15266 26.5044 0.0377455 23.9947 2.28718e-05 21.6201C-0.0251256 19.8033 0.578437 18.1766 1.70593 17.04C2.83341 15.9035 4.4513 15.312 6.24522 15.3204C8.60079 15.3584 11.0947 16.4823 12.7503 18.2527L18.7733 24.6369L27.831 22.2454C28.7279 22.0088 29.6417 22.5497 29.8764 23.4538C30.1111 24.358 29.5746 25.2791 28.6776 25.5157L18.6602 28.1607C18.0692 28.317 17.4405 28.1353 17.0213 27.6917L10.3109 20.5765C9.26723 19.4568 7.65353 18.7217 6.19073 18.7005C5.56202 18.6879 4.68602 18.8104 4.06988 19.4273C3.45793 20.0484 3.33638 20.9314 3.34896 21.5652C3.36991 23.0355 4.09922 24.6622 5.20156 25.7101L12.2641 32.4788C12.7084 32.9013 12.8844 33.5351 12.7293 34.1308L7.72479 53.3849L9.01155 56.0636L17.1093 39.9446C17.3483 39.4714 17.7925 39.1376 18.3165 39.0447C18.8362 38.9517 19.3685 39.1123 19.7541 39.4756L26.9047 46.2443C27.6675 46.9669 27.7974 47.0936 26.1293 55.8439L26.473 56.4861L30.4674 47.5288C30.5763 47.2837 30.744 47.0683 30.9536 46.8992C31.0206 46.8443 31.0877 46.7852 31.1464 46.7218C31.2092 46.6584 31.2679 46.5908 31.3224 46.5232C31.4901 46.312 31.7038 46.1472 31.9469 46.0373L40.8327 42.0065L40.1956 41.66C31.5152 43.3417 31.3937 43.2107 30.6769 42.4417L23.9581 35.2294C23.5976 34.8406 23.4384 34.304 23.5306 33.7801C23.6228 33.2562 23.9539 32.8041 24.4234 32.5633L40.4136 24.4003L37.7562 23.1031L34.4324 23.982C33.5397 24.2186 32.6217 23.6778 32.387 22.7736C32.1523 21.8694 32.6888 20.9483 33.5858 20.7117L37.5047 19.6765C37.8903 19.5751 38.3011 19.6132 38.6616 19.7906L44.9235 22.8454C45.4978 23.1243 45.8624 23.7073 45.8708 24.3496C45.875 24.9918 45.5187 25.5833 44.9529 25.8706L27.9399 34.5576L32.5966 39.5559C33.9588 39.3785 37.2365 38.7912 40.1537 38.2208C40.5309 38.1489 40.9291 38.2081 41.2686 38.394L45.4181 40.6545C45.9798 40.9587 46.3193 41.5586 46.2983 42.2009C46.2774 42.8431 45.8917 43.4177 45.3091 43.6797L33.6654 48.9611C33.6193 49.0118 33.5732 49.0583 33.5271 49.1048C33.481 49.1513 33.4307 49.1977 33.3846 49.2442L28.1495 60.9817C27.8897 61.569 27.3196 61.9535 26.6825 61.9788C26.6616 61.9788 26.6406 61.9788 26.6197 61.9788V62Z" fill="#333333"/>
</g>
<defs>
<clipPath id="clip0_241_155">
<rect width="60" height="62" fill="white"/>
</clipPath>
</defs>
</svg>
