<svg width="60" height="58" viewBox="0 0 60 58" fill="none" xmlns="http://www.w3.org/2000/svg">
<g clip-path="url(#clip0_241_143)">
<path d="M41.6568 37.9355L22.3814 37.9355V18.4996C22.3814 8.29063 30.5999 -0.00049895 40.7288 -0.00049895H60.0042L60.0042 19.4354C60.0042 29.6486 51.7815 37.9355 41.6568 37.9355Z" fill="#BA70D6" fill-opacity="0.3"/>
<path d="M20.4125 58.0008C16.7923 58.0008 13.239 57.0313 10.1289 55.2019C9.33045 54.7341 9.06291 53.7013 9.52693 52.8963C9.99512 52.0912 11.0193 51.8214 11.8136 52.2893C14.4137 53.8194 17.3859 54.6287 20.4125 54.6287C29.8223 54.6287 37.4807 46.9066 37.4807 37.4183C37.4807 27.9301 29.8223 20.208 20.4125 20.208C11.0026 20.208 3.34425 27.9259 3.34425 37.4183C3.34425 41.3679 4.70285 45.229 7.17341 48.2849C7.75866 49.0057 7.64997 50.0679 6.93514 50.658C6.2203 51.2439 5.16686 51.1386 4.58162 50.4178C1.62614 46.759 0 42.1435 0 37.4183C0 26.067 9.15906 16.8359 20.4125 16.8359C31.6659 16.8359 40.8249 26.0713 40.8249 37.4183C40.8249 48.7654 31.6659 58.0008 20.4125 58.0008Z" fill="#333333"/>
<path d="M20.4125 41.6676C18.0882 41.6676 16.1987 39.7624 16.1987 37.4188C16.1987 35.0752 18.0882 33.1699 20.4125 33.1699C22.7367 33.1699 24.6262 35.0752 24.6262 37.4188C24.6262 39.7624 22.7367 41.6676 20.4125 41.6676ZM20.4125 36.542C19.9317 36.542 19.5429 36.934 19.5429 37.4188C19.5429 37.9035 19.9317 38.2955 20.4125 38.2955C20.8932 38.2955 21.282 37.9035 21.282 37.4188C21.282 36.934 20.8932 36.542 20.4125 36.542Z" fill="#333333"/>
<path d="M20.4125 36.5424C19.4886 36.5424 18.7403 35.7879 18.7403 34.8564V26.7212C18.7403 25.7897 19.4886 25.0352 20.4125 25.0352C21.3363 25.0352 22.0846 25.7897 22.0846 26.7212V34.8564C22.0846 35.7879 21.3363 36.5424 20.4125 36.5424Z" fill="#333333"/>
<path d="M20.4125 19.642C19.4886 19.642 18.7403 18.8875 18.7403 17.9559V11.0474C18.7403 10.1158 19.4886 9.36133 20.4125 9.36133C21.3363 9.36133 22.0846 10.1158 22.0846 11.0474V17.9559C22.0846 18.8875 21.3363 19.642 20.4125 19.642Z" fill="#333333"/>
<path d="M26.754 12.7295H14.0709C13.1471 12.7295 12.3988 11.975 12.3988 11.0435C12.3988 10.1119 13.1471 9.35742 14.0709 9.35742H26.754C27.6778 9.35742 28.4261 10.1119 28.4261 11.0435C28.4261 11.975 27.6778 12.7295 26.754 12.7295Z" fill="#333333"/>
<path d="M34.2535 25.7507C33.8271 25.7507 33.3965 25.5864 33.0705 25.2576C32.4183 24.6 32.4183 23.5336 33.0705 22.8718L36.2391 19.6768C36.8913 19.0192 37.9531 19.0192 38.6052 19.6768C39.2573 20.3343 39.2573 21.4007 38.6052 22.0625L35.4365 25.2576C35.1104 25.5864 34.6841 25.7507 34.2535 25.7507Z" fill="#333333"/>
<path d="M40.4111 24.6417C39.3702 24.6417 38.392 24.2328 37.6563 23.491L34.822 20.6373C33.3045 19.103 33.3004 16.6119 34.822 15.0776L35.449 14.4496C36.1848 13.7077 37.163 13.2988 38.2039 13.2988C39.2448 13.2988 40.223 13.7077 40.9587 14.4496L43.7888 17.3032C45.3062 18.8375 45.3104 21.3286 43.7888 22.8629L43.1617 23.491C42.426 24.2328 41.4478 24.6417 40.4069 24.6417H40.4111ZM38.2039 16.6667C38.1203 16.6667 37.9531 16.6878 37.8109 16.8311L37.1839 17.4591C36.9707 17.6783 36.9707 18.0324 37.1839 18.2474L40.0181 21.101C40.1603 21.2443 40.3233 21.2654 40.4111 21.2654C40.4989 21.2654 40.6619 21.2443 40.804 21.101L41.4311 20.473C41.6443 20.2538 41.6443 19.8997 41.4311 19.6847L38.5968 16.8311C38.4547 16.6878 38.2917 16.6667 38.2039 16.6667Z" fill="#333333"/>
</g>
<defs>
<clipPath id="clip0_241_143">
<rect width="60" height="58" fill="white"/>
</clipPath>
</defs>
</svg>
