<svg width="57" height="60" viewBox="0 0 57 60" fill="none" xmlns="http://www.w3.org/2000/svg">
<g clip-path="url(#clip0_242_221)">
<path d="M0 0H19.4629C29.6861 0 37.9887 8.31993 37.9887 18.5738V38.0872H18.5258C8.29843 38.0872 0 29.7672 0 19.5133V0Z" fill="#BA70D6" fill-opacity="0.3"/>
<path d="M49.5542 60.0008H26.8496C22.7426 60.0008 19.4038 56.6534 19.4038 52.5357V21.9221C19.4038 17.8045 22.7426 14.457 26.8496 14.457H34.3756C35.2451 14.457 35.9753 15.1214 36.0555 15.989L36.3595 19.1925H40.0444L40.3483 15.989C40.4327 15.1214 41.1587 14.457 42.0282 14.457H49.5542C53.6612 14.457 57 17.8045 57 21.9221V26.3614C57 27.2966 56.2444 28.0542 55.3116 28.0542C54.3788 28.0542 53.6232 27.2966 53.6232 26.3614V21.9221C53.6232 19.6707 51.7998 17.8426 49.5542 17.8426H43.5646L43.2607 21.0461C43.1763 21.9137 42.4503 22.5781 41.5808 22.5781H34.8272C33.9577 22.5781 33.2275 21.9137 33.1473 21.0461L32.8434 17.8426H26.8538C24.6083 17.8426 22.7848 19.6707 22.7848 21.9221V52.5357C22.7848 54.7871 24.6083 56.6153 26.8538 56.6153H49.5584C51.804 56.6153 53.6274 54.7871 53.6274 52.5357V33.2129C53.6274 32.2776 54.383 31.5201 55.3158 31.5201C56.2487 31.5201 57.0042 32.2776 57.0042 33.2129V52.5357C57.0042 56.6534 53.6654 60.0008 49.5584 60.0008H49.5542Z" fill="#333333"/>
<path d="M41.5808 22.5779H34.8272C33.9577 22.5779 33.2275 21.9135 33.1473 21.0459L32.4762 13.9913C32.3875 13.0476 32.6999 12.1039 33.3372 11.4014C33.9746 10.6989 34.8821 10.2969 35.8276 10.2969H40.5846C41.5301 10.2969 42.4377 10.6989 43.075 11.4014C43.7124 12.1039 44.0247 13.0476 43.9361 13.9913L43.265 21.0459C43.1805 21.9135 42.4545 22.5779 41.585 22.5779H41.5808ZM36.3594 19.1923H40.0444L40.5678 13.6697L35.8234 13.6824L36.3594 19.1923Z" fill="#333333"/>
<path d="M46.0128 51.1297H30.3952C29.4624 51.1297 28.7068 50.3722 28.7068 49.4369C28.7068 48.5017 29.4624 47.7441 30.3952 47.7441H46.0128C46.9456 47.7441 47.7012 48.5017 47.7012 49.4369C47.7012 50.3722 46.9456 51.1297 46.0128 51.1297Z" fill="#333333"/>
<path d="M43.4 22.5769H33.008C32.0752 22.5769 31.3196 21.8194 31.3196 20.8842C31.3196 19.9489 32.0752 19.1914 33.008 19.1914H43.4C44.3329 19.1914 45.0884 19.9489 45.0884 20.8842C45.0884 21.8194 44.3329 22.5769 43.4 22.5769Z" fill="#333333"/>
<path d="M38.204 38.0577C35.0298 38.0577 32.4508 35.4677 32.4508 32.2896C32.4508 29.1114 35.0341 26.5215 38.204 26.5215C41.374 26.5215 43.9572 29.1114 43.9572 32.2896C43.9572 35.4677 41.374 38.0577 38.204 38.0577ZM38.204 29.9028C36.8913 29.9028 35.8276 30.9735 35.8276 32.2853C35.8276 33.5972 36.8955 34.6679 38.204 34.6679C39.5125 34.6679 40.5804 33.5972 40.5804 32.2853C40.5804 30.9735 39.5125 29.9028 38.204 29.9028Z" fill="#333333"/>
<path d="M42.7247 45.3998H33.6791C32.7632 45.3998 31.8937 45.002 31.2943 44.3037C30.6949 43.6054 30.4332 42.6871 30.5683 41.7773L30.8891 39.6401C31.3238 36.7624 33.7467 34.6719 36.6507 34.6719H39.7447C42.6487 34.6719 45.0715 36.7624 45.5063 39.6401L45.8271 41.7773C45.9622 42.6871 45.7005 43.6054 45.1011 44.3037C44.5017 45.002 43.6364 45.3998 42.7205 45.3998H42.7247ZM33.9535 42.0142H42.4545L42.1717 40.148C41.9902 38.9376 40.973 38.0574 39.7489 38.0574H36.6549C35.4351 38.0574 34.4136 38.9376 34.2321 40.148L33.9493 42.0142H33.9535Z" fill="#333333"/>
</g>
<defs>
<clipPath id="clip0_242_221">
<rect width="57" height="60" fill="white"/>
</clipPath>
</defs>
</svg>
