<svg width="60" height="60" viewBox="0 0 60 60" fill="none" xmlns="http://www.w3.org/2000/svg">
<g clip-path="url(#clip0_241_80)">
<path d="M-0.000854492 4H17.9693C27.4122 4 35.0742 11.6559 35.0742 21.0913V39.0472H17.1041C7.66109 39.0472 -0.000854492 31.3913 -0.000854492 21.9558V4Z" fill="#4A95FA" fill-opacity="0.3"/>
<path d="M55.2189 55.0002H15.5335C12.8951 55.0002 10.7516 52.8545 10.7516 50.2221V27.8386C10.7516 25.2023 12.899 23.0605 15.5335 23.0605H44.6847C45.546 23.0605 46.2436 23.7576 46.2436 24.6182C46.2436 25.4788 45.546 26.1759 44.6847 26.1759H15.5335C14.6137 26.1759 13.8694 26.9235 13.8694 27.8386V50.2221C13.8694 51.1411 14.6176 51.8849 15.5335 51.8849H55.2189C56.1387 51.8849 56.883 51.1372 56.883 50.2221V27.8386C56.883 26.9196 56.1348 26.1759 55.2189 26.1759H51.0372C50.1759 26.1759 49.4783 25.4788 49.4783 24.6182C49.4783 23.7576 50.1759 23.0605 51.0372 23.0605H55.2189C57.8573 23.0605 60.0008 25.2062 60.0008 27.8386V50.2221C60.0008 52.8584 57.8534 55.0002 55.2189 55.0002Z" fill="#333333"/>
<path d="M38.683 45.805C38.0049 45.805 37.4009 45.365 37.1982 44.7185L35.3782 38.9708L33.5582 44.7185C33.3516 45.365 32.7515 45.805 32.0734 45.805C31.3952 45.805 30.7912 45.365 30.5885 44.7185L27.2837 34.2745C27.0226 33.4528 27.4785 32.5805 28.3008 32.3196C29.1232 32.0587 29.9961 32.5143 30.2572 33.336L32.0772 39.0837L33.8973 33.336C34.1038 32.6896 34.704 32.2495 35.3821 32.2495C36.0602 32.2495 36.6643 32.6896 36.8669 33.336L38.6869 39.0837L40.5069 33.336C40.7681 32.5143 41.641 32.0626 42.4634 32.3196C43.2857 32.5805 43.7377 33.4528 43.4805 34.2745L40.1757 44.7185C39.9691 45.365 39.369 45.805 38.6908 45.805H38.683Z" fill="#333333"/>
<path d="M43.3168 40.5821H27.4395C26.5782 40.5821 25.8806 39.8851 25.8806 39.0244C25.8806 38.1638 26.5782 37.4668 27.4395 37.4668H43.3168C44.1781 37.4668 44.8757 38.1638 44.8757 39.0244C44.8757 39.8851 44.1781 40.5821 43.3168 40.5821Z" fill="#333333"/>
<path d="M12.3105 36.9314C11.913 36.9314 11.5115 36.7796 11.2076 36.4758C10.5996 35.8683 10.5996 34.8831 11.2076 34.2717L21.9756 23.5123C22.5836 22.9048 23.5696 22.9048 24.1814 23.5123C24.7894 24.1197 24.7894 25.105 24.1814 25.7163L13.4134 36.4758C13.1094 36.7796 12.7119 36.9314 12.3105 36.9314Z" fill="#333333"/>
<path d="M47.6739 54.9998C47.2764 54.9998 46.8749 54.8479 46.571 54.5442C45.963 53.9367 45.963 52.9515 46.571 52.3401L57.339 41.5806C57.947 40.9731 58.9369 40.9731 59.5448 41.5806C60.1528 42.1881 60.1528 43.1733 59.5448 43.7847L48.7768 54.5442C48.4728 54.8479 48.0753 54.9998 47.6739 54.9998Z" fill="#333333"/>
</g>
<defs>
<clipPath id="clip0_241_80">
<rect width="60" height="60" fill="white"/>
</clipPath>
</defs>
</svg>
