<svg width="58" height="60" viewBox="0 0 58 60" fill="none" xmlns="http://www.w3.org/2000/svg">
<g clip-path="url(#clip0_242_186)">
<path d="M0 0H21.6112C32.9627 0 42.1818 9.25685 42.1818 20.6655V42.3762H20.5707C9.21438 42.3762 0 33.1194 0 21.7107V0Z" fill="#F79D25" fill-opacity="0.3"/>
<path d="M19.6052 59.9955C18.5694 59.9955 17.7304 59.1526 17.7304 58.1121V43.3322C17.7304 37.4607 22.4876 32.6816 28.3321 32.6816H33.2627C34.2985 32.6816 35.1375 33.5245 35.1375 34.565C35.1375 35.6056 34.2985 36.4484 33.2627 36.4484H28.3321C24.5545 36.4484 21.4799 39.5372 21.4799 43.3322V58.1121C21.4799 59.1526 20.641 59.9955 19.6052 59.9955Z" fill="#333333"/>
<path d="M30.8021 30.281C25.8153 30.281 21.7564 26.2034 21.7564 21.1936C21.7564 16.1838 25.8153 12.1016 30.8021 12.1016C35.7889 12.1016 39.8478 16.1791 39.8478 21.1936C39.8478 26.2081 35.7889 30.281 30.8021 30.281ZM30.8021 15.8636C27.8822 15.8636 25.5059 18.2508 25.5059 21.1889C25.5059 24.127 27.8822 26.5095 30.8021 26.5095C33.722 26.5095 36.0983 24.1223 36.0983 21.1889C36.0983 18.2555 33.722 15.8636 30.8021 15.8636Z" fill="#333333"/>
<path d="M47.8248 48.6199C42.2146 48.6199 37.6496 44.0339 37.6496 38.3979C37.6496 32.7618 42.2146 28.1758 47.8248 28.1758C53.435 28.1758 58 32.7618 58 38.3979C58 44.0339 53.435 48.6199 47.8248 48.6199ZM47.8248 31.9426C44.2815 31.9426 41.3991 34.8383 41.3991 38.3979C41.3991 41.9575 44.2815 44.8532 47.8248 44.8532C51.3681 44.8532 54.2505 41.9575 54.2505 38.3979C54.2505 34.8383 51.3681 31.9426 47.8248 31.9426Z" fill="#333333"/>
<path d="M53.6553 60.0012C53.1866 60.0012 52.7226 59.8223 52.3664 59.488L47.8248 55.175L43.2832 59.488C42.7396 60.0059 41.9428 60.1472 41.2538 59.8505C40.5648 59.5539 40.1196 58.8712 40.1196 58.1225V44.3361C40.1196 43.5781 40.5742 42.8906 41.2726 42.5987C41.9709 42.3068 42.7724 42.4622 43.3114 42.9942C44.5206 44.1949 46.1235 44.8588 47.8248 44.8588C49.5261 44.8588 51.129 44.1949 52.3383 42.9942C52.8773 42.4622 53.6787 42.3021 54.377 42.5987C55.0754 42.8906 55.53 43.5781 55.53 44.3361V58.1225C55.53 58.8759 55.0848 59.5539 54.3958 59.8505C54.1568 59.9541 53.9037 60.0059 53.6553 60.0059V60.0012ZM47.8248 50.702C48.2888 50.702 48.7528 50.8715 49.1137 51.2152L51.7805 53.7484V47.8204C50.5432 48.343 49.2074 48.6208 47.8248 48.6208C46.4422 48.6208 45.1064 48.3477 43.8691 47.8204V53.7484L46.5359 51.2152C46.8968 50.8715 47.3608 50.702 47.8248 50.702Z" fill="#333333"/>
</g>
<defs>
<clipPath id="clip0_242_186">
<rect width="58" height="60" fill="white"/>
</clipPath>
</defs>
</svg>
