<svg width="60" height="60" viewBox="0 0 60 60" fill="none" xmlns="http://www.w3.org/2000/svg">
<g clip-path="url(#clip0_242_234)">
<path d="M0 2H16.7907C25.6102 2 32.773 9.14815 32.773 17.9579V34.7229H15.9823C7.15907 34.7229 0 27.5748 0 18.7651V2Z" fill="#FFA0AC" fill-opacity="0.3"/>
<path d="M35.362 53.5594H20.1663C16.0915 53.5594 12.7778 50.2507 12.7778 46.1822V26.1194C12.7778 22.0508 16.0915 18.7422 20.1663 18.7422H43.5371C47.6118 18.7422 50.9256 22.0508 50.9256 26.1194V34.5692C50.9256 35.3727 50.2737 36.0235 49.469 36.0235C48.6642 36.0235 48.0124 35.3727 48.0124 34.5692V26.1194C48.0124 23.6579 46.006 21.6509 43.5371 21.6509H20.1663C17.7011 21.6509 15.691 23.6543 15.691 26.1194V46.1822C15.691 48.6437 17.6974 50.6507 20.1663 50.6507H35.362C36.1668 50.6507 36.8186 51.3015 36.8186 52.105C36.8186 52.9086 36.1668 53.5594 35.362 53.5594Z" fill="#333333"/>
<path d="M49.4653 32.5259H14.2344C13.4296 32.5259 12.7778 31.8751 12.7778 31.0715C12.7778 30.268 13.4296 29.6172 14.2344 29.6172H49.4653C50.2701 29.6172 50.9219 30.268 50.9219 31.0715C50.9219 31.8751 50.2701 32.5259 49.4653 32.5259Z" fill="#333333"/>
<path d="M23.9716 21.3868C23.1668 21.3868 22.515 20.736 22.515 19.9325V16.3547C22.515 15.5512 23.1668 14.9004 23.9716 14.9004C24.7763 14.9004 25.4282 15.5512 25.4282 16.3547V19.9325C25.4282 20.736 24.7763 21.3868 23.9716 21.3868Z" fill="#333333"/>
<path d="M39.7281 21.3868C38.9233 21.3868 38.2715 20.736 38.2715 19.9325V16.3547C38.2715 15.5512 38.9233 14.9004 39.7281 14.9004C40.5328 14.9004 41.1846 15.5512 41.1846 16.3547V19.9325C41.1846 20.736 40.5328 21.3868 39.7281 21.3868Z" fill="#333333"/>
<path d="M49.1376 56.9997C49.0101 56.9997 48.8827 56.9815 48.7588 56.9488C48.3292 56.8324 38.2751 54.0183 38.2751 44.9867V44.8558C38.2751 41.2127 41.232 38.1367 44.7278 38.1367C46.3337 38.1367 47.925 38.8712 49.1376 40.1074C50.3538 38.8712 51.9415 38.1367 53.5473 38.1367C57.0468 38.1367 60 41.2127 60 44.8558V44.9867C60 53.9601 49.9496 56.8288 49.5236 56.9451C49.3961 56.9815 49.265 56.996 49.1376 56.996V56.9997ZM44.7241 41.0454C42.8379 41.0454 41.1847 42.827 41.1847 44.8558V44.9867C41.1847 51.0114 47.4734 53.4765 49.1339 54.0219C50.7871 53.4692 57.0905 50.975 57.0905 44.9867V44.8558C57.0905 42.827 55.4372 41.0454 53.551 41.0454C52.1854 41.0454 51.002 42.1435 50.4303 43.2342C50.179 43.7142 49.6801 44.0159 49.1412 44.0159C48.5986 44.0159 48.1034 43.7142 47.8521 43.2342C47.2804 42.1471 46.097 41.0454 44.7314 41.0454H44.7241Z" fill="#333333"/>
</g>
<defs>
<clipPath id="clip0_242_234">
<rect width="60" height="60" fill="white"/>
</clipPath>
</defs>
</svg>
