<svg width="60" height="60" viewBox="0 0 60 60" fill="none" xmlns="http://www.w3.org/2000/svg">
<g clip-path="url(#clip0_241_92)">
<path d="M0 4H18.3449C27.9809 4 35.8066 11.8689 35.8066 21.567V40.0226H17.4617C7.82176 40.0226 0 32.1537 0 22.4556V4Z" fill="#F79D25" fill-opacity="0.3"/>
<path d="M16.6421 54.9998C15.7629 54.9998 15.0507 54.2834 15.0507 53.3988V40.8349C15.0507 35.8438 19.0889 31.7812 24.0501 31.7812H28.2355C29.1148 31.7812 29.8269 32.4977 29.8269 33.3823C29.8269 34.2668 29.1148 34.9833 28.2355 34.9833H24.0501C20.8434 34.9833 18.2335 37.6089 18.2335 40.8349V53.3988C18.2335 54.2834 17.5214 54.9998 16.6421 54.9998Z" fill="#333333"/>
<path d="M35.6475 54.9999C34.7682 54.9999 34.0561 54.2834 34.0561 53.3989V48.728C34.0561 47.8434 34.7682 47.127 35.6475 47.127C36.5267 47.127 37.2389 47.8434 37.2389 48.728V53.3989C37.2389 54.2834 36.5267 54.9999 35.6475 54.9999Z" fill="#333333"/>
<path d="M26.1468 29.7408C21.9137 29.7408 18.4683 26.2746 18.4683 22.016C18.4683 17.7573 21.9137 14.2871 26.1468 14.2871C30.3799 14.2871 33.8253 17.7533 33.8253 22.016C33.8253 26.2786 30.3799 29.7408 26.1468 29.7408ZM26.1468 17.4851C23.6682 17.4851 21.6511 19.5144 21.6511 22.012C21.6511 24.5095 23.6682 26.5348 26.1468 26.5348C28.6254 26.5348 30.6425 24.5055 30.6425 22.012C30.6425 19.5184 28.6254 17.4851 26.1468 17.4851Z" fill="#333333"/>
<path d="M46.1707 49.4685C46.0314 49.4685 45.8922 49.4485 45.7569 49.4125C41.118 48.1517 32.3414 43.3167 32.3414 34.0309V33.8588C32.3414 29.2519 36.0454 25.3574 40.4337 25.3574C42.5383 25.3574 44.623 26.3781 46.1707 28.0791C47.7183 26.3781 49.8031 25.3574 51.9077 25.3574C56.292 25.3574 60 29.2519 60 33.8588V34.0309C60 45.5621 47.1414 49.2604 46.5924 49.4125C46.4532 49.4525 46.3099 49.4685 46.1707 49.4685ZM40.4337 28.5634C37.8198 28.5634 35.5242 31.041 35.5242 33.8628V34.0349C35.5242 42.188 44.1615 45.5301 46.1707 46.1985C48.2276 45.5221 56.8172 42.2 56.8172 34.0349V33.8628C56.8172 31.041 54.5216 28.5634 51.9077 28.5634C50.006 28.5634 48.3629 30.0844 47.5791 31.5933C47.3046 32.1217 46.7595 32.4539 46.1707 32.4539C45.5819 32.4539 45.0368 32.1217 44.7623 31.5933C43.9785 30.0844 42.3354 28.5634 40.4337 28.5634Z" fill="#333333"/>
</g>
<defs>
<clipPath id="clip0_241_92">
<rect width="60" height="60" fill="white"/>
</clipPath>
</defs>
</svg>
