<svg width="620" height="216" viewBox="0 0 620 216" fill="none" xmlns="http://www.w3.org/2000/svg">
<line x1="84" y1="79.5" x2="540" y2="79.5" stroke="#D9D9D9"/>
<line x1="195.5" y1="80" x2="195.5" y2="187" stroke="#D9D9D9" stroke-dasharray="4 4"/>
<line x1="425.5" y1="80" x2="425.5" y2="187" stroke="#D9D9D9" stroke-dasharray="4 4"/>
<rect width="160" height="160" rx="80" fill="#F5F5F5"/>
<path d="M52.3497 72.16C55.1497 72.18 57.1897 73.92 57.1897 76.44C57.1897 78.6 55.6497 80.2 53.4297 80.58V83.16C55.0097 83.08 56.6097 82.94 58.1097 82.72L58.2697 84.32C54.3097 85.06 50.0897 85.08 46.9497 85.08L46.7097 83.32C48.0497 83.32 49.6297 83.32 51.2697 83.26V80.58C49.0497 80.2 47.4897 78.6 47.5097 76.44C47.4897 73.92 49.5697 72.18 52.3497 72.16ZM49.6297 76.44C49.6297 77.9 50.7897 78.84 52.3497 78.84C53.9097 78.84 55.0697 77.9 55.0697 76.44C55.0697 74.94 53.9097 74.04 52.3497 74.04C50.7897 74.04 49.6297 74.94 49.6297 76.44ZM59.1497 88.76V71.08H61.3097V88.76H59.1497ZM79.6348 81.36V83.08H72.5948V88.72H70.4348V83.08H63.4748V81.36H79.6348ZM65.4348 79.52V71.8H67.5948V73.96H75.4748V71.8H77.6348V79.52H65.4348ZM67.5948 77.76H75.4748V75.68H67.5948V77.76ZM95.16 71.12V84.04H93V79.68H88.8C87.96 80.62 86.7 81.2 85.28 81.2C82.62 81.2 80.62 79.3 80.64 76.68C80.62 74.06 82.62 72.16 85.28 72.16C86.7 72.16 87.96 72.74 88.8 73.68H93V71.12H95.16ZM82.68 76.68C82.7 78.26 83.78 79.26 85.28 79.28C86.74 79.26 87.84 78.26 87.84 76.68C87.84 75.1 86.74 74.1 85.28 74.08C83.78 74.1 82.7 75.1 82.68 76.68ZM83.6 88.4V82.72H85.76V86.64H95.6V88.4H83.6ZM89.76 77.92H93V75.44H89.76C89.86 75.82 89.92 76.24 89.92 76.68C89.92 77.12 89.86 77.54 89.76 77.92ZM112.485 71.08V88.72H110.445V71.08H112.485ZM97.0852 83.48C100.745 81.3 102.425 78.54 102.745 75H98.0452V73.24H104.925C104.925 74.14 104.865 75 104.725 75.84H106.805V71.52H108.845V87.92H106.805V82H104.045V80.24H106.805V77.6H104.345C103.505 80.54 101.665 83.04 98.3652 85L97.0852 83.48Z" fill="#1B1B1D"/>
<path d="M165.684 195.08V212.76H163.484V195.08H165.684ZM151.564 202.6C151.544 198.8 153.484 196.38 156.164 196.36C158.824 196.38 160.764 198.8 160.764 202.6C160.764 206.44 158.824 208.86 156.164 208.84C153.484 208.86 151.544 206.44 151.564 202.6ZM153.644 202.6C153.644 205.32 154.664 206.9 156.164 206.88C157.644 206.9 158.664 205.32 158.684 202.6C158.664 199.92 157.644 198.32 156.164 198.32C154.664 198.32 153.644 199.92 153.644 202.6ZM182.969 195.08V208.44H180.929V195.08H182.969ZM168.569 205.28V196.48H170.609V199.28H173.529V196.48H175.529V200.04H177.409V195.4H179.449V207.88H177.409V201.8H175.529V205.28H168.569ZM170.609 203.52H173.529V200.92H170.609V203.52ZM171.129 212.4V206.68H173.329V210.64H183.449V212.4H171.129ZM199.095 204.32V206.08H186.735V196.48H198.975V198.24H188.935V200.36H198.535V202.08H188.935V204.32H199.095ZM184.775 210.6V208.8H200.895V210.6H184.775ZM220.785 195.08V205.56H218.625V201.28H215.625V199.48H218.625V195.08H220.785ZM205.945 203.8C208.785 202.84 210.285 200.46 210.305 198.12V198H206.625V196.24H216.145V198H212.505V198.12C212.505 200.26 213.925 202.42 216.665 203.32L215.545 205.04C213.585 204.4 212.205 203.04 211.445 201.4C210.665 203.26 209.205 204.78 207.105 205.52L205.945 203.8ZM208.825 209.36C208.805 207.26 211.105 206.02 214.825 206C218.565 206.02 220.845 207.26 220.865 209.36C220.845 211.5 218.565 212.74 214.825 212.76C211.105 212.74 208.805 211.5 208.825 209.36ZM210.985 209.36C210.965 210.48 212.365 211.06 214.825 211.04C217.285 211.06 218.685 210.48 218.705 209.36C218.685 208.28 217.285 207.68 214.825 207.68C212.365 207.68 210.965 208.28 210.985 209.36ZM239.031 208.84V210.6H222.911V208.84H229.871V205.4H224.671V196.24H226.831V199.16H235.031V196.24H237.191V205.4H231.991V208.84H239.031ZM226.831 203.64H235.031V200.88H226.831V203.64Z" fill="#1B85AB"/>
<path d="M351.793 196.84H354.913L359.113 207.12H359.273L363.473 196.84H366.593V211H364.153V201.28H364.033L360.113 210.96H358.273L354.353 201.24H354.233V211H351.793V196.84ZM374.074 206.24H376.394L377.614 207.82C378.414 206.98 378.894 205.66 378.874 203.92C378.894 200.7 377.274 198.94 374.954 198.96C372.654 198.94 371.014 200.7 371.034 203.92C371.014 207.16 372.654 208.9 374.954 208.92C375.314 208.92 375.674 208.88 376.014 208.78L374.074 206.24ZM368.474 203.92C368.474 199.36 371.234 196.66 374.954 196.68C378.654 196.66 381.454 199.36 381.434 203.92C381.454 206.48 380.574 208.46 379.154 209.7L381.114 212.24H378.634L377.454 210.74C376.694 211.04 375.854 211.2 374.954 211.2C371.234 211.2 368.474 208.48 368.474 203.92ZM382.052 199V196.84H393.332V199H388.972V211H386.452V199H382.052ZM394.289 199V196.84H405.569V199H401.209V211H398.689V199H394.289ZM419.211 200.76C419.091 199.52 418.071 198.82 416.531 198.84C414.931 198.82 413.971 199.6 413.971 200.68C413.951 201.86 415.211 202.36 416.371 202.64L417.691 202.96C419.811 203.46 421.851 204.58 421.851 207.04C421.851 209.52 419.891 211.22 416.491 211.2C413.211 211.22 411.131 209.64 411.011 206.84H413.531C413.631 208.32 414.871 209.04 416.491 209.04C418.151 209.04 419.311 208.22 419.291 207C419.311 205.9 418.291 205.44 416.771 205.04L415.171 204.64C412.831 204.02 411.391 202.86 411.371 200.84C411.391 198.32 413.611 196.66 416.571 196.68C419.571 196.66 421.611 198.36 421.651 200.76H419.211ZM430.213 206.52V200.4H432.693V211H430.293V209.12H430.173C429.693 210.3 428.593 211.14 426.973 211.12C424.893 211.14 423.453 209.7 423.453 207.16V200.4H425.933V206.76C425.933 208.12 426.753 208.96 427.933 208.96C429.053 208.96 430.213 208.16 430.213 206.52ZM434.813 211V196.84H437.293V202.12H437.413C437.793 201.38 438.553 200.26 440.413 200.24C442.873 200.26 444.813 202.18 444.813 205.72C444.813 209.2 442.933 211.18 440.453 211.2C438.613 211.18 437.793 210.1 437.413 209.32H437.253V211H434.813ZM437.253 205.68C437.233 207.76 438.153 209.14 439.733 209.16C441.393 209.14 442.273 207.7 442.293 205.68C442.273 203.72 441.413 202.3 439.733 202.28C438.133 202.3 437.233 203.64 437.253 205.68ZM452.364 203.4C452.204 202.62 451.544 202.1 450.484 202.12C449.424 202.1 448.644 202.64 448.644 203.36C448.644 203.92 449.084 204.32 450.164 204.56L451.964 204.96C453.964 205.38 454.944 206.32 454.924 207.84C454.944 209.82 453.184 211.22 450.444 211.2C447.724 211.22 446.124 210 445.884 207.96H448.404C448.564 208.88 449.264 209.32 450.404 209.32C451.624 209.32 452.404 208.84 452.404 208.04C452.404 207.44 451.924 207.04 450.884 206.8L449.164 206.44C447.184 206.04 446.164 205.02 446.164 203.52C446.164 201.54 447.864 200.26 450.444 200.24C452.984 200.26 454.544 201.5 454.724 203.4H452.364ZM461.092 211.2C457.912 211.22 455.992 208.94 456.012 205.76C455.992 202.5 457.972 200.26 461.052 200.24C463.652 200.26 465.452 201.76 465.612 204.04H463.252C463.052 203.04 462.312 202.26 461.092 202.24C459.552 202.26 458.512 203.56 458.532 205.68C458.512 207.88 459.532 209.18 461.092 209.16C462.192 209.18 463.012 208.54 463.252 207.4H465.612C465.432 209.62 463.732 211.22 461.092 211.2ZM467.087 211V200.4H469.487V202.16H469.607C469.987 200.94 471.007 200.24 472.207 200.24C472.507 200.24 472.907 200.26 473.127 200.32V202.6C472.907 202.52 472.387 202.46 471.967 202.44C470.587 202.46 469.567 203.4 469.567 204.76V211H467.087ZM474.207 211V200.4H476.687V211H474.207ZM474.007 197.52C474.007 196.78 474.667 196.18 475.447 196.16C476.247 196.18 476.887 196.78 476.887 197.52C476.887 198.28 476.247 198.88 475.447 198.88C474.667 198.88 474.007 198.28 474.007 197.52ZM478.809 211V196.84H481.289V202.12H481.409C481.789 201.38 482.549 200.26 484.409 200.24C486.869 200.26 488.809 202.18 488.809 205.72C488.809 209.2 486.929 211.18 484.449 211.2C482.609 211.18 481.789 210.1 481.409 209.32H481.249V211H478.809ZM481.249 205.68C481.229 207.76 482.149 209.14 483.729 209.16C485.389 209.14 486.269 207.7 486.289 205.68C486.269 203.72 485.409 202.3 483.729 202.28C482.129 202.3 481.229 203.64 481.249 205.68ZM495.04 211.2C491.86 211.22 489.9 209.08 489.92 205.76C489.9 202.48 491.9 200.26 494.92 200.24C497.52 200.26 499.76 201.88 499.76 205.6V206.4H492.36C492.42 208.22 493.46 209.28 495.08 209.28C496.18 209.28 496.9 208.8 497.24 208.16H499.68C499.22 210 497.52 211.22 495.04 211.2ZM492.36 204.68H497.36C497.36 203.26 496.4 202.2 494.96 202.2C493.46 202.2 492.46 203.32 492.36 204.68Z" fill="#1B85AB"/>
<rect x="230" width="160" height="160" rx="80" fill="#F5F5F5"/>
<path d="M282.274 53.64C281.974 51.92 280.614 50.94 278.914 50.96C276.574 50.94 274.934 52.74 274.954 55.92C274.934 59.18 276.594 60.9 278.874 60.92C280.574 60.9 281.934 59.98 282.274 58.32H284.834C284.454 61.02 282.214 63.2 278.874 63.2C275.114 63.2 272.394 60.48 272.394 55.92C272.394 51.36 275.154 48.66 278.874 48.68C281.974 48.66 284.394 50.48 284.834 53.64H282.274ZM286.632 63V48.84H295.832V51H289.152V54.84H295.352V57H289.152V60.88H295.872V63H286.632ZM309.472 48.84V63H307.232L300.512 53.36H300.392V63H297.872V48.84H300.152L306.832 58.52H306.952V48.84H309.472ZM311.711 63V48.84H316.991C320.251 48.86 321.991 50.84 321.991 53.52C321.991 56.26 320.231 58.22 316.951 58.2H314.231V63H311.711ZM314.231 56.12H316.631C318.531 56.12 319.391 55.04 319.391 53.52C319.391 52.04 318.531 50.98 316.631 51H314.231V56.12ZM326.034 48.84V63H323.554V48.84H326.034ZM334.797 58.52V52.4H337.277V63H334.877V61.12H334.757C334.277 62.3 333.177 63.14 331.557 63.12C329.477 63.14 328.037 61.7 328.037 59.16V52.4H330.517V58.76C330.517 60.12 331.337 60.96 332.517 60.96C333.637 60.96 334.797 60.16 334.797 58.52ZM345.277 55.4C345.117 54.62 344.457 54.1 343.397 54.12C342.337 54.1 341.557 54.64 341.557 55.36C341.557 55.92 341.997 56.32 343.077 56.56L344.877 56.96C346.877 57.38 347.857 58.32 347.837 59.84C347.857 61.82 346.097 63.22 343.357 63.2C340.637 63.22 339.037 62 338.797 59.96H341.317C341.477 60.88 342.177 61.32 343.317 61.32C344.537 61.32 345.317 60.84 345.317 60.04C345.317 59.44 344.837 59.04 343.797 58.8L342.077 58.44C340.097 58.04 339.077 57.02 339.077 55.52C339.077 53.54 340.777 52.26 343.357 52.24C345.897 52.26 347.457 53.5 347.637 55.4H345.277ZM292.71 80.28V82H276.59V80.28H283.55V78.96H278.63V71.56H290.79V73.24H280.83V74.44H290.35V76.04H280.83V77.28H290.91V78.96H285.71V80.28H292.71ZM278.47 85.84C278.49 83.98 280.71 82.96 284.63 82.96C288.53 82.96 290.75 83.98 290.75 85.84C290.75 87.72 288.53 88.72 284.63 88.72C280.71 88.72 278.49 87.72 278.47 85.84ZM280.67 85.84C280.65 86.7 281.99 87.1 284.63 87.08C287.25 87.1 288.57 86.7 288.59 85.84C288.57 85 287.25 84.58 284.63 84.56C281.99 84.58 280.65 85 280.67 85.84ZM307.435 71.08V75.44H309.915V77.24H307.435V81.4H305.235V71.08H307.435ZM293.515 74.44V72.72H297.675V70.96H299.835V72.72H303.995V74.44H293.515ZM294.435 78.16C294.415 76.3 296.175 75.06 298.755 75.08C301.315 75.06 303.055 76.3 303.075 78.16C303.055 80.06 301.315 81.28 298.755 81.28C296.175 81.28 294.415 80.06 294.435 78.16ZM295.995 88.52V82.08H298.155V83.64H305.235V82.08H307.435V88.52H295.995ZM296.515 78.16C296.515 79.12 297.415 79.68 298.755 79.68C300.095 79.68 300.995 79.12 300.995 78.16C300.995 77.24 300.095 76.66 298.755 76.68C297.415 76.66 296.515 77.24 296.515 78.16ZM298.155 86.8H305.235V85.32H298.155V86.8ZM320.24 72.4V73.44C320.22 74.64 320.22 76.4 319.8 78.64L317.68 78.44C318.02 76.6 318.08 75.24 318.1 74.16H311.24V72.4H320.24ZM310.2 80.04C311.24 80.04 312.4 80.02 313.64 80V76.4H315.8V79.92C317.62 79.86 319.5 79.72 321.2 79.48L321.32 81.04C317.66 81.7 313.48 81.78 310.4 81.8L310.2 80.04ZM312.84 88.4V83.12H315V86.64H325.04V88.4H312.84ZM322.24 84.32V71.08H324.48V76.6H326.76V78.4H324.48V84.32H322.24ZM342.445 71.08V88.72H340.405V71.08H342.445ZM326.965 83.72C329.505 82.16 330.625 78.98 330.645 75.92V74.72H327.565V72.96H335.565V74.72H332.725V75.92C332.725 78.88 333.785 81.88 336.325 83.32L335.045 84.92C333.385 83.96 332.305 82.26 331.705 80.24C331.085 82.42 329.945 84.28 328.285 85.32L326.965 83.72ZM334.285 79V77.24H336.845V71.44H338.885V87.88H336.845V79H334.285ZM299.672 95.6V97.24H297.232V99.92H299.552V101.56H286.592V99.92H288.952V97.24H286.512V95.6H299.672ZM285.072 104.4V102.68H301.152V104.4H285.072ZM286.952 112.6V108.28H296.992V107.16H286.952V105.56H299.152V109.76H289.112V110.96H299.632V112.6H286.952ZM291.112 99.92H295.072V97.24H291.112V99.92ZM317.037 95.12V107H314.997V101.24H313.117V105.52H311.117V95.44H313.117V99.48H314.997V95.12H317.037ZM302.677 105.32V100H307.277V98.12H302.677V96.36H309.357V101.6H304.797V103.64C306.857 103.62 308.417 103.5 310.197 103.16L310.397 104.84C308.297 105.28 306.517 105.34 303.877 105.32H302.677ZM304.117 110.96C307.637 110.48 309.897 108.6 309.917 106.56V106.2H312.077V106.56C312.077 108.6 314.317 110.48 317.877 110.96L317.037 112.64C314.257 112.22 312.077 110.98 310.997 109.22C309.897 110.98 307.717 112.22 304.957 112.64L304.117 110.96ZM334.923 103.76V105.48H318.843V103.76H325.763V102.12H320.363V100.36H322.723V97.36H320.283V95.6H333.443V97.36H331.003V100.36H333.323V102.12H327.923V103.76H334.923ZM320.723 112.52V106.84H332.963V112.52H320.723ZM322.883 110.76H330.843V108.56H322.883V110.76ZM324.883 100.36H328.843V97.36H324.883V100.36Z" fill="#1B1B1D"/>
<rect x="460" width="160" height="160" rx="80" fill="#F5F5F5"/>
<path d="M512.847 71.8V73.28C512.847 74.64 512.847 76.14 512.467 78.04H514.727V79.76H498.687V78.04H510.287C510.407 77.42 510.487 76.84 510.547 76.32L500.447 76.72L500.207 75.04L510.667 74.78L510.687 73.52H500.687V71.8H512.847ZM500.487 82.72V81.04H512.927V85.48H502.687V86.84H513.567V88.52H500.527V83.92H510.767V82.72H500.487ZM529.372 71.08V77.88H532.092V79.68H529.372V88.76H527.252V71.08H529.372ZM516.252 74.4V72.64H524.372V79.28H518.452V82.8C521.252 82.78 523.412 82.66 525.892 82.24L526.092 84C523.352 84.48 520.952 84.6 517.732 84.6H516.292V77.56H522.212V74.4H516.252ZM547.137 71.08V88.76H544.937V71.08H547.137ZM533.017 78.6C532.997 74.8 534.937 72.38 537.617 72.36C540.277 72.38 542.217 74.8 542.217 78.6C542.217 82.44 540.277 84.86 537.617 84.84C534.937 84.86 532.997 82.44 533.017 78.6ZM535.097 78.6C535.097 81.32 536.117 82.9 537.617 82.88C539.097 82.9 540.117 81.32 540.137 78.6C540.117 75.92 539.097 74.32 537.617 74.32C536.117 74.32 535.097 75.92 535.097 78.6ZM564.103 71.12V84.04H561.943V77.6H558.763C558.303 79.66 556.483 81.08 554.223 81.08C551.563 81.08 549.563 79.22 549.583 76.64C549.563 74.02 551.563 72.2 554.223 72.2C556.543 72.2 558.403 73.66 558.783 75.84H561.943V71.12H564.103ZM551.623 76.64C551.643 78.18 552.743 79.2 554.223 79.2C555.683 79.2 556.783 78.18 556.783 76.64C556.783 75.06 555.683 74.1 554.223 74.08C552.743 74.1 551.643 75.06 551.623 76.64ZM552.543 88.4V82.72H554.703V86.64H564.543V88.4H552.543ZM580.548 80.32V82.08H568.188V72.48H580.428V74.24H570.388V76.36H579.988V78.08H570.388V80.32H580.548ZM566.228 86.6V84.8H582.348V86.6H566.228Z" fill="#1B1B1D"/>
<rect x="184" y="80.3135" width="16" height="16" transform="rotate(-45 184 80.3135)" fill="#7AE1D0"/>
<rect x="414" y="80.3135" width="16" height="16" transform="rotate(-45 414 80.3135)" fill="#7AE1D0"/>
</svg>
