<svg width="24" height="24" viewBox="0 0 24 24" fill="none" xmlns="http://www.w3.org/2000/svg">
<path d="M22.8724 10.9525L19.875 8.2882V4.18936L16.4356 0.75H7.125V6.75H3.75C3.45175 6.75037 3.16581 6.86902 2.95492 7.07992C2.74402 7.29081 2.62537 7.57675 2.625 7.875V22.125C2.62537 22.4233 2.74402 22.7092 2.95492 22.9201C3.16581 23.131 3.45175 23.2496 3.75 23.25H23.25V11.7934C23.2499 11.6346 23.2163 11.4775 23.1512 11.3326C23.0861 11.1876 22.9911 11.0581 22.8724 10.9525ZM7.125 21.75H4.125V8.25H7.125V21.75ZM15.375 2.25H15.8144L18.375 4.81064V5.25H15.375V2.25ZM8.625 2.25H13.875V6.75H18.375V10.125H8.625V2.25ZM21.75 21.75H8.625V11.625H19.875V10.2951L21.75 11.9618V21.75Z" fill="#545995"/>
<path d="M10.875 16.125H12.375V17.625H10.875V16.125ZM13.875 16.125H15.375V17.625H13.875V16.125ZM10.875 19.125H12.375V20.625H10.875V19.125ZM13.875 19.125H15.375V20.625H13.875V19.125ZM16.875 16.125H18.375V17.625H16.875V16.125ZM16.875 19.125H18.375V20.625H16.875V19.125ZM10.875 13.125H18.375V14.625H10.875V13.125Z" fill="#545995"/>
</svg>
