<svg width="48" height="48" viewBox="0 0 48 48" fill="none" xmlns="http://www.w3.org/2000/svg">
<path d="M21.8281 7.75V10.25H17.6738V13.4043H24.2344C24.6967 13.4043 25.1393 13.4906 25.5605 13.6631C25.9811 13.8353 26.3523 14.0798 26.6719 14.3965L42.46 29.9922L42.4609 29.9932C43.6505 31.1787 44.25 32.6 44.25 34.2441C44.25 35.8883 43.6504 37.3115 42.4609 38.501C41.2708 39.6911 39.8386 40.2895 38.1777 40.2881C36.5173 40.2867 35.0796 39.6884 33.8779 38.502L29.9736 34.6338H22.5117C20.3661 34.6337 18.5305 33.876 17.0195 32.3652C15.5666 30.9123 14.8225 29.1622 14.79 27.1289C11.8095 27.0832 9.23575 26.0734 7.08105 24.0938C4.86276 22.0556 3.75 19.5191 3.75 16.5C3.75 15.6506 4.05543 14.9173 4.65918 14.3135C5.26295 13.7097 5.99633 13.4044 6.8457 13.4043H15.1738V10.25H10.9824V7.75H21.8281ZM6.8457 15.9043C6.68308 15.9044 6.54761 15.9602 6.42676 16.0811C6.30593 16.2019 6.25 16.3373 6.25 16.5C6.25 18.8082 7.11179 20.7336 8.84473 22.292C10.5835 23.8555 12.6316 24.6351 15 24.6338H23.4062L23.4795 24.7061L35.6553 36.7285L35.79 36.8525C36.4681 37.4521 37.2654 37.75 38.1924 37.75C39.1805 37.7499 40.0147 37.4082 40.71 36.7217C41.4054 36.035 41.75 35.2146 41.75 34.2461C41.75 33.2759 41.4014 32.4567 40.6963 31.7754L40.6943 31.7744L24.5938 15.9043H6.8457ZM17.2793 27.1338C17.3104 28.496 17.8042 29.6501 18.7646 30.6094C19.7833 31.6267 21.0233 32.1344 22.5 32.1357H27.4658L22.3604 27.1338H17.2793Z" fill="#222222" stroke="#222222" stroke-width="0.5"/>
</svg>
