<svg width="1236" height="249" viewBox="0 0 1236 249" fill="none" xmlns="http://www.w3.org/2000/svg">
<path d="M247.942 124.5C247.942 140.704 244.75 156.749 238.548 171.72C232.346 186.691 223.256 200.293 211.796 211.751C200.336 223.209 186.731 232.298 171.758 238.499C156.785 244.7 140.737 247.892 124.531 247.892C108.324 247.892 92.2762 244.7 77.3032 238.499C62.3302 232.298 48.7254 223.209 37.2656 211.751C25.8057 200.293 16.7153 186.691 10.5133 171.72C4.31127 156.749 1.11914 140.704 1.11914 124.5" stroke="#D9D9D9" stroke-linecap="round" stroke-dasharray="4 4"/>
<path d="M247.942 124.5C247.942 108.296 251.134 92.2506 257.336 77.28C263.538 62.3094 272.629 48.7068 284.089 37.2488C295.549 25.7908 309.153 16.7018 324.126 10.5008C339.099 4.29974 355.147 1.10811 371.354 1.10811C387.561 1.10811 403.609 4.29974 418.582 10.5008C433.555 16.7018 447.159 25.7908 458.619 37.2488C470.079 48.7068 479.169 62.3094 485.371 77.28C491.573 92.2506 494.766 108.296 494.766 124.5" stroke="#D9D9D9" stroke-linecap="round" stroke-dasharray="4 4"/>
<path d="M741.59 124.5C741.59 140.704 738.398 156.749 732.196 171.72C725.994 186.691 716.903 200.293 705.443 211.751C693.984 223.209 680.379 232.298 665.406 238.499C650.433 244.7 634.385 247.892 618.178 247.892C601.972 247.892 585.924 244.7 570.951 238.499C555.978 232.298 542.373 223.209 530.913 211.751C519.453 200.293 510.363 186.691 504.161 171.72C497.959 156.749 494.767 140.704 494.767 124.5" stroke="#D9D9D9" stroke-linecap="round" stroke-dasharray="4 4"/>
<path d="M1235.24 124.5C1235.24 140.704 1232.04 156.749 1225.84 171.72C1219.64 186.691 1210.55 200.293 1199.09 211.751C1187.63 223.209 1174.03 232.298 1159.05 238.499C1144.08 244.7 1128.03 247.892 1111.82 247.892C1095.62 247.892 1079.57 244.7 1064.6 238.499C1049.62 232.298 1036.02 223.209 1024.56 211.751C1013.1 200.293 1004.01 186.691 997.807 171.72C991.605 156.749 988.413 140.704 988.413 124.5" stroke="#D9D9D9" stroke-linecap="round" stroke-dasharray="4 4"/>
<path d="M741.589 124.5C741.589 108.296 744.781 92.2505 750.983 77.2799C757.185 62.3093 766.275 48.7067 777.735 37.2487C789.195 25.7907 802.8 16.7018 817.773 10.5007C832.746 4.29972 848.794 1.10808 865 1.10808C881.207 1.10809 897.255 4.29972 912.228 10.5007C927.201 16.7018 940.806 25.7908 952.266 37.2488C963.726 48.7068 972.816 62.3094 979.018 77.28C985.22 92.2506 988.412 108.296 988.412 124.5" stroke="#D9D9D9" stroke-linecap="round" stroke-dasharray="4 4"/>
<rect x="26.2998" y="26.2861" width="196.459" height="196.427" rx="98.2135" fill="white"/>
<rect x="26.2998" y="26.2861" width="196.459" height="196.427" rx="98.2135" stroke="#003FD3"/>
<path d="M86.9216 106.826H103.282V108.166H86.9216V106.826ZM94.2616 104.486H95.9216V107.386H94.2616V104.486ZM89.0816 103.766H101.362V105.066H89.0816V103.766ZM89.0816 97.7661H101.262V99.0861H90.7416V104.466H89.0816V97.7661ZM90.2416 100.746H100.782V102.006H90.2416V100.746ZM95.1016 109.506C97.0616 109.506 98.5816 109.753 99.6616 110.246C100.742 110.739 101.282 111.459 101.282 112.406C101.282 113.353 100.742 114.073 99.6616 114.566C98.5816 115.059 97.0616 115.306 95.1016 115.306C93.1283 115.306 91.6016 115.059 90.5216 114.566C89.4416 114.073 88.9016 113.353 88.9016 112.406C88.9016 111.459 89.4416 110.739 90.5216 110.246C91.6016 109.753 93.1283 109.506 95.1016 109.506ZM95.0816 110.766C93.6416 110.766 92.5283 110.906 91.7416 111.186C90.955 111.466 90.5616 111.873 90.5616 112.406C90.5616 112.953 90.955 113.366 91.7416 113.646C92.5283 113.913 93.6416 114.046 95.0816 114.046C96.5483 114.046 97.6683 113.913 98.4416 113.646C99.2283 113.366 99.6216 112.953 99.6216 112.406C99.6216 111.873 99.2283 111.466 98.4416 111.186C97.6683 110.906 96.5483 110.766 95.0816 110.766ZM118.1 97.2661H119.76V110.526H118.1V97.2661ZM108.14 113.586H120.32V114.946H108.14V113.586ZM108.14 109.306H109.8V114.226H108.14V109.306ZM109.64 98.2661H111.02V100.086C111.02 101.273 110.813 102.386 110.4 103.426C109.987 104.453 109.4 105.359 108.64 106.146C107.893 106.919 107.013 107.513 106 107.926L105.12 106.606C106.04 106.246 106.833 105.733 107.5 105.066C108.18 104.399 108.707 103.639 109.08 102.786C109.453 101.919 109.64 101.019 109.64 100.086V98.2661ZM109.94 98.2661H111.32V100.086C111.32 100.766 111.427 101.426 111.64 102.066C111.853 102.693 112.16 103.279 112.56 103.826C112.96 104.373 113.433 104.859 113.98 105.286C114.54 105.699 115.153 106.026 115.82 106.266L114.96 107.586C113.96 107.199 113.08 106.639 112.32 105.906C111.573 105.159 110.987 104.293 110.56 103.306C110.147 102.306 109.94 101.233 109.94 100.086V98.2661ZM136.19 108.606C137.416 108.606 138.47 108.739 139.35 109.006C140.243 109.273 140.93 109.653 141.41 110.146C141.89 110.639 142.13 111.239 142.13 111.946C142.13 112.653 141.89 113.259 141.41 113.766C140.93 114.273 140.243 114.659 139.35 114.926C138.47 115.193 137.416 115.326 136.19 115.326C134.963 115.326 133.903 115.193 133.01 114.926C132.116 114.659 131.43 114.273 130.95 113.766C130.47 113.259 130.23 112.653 130.23 111.946C130.23 111.239 130.47 110.639 130.95 110.146C131.43 109.653 132.116 109.273 133.01 109.006C133.903 108.739 134.963 108.606 136.19 108.606ZM136.19 109.926C135.296 109.926 134.523 110.006 133.87 110.166C133.23 110.326 132.736 110.559 132.39 110.866C132.043 111.159 131.87 111.519 131.87 111.946C131.87 112.386 132.043 112.759 132.39 113.066C132.736 113.373 133.23 113.606 133.87 113.766C134.523 113.926 135.296 114.006 136.19 114.006C137.083 114.006 137.85 113.926 138.49 113.766C139.13 113.606 139.623 113.373 139.97 113.066C140.316 112.759 140.49 112.386 140.49 111.946C140.49 111.519 140.316 111.159 139.97 110.866C139.623 110.559 139.13 110.326 138.49 110.166C137.85 110.006 137.083 109.926 136.19 109.926ZM140.29 97.2461H141.95V108.106H140.29V97.2461ZM141.49 101.786H144.61V103.186H141.49V101.786ZM128.65 98.3861H130.29V101.106H135.39V98.3861H137.03V106.726H128.65V98.3861ZM130.29 102.426V105.386H135.39V102.426H130.29ZM150.608 98.1061H151.988V99.8661C151.988 101.013 151.775 102.086 151.348 103.086C150.935 104.086 150.341 104.959 149.568 105.706C148.808 106.439 147.921 106.999 146.908 107.386L146.068 106.066C146.748 105.813 147.361 105.479 147.908 105.066C148.468 104.639 148.948 104.153 149.348 103.606C149.761 103.059 150.075 102.466 150.288 101.826C150.501 101.186 150.608 100.533 150.608 99.8661V98.1061ZM150.908 98.1061H152.288V99.8661C152.288 100.519 152.395 101.146 152.608 101.746C152.835 102.346 153.148 102.906 153.548 103.426C153.948 103.946 154.421 104.406 154.968 104.806C155.528 105.206 156.141 105.519 156.808 105.746L155.988 107.066C154.988 106.693 154.101 106.159 153.328 105.466C152.568 104.759 151.975 103.926 151.548 102.966C151.121 102.006 150.908 100.973 150.908 99.8661V98.1061ZM148.648 109.046H160.728V115.346H159.068V110.406H148.648V109.046ZM159.068 97.2461H160.728V108.126H159.068V97.2461Z" fill="#666666"/>
<path d="M52.9626 139.978C54.2266 140.33 55.0586 141.274 55.0586 142.762C55.0586 144.682 53.6026 145.786 50.7706 145.786H45.4266V134.586H50.4506C53.0266 134.586 54.4666 135.674 54.4666 137.482C54.4666 138.698 53.8426 139.546 52.9626 139.978ZM50.3066 135.882H47.0266V139.466H50.3066C51.9386 139.466 52.8666 138.858 52.8666 137.674C52.8666 136.49 51.9386 135.882 50.3066 135.882ZM50.7066 144.49C52.4826 144.49 53.4426 143.93 53.4426 142.634C53.4426 141.338 52.4826 140.762 50.7066 140.762H47.0266V144.49H50.7066ZM57.2159 145.786V134.586H58.8159V144.394H64.8799V145.786H57.2159ZM67.9959 144.394H74.5239V145.786H66.3959V134.586H74.2999V135.978H67.9959V139.418H73.6119V140.778H67.9959V144.394ZM77.1109 143.69C77.7189 143.69 78.1509 144.154 78.1509 144.778C78.1509 145.098 78.0869 145.338 77.8789 145.93L77.1269 148.154H76.1189L76.7109 145.77C76.3109 145.626 76.0389 145.258 76.0389 144.778C76.0389 144.138 76.5029 143.69 77.1109 143.69ZM84.2328 145.786V134.586H85.8328V144.394H91.8968V145.786H84.2328ZM96.7114 145.882C94.1674 145.882 92.2954 144.074 92.2954 141.546C92.2954 139.018 94.1674 137.226 96.7114 137.226C99.2554 137.226 101.111 139.018 101.111 141.546C101.111 144.074 99.2554 145.882 96.7114 145.882ZM96.7114 144.538C98.3434 144.538 99.5594 143.354 99.5594 141.546C99.5594 139.738 98.3434 138.57 96.7114 138.57C95.0794 138.57 93.8474 139.738 93.8474 141.546C93.8474 143.354 95.0794 144.538 96.7114 144.538ZM112.372 145.786H110.628L108.212 142.346C107.988 142.362 107.748 142.378 107.508 142.378H104.74V145.786H103.14V134.586H107.508C110.42 134.586 112.18 136.058 112.18 138.49C112.18 140.218 111.284 141.466 109.716 142.026L112.372 145.786ZM107.46 141.018C109.508 141.018 110.58 140.09 110.58 138.49C110.58 136.89 109.508 135.978 107.46 135.978H104.74V141.018H107.46ZM117.231 137.226C119.551 137.226 120.863 138.346 120.863 140.666V145.786H119.407V144.666C118.895 145.434 117.951 145.882 116.623 145.882C114.703 145.882 113.487 144.858 113.487 143.386C113.487 142.026 114.367 140.906 116.895 140.906H119.327V140.602C119.327 139.306 118.575 138.554 117.055 138.554C116.047 138.554 115.023 138.906 114.367 139.466L113.727 138.314C114.607 137.61 115.871 137.226 117.231 137.226ZM116.879 144.698C118.031 144.698 118.943 144.17 119.327 143.194V142.01H116.959C115.439 142.01 115.007 142.602 115.007 143.322C115.007 144.17 115.711 144.698 116.879 144.698ZM123.769 143.69C124.377 143.69 124.809 144.154 124.809 144.778C124.809 145.098 124.745 145.338 124.537 145.93L123.785 148.154H122.777L123.369 145.77C122.969 145.626 122.697 145.258 122.697 144.778C122.697 144.138 123.161 143.69 123.769 143.69ZM140.523 132.554H141.851V147.05H140.523V132.554ZM130.827 133.786H132.155V137.594H136.331V133.786H137.643V143.562H130.827V133.786ZM132.155 138.65V142.458H136.331V138.65H132.155ZM154.202 132.554H155.53V147.018H154.202V132.554ZM155.178 138.426H157.834V139.53H155.178V138.426ZM150.506 134.106H151.802C151.802 135.482 151.578 136.799 151.13 138.058C150.682 139.306 149.978 140.463 149.018 141.53C148.058 142.586 146.794 143.503 145.226 144.282L144.49 143.258C145.834 142.586 146.948 141.802 147.834 140.906C148.73 139.999 149.396 138.997 149.834 137.898C150.282 136.789 150.506 135.594 150.506 134.314V134.106ZM145.162 134.106H151.178V135.21H145.162V134.106ZM162.424 135.034H163.496V135.642C163.496 136.485 163.331 137.269 163 137.994C162.67 138.709 162.2 139.338 161.592 139.882C160.995 140.415 160.291 140.821 159.48 141.098L158.84 140.058C159.555 139.823 160.179 139.487 160.712 139.05C161.246 138.602 161.662 138.085 161.96 137.498C162.27 136.911 162.424 136.293 162.424 135.642V135.034ZM162.648 135.034H163.736V135.642C163.736 136.09 163.822 136.522 163.992 136.938C164.174 137.354 164.424 137.743 164.744 138.106C165.064 138.458 165.448 138.767 165.896 139.034C166.344 139.301 166.835 139.514 167.368 139.674L166.744 140.714C165.934 140.469 165.219 140.101 164.6 139.61C163.992 139.109 163.512 138.522 163.16 137.85C162.819 137.167 162.648 136.431 162.648 135.642V135.034ZM159.208 134.298H166.936V135.37H159.208V134.298ZM162.424 132.49H163.752V134.682H162.424V132.49ZM166.488 136.682H169.752V137.77H166.488V136.682ZM169.384 132.554H170.712V141.322H169.384V132.554ZM165.944 141.706C167.448 141.706 168.627 141.941 169.48 142.41C170.334 142.869 170.76 143.514 170.76 144.346C170.76 145.178 170.334 145.829 169.48 146.298C168.627 146.767 167.448 147.002 165.944 147.002C164.451 147.002 163.272 146.767 162.408 146.298C161.555 145.829 161.128 145.178 161.128 144.346C161.128 143.514 161.555 142.869 162.408 142.41C163.272 141.941 164.451 141.706 165.944 141.706ZM165.944 142.746C165.219 142.746 164.595 142.81 164.072 142.938C163.55 143.055 163.144 143.237 162.856 143.482C162.579 143.717 162.44 144.005 162.44 144.346C162.44 144.687 162.579 144.981 162.856 145.226C163.144 145.461 163.55 145.642 164.072 145.77C164.595 145.898 165.219 145.962 165.944 145.962C166.68 145.962 167.304 145.898 167.816 145.77C168.339 145.642 168.739 145.461 169.016 145.226C169.304 144.981 169.448 144.687 169.448 144.346C169.448 144.005 169.304 143.717 169.016 143.482C168.739 143.237 168.339 143.055 167.816 142.938C167.304 142.81 166.68 142.746 165.944 142.746ZM183.712 132.874C184.757 132.874 185.659 132.986 186.416 133.21C187.184 133.423 187.771 133.733 188.176 134.138C188.592 134.543 188.8 135.039 188.8 135.626C188.8 136.191 188.592 136.682 188.176 137.098C187.771 137.503 187.184 137.813 186.416 138.026C185.659 138.239 184.757 138.346 183.712 138.346C182.677 138.346 181.776 138.239 181.008 138.026C180.251 137.813 179.664 137.503 179.248 137.098C178.832 136.682 178.624 136.191 178.624 135.626C178.624 135.039 178.832 134.543 179.248 134.138C179.664 133.733 180.251 133.423 181.008 133.21C181.776 132.986 182.677 132.874 183.712 132.874ZM183.712 133.93C182.955 133.93 182.293 133.999 181.728 134.138C181.173 134.266 180.741 134.458 180.432 134.714C180.133 134.959 179.984 135.263 179.984 135.626C179.984 135.967 180.133 136.266 180.432 136.522C180.741 136.767 181.173 136.959 181.728 137.098C182.293 137.226 182.955 137.29 183.712 137.29C184.48 137.29 185.141 137.226 185.696 137.098C186.261 136.959 186.693 136.767 186.992 136.522C187.291 136.266 187.44 135.967 187.44 135.626C187.44 135.263 187.291 134.959 186.992 134.714C186.693 134.458 186.261 134.266 185.696 134.138C185.141 133.999 184.48 133.93 183.712 133.93ZM178.784 142.074H188.656V146.842H178.784V142.074ZM187.36 143.146H180.08V145.754H187.36V143.146ZM177.184 139.578H190.256V140.666H177.184V139.578ZM191.759 134.106H199.823V135.194H191.759V134.106ZM191.567 143.45L191.407 142.33C192.271 142.33 193.215 142.325 194.239 142.314C195.263 142.293 196.313 142.255 197.391 142.202C198.468 142.138 199.497 142.047 200.479 141.93L200.559 142.922C199.556 143.082 198.521 143.199 197.455 143.274C196.388 143.349 195.348 143.397 194.335 143.418C193.332 143.439 192.409 143.45 191.567 143.45ZM193.311 134.938H194.607V142.634H193.311V134.938ZM196.975 134.938H198.255V142.634H196.975V134.938ZM201.375 132.554H202.703V147.034H201.375V132.554ZM202.399 138.346H205.071V139.45H202.399V138.346Z" fill="#999999"/>
<rect x="273.123" y="26.2861" width="196.459" height="196.427" rx="98.2135" fill="white"/>
<rect x="273.123" y="26.2861" width="196.459" height="196.427" rx="98.2135" stroke="#648CEA"/>
<path d="M343.345 102.246H347.925V103.606H343.345V102.246ZM346.985 97.2661H348.645V110.526H346.985V97.2661ZM337.105 113.586H349.145V114.946H337.105V113.586ZM337.105 109.346H338.745V114.266H337.105V109.346ZM338.365 99.5061H339.725V100.966C339.725 102.059 339.512 103.093 339.085 104.066C338.672 105.026 338.085 105.866 337.325 106.586C336.565 107.293 335.685 107.839 334.685 108.226L333.825 106.886C334.492 106.646 335.098 106.326 335.645 105.926C336.205 105.526 336.692 105.066 337.105 104.546C337.518 104.026 337.832 103.459 338.045 102.846C338.258 102.233 338.365 101.606 338.365 100.966V99.5061ZM338.685 99.5061H340.045V100.966C340.045 101.739 340.225 102.493 340.585 103.226C340.945 103.959 341.458 104.613 342.125 105.186C342.792 105.746 343.558 106.179 344.425 106.486L343.585 107.806C342.598 107.446 341.738 106.926 341.005 106.246C340.272 105.553 339.698 104.753 339.285 103.846C338.885 102.939 338.685 101.979 338.685 100.966V99.5061ZM334.345 98.7261H344.005V100.086H334.345V98.7261ZM356.883 106.366H358.543V110.386H356.883V106.366ZM364.903 97.2661H366.563V111.006H364.903V97.2661ZM354.223 113.586H367.003V114.946H354.223V113.586ZM354.223 109.666H355.883V113.946H354.223V109.666ZM351.883 106.986L351.663 105.606C352.783 105.606 353.997 105.599 355.303 105.586C356.623 105.559 357.97 105.513 359.343 105.446C360.717 105.366 362.043 105.246 363.323 105.086L363.443 106.286C362.15 106.499 360.817 106.659 359.443 106.766C358.083 106.859 356.757 106.919 355.463 106.946C354.17 106.973 352.977 106.986 351.883 106.986ZM361.223 107.946H365.343V109.146H361.223V107.946ZM357.543 97.9861C358.437 97.9861 359.217 98.1195 359.883 98.3861C360.55 98.6395 361.063 99.0061 361.423 99.4861C361.797 99.9528 361.983 100.506 361.983 101.146C361.983 101.773 361.797 102.326 361.423 102.806C361.063 103.286 360.55 103.653 359.883 103.906C359.217 104.159 358.437 104.286 357.543 104.286C356.663 104.286 355.883 104.159 355.203 103.906C354.537 103.653 354.017 103.286 353.643 102.806C353.283 102.326 353.103 101.773 353.103 101.146C353.103 100.506 353.283 99.9528 353.643 99.4861C354.017 99.0061 354.537 98.6395 355.203 98.3861C355.883 98.1195 356.663 97.9861 357.543 97.9861ZM357.543 99.2261C356.69 99.2261 355.997 99.3995 355.463 99.7461C354.93 100.093 354.663 100.559 354.663 101.146C354.663 101.719 354.93 102.179 355.463 102.526C355.997 102.873 356.69 103.046 357.543 103.046C358.383 103.046 359.07 102.873 359.603 102.526C360.137 102.179 360.403 101.719 360.403 101.146C360.403 100.746 360.283 100.406 360.043 100.126C359.803 99.8461 359.47 99.6261 359.043 99.4661C358.617 99.3061 358.117 99.2261 357.543 99.2261ZM376.773 98.4261H388.093V99.7661H376.773V98.4261ZM374.733 106.186H391.073V107.566H374.733V106.186ZM382.033 107.106H383.693V115.366H382.033V107.106ZM387.293 98.4261H388.933V100.006C388.933 100.633 388.92 101.293 388.893 101.986C388.88 102.679 388.826 103.446 388.733 104.286C388.64 105.113 388.48 106.033 388.253 107.046L386.593 106.826C386.953 105.373 387.16 104.099 387.213 103.006C387.266 101.913 387.293 100.913 387.293 100.006V98.4261ZM397.291 98.2661H398.671V100.126C398.671 101.299 398.458 102.379 398.031 103.366C397.618 104.353 397.031 105.219 396.271 105.966C395.525 106.699 394.631 107.259 393.591 107.646L392.711 106.306C393.645 105.973 394.451 105.499 395.131 104.886C395.811 104.273 396.338 103.559 396.711 102.746C397.098 101.919 397.291 101.046 397.291 100.126V98.2661ZM397.591 98.2661H398.931V100.066C398.931 100.919 399.118 101.726 399.491 102.486C399.865 103.246 400.378 103.919 401.031 104.506C401.698 105.079 402.471 105.513 403.351 105.806L402.451 107.106C401.478 106.733 400.625 106.206 399.891 105.526C399.158 104.846 398.591 104.039 398.191 103.106C397.791 102.173 397.591 101.159 397.591 100.066V98.2661ZM405.951 97.2461H407.611V107.946H405.951V97.2461ZM401.651 108.486C403.518 108.486 404.985 108.786 406.051 109.386C407.131 109.986 407.671 110.826 407.671 111.906C407.671 112.973 407.131 113.806 406.051 114.406C404.985 115.006 403.518 115.306 401.651 115.306C399.785 115.306 398.311 115.006 397.231 114.406C396.165 113.806 395.631 112.973 395.631 111.906C395.631 110.826 396.165 109.986 397.231 109.386C398.311 108.786 399.785 108.486 401.651 108.486ZM401.651 109.806C400.745 109.806 399.965 109.893 399.311 110.066C398.658 110.226 398.151 110.466 397.791 110.786C397.445 111.093 397.271 111.466 397.271 111.906C397.271 112.333 397.445 112.706 397.791 113.026C398.151 113.333 398.658 113.573 399.311 113.746C399.965 113.906 400.745 113.986 401.651 113.986C402.571 113.986 403.351 113.906 403.991 113.746C404.645 113.573 405.145 113.333 405.491 113.026C405.851 112.706 406.031 112.333 406.031 111.906C406.031 111.466 405.851 111.093 405.491 110.786C405.145 110.466 404.645 110.226 403.991 110.066C403.351 109.893 402.571 109.806 401.651 109.806ZM402.011 101.066H406.291V102.446H402.011V101.066Z" fill="#666666"/>
<path d="M284.933 133.93H286.197V137.45H289.237V133.93H290.469V143.418H284.933V133.93ZM286.197 138.522V142.33H289.237V138.522H286.197ZM295.445 132.554H296.725V147.034H295.445V132.554ZM293.125 138.282H295.909V139.386H293.125V138.282ZM292.229 132.858H293.493V146.298H292.229V132.858ZM309.412 132.554H310.724V147.05H309.412V132.554ZM306.42 138.01H309.62V139.098H306.42V138.01ZM299.492 142.474H300.58C301.497 142.474 302.313 142.463 303.028 142.442C303.742 142.421 304.42 142.378 305.06 142.314C305.71 142.25 306.372 142.159 307.044 142.042L307.188 143.13C306.494 143.247 305.817 143.338 305.156 143.402C304.494 143.466 303.796 143.514 303.06 143.546C302.334 143.567 301.508 143.578 300.58 143.578H299.492V142.474ZM299.492 133.882H306.18V134.97H300.804V142.842H299.492V133.882ZM300.468 137.946H305.54V139.018H300.468V137.946ZM323.763 132.554H325.075V147.05H323.763V132.554ZM314.051 142.442H315.251C316.072 142.442 316.861 142.431 317.619 142.41C318.387 142.378 319.16 142.325 319.939 142.25C320.728 142.175 321.549 142.069 322.403 141.93L322.531 143.018C321.229 143.231 320.003 143.375 318.851 143.45C317.699 143.514 316.499 143.546 315.251 143.546H314.051V142.442ZM314.019 133.898H320.707V139.066H315.395V142.858H314.051V137.994H319.363V134.986H314.019V133.898ZM342.57 132.554H343.85V147.034H342.57V132.554ZM340.154 138.442H342.938V139.546H340.154V138.442ZM339.29 132.874H340.538V146.282H339.29V132.874ZM332.298 134.298H333.626V142.65H332.298V134.298ZM332.298 142.122H333.21C333.968 142.122 334.762 142.095 335.594 142.042C336.426 141.978 337.312 141.85 338.25 141.658L338.41 142.826C337.429 143.018 336.512 143.146 335.658 143.21C334.805 143.263 333.989 143.29 333.21 143.29H332.298V142.122ZM349.561 134.106H350.649V135.274C350.649 136.17 350.478 136.997 350.137 137.754C349.806 138.511 349.337 139.173 348.729 139.738C348.132 140.303 347.422 140.735 346.601 141.034L345.929 139.978C346.654 139.722 347.289 139.359 347.833 138.89C348.377 138.41 348.798 137.861 349.097 137.242C349.406 136.623 349.561 135.967 349.561 135.274V134.106ZM349.801 134.106H350.889V135.274C350.889 135.903 351.033 136.501 351.321 137.066C351.609 137.631 352.014 138.127 352.537 138.554C353.06 138.981 353.673 139.317 354.377 139.562L353.753 140.602C352.942 140.325 352.244 139.925 351.657 139.402C351.07 138.879 350.612 138.266 350.281 137.562C349.961 136.847 349.801 136.085 349.801 135.274V134.106ZM346.329 133.626H354.073V134.714H346.329V133.626ZM355.897 132.554H357.225V141.274H355.897V132.554ZM356.857 136.234H359.353V137.338H356.857V136.234ZM352.617 141.674C353.598 141.674 354.441 141.781 355.145 141.994C355.86 142.197 356.409 142.495 356.793 142.89C357.177 143.285 357.369 143.765 357.369 144.33C357.369 144.895 357.177 145.375 356.793 145.77C356.409 146.165 355.86 146.469 355.145 146.682C354.441 146.895 353.598 147.002 352.617 147.002C351.636 147.002 350.788 146.895 350.073 146.682C349.358 146.469 348.809 146.165 348.425 145.77C348.041 145.375 347.849 144.895 347.849 144.33C347.849 143.765 348.041 143.285 348.425 142.89C348.809 142.495 349.358 142.197 350.073 141.994C350.788 141.781 351.636 141.674 352.617 141.674ZM352.617 142.73C351.902 142.73 351.284 142.794 350.761 142.922C350.249 143.05 349.854 143.231 349.577 143.466C349.3 143.701 349.161 143.989 349.161 144.33C349.161 144.671 349.3 144.965 349.577 145.21C349.854 145.445 350.249 145.626 350.761 145.754C351.284 145.882 351.902 145.946 352.617 145.946C353.332 145.946 353.945 145.882 354.457 145.754C354.969 145.626 355.364 145.445 355.641 145.21C355.918 144.965 356.057 144.671 356.057 144.33C356.057 143.989 355.918 143.701 355.641 143.466C355.364 143.231 354.969 143.05 354.457 142.922C353.945 142.794 353.332 142.73 352.617 142.73ZM368.52 136.026H371.48V137.114H368.52V136.026ZM368.504 138.842H371.448V139.93H368.504V138.842ZM360.408 134.154H368.52V135.226H360.408V134.154ZM364.504 135.962C365.154 135.962 365.725 136.074 366.216 136.298C366.706 136.522 367.09 136.837 367.368 137.242C367.645 137.637 367.784 138.106 367.784 138.65C367.784 139.183 367.645 139.653 367.368 140.058C367.09 140.453 366.706 140.762 366.216 140.986C365.725 141.21 365.154 141.322 364.504 141.322C363.864 141.322 363.298 141.21 362.808 140.986C362.317 140.762 361.933 140.453 361.656 140.058C361.378 139.653 361.24 139.183 361.24 138.65C361.24 138.106 361.378 137.637 361.656 137.242C361.933 136.837 362.317 136.522 362.808 136.298C363.298 136.074 363.864 135.962 364.504 135.962ZM364.504 136.986C363.896 136.986 363.405 137.135 363.032 137.434C362.669 137.733 362.488 138.138 362.488 138.65C362.488 139.151 362.669 139.557 363.032 139.866C363.405 140.165 363.896 140.314 364.504 140.314C365.112 140.314 365.602 140.165 365.976 139.866C366.36 139.557 366.552 139.151 366.552 138.65C366.552 138.138 366.36 137.733 365.976 137.434C365.602 137.135 365.112 136.986 364.504 136.986ZM363.864 132.426H365.176V134.89H363.864V132.426ZM370.968 132.554H372.296V141.898H370.968V132.554ZM367.56 142.058C368.562 142.058 369.421 142.154 370.136 142.346C370.85 142.538 371.4 142.821 371.784 143.194C372.178 143.567 372.376 144.015 372.376 144.538C372.376 145.05 372.178 145.493 371.784 145.866C371.4 146.239 370.85 146.522 370.136 146.714C369.421 146.906 368.562 147.002 367.56 147.002C366.557 147.002 365.693 146.906 364.968 146.714C364.253 146.522 363.698 146.239 363.304 145.866C362.92 145.493 362.728 145.05 362.728 144.538C362.728 144.015 362.92 143.567 363.304 143.194C363.698 142.821 364.253 142.538 364.968 142.346C365.693 142.154 366.557 142.058 367.56 142.058ZM367.56 143.098C366.493 143.098 365.65 143.221 365.032 143.466C364.413 143.711 364.104 144.069 364.104 144.538C364.104 144.986 364.413 145.338 365.032 145.594C365.65 145.85 366.493 145.978 367.56 145.978C368.616 145.978 369.448 145.85 370.056 145.594C370.674 145.338 370.984 144.986 370.984 144.538C370.984 144.069 370.674 143.711 370.056 143.466C369.448 143.221 368.616 143.098 367.56 143.098ZM382.23 139.562V140.826H379.318V143.69H377.974V140.826H375.062V139.562H377.974V136.682H379.318V139.562H382.23ZM394.359 132.554H395.687V147.05H394.359V132.554ZM391.255 137.818H394.743V138.906H391.255V137.818ZM387.447 134.618H388.519V136.794C388.519 137.573 388.412 138.341 388.199 139.098C387.996 139.845 387.708 140.549 387.335 141.21C386.972 141.871 386.54 142.458 386.039 142.97C385.548 143.482 385.02 143.887 384.455 144.186L383.655 143.13C384.178 142.874 384.668 142.522 385.127 142.074C385.586 141.626 385.986 141.119 386.327 140.554C386.679 139.978 386.951 139.37 387.143 138.73C387.346 138.079 387.447 137.434 387.447 136.794V134.618ZM387.735 134.618H388.791V136.794C388.791 137.391 388.887 137.999 389.079 138.618C389.271 139.226 389.538 139.802 389.879 140.346C390.231 140.89 390.636 141.381 391.095 141.818C391.554 142.245 392.044 142.581 392.567 142.826L391.783 143.882C391.207 143.594 390.674 143.205 390.183 142.714C389.692 142.223 389.26 141.663 388.887 141.034C388.524 140.394 388.242 139.711 388.039 138.986C387.836 138.261 387.735 137.53 387.735 136.794V134.618ZM384.199 134.042H392.055V135.13H384.199V134.042ZM405.846 136.554H409.51V137.642H405.846V136.554ZM408.758 132.57H410.086V143.178H408.758V132.57ZM400.854 145.626H410.486V146.714H400.854V145.626ZM400.854 142.234H402.166V146.17H400.854V142.234ZM401.862 134.362H402.95V135.53C402.95 136.405 402.779 137.231 402.438 138.01C402.107 138.778 401.638 139.45 401.03 140.026C400.422 140.591 399.718 141.029 398.918 141.338L398.23 140.266C398.763 140.074 399.248 139.818 399.686 139.498C400.134 139.178 400.523 138.81 400.854 138.394C401.184 137.978 401.435 137.525 401.606 137.034C401.776 136.543 401.862 136.042 401.862 135.53V134.362ZM402.118 134.362H403.206V135.53C403.206 136.149 403.35 136.751 403.638 137.338C403.926 137.925 404.336 138.447 404.87 138.906C405.403 139.354 406.016 139.701 406.71 139.946L406.038 141.002C405.248 140.714 404.56 140.298 403.974 139.754C403.387 139.199 402.928 138.559 402.598 137.834C402.278 137.109 402.118 136.341 402.118 135.53V134.362ZM398.646 133.738H406.374V134.826H398.646V133.738ZM413.188 139.738H414.212C415.162 139.738 415.972 139.733 416.644 139.722C417.327 139.701 417.946 139.663 418.5 139.61C419.066 139.557 419.636 139.477 420.212 139.37L420.34 140.458C419.903 140.533 419.471 140.597 419.044 140.65C418.618 140.693 418.17 140.725 417.7 140.746C417.231 140.767 416.714 140.783 416.148 140.794C415.583 140.805 414.938 140.81 414.212 140.81H413.188V139.738ZM413.156 133.434H419.38V137.53H414.5V140.378H413.188V136.506H418.068V134.506H413.156V133.434ZM423.156 132.57H424.484V141.466H423.156V132.57ZM420.34 134.714H423.46V135.786H420.34V134.714ZM420.34 137.706H423.46V138.794H420.34V137.706ZM414.804 142.234H424.484V147.05H423.156V143.322H414.804V142.234ZM430.956 144.074H444.076V145.178H430.956V144.074ZM436.828 140.33H438.14V144.378H436.828V140.33ZM432.492 133.754H442.476V140.57H432.492V133.754ZM441.18 134.826H433.788V139.514H441.18V134.826ZM447.019 139.498H456.955V140.586H447.019V139.498ZM445.355 143.962H458.475V145.066H445.355V143.962ZM447.019 133.898H456.811V134.986H448.331V139.978H447.019V133.898Z" fill="#999999"/>
<rect x="519.946" y="26.2861" width="196.459" height="196.427" rx="98.2135" fill="white"/>
<rect x="519.946" y="26.2861" width="196.459" height="196.427" rx="98.2135" stroke="#648CEA"/>
<path d="M573.264 89.2661H574.924V102.526H573.264V89.2661ZM563.304 105.586H575.484V106.946H563.304V105.586ZM563.304 101.306H564.964V106.226H563.304V101.306ZM564.804 90.2661H566.184V92.0861C566.184 93.2728 565.977 94.3861 565.564 95.4261C565.151 96.4528 564.564 97.3595 563.804 98.1461C563.057 98.9195 562.177 99.5128 561.164 99.9261L560.284 98.6061C561.204 98.2461 561.997 97.7328 562.664 97.0661C563.344 96.3995 563.871 95.6395 564.244 94.7861C564.617 93.9195 564.804 93.0195 564.804 92.0861V90.2661ZM565.104 90.2661H566.484V92.0861C566.484 92.7661 566.591 93.4261 566.804 94.0661C567.017 94.6928 567.324 95.2795 567.724 95.8261C568.124 96.3728 568.597 96.8595 569.144 97.2861C569.704 97.6995 570.317 98.0261 570.984 98.2661L570.124 99.5861C569.124 99.1995 568.244 98.6395 567.484 97.9061C566.737 97.1595 566.151 96.2928 565.724 95.3061C565.311 94.3061 565.104 93.2328 565.104 92.0861V90.2661ZM578.903 91.9061H593.603V93.2661H578.903V91.9061ZM578.103 103.866H594.503V105.226H578.103V103.866ZM585.443 100.986H587.083V104.386H585.443V100.986ZM586.263 94.4661C587.476 94.4661 588.523 94.6061 589.403 94.8861C590.296 95.1528 590.983 95.5395 591.463 96.0461C591.943 96.5528 592.183 97.1728 592.183 97.9061C592.183 98.6261 591.943 99.2461 591.463 99.7661C590.983 100.286 590.296 100.686 589.403 100.966C588.523 101.233 587.476 101.366 586.263 101.366C585.049 101.366 583.996 101.233 583.103 100.966C582.223 100.686 581.543 100.286 581.063 99.7661C580.583 99.2461 580.343 98.6261 580.343 97.9061C580.343 97.1728 580.583 96.5528 581.063 96.0461C581.543 95.5395 582.223 95.1528 583.103 94.8861C583.996 94.6061 585.049 94.4661 586.263 94.4661ZM586.263 95.7861C585.383 95.7861 584.623 95.8728 583.983 96.0461C583.356 96.2061 582.869 96.4461 582.523 96.7661C582.189 97.0728 582.023 97.4528 582.023 97.9061C582.023 98.3461 582.189 98.7261 582.523 99.0461C582.869 99.3661 583.356 99.6128 583.983 99.7861C584.623 99.9461 585.383 100.026 586.263 100.026C587.143 100.026 587.896 99.9461 588.523 99.7861C589.149 99.6128 589.636 99.3661 589.983 99.0461C590.329 98.7261 590.503 98.3461 590.503 97.9061C590.503 97.4528 590.329 97.0728 589.983 96.7661C589.636 96.4461 589.149 96.2061 588.523 96.0461C587.896 95.8728 587.143 95.7861 586.263 95.7861ZM585.443 89.5461H587.083V92.7261H585.443V89.5461ZM613.452 89.2461H615.112V99.5061H613.452V89.2461ZM614.652 93.6461H617.772V95.0261H614.652V93.6461ZM608.432 90.4261H610.192C610.192 91.9461 609.852 93.3195 609.172 94.5461C608.505 95.7595 607.539 96.7995 606.272 97.6661C605.005 98.5328 603.485 99.2128 601.712 99.7061L601.052 98.3661C602.625 97.9528 603.959 97.3928 605.052 96.6861C606.145 95.9661 606.979 95.1395 607.552 94.2061C608.139 93.2728 608.432 92.2528 608.432 91.1461V90.4261ZM601.852 90.4261H609.372V91.7661H601.852V90.4261ZM603.712 100.346H615.112V107.086H603.712V100.346ZM613.472 101.706H605.352V105.746H613.472V101.706ZM623.851 91.8461H625.211V94.7661C625.211 95.7261 625.077 96.6728 624.811 97.6061C624.544 98.5261 624.171 99.3995 623.691 100.226C623.224 101.039 622.677 101.759 622.051 102.386C621.424 103.013 620.751 103.506 620.031 103.866L619.071 102.546C619.724 102.226 620.337 101.793 620.911 101.246C621.497 100.699 622.011 100.073 622.451 99.3661C622.891 98.6595 623.231 97.9128 623.471 97.1261C623.724 96.3395 623.851 95.5528 623.851 94.7661V91.8461ZM624.191 91.8461H625.531V94.7661C625.531 95.5261 625.651 96.2861 625.891 97.0461C626.144 97.7928 626.491 98.4995 626.931 99.1661C627.384 99.8195 627.897 100.399 628.471 100.906C629.057 101.413 629.684 101.813 630.351 102.106L629.431 103.426C628.697 103.079 628.011 102.613 627.371 102.026C626.731 101.439 626.171 100.766 625.691 100.006C625.224 99.2328 624.857 98.4061 624.591 97.5261C624.324 96.6328 624.191 95.7128 624.191 94.7661V91.8461ZM619.651 91.1061H629.751V92.4861H619.651V91.1061ZM632.211 89.2461H633.871V107.346H632.211V89.2461ZM642.92 90.2661H644.58V93.1261H649.46V90.2661H651.1V98.7461H642.92V90.2661ZM644.58 94.4461V97.3861H649.46V94.4461H644.58ZM650.64 93.8261H655.74V95.2061H650.64V93.8261ZM655.26 89.2461H656.92V99.7461H655.26V89.2461ZM645.18 100.646H656.92V107.106H645.18V100.646ZM655.3 101.986H646.82V105.746H655.3V101.986ZM665.939 90.1061C666.845 90.1061 667.645 90.2661 668.339 90.5861C669.032 90.8928 669.572 91.3261 669.959 91.8861C670.359 92.4328 670.559 93.0795 670.559 93.8261C670.559 94.5461 670.359 95.1928 669.959 95.7661C669.572 96.3261 669.032 96.7661 668.339 97.0861C667.645 97.3928 666.845 97.5461 665.939 97.5461C665.059 97.5461 664.272 97.3928 663.579 97.0861C662.885 96.7661 662.339 96.3261 661.939 95.7661C661.539 95.1928 661.339 94.5461 661.339 93.8261C661.339 93.0795 661.539 92.4328 661.939 91.8861C662.339 91.3261 662.885 90.8928 663.579 90.5861C664.272 90.2661 665.059 90.1061 665.939 90.1061ZM665.939 91.4661C665.365 91.4661 664.852 91.5661 664.399 91.7661C663.945 91.9661 663.585 92.2461 663.319 92.6061C663.065 92.9528 662.939 93.3595 662.939 93.8261C662.939 94.2795 663.065 94.6861 663.319 95.0461C663.585 95.3928 663.945 95.6661 664.399 95.8661C664.852 96.0661 665.365 96.1661 665.939 96.1661C666.539 96.1661 667.065 96.0661 667.519 95.8661C667.972 95.6661 668.325 95.3928 668.579 95.0461C668.845 94.6861 668.979 94.2795 668.979 93.8261C668.979 93.3595 668.845 92.9528 668.579 92.6061C668.325 92.2461 667.972 91.9661 667.519 91.7661C667.065 91.5661 666.539 91.4661 665.939 91.4661ZM665.219 99.5661H666.879V106.786H665.219V99.5661ZM673.219 89.2661H674.859V107.346H673.219V89.2661ZM660.219 100.466L659.999 99.0661C661.119 99.0661 662.345 99.0528 663.679 99.0261C665.025 98.9995 666.405 98.9395 667.819 98.8461C669.245 98.7528 670.612 98.6061 671.919 98.4061L672.039 99.6461C670.692 99.8995 669.319 100.086 667.919 100.206C666.519 100.313 665.159 100.379 663.839 100.406C662.532 100.433 661.325 100.453 660.219 100.466Z" fill="#666666"/>
<path d="M577.205 132.202H578.533V135.354H577.205V132.202ZM577.189 127.114H578.261V127.45C578.261 128.293 578.091 129.066 577.749 129.77C577.408 130.463 576.933 131.061 576.325 131.562C575.717 132.053 575.008 132.426 574.197 132.682L573.573 131.658C574.288 131.434 574.917 131.119 575.461 130.714C576.005 130.298 576.427 129.813 576.725 129.258C577.035 128.693 577.189 128.09 577.189 127.45V127.114ZM577.445 127.114H578.533V127.45C578.533 128.069 578.688 128.65 578.997 129.194C579.307 129.727 579.733 130.197 580.277 130.602C580.832 130.997 581.467 131.295 582.181 131.498L581.573 132.538C580.763 132.293 580.048 131.925 579.429 131.434C578.811 130.943 578.325 130.362 577.973 129.69C577.621 129.007 577.445 128.261 577.445 127.45V127.114ZM573.925 126.442H581.861V127.53H573.925V126.442ZM577.205 124.666H578.533V126.922H577.205V124.666ZM583.525 124.554H584.853V139.05H583.525V124.554ZM573.317 136.058L573.141 134.954C574.016 134.954 574.981 134.949 576.037 134.938C577.104 134.917 578.197 134.874 579.317 134.81C580.448 134.735 581.536 134.613 582.581 134.442L582.693 135.434C581.605 135.637 580.501 135.781 579.381 135.866C578.272 135.951 577.2 136.005 576.165 136.026C575.131 136.047 574.181 136.058 573.317 136.058ZM598.468 124.554H599.732V139.034H598.468V124.554ZM596.02 130.362H598.804V131.45H596.02V130.362ZM595.188 124.874H596.42V138.282H595.188V124.874ZM587.972 134.346H588.916C589.631 134.346 590.276 134.341 590.852 134.33C591.439 134.309 591.994 134.266 592.516 134.202C593.05 134.138 593.594 134.047 594.148 133.93L594.276 135.034C593.7 135.151 593.14 135.242 592.596 135.306C592.063 135.37 591.498 135.413 590.9 135.434C590.314 135.455 589.652 135.466 588.916 135.466H587.972V134.346ZM587.972 126.314H593.348V127.402H589.3V134.858H587.972V126.314ZM605.164 126.586H609.276V137.786H607.692V127.978H605.164V126.586ZM614.606 131.05C617.95 131.05 619.262 132.442 619.262 134.426C619.262 136.362 617.886 137.914 615.022 137.914C613.438 137.914 611.87 137.402 610.91 136.554L611.646 135.29C612.398 135.994 613.646 136.49 615.006 136.49C616.702 136.49 617.662 135.706 617.662 134.49C617.662 133.226 616.862 132.442 614.27 132.442H611.726L612.318 126.586H618.638V127.978H613.662L613.358 131.05H614.606ZM625.777 133.546C624.241 133.546 623.585 131.994 622.593 131.994C621.905 131.994 621.473 132.554 621.441 133.434H620.433C620.481 131.658 621.329 130.81 622.545 130.81C624.097 130.81 624.737 132.362 625.729 132.362C626.433 132.362 626.849 131.786 626.881 130.906H627.889C627.841 132.698 626.993 133.546 625.777 133.546ZM633.241 131.29C635.481 131.498 636.617 132.762 636.617 134.49C636.617 136.378 635.225 137.914 632.377 137.914C630.777 137.914 629.209 137.402 628.265 136.554L629.001 135.29C629.753 135.994 631.001 136.49 632.377 136.49C634.057 136.49 635.017 135.722 635.017 134.506C635.017 133.322 634.169 132.554 632.249 132.554H631.353V131.434L634.169 127.978H628.777V126.586H636.169V127.674L633.241 131.29ZM642.365 137.914C639.741 137.914 637.789 135.834 637.789 132.186C637.789 128.538 639.741 126.458 642.365 126.458C644.973 126.458 646.925 128.538 646.925 132.186C646.925 135.834 644.973 137.914 642.365 137.914ZM642.365 136.49C644.109 136.49 645.325 135.05 645.325 132.186C645.325 129.322 644.109 127.882 642.365 127.882C640.605 127.882 639.389 129.322 639.389 132.186C639.389 135.05 640.605 136.49 642.365 136.49ZM659.437 129.226C661.501 129.226 662.909 130.41 662.909 132.906V137.786H661.373V133.082C661.373 131.418 660.573 130.602 659.181 130.602C657.645 130.602 656.637 131.578 656.637 133.418V137.786H655.101V133.082C655.101 131.418 654.301 130.602 652.909 130.602C651.373 130.602 650.365 131.578 650.365 133.418V137.786H648.829V129.306H650.301V130.57C650.909 129.706 651.949 129.226 653.229 129.226C654.525 129.226 655.613 129.738 656.173 130.794C656.813 129.834 657.997 129.226 659.437 129.226ZM585.67 161.89C584.454 159.954 583.766 157.346 583.766 154.402C583.766 151.458 584.454 148.818 585.67 146.914H587.126C585.83 149.186 585.27 151.602 585.27 154.402C585.27 157.202 585.83 159.618 587.126 161.89H585.67ZM595.541 148.178H599.253V149.266H595.541V148.178ZM598.693 145.554H600.021V153.026H598.693V145.554ZM590.709 153.762H600.021V157.234H592.037V159.426H590.741V156.226H598.709V154.818H590.709V153.762ZM590.741 158.77H600.549V159.842H590.741V158.77ZM591.733 146.018H592.805V147.362C592.805 148.247 592.639 149.074 592.309 149.842C591.978 150.599 591.514 151.255 590.917 151.81C590.319 152.354 589.615 152.77 588.805 153.058L588.101 152.002C588.826 151.757 589.461 151.405 590.005 150.946C590.549 150.487 590.97 149.954 591.269 149.346C591.578 148.727 591.733 148.066 591.733 147.362V146.018ZM591.941 146.018H593.029V147.362C593.029 147.831 593.114 148.29 593.285 148.738C593.455 149.175 593.695 149.586 594.005 149.97C594.325 150.354 594.703 150.695 595.141 150.994C595.578 151.282 596.058 151.511 596.581 151.682L595.877 152.722C595.098 152.445 594.41 152.045 593.813 151.522C593.226 150.989 592.767 150.37 592.437 149.666C592.106 148.951 591.941 148.183 591.941 147.362V146.018ZM610.244 149.314H613.492V150.418H610.244V149.314ZM613.092 145.554H614.42V154.178H613.092V145.554ZM609.652 154.626C610.654 154.626 611.513 154.733 612.228 154.946C612.953 155.159 613.508 155.469 613.892 155.874C614.276 156.269 614.468 156.754 614.468 157.33C614.468 158.183 614.036 158.845 613.172 159.314C612.318 159.783 611.145 160.018 609.652 160.018C608.158 160.018 606.98 159.783 606.116 159.314C605.262 158.845 604.836 158.183 604.836 157.33C604.836 156.754 605.028 156.269 605.412 155.874C605.806 155.469 606.361 155.159 607.076 154.946C607.801 154.733 608.66 154.626 609.652 154.626ZM609.652 155.666C608.926 155.666 608.302 155.73 607.78 155.858C607.257 155.986 606.852 156.173 606.564 156.418C606.286 156.663 606.148 156.967 606.148 157.33C606.148 157.671 606.286 157.965 606.564 158.21C606.852 158.455 607.257 158.647 607.78 158.786C608.302 158.914 608.926 158.978 609.652 158.978C610.388 158.978 611.012 158.914 611.524 158.786C612.046 158.647 612.446 158.455 612.724 158.21C613.012 157.965 613.156 157.671 613.156 157.33C613.156 156.967 613.012 156.663 612.724 156.418C612.446 156.173 612.046 155.986 611.524 155.858C611.012 155.73 610.388 155.666 609.652 155.666ZM606.196 147.026H607.284V148.194C607.284 149.079 607.113 149.911 606.772 150.69C606.441 151.458 605.972 152.135 605.364 152.722C604.756 153.298 604.052 153.741 603.252 154.05L602.564 152.994C603.108 152.802 603.598 152.541 604.036 152.21C604.484 151.879 604.868 151.501 605.188 151.074C605.518 150.647 605.769 150.189 605.94 149.698C606.11 149.207 606.196 148.706 606.196 148.194V147.026ZM606.452 147.026H607.54V148.178C607.54 148.797 607.684 149.399 607.972 149.986C608.26 150.573 608.67 151.09 609.204 151.538C609.737 151.986 610.35 152.338 611.044 152.594L610.372 153.65C609.582 153.362 608.894 152.946 608.308 152.402C607.721 151.847 607.262 151.207 606.932 150.482C606.612 149.757 606.452 148.989 606.452 148.178V147.026ZM602.98 146.61H610.708V147.698H602.98V146.61ZM630.683 145.554H632.011V160.018H630.683V145.554ZM631.659 151.426H634.315V152.53H631.659V151.426ZM626.987 147.106H628.283C628.283 148.482 628.059 149.799 627.611 151.058C627.163 152.306 626.459 153.463 625.499 154.53C624.539 155.586 623.275 156.503 621.707 157.282L620.971 156.258C622.315 155.586 623.43 154.802 624.315 153.906C625.211 152.999 625.878 151.997 626.315 150.898C626.763 149.789 626.987 148.594 626.987 147.314V147.106ZM621.643 147.106H627.659V148.21H621.643V147.106ZM637.066 149.57H646.874V150.658H637.066V149.57ZM637.066 145.842H638.378V150.05H637.066V145.842ZM635.29 152.338H648.378V153.426H635.29V152.338ZM641.818 154.706C643.365 154.706 644.575 154.935 645.45 155.394C646.325 155.853 646.762 156.503 646.762 157.346C646.762 158.178 646.325 158.823 645.45 159.282C644.575 159.741 643.365 159.97 641.818 159.97C640.271 159.97 639.055 159.741 638.17 159.282C637.295 158.823 636.858 158.178 636.858 157.346C636.858 156.503 637.295 155.853 638.17 155.394C639.055 154.935 640.271 154.706 641.818 154.706ZM641.802 155.762C641.055 155.762 640.41 155.826 639.866 155.954C639.333 156.071 638.922 156.247 638.634 156.482C638.346 156.717 638.202 157.005 638.202 157.346C638.202 157.677 638.346 157.965 638.634 158.21C638.922 158.445 639.333 158.626 639.866 158.754C640.41 158.871 641.055 158.93 641.802 158.93C642.57 158.93 643.221 158.871 643.754 158.754C644.298 158.626 644.714 158.445 645.002 158.21C645.29 157.965 645.434 157.677 645.434 157.346C645.434 157.005 645.29 156.717 645.002 156.482C644.714 156.247 644.298 156.071 643.754 155.954C643.221 155.826 642.57 155.762 641.802 155.762ZM650.857 161.89H649.401C650.697 159.618 651.273 157.202 651.273 154.402C651.273 151.602 650.697 149.186 649.401 146.914H650.857C652.089 148.818 652.777 151.458 652.777 154.402C652.777 157.346 652.089 159.954 650.857 161.89Z" fill="#999999"/>
<rect x="766.77" y="26.2861" width="196.459" height="196.427" rx="98.2135" fill="white"/>
<rect x="766.77" y="26.2861" width="196.459" height="196.427" rx="98.2135" stroke="#648CEA"/>
<path d="M832.011 91.0861H833.371V92.5661C833.371 93.6595 833.158 94.6861 832.731 95.6461C832.318 96.6061 831.731 97.4461 830.971 98.1661C830.211 98.8728 829.331 99.4128 828.331 99.7861L827.471 98.4661C828.138 98.2261 828.745 97.9061 829.291 97.5061C829.851 97.1061 830.338 96.6461 830.751 96.1261C831.165 95.5928 831.478 95.0261 831.691 94.4261C831.905 93.8128 832.011 93.1928 832.011 92.5661V91.0861ZM832.331 91.0861H833.691V92.5461C833.691 93.3195 833.871 94.0728 834.231 94.8061C834.591 95.5261 835.105 96.1728 835.771 96.7461C836.438 97.3061 837.205 97.7461 838.071 98.0661L837.231 99.3661C836.245 99.0061 835.385 98.4861 834.651 97.8061C833.918 97.1261 833.345 96.3328 832.931 95.4261C832.531 94.5195 832.331 93.5595 832.331 92.5461V91.0861ZM837.091 93.9661H841.111V95.3461H837.091V93.9661ZM827.991 90.4861H837.651V91.8461H827.991V90.4861ZM830.211 101.046H842.291V107.346H840.631V102.406H830.211V101.046ZM840.631 89.2461H842.291V100.066H840.631V89.2461ZM849.43 95.3861H851.09V98.7861H849.43V95.3861ZM856.07 95.3861H857.71V98.7861H856.07V95.3861ZM845.41 98.1861H861.75V99.5261H845.41V98.1861ZM853.57 100.906C855.503 100.906 857.016 101.179 858.11 101.726C859.203 102.273 859.75 103.059 859.75 104.086C859.75 105.126 859.203 105.919 858.11 106.466C857.016 107.026 855.503 107.306 853.57 107.306C851.636 107.306 850.116 107.026 849.01 106.466C847.916 105.919 847.37 105.126 847.37 104.086C847.37 103.059 847.916 102.273 849.01 101.726C850.116 101.179 851.636 100.906 853.57 100.906ZM853.57 102.186C852.623 102.186 851.81 102.259 851.13 102.406C850.463 102.553 849.95 102.773 849.59 103.066C849.23 103.346 849.05 103.686 849.05 104.086C849.05 104.513 849.23 104.873 849.59 105.166C849.95 105.446 850.463 105.659 851.13 105.806C851.81 105.953 852.623 106.026 853.57 106.026C854.516 106.026 855.323 105.953 855.99 105.806C856.67 105.659 857.19 105.446 857.55 105.166C857.91 104.873 858.09 104.513 858.09 104.086C858.09 103.686 857.91 103.346 857.55 103.066C857.19 102.773 856.67 102.553 855.99 102.406C855.323 102.259 854.516 102.186 853.57 102.186ZM853.57 89.5861C854.876 89.5861 856.003 89.7195 856.95 89.9861C857.91 90.2528 858.643 90.6395 859.15 91.1461C859.67 91.6395 859.93 92.2395 859.93 92.9461C859.93 93.6395 859.67 94.2395 859.15 94.7461C858.643 95.2528 857.91 95.6395 856.95 95.9061C856.003 96.1595 854.876 96.2861 853.57 96.2861C852.263 96.2861 851.13 96.1595 850.17 95.9061C849.223 95.6395 848.49 95.2528 847.97 94.7461C847.463 94.2395 847.21 93.6395 847.21 92.9461C847.21 92.2395 847.463 91.6395 847.97 91.1461C848.49 90.6395 849.223 90.2528 850.17 89.9861C851.13 89.7195 852.263 89.5861 853.57 89.5861ZM853.57 90.8861C852.623 90.8861 851.796 90.9661 851.09 91.1261C850.396 91.2861 849.856 91.5195 849.47 91.8261C849.096 92.1328 848.91 92.5061 848.91 92.9461C848.91 93.3728 849.096 93.7461 849.47 94.0661C849.856 94.3728 850.396 94.6061 851.09 94.7661C851.796 94.9261 852.623 95.0061 853.57 95.0061C854.543 95.0061 855.376 94.9261 856.07 94.7661C856.763 94.6061 857.296 94.3728 857.67 94.0661C858.043 93.7461 858.23 93.3728 858.23 92.9461C858.23 92.5061 858.043 92.1328 857.67 91.8261C857.296 91.5195 856.763 91.2861 856.07 91.1261C855.376 90.9661 854.543 90.8861 853.57 90.8861ZM880.739 89.2461H882.399V103.406H880.739V89.2461ZM881.699 95.5661H885.039V96.9461H881.699V95.5661ZM870.959 105.586H883.039V106.946H870.959V105.586ZM870.959 102.466H872.619V105.986H870.959V102.466ZM873.119 98.0861H874.759V100.566H873.119V98.0861ZM868.479 101.326L868.279 99.9861C869.346 99.9861 870.526 99.9728 871.819 99.9461C873.113 99.9195 874.433 99.8595 875.779 99.7661C877.126 99.6728 878.419 99.5328 879.659 99.3461L879.779 100.526C878.513 100.766 877.206 100.946 875.859 101.066C874.513 101.173 873.206 101.246 871.939 101.286C870.686 101.313 869.533 101.326 868.479 101.326ZM868.739 91.0061H879.119V92.2661H868.739V91.0061ZM873.919 93.0261C875.199 93.0261 876.219 93.2728 876.979 93.7661C877.753 94.2595 878.139 94.9395 878.139 95.8061C878.139 96.6728 877.753 97.3528 876.979 97.8461C876.219 98.3395 875.199 98.5861 873.919 98.5861C872.653 98.5861 871.633 98.3395 870.859 97.8461C870.086 97.3528 869.699 96.6728 869.699 95.8061C869.699 94.9395 870.086 94.2595 870.859 93.7661C871.633 93.2728 872.653 93.0261 873.919 93.0261ZM873.919 94.1861C873.119 94.1861 872.479 94.3328 871.999 94.6261C871.519 94.9061 871.279 95.2995 871.279 95.8061C871.279 96.2995 871.519 96.6928 871.999 96.9861C872.479 97.2661 873.119 97.4061 873.919 97.4061C874.719 97.4061 875.359 97.2661 875.839 96.9861C876.319 96.6928 876.559 96.2995 876.559 95.8061C876.559 95.2995 876.319 94.9061 875.839 94.6261C875.359 94.3328 874.719 94.1861 873.919 94.1861ZM873.119 89.1861H874.759V91.5861H873.119V89.1861ZM895.038 92.5861H899.878V93.9261H895.038V92.5861ZM894.878 96.3461H899.758V97.7061H894.878V96.3461ZM899.598 89.2661H901.258V100.086H899.598V89.2661ZM893.938 90.6061H895.698C895.698 92.1528 895.358 93.5461 894.678 94.7861C894.011 96.0261 893.044 97.0928 891.778 97.9861C890.524 98.8661 889.031 99.5661 887.298 100.086L886.618 98.7661C888.151 98.3128 889.464 97.7261 890.558 97.0061C891.651 96.2728 892.484 95.4328 893.058 94.4861C893.644 93.5261 893.938 92.4728 893.938 91.3261V90.6061ZM887.538 90.6061H895.058V91.9661H887.538V90.6061ZM895.378 100.286C896.604 100.286 897.658 100.426 898.538 100.706C899.431 100.986 900.124 101.386 900.618 101.906C901.111 102.426 901.358 103.046 901.358 103.766C901.358 104.499 901.111 105.126 900.618 105.646C900.124 106.153 899.431 106.546 898.538 106.826C897.658 107.119 896.604 107.266 895.378 107.266C894.164 107.266 893.104 107.119 892.198 106.826C891.304 106.546 890.611 106.153 890.118 105.646C889.624 105.126 889.378 104.499 889.378 103.766C889.378 103.046 889.624 102.426 890.118 101.906C890.611 101.386 891.304 100.986 892.198 100.706C893.104 100.426 894.164 100.286 895.378 100.286ZM895.378 101.606C894.498 101.606 893.731 101.693 893.078 101.866C892.424 102.039 891.918 102.286 891.558 102.606C891.198 102.926 891.018 103.313 891.018 103.766C891.018 104.219 891.198 104.606 891.558 104.926C891.918 105.246 892.424 105.493 893.078 105.666C893.731 105.839 894.498 105.926 895.378 105.926C896.271 105.926 897.038 105.839 897.678 105.666C898.318 105.493 898.818 105.246 899.178 104.926C899.538 104.606 899.718 104.219 899.718 103.766C899.718 103.313 899.538 102.926 899.178 102.606C898.818 102.286 898.318 102.039 897.678 101.866C897.038 101.693 896.271 101.606 895.378 101.606Z" fill="#666666"/>
<path d="M810.385 124.554H811.713V132.042H810.385V124.554ZM802.353 132.778H811.713V136.266H803.681V138.25H802.401V135.258H810.401V133.834H802.353V132.778ZM802.401 137.802H812.209V138.874H802.401V137.802ZM803.617 124.97H804.721V126.074C804.721 126.97 804.55 127.807 804.209 128.586C803.868 129.365 803.388 130.042 802.769 130.618C802.15 131.183 801.436 131.615 800.625 131.914L799.953 130.858C800.497 130.666 800.993 130.41 801.441 130.09C801.889 129.77 802.273 129.402 802.593 128.986C802.924 128.559 803.174 128.101 803.345 127.61C803.526 127.119 803.617 126.607 803.617 126.074V124.97ZM803.857 124.97H804.961V126.074C804.961 126.575 805.046 127.061 805.217 127.53C805.398 127.999 805.649 128.431 805.969 128.826C806.3 129.221 806.689 129.573 807.137 129.882C807.585 130.181 808.076 130.421 808.609 130.602L807.953 131.642C807.345 131.429 806.79 131.146 806.289 130.794C805.788 130.431 805.356 130.01 804.993 129.53C804.63 129.039 804.348 128.506 804.145 127.93C803.953 127.343 803.857 126.725 803.857 126.074V124.97ZM825.232 124.554H826.512V139.034H825.232V124.554ZM822.816 130.442H825.6V131.546H822.816V130.442ZM821.952 124.874H823.2V138.282H821.952V124.874ZM814.96 126.298H816.288V134.65H814.96V126.298ZM814.96 134.122H815.872C816.629 134.122 817.424 134.095 818.256 134.042C819.088 133.978 819.973 133.85 820.912 133.658L821.072 134.826C820.09 135.018 819.173 135.146 818.32 135.21C817.466 135.263 816.65 135.29 815.872 135.29H814.96V134.122ZM827.406 139.386L832.686 124.314H834.078L828.798 139.386H827.406ZM837.975 131.786H839.303V135.082H837.975V131.786ZM838.647 125.498C839.405 125.498 840.071 125.642 840.647 125.93C841.234 126.207 841.693 126.602 842.023 127.114C842.354 127.626 842.519 128.223 842.519 128.906C842.519 129.567 842.354 130.159 842.023 130.682C841.693 131.194 841.234 131.594 840.647 131.882C840.071 132.159 839.405 132.298 838.647 132.298C837.901 132.298 837.234 132.159 836.647 131.882C836.061 131.594 835.597 131.194 835.255 130.682C834.925 130.159 834.759 129.567 834.759 128.906C834.759 128.223 834.925 127.626 835.255 127.114C835.597 126.602 836.061 126.207 836.647 125.93C837.234 125.642 837.901 125.498 838.647 125.498ZM838.647 126.65C838.157 126.65 837.714 126.746 837.319 126.938C836.935 127.119 836.631 127.381 836.407 127.722C836.183 128.053 836.071 128.447 836.071 128.906C836.071 129.343 836.183 129.738 836.407 130.09C836.631 130.431 836.935 130.698 837.319 130.89C837.714 131.071 838.157 131.162 838.647 131.162C839.149 131.162 839.591 131.071 839.975 130.89C840.359 130.698 840.663 130.431 840.887 130.09C841.111 129.738 841.223 129.343 841.223 128.906C841.223 128.447 841.111 128.053 840.887 127.722C840.663 127.381 840.359 127.119 839.975 126.938C839.591 126.746 839.149 126.65 838.647 126.65ZM844.423 124.554H845.751V139.05H844.423V124.554ZM834.215 135.898L834.039 134.794C834.925 134.794 835.895 134.789 836.951 134.778C838.007 134.757 839.095 134.714 840.215 134.65C841.346 134.575 842.434 134.458 843.479 134.298L843.591 135.274C842.503 135.477 841.399 135.621 840.279 135.706C839.17 135.791 838.098 135.845 837.063 135.866C836.029 135.887 835.079 135.898 834.215 135.898ZM849.398 135.69C850.006 135.69 850.438 136.154 850.438 136.778C850.438 137.098 850.374 137.338 850.166 137.93L849.414 140.154H848.406L848.998 137.77C848.598 137.626 848.326 137.258 848.326 136.778C848.326 136.138 848.79 135.69 849.398 135.69ZM855.624 132.218H868.712V133.29H855.624V132.218ZM861.496 130.346H862.824V132.666H861.496V130.346ZM857.352 129.77H867.176V130.81H857.352V129.77ZM857.352 124.97H867.096V126.026H858.68V130.33H857.352V124.97ZM858.28 127.354H866.712V128.362H858.28V127.354ZM862.168 134.362C863.736 134.362 864.952 134.559 865.816 134.954C866.68 135.349 867.112 135.925 867.112 136.682C867.112 137.439 866.68 138.015 865.816 138.41C864.952 138.805 863.736 139.002 862.168 139.002C860.589 139.002 859.368 138.805 858.504 138.41C857.64 138.015 857.208 137.439 857.208 136.682C857.208 135.925 857.64 135.349 858.504 134.954C859.368 134.559 860.589 134.362 862.168 134.362ZM862.152 135.37C861 135.37 860.109 135.482 859.48 135.706C858.851 135.93 858.536 136.255 858.536 136.682C858.536 137.119 858.851 137.45 859.48 137.674C860.109 137.887 861 137.994 862.152 137.994C863.325 137.994 864.221 137.887 864.84 137.674C865.469 137.45 865.784 137.119 865.784 136.682C865.784 136.255 865.469 135.93 864.84 135.706C864.221 135.482 863.325 135.37 862.152 135.37ZM880.567 124.57H881.895V135.178H880.567V124.57ZM872.599 137.626H882.343V138.714H872.599V137.626ZM872.599 134.202H873.927V138.138H872.599V134.202ZM873.799 125.37H874.903V126.826C874.903 127.775 874.737 128.666 874.407 129.498C874.076 130.319 873.607 131.045 872.999 131.674C872.401 132.293 871.697 132.767 870.887 133.098L870.183 132.042C870.919 131.754 871.553 131.343 872.087 130.81C872.631 130.277 873.052 129.669 873.351 128.986C873.649 128.293 873.799 127.573 873.799 126.826V125.37ZM874.039 125.37H875.143V126.826C875.143 127.37 875.228 127.898 875.399 128.41C875.569 128.911 875.815 129.381 876.135 129.818C876.455 130.255 876.833 130.645 877.271 130.986C877.719 131.317 878.209 131.578 878.743 131.77L878.055 132.826C877.255 132.517 876.551 132.069 875.943 131.482C875.345 130.885 874.876 130.191 874.535 129.402C874.204 128.602 874.039 127.743 874.039 126.826V125.37ZM885.03 125.658H891.686V131.882H885.03V125.658ZM890.39 126.73H886.326V130.81H890.39V126.73ZM894.342 124.554H895.67V133.098H894.342V124.554ZM895.302 128.154H897.798V129.258H895.302V128.154ZM891.062 133.594C892.032 133.594 892.875 133.706 893.59 133.93C894.304 134.143 894.854 134.453 895.238 134.858C895.622 135.253 895.814 135.733 895.814 136.298C895.814 136.874 895.622 137.365 895.238 137.77C894.854 138.165 894.304 138.469 893.59 138.682C892.875 138.906 892.032 139.018 891.062 139.018C890.08 139.018 889.232 138.906 888.518 138.682C887.803 138.469 887.254 138.159 886.87 137.754C886.486 137.349 886.294 136.863 886.294 136.298C886.294 135.733 886.486 135.253 886.87 134.858C887.254 134.453 887.803 134.143 888.518 133.93C889.232 133.706 890.08 133.594 891.062 133.594ZM891.062 134.666C890.347 134.666 889.728 134.73 889.206 134.858C888.694 134.986 888.299 135.173 888.022 135.418C887.744 135.663 887.606 135.957 887.606 136.298C887.606 136.65 887.744 136.949 888.022 137.194C888.299 137.439 888.694 137.626 889.206 137.754C889.728 137.882 890.347 137.946 891.062 137.946C891.776 137.946 892.39 137.882 892.902 137.754C893.414 137.626 893.808 137.439 894.086 137.194C894.363 136.949 894.502 136.65 894.502 136.298C894.502 135.957 894.363 135.663 894.086 135.418C893.808 135.173 893.414 134.986 892.902 134.858C892.39 134.73 891.776 134.666 891.062 134.666ZM904.461 133.05H905.709V134.842H908.237V133.05H909.469V138.842H904.461V133.05ZM905.709 135.85V137.802H908.237V135.85H905.709ZM912.269 132.954H913.309V134.17C913.309 134.821 913.197 135.461 912.973 136.09C912.749 136.709 912.413 137.269 911.965 137.77C911.528 138.271 910.978 138.666 910.317 138.954L909.645 137.946C910.221 137.701 910.706 137.375 911.101 136.97C911.496 136.565 911.789 136.117 911.981 135.626C912.173 135.135 912.269 134.65 912.269 134.17V132.954ZM912.557 132.954H913.581V134.17C913.581 134.682 913.677 135.189 913.869 135.69C914.072 136.181 914.37 136.623 914.765 137.018C915.16 137.413 915.645 137.722 916.221 137.946L915.533 138.954C914.861 138.677 914.306 138.293 913.869 137.802C913.432 137.311 913.101 136.751 912.877 136.122C912.664 135.493 912.557 134.842 912.557 134.17V132.954ZM910.077 127.946H913.965V129.05H910.077V127.946ZM906.765 125.194C907.48 125.194 908.114 125.338 908.669 125.626C909.234 125.903 909.677 126.293 909.997 126.794C910.317 127.285 910.477 127.861 910.477 128.522C910.477 129.173 910.317 129.754 909.997 130.266C909.677 130.767 909.234 131.162 908.669 131.45C908.114 131.727 907.48 131.866 906.765 131.866C906.04 131.866 905.394 131.727 904.829 131.45C904.274 131.162 903.837 130.767 903.517 130.266C903.197 129.754 903.037 129.173 903.037 128.522C903.037 127.861 903.197 127.285 903.517 126.794C903.837 126.293 904.274 125.903 904.829 125.626C905.394 125.338 906.04 125.194 906.765 125.194ZM906.765 126.298C906.285 126.298 905.858 126.394 905.485 126.586C905.122 126.767 904.834 127.029 904.621 127.37C904.408 127.701 904.301 128.085 904.301 128.522C904.301 128.959 904.408 129.349 904.621 129.69C904.834 130.021 905.122 130.282 905.485 130.474C905.858 130.666 906.285 130.762 906.765 130.762C907.234 130.762 907.65 130.666 908.013 130.474C908.386 130.282 908.68 130.021 908.893 129.69C909.106 129.349 909.213 128.959 909.213 128.522C909.213 128.085 909.106 127.701 908.893 127.37C908.68 127.029 908.386 126.767 908.013 126.586C907.65 126.394 907.234 126.298 906.765 126.298ZM913.389 124.554H914.717V132.218H913.389V124.554ZM918.972 128.906H928.812V129.978H918.972V128.906ZM917.196 131.914H930.316V133.002H917.196V131.914ZM918.972 125.082H920.284V129.45H918.972V125.082ZM918.876 137.594H928.892V138.682H918.876V137.594ZM918.876 134.458H920.204V137.882H918.876V134.458ZM806.333 147.634H807.421V149.97C807.421 150.738 807.315 151.495 807.101 152.242C806.888 152.978 806.589 153.677 806.205 154.338C805.832 154.989 805.395 155.565 804.893 156.066C804.392 156.567 803.853 156.962 803.277 157.25L802.509 156.194C803.032 155.938 803.523 155.591 803.981 155.154C804.451 154.717 804.861 154.215 805.213 153.65C805.565 153.085 805.837 152.487 806.029 151.858C806.232 151.229 806.333 150.599 806.333 149.97V147.634ZM806.605 147.634H807.677V149.97C807.677 150.578 807.773 151.186 807.965 151.794C808.168 152.391 808.445 152.957 808.797 153.49C809.16 154.013 809.571 154.477 810.029 154.882C810.499 155.287 811 155.607 811.533 155.842L810.797 156.898C810.211 156.621 809.661 156.247 809.149 155.778C808.637 155.309 808.189 154.77 807.805 154.162C807.432 153.543 807.139 152.882 806.925 152.178C806.712 151.463 806.605 150.727 806.605 149.97V147.634ZM802.973 147.042H811.053V148.146H802.973V147.042ZM813.021 145.554H814.349V160.034H813.021V145.554ZM823.5 147.682H827.9V148.77H823.5V147.682ZM823.5 150.93H827.9V152.018H823.5V150.93ZM819.148 154.882H828.812V160.034H827.484V155.954H819.148V154.882ZM827.484 145.554H828.812V154.082H827.484V145.554ZM820.86 146.37C821.564 146.37 822.193 146.519 822.748 146.818C823.313 147.106 823.756 147.517 824.076 148.05C824.407 148.573 824.572 149.17 824.572 149.842C824.572 150.525 824.407 151.127 824.076 151.65C823.756 152.173 823.313 152.583 822.748 152.882C822.193 153.181 821.564 153.33 820.86 153.33C820.145 153.33 819.505 153.181 818.94 152.882C818.385 152.583 817.943 152.173 817.612 151.65C817.292 151.127 817.132 150.525 817.132 149.842C817.132 149.17 817.292 148.573 817.612 148.05C817.943 147.517 818.385 147.106 818.94 146.818C819.505 146.519 820.145 146.37 820.86 146.37ZM820.86 147.506C820.391 147.506 819.969 147.607 819.596 147.81C819.223 148.013 818.929 148.29 818.716 148.642C818.503 148.994 818.396 149.394 818.396 149.842C818.396 150.301 818.503 150.711 818.716 151.074C818.929 151.426 819.223 151.703 819.596 151.906C819.969 152.098 820.391 152.194 820.86 152.194C821.319 152.194 821.735 152.098 822.108 151.906C822.481 151.703 822.775 151.426 822.988 151.074C823.201 150.711 823.308 150.301 823.308 149.842C823.308 149.394 823.201 148.994 822.988 148.642C822.775 148.29 822.481 148.013 822.108 147.81C821.735 147.607 821.319 147.506 820.86 147.506ZM832.347 156.69C832.955 156.69 833.387 157.154 833.387 157.778C833.387 158.098 833.323 158.338 833.115 158.93L832.363 161.154H831.355L831.947 158.77C831.547 158.626 831.275 158.258 831.275 157.778C831.275 157.138 831.739 156.69 832.347 156.69ZM844.445 149.202H847.165V150.306H844.445V149.202ZM849.517 145.554H850.781V156.418H849.517V145.554ZM846.685 145.842H847.949V156.002H846.685V145.842ZM841.341 158.626H851.213V159.714H841.341V158.626ZM841.341 155.09H842.669V159.218H841.341V155.09ZM841.581 146.578H842.637V148.706C842.637 149.453 842.509 150.194 842.253 150.93C841.997 151.666 841.623 152.338 841.133 152.946C840.642 153.543 840.05 154.007 839.357 154.338L838.621 153.33C839.239 153.021 839.767 152.615 840.205 152.114C840.653 151.613 840.994 151.063 841.229 150.466C841.463 149.869 841.581 149.282 841.581 148.706V146.578ZM841.821 146.578H842.861V148.706C842.861 149.271 842.967 149.831 843.181 150.386C843.405 150.93 843.73 151.426 844.157 151.874C844.583 152.322 845.095 152.679 845.693 152.946L844.957 153.97C844.285 153.661 843.714 153.234 843.245 152.69C842.775 152.146 842.418 151.533 842.173 150.85C841.938 150.157 841.821 149.442 841.821 148.706V146.578ZM860.22 150.466H864.236V151.554H860.22V150.466ZM856.716 146.802H857.804V149.394C857.804 150.194 857.702 150.983 857.5 151.762C857.308 152.541 857.03 153.266 856.668 153.938C856.305 154.61 855.878 155.207 855.388 155.73C854.908 156.253 854.38 156.669 853.804 156.978L852.972 155.906C853.505 155.65 853.996 155.293 854.444 154.834C854.902 154.375 855.302 153.853 855.644 153.266C855.985 152.669 856.246 152.045 856.428 151.394C856.62 150.733 856.716 150.066 856.716 149.394V146.802ZM856.988 146.802H858.06V149.394C858.06 150.045 858.15 150.69 858.332 151.33C858.524 151.97 858.79 152.573 859.132 153.138C859.473 153.693 859.868 154.189 860.316 154.626C860.774 155.063 861.265 155.405 861.788 155.65L860.988 156.722C860.412 156.423 859.878 156.023 859.388 155.522C858.897 155.021 858.47 154.445 858.108 153.794C857.756 153.143 857.478 152.445 857.276 151.698C857.084 150.951 856.988 150.183 856.988 149.394V146.802ZM863.58 145.554H864.892V160.05H863.58V145.554ZM877.235 152.786H878.547V155.314H877.235V152.786ZM871.363 152.322H884.435V153.41H871.363V152.322ZM877.891 154.914C879.438 154.914 880.648 155.133 881.523 155.57C882.398 156.007 882.835 156.637 882.835 157.458C882.835 158.269 882.398 158.893 881.523 159.33C880.648 159.778 879.438 160.002 877.891 160.002C876.344 160.002 875.128 159.778 874.243 159.33C873.368 158.893 872.931 158.269 872.931 157.458C872.931 156.637 873.368 156.007 874.243 155.57C875.128 155.133 876.344 154.914 877.891 154.914ZM877.891 155.954C877.134 155.954 876.483 156.013 875.939 156.13C875.406 156.247 874.995 156.418 874.707 156.642C874.419 156.866 874.275 157.138 874.275 157.458C874.275 157.778 874.419 158.05 874.707 158.274C874.995 158.498 875.406 158.669 875.939 158.786C876.483 158.914 877.134 158.978 877.891 158.978C878.648 158.978 879.294 158.914 879.827 158.786C880.371 158.669 880.787 158.498 881.075 158.274C881.363 158.05 881.507 157.778 881.507 157.458C881.507 157.138 881.363 156.866 881.075 156.642C880.787 156.418 880.371 156.247 879.827 156.13C879.294 156.013 878.648 155.954 877.891 155.954ZM877.043 146.754H878.211V147.186C878.211 147.655 878.11 148.087 877.907 148.482C877.715 148.877 877.443 149.245 877.091 149.586C876.739 149.917 876.323 150.21 875.843 150.466C875.374 150.722 874.862 150.935 874.307 151.106C873.752 151.266 873.171 151.383 872.563 151.458L872.083 150.402C872.606 150.349 873.107 150.258 873.587 150.13C874.078 149.991 874.531 149.826 874.947 149.634C875.374 149.431 875.742 149.202 876.051 148.946C876.36 148.69 876.6 148.413 876.771 148.114C876.952 147.815 877.043 147.506 877.043 147.186V146.754ZM877.587 146.754H878.755V147.186C878.755 147.517 878.84 147.831 879.011 148.13C879.192 148.418 879.438 148.69 879.747 148.946C880.056 149.191 880.419 149.415 880.835 149.618C881.262 149.81 881.715 149.975 882.195 150.114C882.686 150.253 883.192 150.349 883.715 150.402L883.235 151.458C882.627 151.383 882.046 151.266 881.491 151.106C880.936 150.935 880.419 150.722 879.939 150.466C879.47 150.21 879.059 149.917 878.707 149.586C878.355 149.255 878.078 148.887 877.875 148.482C877.683 148.077 877.587 147.645 877.587 147.186V146.754ZM872.563 146.226H883.251V147.298H872.563V146.226ZM889.378 147.874H890.45V148.482C890.45 149.293 890.279 150.045 889.938 150.738C889.607 151.431 889.133 152.029 888.514 152.53C887.906 153.031 887.197 153.41 886.386 153.666L885.762 152.626C886.477 152.413 887.106 152.098 887.65 151.682C888.194 151.266 888.615 150.786 888.914 150.242C889.223 149.687 889.378 149.101 889.378 148.482V147.874ZM889.602 147.874H890.69V148.482C890.69 148.93 890.775 149.357 890.946 149.762C891.127 150.157 891.378 150.525 891.698 150.866C892.029 151.197 892.418 151.49 892.866 151.746C893.314 152.002 893.805 152.205 894.338 152.354L893.73 153.394C892.919 153.159 892.199 152.807 891.57 152.338C890.951 151.858 890.466 151.293 890.114 150.642C889.773 149.981 889.602 149.261 889.602 148.482V147.874ZM886.162 147.17H893.89V148.226H886.162V147.17ZM889.378 145.49H890.706V147.682H889.378V145.49ZM893.474 149.426H896.69V150.514H893.474V149.426ZM896.338 145.554H897.65V153.57H896.338V145.554ZM888.402 154.226H889.714V155.954H896.338V154.226H897.65V159.842H888.402V154.226ZM889.714 156.994V158.754H896.338V156.994H889.714ZM913.93 145.554H915.258V160.018H913.93V145.554ZM914.906 151.426H917.562V152.53H914.906V151.426ZM910.234 147.106H911.53C911.53 148.482 911.306 149.799 910.858 151.058C910.41 152.306 909.706 153.463 908.746 154.53C907.786 155.586 906.522 156.503 904.954 157.282L904.218 156.258C905.562 155.586 906.676 154.802 907.562 153.906C908.458 152.999 909.124 151.997 909.562 150.898C910.01 149.789 910.234 148.594 910.234 147.314V147.106ZM904.89 147.106H910.906V148.21H904.89V147.106ZM920.312 149.57H930.12V150.658H920.312V149.57ZM920.312 145.842H921.624V150.05H920.312V145.842ZM918.536 152.338H931.624V153.426H918.536V152.338ZM925.064 154.706C926.611 154.706 927.822 154.935 928.696 155.394C929.571 155.853 930.008 156.503 930.008 157.346C930.008 158.178 929.571 158.823 928.696 159.282C927.822 159.741 926.611 159.97 925.064 159.97C923.518 159.97 922.302 159.741 921.416 159.282C920.542 158.823 920.104 158.178 920.104 157.346C920.104 156.503 920.542 155.853 921.416 155.394C922.302 154.935 923.518 154.706 925.064 154.706ZM925.048 155.762C924.302 155.762 923.656 155.826 923.112 155.954C922.579 156.071 922.168 156.247 921.88 156.482C921.592 156.717 921.448 157.005 921.448 157.346C921.448 157.677 921.592 157.965 921.88 158.21C922.168 158.445 922.579 158.626 923.112 158.754C923.656 158.871 924.302 158.93 925.048 158.93C925.816 158.93 926.467 158.871 927 158.754C927.544 158.626 927.96 158.445 928.248 158.21C928.536 157.965 928.68 157.677 928.68 157.346C928.68 157.005 928.536 156.717 928.248 156.482C927.96 156.247 927.544 156.071 927 155.954C926.467 155.826 925.816 155.762 925.048 155.762Z" fill="#999999"/>
<rect x="1013.59" y="26.2861" width="196.459" height="196.427" rx="98.2135" fill="white"/>
<rect x="1013.59" y="26.2861" width="196.459" height="196.427" rx="98.2135" stroke="#648CEA"/>
<path d="M1082.6 92.0861H1088.04V93.4461H1082.6V92.0861ZM1082.6 96.4061H1088.04V97.7661H1082.6V96.4061ZM1087.46 89.2661H1089.12V102.626H1087.46V89.2661ZM1077.58 105.586H1089.62V106.946H1077.58V105.586ZM1077.58 101.246H1079.22V106.166H1077.58V101.246ZM1079.18 90.4061C1080.06 90.4061 1080.84 90.5995 1081.54 90.9861C1082.24 91.3728 1082.8 91.9061 1083.2 92.5861C1083.61 93.2661 1083.82 94.0461 1083.82 94.9261C1083.82 95.8195 1083.61 96.6061 1083.2 97.2861C1082.8 97.9661 1082.24 98.4995 1081.54 98.8861C1080.84 99.2728 1080.06 99.4661 1079.18 99.4661C1078.28 99.4661 1077.48 99.2728 1076.78 98.8861C1076.08 98.4995 1075.53 97.9661 1075.12 97.2861C1074.72 96.6061 1074.52 95.8195 1074.52 94.9261C1074.52 94.0461 1074.72 93.2661 1075.12 92.5861C1075.53 91.9061 1076.08 91.3728 1076.78 90.9861C1077.48 90.5995 1078.28 90.4061 1079.18 90.4061ZM1079.18 91.8861C1078.59 91.8861 1078.06 92.0195 1077.6 92.2861C1077.13 92.5395 1076.76 92.8995 1076.5 93.3661C1076.23 93.8195 1076.1 94.3461 1076.1 94.9461C1076.1 95.5328 1076.23 96.0595 1076.5 96.5261C1076.76 96.9928 1077.13 97.3595 1077.6 97.6261C1078.06 97.8795 1078.59 98.0061 1079.18 98.0061C1079.75 98.0061 1080.27 97.8795 1080.74 97.6261C1081.2 97.3595 1081.57 96.9928 1081.84 96.5261C1082.1 96.0595 1082.24 95.5328 1082.24 94.9461C1082.24 94.3461 1082.1 93.8195 1081.84 93.3661C1081.57 92.8995 1081.2 92.5395 1080.74 92.2861C1080.27 92.0195 1079.75 91.8861 1079.18 91.8861ZM1092.23 98.1661H1108.59V99.5061H1092.23V98.1661ZM1099.59 95.2661H1101.21V98.7261H1099.59V95.2661ZM1094.29 94.7461H1106.67V96.0861H1094.29V94.7461ZM1094.29 90.0861H1106.55V91.4061H1095.93V95.5461H1094.29V90.0861ZM1100.39 100.806C1102.33 100.806 1103.84 101.093 1104.93 101.666C1106.03 102.226 1106.57 103.026 1106.57 104.066C1106.57 105.106 1106.03 105.906 1104.93 106.466C1103.84 107.039 1102.33 107.326 1100.39 107.326C1098.46 107.326 1096.94 107.039 1095.83 106.466C1094.74 105.906 1094.19 105.106 1094.19 104.066C1094.19 103.026 1094.74 102.226 1095.83 101.666C1096.94 101.093 1098.46 100.806 1100.39 100.806ZM1100.37 102.106C1099.44 102.106 1098.63 102.186 1097.95 102.346C1097.29 102.493 1096.77 102.713 1096.41 103.006C1096.05 103.286 1095.87 103.639 1095.87 104.066C1095.87 104.479 1096.05 104.833 1096.41 105.126C1096.77 105.419 1097.29 105.639 1097.95 105.786C1098.63 105.946 1099.44 106.026 1100.37 106.026C1101.33 106.026 1102.15 105.946 1102.81 105.786C1103.49 105.639 1104.01 105.419 1104.37 105.126C1104.73 104.833 1104.91 104.479 1104.91 104.066C1104.91 103.639 1104.73 103.286 1104.37 103.006C1104.01 102.713 1103.49 102.493 1102.81 102.346C1102.15 102.186 1101.33 102.106 1100.37 102.106ZM1128.38 89.2461H1130.04V107.346H1128.38V89.2461ZM1123.08 91.2061H1124.72C1124.72 92.5128 1124.56 93.7728 1124.24 94.9861C1123.94 96.1995 1123.45 97.3528 1122.78 98.4461C1122.12 99.5261 1121.25 100.533 1120.18 101.466C1119.12 102.399 1117.82 103.233 1116.3 103.966L1115.42 102.626C1117.17 101.786 1118.61 100.806 1119.74 99.6861C1120.88 98.5661 1121.72 97.3195 1122.26 95.9461C1122.81 94.5595 1123.08 93.0661 1123.08 91.4661V91.2061ZM1116.26 91.2061H1123.78V92.5461H1116.26V91.2061ZM1135.42 94.2661H1147.68V95.6261H1135.42V94.2661ZM1135.42 89.6061H1137.06V94.8661H1135.42V89.6061ZM1133.2 97.7261H1149.56V99.0861H1133.2V97.7261ZM1141.36 100.686C1143.3 100.686 1144.81 100.973 1145.9 101.546C1147 102.119 1147.54 102.933 1147.54 103.986C1147.54 105.026 1147 105.833 1145.9 106.406C1144.81 106.979 1143.3 107.266 1141.36 107.266C1139.43 107.266 1137.91 106.979 1136.8 106.406C1135.71 105.833 1135.16 105.026 1135.16 103.986C1135.16 102.933 1135.71 102.119 1136.8 101.546C1137.91 100.973 1139.43 100.686 1141.36 100.686ZM1141.34 102.006C1140.41 102.006 1139.6 102.086 1138.92 102.246C1138.26 102.393 1137.74 102.613 1137.38 102.906C1137.02 103.199 1136.84 103.559 1136.84 103.986C1136.84 104.399 1137.02 104.759 1137.38 105.066C1137.74 105.359 1138.26 105.586 1138.92 105.746C1139.6 105.893 1140.41 105.966 1141.34 105.966C1142.3 105.966 1143.12 105.893 1143.78 105.746C1144.46 105.586 1144.98 105.359 1145.34 105.066C1145.7 104.759 1145.88 104.399 1145.88 103.986C1145.88 103.559 1145.7 103.199 1145.34 102.906C1144.98 102.613 1144.46 102.393 1143.78 102.246C1143.12 102.086 1142.3 102.006 1141.34 102.006Z" fill="#666666"/>
<path d="M1052.76 125.354C1053.4 125.354 1053.96 125.493 1054.45 125.77C1054.95 126.047 1055.34 126.431 1055.62 126.922C1055.91 127.413 1056.05 127.983 1056.05 128.634C1056.05 129.274 1055.91 129.845 1055.62 130.346C1055.34 130.837 1054.95 131.221 1054.45 131.498C1053.96 131.775 1053.4 131.914 1052.76 131.914C1052.12 131.914 1051.55 131.775 1051.05 131.498C1050.55 131.221 1050.17 130.837 1049.89 130.346C1049.62 129.845 1049.48 129.274 1049.48 128.634C1049.48 127.983 1049.62 127.413 1049.89 126.922C1050.17 126.431 1050.55 126.047 1051.05 125.77C1051.55 125.493 1052.12 125.354 1052.76 125.354ZM1052.76 126.442C1052.36 126.442 1052.01 126.538 1051.69 126.73C1051.38 126.911 1051.13 127.167 1050.95 127.498C1050.77 127.818 1050.68 128.197 1050.68 128.634C1050.68 129.061 1050.77 129.439 1050.95 129.77C1051.13 130.09 1051.38 130.346 1051.69 130.538C1052.01 130.719 1052.36 130.81 1052.76 130.81C1053.15 130.81 1053.5 130.719 1053.81 130.538C1054.13 130.346 1054.38 130.09 1054.57 129.77C1054.75 129.439 1054.84 129.061 1054.84 128.634C1054.84 128.197 1054.75 127.818 1054.57 127.498C1054.38 127.167 1054.13 126.911 1053.81 126.73C1053.5 126.538 1053.15 126.442 1052.76 126.442ZM1060.26 124.57H1061.53V132.442H1060.26V124.57ZM1057.97 127.882H1060.71V128.986H1057.97V127.882ZM1057.16 124.842H1058.41V132.346H1057.16V124.842ZM1052.04 133.098H1053.35V134.81H1060.23V133.098H1061.53V138.842H1052.04V133.098ZM1053.35 135.882V137.754H1060.23V135.882H1053.35ZM1064.77 135.69C1065.38 135.69 1065.81 136.154 1065.81 136.778C1065.81 137.098 1065.75 137.338 1065.54 137.93L1064.79 140.154H1063.78L1064.37 137.77C1063.97 137.626 1063.7 137.258 1063.7 136.778C1063.7 136.138 1064.16 135.69 1064.77 135.69ZM1071.8 125.674H1078.2V126.778H1071.8V125.674ZM1073.97 128.906H1075.29V132.522H1073.97V128.906ZM1077.67 125.674H1078.97V126.442C1078.97 126.922 1078.95 127.519 1078.92 128.234C1078.9 128.949 1078.79 129.781 1078.6 130.73L1077.29 130.602C1077.48 129.642 1077.59 128.826 1077.62 128.154C1077.65 127.482 1077.67 126.911 1077.67 126.442V125.674ZM1080.93 124.554H1082.28V135.45H1080.93V124.554ZM1081.67 129.258H1084.34V130.378H1081.67V129.258ZM1073.13 137.626H1082.74V138.714H1073.13V137.626ZM1073.13 134.458H1074.45V137.946H1073.13V134.458ZM1071.06 133.146L1070.92 132.058C1071.77 132.058 1072.72 132.047 1073.75 132.026C1074.78 132.005 1075.84 131.962 1076.9 131.898C1077.97 131.823 1078.99 131.722 1079.97 131.594L1080.05 132.57C1079.06 132.741 1078.03 132.869 1076.97 132.954C1075.9 133.039 1074.86 133.093 1073.85 133.114C1072.84 133.135 1071.92 133.146 1071.06 133.146ZM1095.96 124.554H1097.27V139.05H1095.96V124.554ZM1086.24 134.442H1087.44C1088.27 134.442 1089.06 134.431 1089.81 134.41C1090.58 134.378 1091.35 134.325 1092.13 134.25C1092.92 134.175 1093.74 134.069 1094.6 133.93L1094.72 135.018C1093.42 135.231 1092.2 135.375 1091.04 135.45C1089.89 135.514 1088.69 135.546 1087.44 135.546H1086.24V134.442ZM1086.21 125.898H1092.9V131.066H1087.59V134.858H1086.24V129.994H1091.56V126.986H1086.21V125.898ZM1103.38 126.634H1104.45V128.97C1104.45 129.727 1104.35 130.479 1104.13 131.226C1103.92 131.962 1103.62 132.661 1103.24 133.322C1102.86 133.973 1102.43 134.554 1101.94 135.066C1101.45 135.567 1100.92 135.962 1100.36 136.25L1099.57 135.194C1100.09 134.938 1100.58 134.591 1101.03 134.154C1101.49 133.706 1101.89 133.199 1102.24 132.634C1102.6 132.058 1102.87 131.461 1103.08 130.842C1103.28 130.213 1103.38 129.589 1103.38 128.97V126.634ZM1103.64 126.634H1104.69V128.97C1104.69 129.546 1104.78 130.127 1104.96 130.714C1105.16 131.301 1105.42 131.861 1105.76 132.394C1106.11 132.927 1106.5 133.407 1106.95 133.834C1107.41 134.25 1107.89 134.586 1108.4 134.842L1107.65 135.898C1107.09 135.61 1106.56 135.226 1106.07 134.746C1105.58 134.255 1105.15 133.701 1104.79 133.082C1104.43 132.463 1104.14 131.802 1103.94 131.098C1103.74 130.394 1103.64 129.685 1103.64 128.97V126.634ZM1100.08 126.042H1107.89V127.146H1100.08V126.042ZM1109.6 124.554H1110.93V139.034H1109.6V124.554ZM1110.63 130.394H1113.3V131.514H1110.63V130.394ZM1129.2 124.554H1130.46V139.034H1129.2V124.554ZM1126.75 130.362H1129.53V131.45H1126.75V130.362ZM1125.92 124.874H1127.15V138.282H1125.92V124.874ZM1118.7 134.346H1119.64C1120.36 134.346 1121 134.341 1121.58 134.33C1122.17 134.309 1122.72 134.266 1123.24 134.202C1123.78 134.138 1124.32 134.047 1124.88 133.93L1125 135.034C1124.43 135.151 1123.87 135.242 1123.32 135.306C1122.79 135.37 1122.22 135.413 1121.63 135.434C1121.04 135.455 1120.38 135.466 1119.64 135.466H1118.7V134.346ZM1118.7 126.314H1124.08V127.402H1120.03V134.858H1118.7V126.314ZM1136.39 125.802H1137.5V128.394C1137.5 129.226 1137.39 130.037 1137.18 130.826C1136.98 131.605 1136.68 132.335 1136.3 133.018C1135.92 133.69 1135.48 134.287 1134.97 134.81C1134.47 135.322 1133.92 135.727 1133.32 136.026L1132.51 134.922C1133.05 134.677 1133.56 134.325 1134.03 133.866C1134.5 133.407 1134.91 132.89 1135.26 132.314C1135.61 131.727 1135.89 131.098 1136.09 130.426C1136.29 129.754 1136.39 129.077 1136.39 128.394V125.802ZM1136.62 125.802H1137.72V128.394C1137.72 129.055 1137.82 129.706 1138.01 130.346C1138.21 130.986 1138.49 131.594 1138.84 132.17C1139.2 132.735 1139.62 133.237 1140.07 133.674C1140.54 134.101 1141.04 134.437 1141.58 134.682L1140.78 135.738C1140.19 135.461 1139.65 135.071 1139.15 134.57C1138.64 134.069 1138.2 133.493 1137.82 132.842C1137.44 132.191 1137.15 131.487 1136.94 130.73C1136.72 129.973 1136.62 129.194 1136.62 128.394V125.802ZM1143.1 124.554H1144.43V139.05H1143.1V124.554ZM1146.98 136.09H1160.1V137.194H1146.98V136.09ZM1152.86 132.618H1154.17V136.41H1152.86V132.618ZM1148.52 125.578H1149.85V128.154H1157.21V125.578H1158.52V132.986H1148.52V125.578ZM1149.85 129.242V131.898H1157.21V129.242H1149.85ZM1163.05 131.498H1172.98V132.586H1163.05V131.498ZM1161.38 135.962H1174.5V137.066H1161.38V135.962ZM1163.05 125.898H1172.84V126.986H1164.36V131.978H1163.05V125.898ZM1044.57 146.674H1050.97V147.778H1044.57V146.674ZM1046.75 149.906H1048.06V153.522H1046.75V149.906ZM1050.44 146.674H1051.74V147.442C1051.74 147.922 1051.72 148.519 1051.69 149.234C1051.67 149.949 1051.56 150.781 1051.37 151.73L1050.06 151.602C1050.25 150.642 1050.36 149.826 1050.39 149.154C1050.43 148.482 1050.44 147.911 1050.44 147.442V146.674ZM1053.71 145.554H1055.05V156.45H1053.71V145.554ZM1054.44 150.258H1057.11V151.378H1054.44V150.258ZM1045.9 158.626H1055.51V159.714H1045.9V158.626ZM1045.9 155.458H1047.23V158.946H1045.9V155.458ZM1043.83 154.146L1043.69 153.058C1044.54 153.058 1045.49 153.047 1046.52 153.026C1047.56 153.005 1048.61 152.962 1049.67 152.898C1050.74 152.823 1051.77 152.722 1052.75 152.594L1052.83 153.57C1051.83 153.741 1050.81 153.869 1049.74 153.954C1048.67 154.039 1047.63 154.093 1046.62 154.114C1045.62 154.135 1044.69 154.146 1043.83 154.146ZM1069.19 145.554H1070.46V160.034H1069.19V145.554ZM1063.91 150.754H1066.7V151.842H1063.91V150.754ZM1066.3 145.89H1067.55V159.282H1066.3V145.89ZM1061.15 147.81H1062.17V149.65C1062.17 150.439 1062.09 151.213 1061.95 151.97C1061.8 152.717 1061.58 153.421 1061.29 154.082C1061 154.733 1060.65 155.325 1060.23 155.858C1059.82 156.381 1059.35 156.807 1058.83 157.138L1058.01 156.146C1058.68 155.741 1059.25 155.197 1059.71 154.514C1060.17 153.831 1060.53 153.069 1060.78 152.226C1061.02 151.383 1061.15 150.525 1061.15 149.65V147.81ZM1061.42 147.81H1062.43V149.65C1062.43 150.482 1062.54 151.298 1062.78 152.098C1063.02 152.898 1063.37 153.623 1063.82 154.274C1064.28 154.914 1064.84 155.426 1065.5 155.81L1064.7 156.802C1063.99 156.365 1063.4 155.783 1062.91 155.058C1062.43 154.322 1062.06 153.49 1061.8 152.562C1061.55 151.623 1061.42 150.653 1061.42 149.65V147.81ZM1058.41 147.25H1065.02V148.338H1058.41V147.25ZM1073.8 146.002H1084.41V147.026H1073.8V146.002ZM1073.85 149.778H1084.36V150.802H1073.85V149.778ZM1075.98 146.386H1077.3V150.466H1075.98V146.386ZM1080.9 146.386H1082.23V150.466H1080.9V146.386ZM1072.58 152.002H1085.66V153.074H1072.58V152.002ZM1074.17 154.338H1083.98V157.522H1075.5V159.266H1074.2V156.562H1082.68V155.33H1074.17V154.338ZM1074.2 158.85H1084.41V159.874H1074.2V158.85ZM1097.91 145.57H1099.17V155.41H1097.91V145.57ZM1095.59 149.346H1098.31V150.434H1095.59V149.346ZM1094.71 145.842H1095.96V154.162H1094.71V145.842ZM1087.64 152.882H1088.58C1089.27 152.882 1089.89 152.871 1090.47 152.85C1091.06 152.829 1091.63 152.786 1092.18 152.722C1092.74 152.658 1093.3 152.562 1093.88 152.434L1094.02 153.506C1093.41 153.623 1092.83 153.714 1092.26 153.778C1091.7 153.842 1091.12 153.885 1090.52 153.906C1089.92 153.927 1089.28 153.938 1088.58 153.938H1087.64V152.882ZM1087.61 146.69H1093.05V150.754H1088.92V153.586H1087.64V149.746H1091.77V147.778H1087.61V146.69ZM1093.7 154.754H1094.84V155.122C1094.84 155.762 1094.69 156.354 1094.39 156.898C1094.09 157.431 1093.68 157.906 1093.16 158.322C1092.65 158.738 1092.06 159.085 1091.4 159.362C1090.75 159.65 1090.06 159.853 1089.33 159.97L1088.81 158.93C1089.31 158.855 1089.8 158.738 1090.28 158.578C1090.77 158.407 1091.22 158.205 1091.62 157.97C1092.04 157.735 1092.4 157.469 1092.71 157.17C1093.02 156.871 1093.26 156.551 1093.43 156.21C1093.61 155.869 1093.7 155.506 1093.7 155.122V154.754ZM1093.89 154.754H1095.03V155.122C1095.03 155.506 1095.12 155.869 1095.29 156.21C1095.47 156.551 1095.71 156.871 1096.02 157.17C1096.33 157.469 1096.69 157.735 1097.09 157.97C1097.51 158.205 1097.96 158.407 1098.44 158.578C1098.93 158.738 1099.43 158.855 1099.93 158.93L1099.4 159.97C1098.67 159.853 1097.98 159.65 1097.32 159.362C1096.67 159.085 1096.08 158.738 1095.56 158.322C1095.05 157.906 1094.64 157.431 1094.34 156.898C1094.04 156.354 1093.89 155.762 1093.89 155.122V154.754ZM1101.38 152.85H1114.45V153.922H1101.38V152.85ZM1107.24 150.914H1108.57V153.41H1107.24V150.914ZM1102.6 146.018H1113.21V147.106H1102.6V146.018ZM1102.65 150.114H1113.16V151.202H1102.65V150.114ZM1104.77 146.498H1106.1V150.834H1104.77V146.498ZM1109.7 146.498H1111.03V150.834H1109.7V146.498ZM1102.98 155.282H1112.85V159.842H1102.98V155.282ZM1111.56 156.338H1104.28V158.754H1111.56V156.338ZM1126.45 147.826H1130.8V148.914H1126.45V147.826ZM1126.45 151.282H1130.8V152.37H1126.45V151.282ZM1130.33 145.57H1131.66V156.258H1130.33V145.57ZM1122.43 158.626H1132.06V159.714H1122.43V158.626ZM1122.43 155.154H1123.74V159.09H1122.43V155.154ZM1123.71 146.482C1124.41 146.482 1125.04 146.637 1125.6 146.946C1126.16 147.255 1126.61 147.682 1126.93 148.226C1127.26 148.77 1127.42 149.394 1127.42 150.098C1127.42 150.813 1127.26 151.442 1126.93 151.986C1126.61 152.53 1126.16 152.957 1125.6 153.266C1125.04 153.575 1124.41 153.73 1123.71 153.73C1122.99 153.73 1122.35 153.575 1121.79 153.266C1121.23 152.957 1120.79 152.53 1120.46 151.986C1120.14 151.442 1119.98 150.813 1119.98 150.098C1119.98 149.394 1120.14 148.77 1120.46 148.226C1120.79 147.682 1121.23 147.255 1121.79 146.946C1122.35 146.637 1122.99 146.482 1123.71 146.482ZM1123.71 147.666C1123.24 147.666 1122.82 147.773 1122.45 147.986C1122.07 148.189 1121.78 148.477 1121.57 148.85C1121.35 149.213 1121.25 149.634 1121.25 150.114C1121.25 150.583 1121.35 151.005 1121.57 151.378C1121.78 151.751 1122.07 152.045 1122.45 152.258C1122.82 152.461 1123.24 152.562 1123.71 152.562C1124.17 152.562 1124.58 152.461 1124.96 152.258C1125.33 152.045 1125.62 151.751 1125.84 151.378C1126.05 151.005 1126.16 150.583 1126.16 150.114C1126.16 149.634 1126.05 149.213 1125.84 148.85C1125.62 148.477 1125.33 148.189 1124.96 147.986C1124.58 147.773 1124.17 147.666 1123.71 147.666ZM1139.77 149.57H1142.97V150.658H1139.77V149.57ZM1139.66 153.202H1142.94V154.29H1139.66V153.202ZM1145.18 145.554H1146.46V160.034H1145.18V145.554ZM1142.27 145.938H1143.53V159.298H1142.27V145.938ZM1139.05 147.394H1140.33C1140.33 148.653 1140.15 149.863 1139.79 151.026C1139.43 152.178 1138.84 153.255 1138.04 154.258C1137.25 155.25 1136.21 156.135 1134.92 156.914L1134.14 155.954C1135.27 155.271 1136.2 154.503 1136.92 153.65C1137.65 152.786 1138.18 151.853 1138.52 150.85C1138.88 149.837 1139.05 148.765 1139.05 147.634V147.394ZM1134.78 147.394H1139.56V148.482H1134.78V147.394ZM1162.32 145.554H1163.65V160.018H1162.32V145.554ZM1163.3 151.426H1165.96V152.53H1163.3V151.426ZM1158.63 147.106H1159.92C1159.92 148.482 1159.7 149.799 1159.25 151.058C1158.8 152.306 1158.1 153.463 1157.14 154.53C1156.18 155.586 1154.92 156.503 1153.35 157.282L1152.61 156.258C1153.96 155.586 1155.07 154.802 1155.96 153.906C1156.85 152.999 1157.52 151.997 1157.96 150.898C1158.4 149.789 1158.63 148.594 1158.63 147.314V147.106ZM1153.28 147.106H1159.3V148.21H1153.28V147.106ZM1168.71 149.57H1178.51V150.658H1168.71V149.57ZM1168.71 145.842H1170.02V150.05H1168.71V145.842ZM1166.93 152.338H1180.02V153.426H1166.93V152.338ZM1173.46 154.706C1175.01 154.706 1176.22 154.935 1177.09 155.394C1177.97 155.853 1178.4 156.503 1178.4 157.346C1178.4 158.178 1177.97 158.823 1177.09 159.282C1176.22 159.741 1175.01 159.97 1173.46 159.97C1171.91 159.97 1170.7 159.741 1169.81 159.282C1168.94 158.823 1168.5 158.178 1168.5 157.346C1168.5 156.503 1168.94 155.853 1169.81 155.394C1170.7 154.935 1171.91 154.706 1173.46 154.706ZM1173.44 155.762C1172.7 155.762 1172.05 155.826 1171.51 155.954C1170.97 156.071 1170.56 156.247 1170.27 156.482C1169.99 156.717 1169.84 157.005 1169.84 157.346C1169.84 157.677 1169.99 157.965 1170.27 158.21C1170.56 158.445 1170.97 158.626 1171.51 158.754C1172.05 158.871 1172.7 158.93 1173.44 158.93C1174.21 158.93 1174.86 158.871 1175.39 158.754C1175.94 158.626 1176.35 158.445 1176.64 158.21C1176.93 157.965 1177.07 157.677 1177.07 157.346C1177.07 157.005 1176.93 156.717 1176.64 156.482C1176.35 156.247 1175.94 156.071 1175.39 155.954C1174.86 155.826 1174.21 155.762 1173.44 155.762Z" fill="#999999"/>
</svg>
