<svg width="1236" height="249" viewBox="0 0 1236 249" fill="none" xmlns="http://www.w3.org/2000/svg">
<path d="M247.942 124.5C247.942 140.704 244.75 156.749 238.548 171.72C232.346 186.691 223.255 200.293 211.796 211.751C200.336 223.209 186.731 232.298 171.758 238.499C156.785 244.7 140.737 247.892 124.53 247.892C108.324 247.892 92.2757 244.7 77.3027 238.499C62.3297 232.298 48.7249 223.209 37.2651 211.751C25.8053 200.293 16.7148 186.691 10.5128 171.72C4.31079 156.749 1.11865 140.704 1.11865 124.5" stroke="#D9D9D9" stroke-linecap="round" stroke-dasharray="4 4"/>
<path d="M247.942 124.5C247.942 108.296 251.134 92.2506 257.336 77.28C263.538 62.3094 272.628 48.7068 284.088 37.2488C295.548 25.7908 309.153 16.7018 324.126 10.5008C339.099 4.29974 355.147 1.10811 371.353 1.10811C387.56 1.10811 403.608 4.29974 418.581 10.5008C433.554 16.7018 447.159 25.7908 458.619 37.2488C470.079 48.7068 479.169 62.3094 485.371 77.28C491.573 92.2506 494.765 108.296 494.765 124.5" stroke="#D9D9D9" stroke-linecap="round" stroke-dasharray="4 4"/>
<path d="M741.589 124.5C741.589 140.704 738.397 156.749 732.195 171.72C725.993 186.691 716.903 200.293 705.443 211.751C693.983 223.209 680.378 232.298 665.405 238.499C650.432 244.7 634.384 247.892 618.178 247.892C601.971 247.892 585.923 244.7 570.95 238.499C555.977 232.298 542.372 223.209 530.913 211.751C519.453 200.293 510.362 186.691 504.16 171.72C497.958 156.749 494.766 140.704 494.766 124.5" stroke="#D9D9D9" stroke-linecap="round" stroke-dasharray="4 4"/>
<path d="M1235.24 124.5C1235.24 140.704 1232.04 156.749 1225.84 171.72C1219.64 186.691 1210.55 200.293 1199.09 211.751C1187.63 223.209 1174.03 232.298 1159.05 238.499C1144.08 244.7 1128.03 247.892 1111.82 247.892C1095.62 247.892 1079.57 244.7 1064.6 238.499C1049.62 232.298 1036.02 223.209 1024.56 211.751C1013.1 200.293 1004.01 186.691 997.807 171.72C991.605 156.749 988.413 140.704 988.413 124.5" stroke="#D9D9D9" stroke-linecap="round" stroke-dasharray="4 4"/>
<path d="M741.589 124.5C741.589 108.296 744.781 92.2505 750.983 77.2799C757.185 62.3093 766.275 48.7067 777.735 37.2487C789.195 25.7907 802.8 16.7018 817.773 10.5007C832.746 4.29972 848.794 1.10808 865 1.10808C881.207 1.10809 897.255 4.29972 912.228 10.5007C927.201 16.7018 940.806 25.7908 952.266 37.2488C963.726 48.7068 972.816 62.3094 979.018 77.28C985.22 92.2506 988.412 108.296 988.412 124.5" stroke="#D9D9D9" stroke-linecap="round" stroke-dasharray="4 4"/>
<rect x="26.2993" y="26.2861" width="196.459" height="196.427" rx="98.2135" fill="white"/>
<rect x="26.2993" y="26.2861" width="196.459" height="196.427" rx="98.2135" stroke="#003FD3"/>
<path d="M87.5219 107.246H92.1019V108.606H87.5219V107.246ZM91.1619 102.266H92.8219V115.526H91.1619V102.266ZM81.2819 118.586H93.3219V119.946H81.2819V118.586ZM81.2819 114.346H82.9219V119.266H81.2819V114.346ZM82.5419 104.506H83.9019V105.966C83.9019 107.059 83.6886 108.093 83.2619 109.066C82.8486 110.026 82.2619 110.866 81.5019 111.586C80.7419 112.293 79.8619 112.839 78.8619 113.226L78.0019 111.886C78.6686 111.646 79.2753 111.326 79.8219 110.926C80.3819 110.526 80.8686 110.066 81.2819 109.546C81.6953 109.026 82.0086 108.459 82.2219 107.846C82.4353 107.233 82.5419 106.606 82.5419 105.966V104.506ZM82.8619 104.506H84.2219V105.966C84.2219 106.739 84.4019 107.493 84.7619 108.226C85.1219 108.959 85.6353 109.613 86.3019 110.186C86.9686 110.746 87.7353 111.179 88.6019 111.486L87.7619 112.806C86.7753 112.446 85.9153 111.926 85.1819 111.246C84.4486 110.553 83.8753 109.753 83.4619 108.846C83.0619 107.939 82.8619 106.979 82.8619 105.966V104.506ZM78.5219 103.726H88.1819V105.086H78.5219V103.726ZM109.12 102.246H110.78V120.346H109.12V102.246ZM103.82 104.206H105.46C105.46 105.513 105.3 106.773 104.98 107.986C104.674 109.199 104.187 110.353 103.52 111.446C102.854 112.526 101.987 113.533 100.92 114.466C99.8537 115.399 98.5604 116.233 97.0404 116.966L96.1604 115.626C97.907 114.786 99.347 113.806 100.48 112.686C101.614 111.566 102.454 110.319 103 108.946C103.547 107.559 103.82 106.066 103.82 104.466V104.206ZM97.0004 104.206H104.52V105.546H97.0004V104.206ZM119.13 104.186H129.21V105.546H119.13V104.186ZM118.89 115.866L118.69 114.466C119.77 114.466 120.95 114.459 122.23 114.446C123.51 114.419 124.823 114.373 126.17 114.306C127.517 114.226 128.803 114.113 130.03 113.966L130.13 115.206C128.877 115.406 127.583 115.553 126.25 115.646C124.917 115.739 123.617 115.799 122.35 115.826C121.097 115.853 119.943 115.866 118.89 115.866ZM121.07 105.226H122.69V114.846H121.07V105.226ZM125.65 105.226H127.25V114.846H125.65V105.226ZM131.15 102.246H132.81V120.346H131.15V102.246ZM132.43 109.486H135.77V110.866H132.43V109.486ZM141.808 112.346H143.468V119.786H141.808V112.346ZM150.088 102.266H151.768V120.346H150.088V102.266ZM137.048 113.166L136.828 111.766C137.975 111.766 139.215 111.759 140.548 111.746C141.895 111.719 143.268 111.666 144.668 111.586C146.068 111.506 147.422 111.373 148.728 111.186L148.828 112.426C147.482 112.653 146.115 112.819 144.728 112.926C143.342 113.033 141.995 113.099 140.688 113.126C139.382 113.153 138.168 113.166 137.048 113.166ZM146.008 114.606H150.528V115.906H146.008V114.606ZM142.728 103.146C143.622 103.146 144.408 103.299 145.088 103.606C145.768 103.899 146.302 104.313 146.688 104.846C147.075 105.366 147.268 105.986 147.268 106.706C147.268 107.426 147.075 108.053 146.688 108.586C146.302 109.119 145.768 109.533 145.088 109.826C144.408 110.119 143.622 110.266 142.728 110.266C141.848 110.266 141.062 110.119 140.368 109.826C139.688 109.533 139.155 109.119 138.768 108.586C138.382 108.053 138.188 107.426 138.188 106.706C138.188 105.986 138.382 105.366 138.768 104.846C139.155 104.313 139.688 103.899 140.368 103.606C141.062 103.299 141.848 103.146 142.728 103.146ZM142.728 104.426C142.142 104.426 141.622 104.526 141.168 104.726C140.728 104.913 140.382 105.179 140.128 105.526C139.875 105.873 139.748 106.266 139.748 106.706C139.748 107.159 139.875 107.559 140.128 107.906C140.382 108.253 140.728 108.519 141.168 108.706C141.622 108.893 142.142 108.986 142.728 108.986C143.315 108.986 143.828 108.893 144.268 108.706C144.708 108.519 145.055 108.253 145.308 107.906C145.562 107.559 145.688 107.159 145.688 106.706C145.688 106.266 145.562 105.873 145.308 105.526C145.055 105.179 144.708 104.913 144.268 104.726C143.828 104.526 143.315 104.426 142.728 104.426ZM168.567 102.266H170.167V113.226H168.567V102.266ZM165.707 106.986H169.127V108.366H165.707V106.986ZM164.767 102.546H166.347V113.126H164.767V102.546ZM157.847 114.126H170.167V120.346H168.507V115.486H157.847V114.126ZM155.147 103.826H163.567V105.206H155.147V103.826ZM155.007 112.226L154.827 110.846C155.427 110.846 156.1 110.846 156.847 110.846C157.607 110.833 158.4 110.813 159.227 110.786C160.053 110.759 160.867 110.719 161.667 110.666C162.467 110.599 163.22 110.519 163.927 110.426L164.007 111.666C163.06 111.826 162.04 111.953 160.947 112.046C159.853 112.126 158.787 112.179 157.747 112.206C156.72 112.219 155.807 112.226 155.007 112.226ZM156.667 104.726H158.207V111.086H156.667V104.726ZM160.507 104.726H162.027V111.086H160.507V104.726ZM86.9211 137.826H103.281V139.166H86.9211V137.826ZM94.2611 135.486H95.9211V138.386H94.2611V135.486ZM89.0811 134.766H101.361V136.066H89.0811V134.766ZM89.0811 128.766H101.261V130.086H90.7411V135.466H89.0811V128.766ZM90.2411 131.746H100.781V133.006H90.2411V131.746ZM95.1011 140.506C97.0611 140.506 98.5811 140.753 99.6611 141.246C100.741 141.739 101.281 142.459 101.281 143.406C101.281 144.353 100.741 145.073 99.6611 145.566C98.5811 146.059 97.0611 146.306 95.1011 146.306C93.1278 146.306 91.6011 146.059 90.5211 145.566C89.4411 145.073 88.9011 144.353 88.9011 143.406C88.9011 142.459 89.4411 141.739 90.5211 141.246C91.6011 140.753 93.1278 140.506 95.1011 140.506ZM95.0811 141.766C93.6411 141.766 92.5278 141.906 91.7411 142.186C90.9545 142.466 90.5611 142.873 90.5611 143.406C90.5611 143.953 90.9545 144.366 91.7411 144.646C92.5278 144.913 93.6411 145.046 95.0811 145.046C96.5478 145.046 97.6678 144.913 98.4411 144.646C99.2278 144.366 99.6211 143.953 99.6211 143.406C99.6211 142.873 99.2278 142.466 98.4411 142.186C97.6678 141.906 96.5478 141.766 95.0811 141.766ZM117.32 128.246H118.98V138.766H117.32V128.246ZM118.26 132.866H121.64V134.266H118.26V132.866ZM107.6 139.566H109.24V141.466H117.32V139.566H118.98V146.106H107.6V139.566ZM109.24 142.766V144.766H117.32V142.766H109.24ZM104.98 130.106H115.66V131.446H104.98V130.106ZM110.32 132.286C111.186 132.286 111.94 132.419 112.58 132.686C113.233 132.939 113.74 133.306 114.1 133.786C114.46 134.253 114.64 134.806 114.64 135.446C114.64 136.086 114.46 136.646 114.1 137.126C113.74 137.606 113.233 137.979 112.58 138.246C111.94 138.499 111.186 138.626 110.32 138.626C109.453 138.626 108.693 138.499 108.04 138.246C107.4 137.979 106.893 137.606 106.52 137.126C106.16 136.646 105.98 136.086 105.98 135.446C105.98 134.806 106.16 134.253 106.52 133.786C106.893 133.306 107.4 132.939 108.04 132.686C108.693 132.419 109.453 132.286 110.32 132.286ZM110.32 133.546C109.493 133.546 108.826 133.719 108.32 134.066C107.826 134.413 107.58 134.873 107.58 135.446C107.58 136.033 107.826 136.499 108.32 136.846C108.826 137.193 109.493 137.366 110.32 137.366C111.133 137.366 111.793 137.193 112.3 136.846C112.806 136.499 113.06 136.033 113.06 135.446C113.06 134.873 112.806 134.413 112.3 134.066C111.806 133.719 111.146 133.546 110.32 133.546ZM109.5 128.086H111.16V130.826H109.5V128.086ZM141.089 128.246H142.749V146.346H141.089V128.246ZM135.789 130.206H137.429C137.429 131.513 137.269 132.773 136.949 133.986C136.642 135.199 136.156 136.353 135.489 137.446C134.822 138.526 133.956 139.533 132.889 140.466C131.822 141.399 130.529 142.233 129.009 142.966L128.129 141.626C129.876 140.786 131.316 139.806 132.449 138.686C133.582 137.566 134.422 136.319 134.969 134.946C135.516 133.559 135.789 132.066 135.789 130.466V130.206ZM128.969 130.206H136.489V131.546H128.969V130.206ZM153.228 128.346H154.648V129.006C154.648 129.619 154.514 130.193 154.248 130.726C153.981 131.259 153.614 131.746 153.148 132.186C152.694 132.613 152.161 132.993 151.548 133.326C150.934 133.646 150.268 133.919 149.548 134.146C148.841 134.359 148.114 134.513 147.368 134.606L146.808 133.346C147.461 133.266 148.101 133.139 148.728 132.966C149.354 132.779 149.934 132.553 150.468 132.286C151.014 132.019 151.494 131.719 151.908 131.386C152.334 131.039 152.661 130.666 152.888 130.266C153.114 129.866 153.228 129.446 153.228 129.006V128.346ZM153.508 128.346H154.928V129.006C154.928 129.446 155.041 129.866 155.268 130.266C155.508 130.666 155.834 131.039 156.248 131.386C156.661 131.719 157.134 132.019 157.668 132.286C158.214 132.553 158.801 132.779 159.428 132.966C160.054 133.139 160.694 133.266 161.348 133.346L160.788 134.606C160.041 134.513 159.308 134.359 158.588 134.146C157.881 133.919 157.221 133.646 156.608 133.326C155.994 132.993 155.454 132.613 154.988 132.186C154.534 131.746 154.174 131.259 153.908 130.726C153.641 130.193 153.508 129.619 153.508 129.006V128.346ZM153.228 136.766H154.888V139.526H153.228V136.766ZM145.908 135.786H162.248V137.126H145.908V135.786ZM147.888 138.906H160.148V143.046H149.548V145.206H147.928V141.826H158.528V140.206H147.888V138.906ZM147.928 144.846H160.688V146.146H147.928V144.846Z" fill="#666666"/>
<rect x="273.123" y="26.2861" width="196.459" height="196.427" rx="98.2135" fill="white"/>
<rect x="273.123" y="26.2861" width="196.459" height="196.427" rx="98.2135" stroke="#648CEA"/>
<path d="M307.407 103.966H308.987V108.366H312.787V103.966H314.327V115.826H307.407V103.966ZM308.987 109.706V114.466H312.787V109.706H308.987ZM320.547 102.246H322.147V120.346H320.547V102.246ZM317.647 109.406H321.127V110.786H317.647V109.406ZM316.527 102.626H318.107V119.426H316.527V102.626ZM338.005 102.246H339.645V120.366H338.005V102.246ZM334.265 109.066H338.265V110.426H334.265V109.066ZM325.605 114.646H326.965C328.112 114.646 329.132 114.633 330.025 114.606C330.919 114.579 331.765 114.526 332.565 114.446C333.379 114.366 334.205 114.253 335.045 114.106L335.225 115.466C334.359 115.613 333.512 115.726 332.685 115.806C331.859 115.886 330.985 115.946 330.065 115.986C329.159 116.013 328.125 116.026 326.965 116.026H325.605V114.646ZM325.605 103.906H333.965V105.266H327.245V115.106H325.605V103.906ZM326.825 108.986H333.165V110.326H326.825V108.986ZM355.944 102.246H357.584V120.366H355.944V102.246ZM343.804 114.606H345.304C346.33 114.606 347.317 114.593 348.264 114.566C349.224 114.526 350.19 114.459 351.164 114.366C352.15 114.273 353.177 114.139 354.244 113.966L354.404 115.326C352.777 115.593 351.244 115.773 349.804 115.866C348.364 115.946 346.864 115.986 345.304 115.986H343.804V114.606ZM343.764 103.926H352.124V110.386H345.484V115.126H343.804V109.046H350.444V105.286H343.764V103.926ZM365.733 116.646H382.133V118.026H365.733V116.646ZM373.073 111.966H374.713V117.026H373.073V111.966ZM367.653 103.746H380.133V112.266H367.653V103.746ZM378.513 105.086H369.273V110.946H378.513V105.086ZM396.892 102.246H398.532V120.346H396.892V102.246ZM384.872 104.026H386.512V115.226H384.872V104.026ZM384.872 114.246H386.352C387.738 114.246 389.145 114.186 390.572 114.066C392.012 113.933 393.492 113.713 395.012 113.406L395.232 114.806C393.658 115.139 392.145 115.373 390.692 115.506C389.238 115.626 387.792 115.686 386.352 115.686H384.872V114.246ZM414.97 102.246H416.61V120.366H414.97V102.246ZM411.23 109.066H415.23V110.426H411.23V109.066ZM402.57 114.646H403.93C405.077 114.646 406.097 114.633 406.99 114.606C407.883 114.579 408.73 114.526 409.53 114.446C410.343 114.366 411.17 114.253 412.01 114.106L412.19 115.466C411.323 115.613 410.477 115.726 409.65 115.806C408.823 115.886 407.95 115.946 407.03 115.986C406.123 116.013 405.09 116.026 403.93 116.026H402.57V114.646ZM402.57 103.906H410.93V105.266H404.21V115.106H402.57V103.906ZM403.79 108.986H410.13V110.326H403.79V108.986ZM432.888 102.266H434.548V113.386H432.888V102.266ZM420.668 110.906H422.128C423.222 110.906 424.235 110.893 425.168 110.866C426.115 110.839 427.035 110.786 427.928 110.706C428.822 110.613 429.748 110.493 430.708 110.346L430.908 111.706C429.908 111.853 428.948 111.973 428.028 112.066C427.122 112.159 426.188 112.219 425.228 112.246C424.282 112.273 423.248 112.286 422.128 112.286H420.668V110.906ZM420.628 103.406H428.828V108.386H422.288V111.686H420.668V107.106H427.208V104.766H420.628V103.406ZM428.588 113.766C430.482 113.766 431.968 114.053 433.048 114.626C434.128 115.186 434.668 115.986 434.668 117.026C434.668 118.066 434.128 118.873 433.048 119.446C431.968 120.019 430.482 120.306 428.588 120.306C426.708 120.306 425.228 120.019 424.148 119.446C423.068 118.873 422.528 118.066 422.528 117.026C422.528 115.986 423.068 115.186 424.148 114.626C425.228 114.053 426.708 113.766 428.588 113.766ZM428.588 115.086C427.682 115.086 426.895 115.166 426.228 115.326C425.562 115.473 425.048 115.693 424.688 115.986C424.342 116.266 424.168 116.613 424.168 117.026C424.168 117.439 424.342 117.793 424.688 118.086C425.048 118.379 425.562 118.606 426.228 118.766C426.895 118.913 427.682 118.986 428.588 118.986C429.508 118.986 430.295 118.913 430.948 118.766C431.615 118.606 432.122 118.379 432.468 118.086C432.828 117.793 433.008 117.439 433.008 117.026C433.008 116.613 432.828 116.266 432.468 115.986C432.122 115.693 431.615 115.473 430.948 115.326C430.295 115.166 429.508 115.086 428.588 115.086ZM320.931 129.806H322.311V133.046C322.311 134.086 322.178 135.099 321.911 136.086C321.658 137.059 321.291 137.973 320.811 138.826C320.344 139.666 319.791 140.413 319.151 141.066C318.524 141.706 317.838 142.213 317.091 142.586L316.071 141.206C316.751 140.899 317.384 140.459 317.971 139.886C318.558 139.313 319.071 138.666 319.511 137.946C319.951 137.213 320.298 136.426 320.551 135.586C320.804 134.746 320.931 133.899 320.931 133.046V129.806ZM321.211 129.806H322.591V133.046C322.591 133.873 322.711 134.686 322.951 135.486C323.204 136.286 323.551 137.046 323.991 137.766C324.444 138.473 324.958 139.099 325.531 139.646C326.118 140.179 326.744 140.599 327.411 140.906L326.411 142.226C325.678 141.879 324.998 141.393 324.371 140.766C323.744 140.139 323.191 139.419 322.711 138.606C322.244 137.793 321.878 136.913 321.611 135.966C321.344 135.019 321.211 134.046 321.211 133.046V129.806ZM329.311 128.246H330.971V146.366H329.311V128.246ZM341.409 129.486H342.869V130.886C342.869 131.673 342.729 132.419 342.449 133.126C342.183 133.833 341.809 134.493 341.329 135.106C340.863 135.706 340.316 136.246 339.689 136.726C339.076 137.206 338.416 137.613 337.709 137.946C337.016 138.279 336.309 138.533 335.589 138.706L334.849 137.326C335.476 137.193 336.103 136.986 336.729 136.706C337.369 136.426 337.969 136.086 338.529 135.686C339.089 135.273 339.583 134.813 340.009 134.306C340.449 133.799 340.789 133.259 341.029 132.686C341.283 132.099 341.409 131.499 341.409 130.886V129.486ZM341.729 129.486H343.149V130.886C343.149 131.499 343.276 132.099 343.529 132.686C343.783 133.259 344.123 133.799 344.549 134.306C344.989 134.813 345.489 135.273 346.049 135.686C346.609 136.086 347.203 136.433 347.829 136.726C348.469 137.006 349.109 137.206 349.749 137.326L348.989 138.706C348.269 138.533 347.563 138.279 346.869 137.946C346.176 137.613 345.516 137.206 344.889 136.726C344.276 136.246 343.729 135.706 343.249 135.106C342.769 134.493 342.396 133.833 342.129 133.126C341.863 132.419 341.729 131.673 341.729 130.886V129.486ZM334.169 142.526H350.569V143.906H334.169V142.526ZM359.948 132.786H363.028V134.146H359.948V132.786ZM352.988 136.706H354.128C355.075 136.706 355.908 136.699 356.628 136.686C357.361 136.659 358.048 136.613 358.688 136.546C359.328 136.466 359.975 136.359 360.628 136.226L360.808 137.546C360.115 137.693 359.441 137.806 358.788 137.886C358.135 137.953 357.435 137.999 356.688 138.026C355.955 138.039 355.101 138.046 354.128 138.046H352.988V136.706ZM352.988 129.426H359.828V130.786H354.588V137.486H352.988V129.426ZM354.088 132.986H359.108V134.286H354.088V132.986ZM365.828 128.246H367.408V139.126H365.828V128.246ZM362.328 128.566H363.908V138.966H362.328V128.566ZM355.528 139.986H367.408V146.106H355.528V139.986ZM365.788 141.326H357.168V144.746H365.788V141.326ZM373.446 148.666C371.926 146.246 371.066 142.986 371.066 139.306C371.066 135.626 371.926 132.326 373.446 129.946H375.266C373.646 132.786 372.946 135.806 372.946 139.306C372.946 142.806 373.646 145.826 375.266 148.666H373.446ZM387.025 137.526C388.605 137.966 389.645 139.146 389.645 141.006C389.645 143.406 387.825 144.786 384.285 144.786H377.605V130.786H383.885C387.105 130.786 388.905 132.146 388.905 134.406C388.905 135.926 388.125 136.986 387.025 137.526ZM383.705 132.406H379.605V136.886H383.705C385.745 136.886 386.905 136.126 386.905 134.646C386.905 133.166 385.745 132.406 383.705 132.406ZM384.205 143.166C386.425 143.166 387.625 142.466 387.625 140.846C387.625 139.226 386.425 138.506 384.205 138.506H379.605V143.166H384.205ZM407.241 144.786H405.321L405.301 134.586L400.241 143.086H399.321L394.261 134.646V144.786H392.341V130.786H393.981L399.821 140.626L405.581 130.786H407.221L407.241 144.786ZM415.123 144.946C412.983 144.946 410.883 144.226 409.763 143.186L410.503 141.626C411.543 142.566 413.323 143.246 415.123 143.246C417.543 143.246 418.583 142.306 418.583 141.086C418.583 137.666 410.103 139.826 410.103 134.626C410.103 132.466 411.783 130.626 415.463 130.626C417.103 130.626 418.803 131.066 419.963 131.866L419.303 133.466C418.083 132.686 416.703 132.326 415.463 132.326C413.083 132.326 412.063 133.326 412.063 134.546C412.063 137.966 420.543 135.826 420.543 140.966C420.543 143.106 418.823 144.946 415.123 144.946ZM423.425 148.666H421.605C423.225 145.826 423.945 142.806 423.945 139.306C423.945 135.806 423.225 132.786 421.605 129.946H423.425C424.965 132.326 425.825 135.626 425.825 139.306C425.825 142.986 424.965 146.246 423.425 148.666Z" fill="#666666"/>
<rect x="519.946" y="26.2861" width="196.459" height="196.427" rx="98.2135" fill="white"/>
<rect x="519.946" y="26.2861" width="196.459" height="196.427" rx="98.2135" stroke="#648CEA"/>
<path d="M585.785 118.786V104.786H587.785V118.786H585.785ZM595.836 118.906C592.656 118.906 590.316 116.646 590.316 113.486C590.316 110.326 592.656 108.086 595.836 108.086C599.016 108.086 601.336 110.326 601.336 113.486C601.336 116.646 599.016 118.906 595.836 118.906ZM595.836 117.226C597.876 117.226 599.396 115.746 599.396 113.486C599.396 111.226 597.876 109.766 595.836 109.766C593.796 109.766 592.256 111.226 592.256 113.486C592.256 115.746 593.796 117.226 595.836 117.226ZM605.03 118.786V106.526H600.23V104.786H611.81V106.526H607.01V118.786H605.03ZM630.64 102.246H632.3V120.346H630.64V102.246ZM625.34 104.206H626.98C626.98 105.513 626.82 106.773 626.5 107.986C626.193 109.199 625.706 110.353 625.04 111.446C624.373 112.526 623.506 113.533 622.44 114.466C621.373 115.399 620.08 116.233 618.56 116.966L617.68 115.626C619.426 114.786 620.866 113.806 622 112.686C623.133 111.566 623.973 110.319 624.52 108.946C625.066 107.559 625.34 106.066 625.34 104.466V104.206ZM618.52 104.206H626.04V105.546H618.52V104.206ZM647.838 102.266H649.498V115.546H647.838V102.266ZM648.978 107.726H652.158V109.106H648.978V107.726ZM638.238 118.586H650.298V119.946H638.238V118.586ZM638.238 114.266H639.878V118.886H638.238V114.266ZM636.198 103.566H637.838V106.586H642.938V103.566H644.578V112.506H636.198V103.566ZM637.838 107.886V111.166H642.938V107.886H637.838ZM584.988 129.186H586.348V131.026C586.348 132.186 586.141 133.266 585.728 134.266C585.328 135.266 584.755 136.139 584.008 136.886C583.261 137.619 582.388 138.179 581.388 138.566L580.488 137.246C581.408 136.913 582.201 136.433 582.868 135.806C583.548 135.179 584.068 134.459 584.428 133.646C584.801 132.819 584.988 131.946 584.988 131.026V129.186ZM585.288 129.186H586.628V131.166C586.628 131.766 586.735 132.359 586.948 132.946C587.161 133.519 587.461 134.053 587.848 134.546C588.248 135.039 588.715 135.479 589.248 135.866C589.781 136.239 590.375 136.539 591.028 136.766L590.148 138.066C589.188 137.706 588.341 137.186 587.608 136.506C586.875 135.813 586.301 135.013 585.888 134.106C585.488 133.186 585.288 132.206 585.288 131.166V129.186ZM592.968 128.246H594.628V139.226H592.968V128.246ZM594.168 132.926H597.288V134.326H594.168V132.926ZM588.868 139.706C590.095 139.706 591.148 139.839 592.028 140.106C592.921 140.359 593.608 140.733 594.088 141.226C594.568 141.719 594.808 142.313 594.808 143.006C594.808 143.699 594.568 144.293 594.088 144.786C593.608 145.279 592.921 145.653 592.028 145.906C591.148 146.173 590.095 146.306 588.868 146.306C587.641 146.306 586.581 146.173 585.688 145.906C584.795 145.653 584.108 145.279 583.628 144.786C583.148 144.293 582.908 143.699 582.908 143.006C582.908 142.313 583.148 141.719 583.628 141.226C584.108 140.733 584.795 140.359 585.688 140.106C586.581 139.839 587.641 139.706 588.868 139.706ZM588.868 141.026C587.975 141.026 587.201 141.106 586.548 141.266C585.908 141.426 585.415 141.653 585.068 141.946C584.721 142.239 584.548 142.593 584.548 143.006C584.548 143.433 584.721 143.793 585.068 144.086C585.415 144.379 585.908 144.606 586.548 144.766C587.201 144.913 587.975 144.986 588.868 144.986C589.761 144.986 590.528 144.913 591.168 144.766C591.808 144.606 592.301 144.379 592.648 144.086C592.995 143.793 593.168 143.433 593.168 143.006C593.168 142.593 592.995 142.239 592.648 141.946C592.301 141.653 591.808 141.426 591.168 141.266C590.528 141.106 589.761 141.026 588.868 141.026ZM599.307 140.486H600.467C601.427 140.486 602.273 140.479 603.007 140.466C603.74 140.439 604.427 140.393 605.067 140.326C605.72 140.246 606.387 140.146 607.067 140.026L607.227 141.406C606.533 141.526 605.853 141.626 605.187 141.706C604.52 141.773 603.807 141.819 603.047 141.846C602.3 141.873 601.44 141.886 600.467 141.886H599.307V140.486ZM599.307 130.326H606.427V131.686H600.887V141.006H599.307V130.326ZM600.407 135.106H606.147V136.426H600.407V135.106ZM612.367 128.246H613.967V146.346H612.367V128.246ZM609.487 135.506H612.967V136.866H609.487V135.506ZM608.387 128.626H609.967V145.426H608.387V128.626ZM626.376 130.226H627.756V132.086C627.756 133.193 627.543 134.219 627.116 135.166C626.689 136.113 626.089 136.946 625.316 137.666C624.556 138.373 623.669 138.906 622.656 139.266L621.796 137.966C622.703 137.633 623.496 137.173 624.176 136.586C624.869 135.999 625.409 135.319 625.796 134.546C626.183 133.759 626.376 132.939 626.376 132.086V130.226ZM626.696 130.226H628.056V132.086C628.056 132.699 628.163 133.293 628.376 133.866C628.603 134.426 628.923 134.953 629.336 135.446C629.749 135.926 630.229 136.353 630.776 136.726C631.336 137.099 631.949 137.393 632.616 137.606L631.776 138.906C630.776 138.559 629.896 138.053 629.136 137.386C628.376 136.719 627.776 135.933 627.336 135.026C626.909 134.119 626.696 133.139 626.696 132.086V130.226ZM622.236 129.746H632.136V131.106H622.236V129.746ZM634.716 128.266H636.376V141.506H634.716V128.266ZM624.756 144.586H636.936V145.946H624.756V144.586ZM624.756 140.266H626.416V145.186H624.756V140.266ZM651.935 128.246H653.595V141.346H651.935V128.246ZM653.075 133.606H656.275V134.986H653.075V133.606ZM640.395 136.766H641.795C643.035 136.766 644.121 136.753 645.055 136.726C645.988 136.699 646.848 136.639 647.635 136.546C648.421 136.453 649.215 136.326 650.015 136.166L650.215 137.526C649.375 137.686 648.548 137.813 647.735 137.906C646.935 137.999 646.061 138.066 645.115 138.106C644.168 138.133 643.061 138.146 641.795 138.146H640.395V136.766ZM640.395 129.806H648.375V131.166H642.035V137.506H640.395V129.806ZM642.335 144.586H654.395V145.946H642.335V144.586ZM642.335 140.026H643.975V145.206H642.335V140.026Z" fill="#666666"/>
<rect x="766.77" y="26.2861" width="196.459" height="196.427" rx="98.2135" fill="white"/>
<rect x="766.77" y="26.2861" width="196.459" height="196.427" rx="98.2135" stroke="#648CEA"/>
<path d="M837.097 106.626H840.637V107.986H837.097V106.626ZM837.097 112.126H840.637V113.506H837.097V112.126ZM843.677 102.246H845.277V120.346H843.677V102.246ZM840.117 102.626H841.697V119.426H840.117V102.626ZM833.957 103.766C834.744 103.766 835.424 104.019 835.997 104.526C836.584 105.033 837.037 105.759 837.357 106.706C837.677 107.653 837.837 108.766 837.837 110.046C837.837 111.339 837.677 112.459 837.357 113.406C837.037 114.353 836.584 115.086 835.997 115.606C835.424 116.113 834.744 116.366 833.957 116.366C833.197 116.366 832.524 116.113 831.937 115.606C831.364 115.086 830.917 114.353 830.597 113.406C830.277 112.459 830.117 111.339 830.117 110.046C830.117 108.766 830.277 107.653 830.597 106.706C830.917 105.759 831.364 105.033 831.937 104.526C832.524 104.019 833.197 103.766 833.957 103.766ZM833.957 105.306C833.49 105.306 833.077 105.499 832.717 105.886C832.37 106.273 832.104 106.819 831.917 107.526C831.73 108.233 831.637 109.073 831.637 110.046C831.637 111.019 831.73 111.866 831.917 112.586C832.104 113.293 832.37 113.839 832.717 114.226C833.077 114.613 833.49 114.806 833.957 114.806C834.45 114.806 834.87 114.613 835.217 114.226C835.564 113.839 835.83 113.293 836.017 112.586C836.217 111.866 836.317 111.019 836.317 110.046C836.317 109.073 836.217 108.233 836.017 107.526C835.83 106.819 835.564 106.273 835.217 105.886C834.87 105.499 834.45 105.306 833.957 105.306ZM852.675 104.846H854.035V107.766C854.035 108.726 853.902 109.673 853.635 110.606C853.369 111.526 852.995 112.399 852.515 113.226C852.049 114.039 851.502 114.759 850.875 115.386C850.249 116.013 849.575 116.506 848.855 116.866L847.895 115.546C848.549 115.226 849.162 114.793 849.735 114.246C850.322 113.699 850.835 113.073 851.275 112.366C851.715 111.659 852.055 110.913 852.295 110.126C852.549 109.339 852.675 108.553 852.675 107.766V104.846ZM853.015 104.846H854.355V107.766C854.355 108.526 854.475 109.286 854.715 110.046C854.969 110.793 855.315 111.499 855.755 112.166C856.209 112.819 856.722 113.399 857.295 113.906C857.882 114.413 858.509 114.813 859.175 115.106L858.255 116.426C857.522 116.079 856.835 115.613 856.195 115.026C855.555 114.439 854.995 113.766 854.515 113.006C854.049 112.233 853.682 111.406 853.415 110.526C853.149 109.633 853.015 108.713 853.015 107.766V104.846ZM848.475 104.106H858.575V105.486H848.475V104.106ZM861.035 102.246H862.695V120.346H861.035V102.246ZM875.554 106.946H879.614V108.326H875.554V106.946ZM879.114 102.246H880.774V113.026H879.114V102.246ZM874.814 113.586C876.067 113.586 877.14 113.719 878.034 113.986C878.94 114.253 879.634 114.639 880.114 115.146C880.594 115.639 880.834 116.246 880.834 116.966C880.834 118.033 880.294 118.859 879.214 119.446C878.147 120.033 876.68 120.326 874.814 120.326C872.947 120.326 871.474 120.033 870.394 119.446C869.327 118.859 868.794 118.033 868.794 116.966C868.794 116.246 869.034 115.639 869.514 115.146C870.007 114.639 870.7 114.253 871.594 113.986C872.5 113.719 873.574 113.586 874.814 113.586ZM874.814 114.886C873.907 114.886 873.127 114.966 872.474 115.126C871.82 115.286 871.314 115.519 870.954 115.826C870.607 116.133 870.434 116.513 870.434 116.966C870.434 117.393 870.607 117.759 870.954 118.066C871.314 118.373 871.82 118.613 872.474 118.786C873.127 118.946 873.907 119.026 874.814 119.026C875.734 119.026 876.514 118.946 877.154 118.786C877.807 118.613 878.307 118.373 878.654 118.066C879.014 117.759 879.194 117.393 879.194 116.966C879.194 116.513 879.014 116.133 878.654 115.826C878.307 115.519 877.807 115.286 877.154 115.126C876.514 114.966 875.734 114.886 874.814 114.886ZM870.494 104.086H871.854V105.546C871.854 106.653 871.64 107.693 871.214 108.666C870.8 109.626 870.214 110.473 869.454 111.206C868.694 111.926 867.814 112.479 866.814 112.866L865.954 111.546C866.634 111.306 867.247 110.979 867.794 110.566C868.354 110.153 868.834 109.679 869.234 109.146C869.647 108.613 869.96 108.039 870.174 107.426C870.387 106.813 870.494 106.186 870.494 105.546V104.086ZM870.814 104.086H872.174V105.526C872.174 106.299 872.354 107.053 872.714 107.786C873.074 108.519 873.587 109.166 874.254 109.726C874.92 110.286 875.687 110.726 876.554 111.046L875.714 112.366C874.727 112.006 873.867 111.486 873.134 110.806C872.4 110.113 871.827 109.313 871.414 108.406C871.014 107.499 870.814 106.539 870.814 105.526V104.086ZM866.474 103.566H876.134V104.926H866.474V103.566ZM897.032 102.246H898.692V120.366H897.032V102.246ZM884.912 103.786H886.572V108.546H891.792V103.786H893.432V116.006H884.912V103.786ZM886.572 109.866V114.626H891.792V109.866H886.572ZM842.277 128.246H843.937V137.446H842.277V128.246ZM843.197 132.146H846.597V133.526H843.197V132.146ZM832.437 138.306H843.937V142.746H834.117V145.466H832.497V141.506H842.297V139.626H832.437V138.306ZM832.497 144.766H844.577V146.106H832.497V144.766ZM834.897 128.906C835.804 128.906 836.604 129.073 837.297 129.406C838.004 129.739 838.557 130.213 838.957 130.826C839.357 131.426 839.557 132.126 839.557 132.926C839.557 133.713 839.357 134.413 838.957 135.026C838.557 135.626 838.004 136.099 837.297 136.446C836.604 136.779 835.804 136.946 834.897 136.946C834.004 136.946 833.204 136.779 832.497 136.446C831.79 136.099 831.23 135.626 830.817 135.026C830.417 134.413 830.217 133.706 830.217 132.906C830.217 132.119 830.417 131.426 830.817 130.826C831.23 130.213 831.79 129.739 832.497 129.406C833.204 129.073 834.004 128.906 834.897 128.906ZM834.897 130.266C834.31 130.266 833.784 130.379 833.317 130.606C832.864 130.833 832.504 131.146 832.237 131.546C831.97 131.933 831.837 132.393 831.837 132.926C831.837 133.446 831.97 133.906 832.237 134.306C832.504 134.706 832.864 135.026 833.317 135.266C833.784 135.493 834.31 135.606 834.897 135.606C835.484 135.606 836.004 135.493 836.457 135.266C836.924 135.026 837.29 134.706 837.557 134.306C837.824 133.906 837.957 133.446 837.957 132.926C837.957 132.393 837.824 131.933 837.557 131.546C837.29 131.146 836.924 130.833 836.457 130.606C836.004 130.379 835.484 130.266 834.897 130.266ZM849.635 130.066H861.275V131.426H849.635V130.066ZM847.895 142.426H864.235V143.806H847.895V142.426ZM854.255 135.966H855.895V143.126H854.255V135.966ZM860.635 130.066H862.295V131.846C862.295 132.593 862.282 133.379 862.255 134.206C862.242 135.033 862.189 135.939 862.095 136.926C862.015 137.913 861.862 139.013 861.635 140.226L859.955 140.026C860.302 138.293 860.502 136.773 860.555 135.466C860.609 134.146 860.635 132.939 860.635 131.846V130.066ZM879.074 128.246H880.714V146.366H879.074V128.246ZM866.934 140.606H868.434C869.46 140.606 870.447 140.593 871.394 140.566C872.354 140.526 873.32 140.459 874.294 140.366C875.28 140.273 876.307 140.139 877.374 139.966L877.534 141.326C875.907 141.593 874.374 141.773 872.934 141.866C871.494 141.946 869.994 141.986 868.434 141.986H866.934V140.606ZM866.894 129.926H875.254V136.386H868.614V141.126H866.934V135.046H873.574V131.286H866.894V129.926ZM890.992 129.766H892.452V130.306C892.452 130.893 892.326 131.439 892.072 131.946C891.832 132.439 891.492 132.893 891.052 133.306C890.612 133.719 890.092 134.086 889.492 134.406C888.906 134.726 888.266 134.993 887.572 135.206C886.879 135.406 886.152 135.553 885.392 135.646L884.792 134.326C885.446 134.259 886.072 134.146 886.672 133.986C887.286 133.813 887.852 133.606 888.372 133.366C888.906 133.113 889.366 132.826 889.752 132.506C890.139 132.186 890.439 131.846 890.652 131.486C890.879 131.113 890.992 130.719 890.992 130.306V129.766ZM891.672 129.766H893.132V130.306C893.132 130.719 893.239 131.113 893.452 131.486C893.679 131.859 893.986 132.206 894.372 132.526C894.759 132.833 895.212 133.113 895.732 133.366C896.266 133.606 896.832 133.813 897.432 133.986C898.046 134.146 898.679 134.259 899.332 134.326L898.732 135.646C897.972 135.553 897.246 135.406 896.552 135.206C895.859 134.993 895.212 134.726 894.612 134.406C894.026 134.086 893.512 133.719 893.072 133.306C892.632 132.893 892.286 132.433 892.032 131.926C891.792 131.419 891.672 130.879 891.672 130.306V129.766ZM885.392 129.046H898.752V130.386H885.392V129.046ZM885.892 139.986H898.232V146.106H885.892V139.986ZM896.612 141.326H887.512V144.746H896.612V141.326ZM883.892 136.726H900.232V138.066H883.892V136.726Z" fill="#666666"/>
<rect x="1013.59" y="26.2861" width="196.459" height="196.427" rx="98.2135" fill="white"/>
<rect x="1013.59" y="26.2861" width="196.459" height="196.427" rx="98.2135" stroke="#648CEA"/>
<path d="M1099.26 112.046H1100.92V117.206H1099.26V112.046ZM1104.82 112.066H1106.48V117.226H1104.82V112.066ZM1094.72 116.766H1111.12V118.146H1094.72V116.766ZM1096.16 103.926H1109.58V105.286H1096.16V103.926ZM1096.2 111.146H1109.54V112.506H1096.2V111.146ZM1098.96 105.026H1100.62V111.426H1098.96V105.026ZM1105.12 105.026H1106.76V111.426H1105.12V105.026ZM1119.82 103.966H1121.28V104.506C1121.28 105.266 1121.09 105.966 1120.72 106.606C1120.34 107.246 1119.83 107.819 1119.18 108.326C1118.54 108.819 1117.8 109.233 1116.96 109.566C1116.13 109.886 1115.25 110.113 1114.32 110.246L1113.7 108.926C1114.34 108.833 1114.96 108.693 1115.56 108.506C1116.17 108.319 1116.73 108.093 1117.24 107.826C1117.74 107.546 1118.19 107.233 1118.58 106.886C1118.96 106.539 1119.26 106.166 1119.48 105.766C1119.7 105.366 1119.82 104.946 1119.82 104.506V103.966ZM1120.5 103.966H1121.96V104.506C1121.96 104.933 1122.06 105.346 1122.28 105.746C1122.5 106.146 1122.81 106.526 1123.2 106.886C1123.58 107.233 1124.03 107.546 1124.54 107.826C1125.06 108.093 1125.62 108.319 1126.22 108.506C1126.82 108.693 1127.44 108.833 1128.08 108.926L1127.46 110.246C1126.54 110.113 1125.66 109.886 1124.82 109.566C1123.98 109.233 1123.24 108.819 1122.6 108.326C1121.96 107.819 1121.44 107.246 1121.06 106.606C1120.68 105.966 1120.5 105.266 1120.5 104.506V103.966ZM1114.22 103.146H1127.58V104.486H1114.22V103.146ZM1112.7 111.546H1129.1V112.906H1112.7V111.546ZM1120.18 112.406H1121.84V116.566H1120.18V112.406ZM1114.78 118.586H1127.28V119.946H1114.78V118.586ZM1114.78 114.806H1116.44V119.086H1114.78V114.806ZM1080.88 128.266H1082.54V141.466H1080.88V128.266ZM1070.92 144.586H1083.1V145.946H1070.92V144.586ZM1070.92 140.126H1072.58V145.046H1070.92V140.126ZM1072.84 129.526C1073.75 129.526 1074.55 129.713 1075.26 130.086C1075.97 130.459 1076.53 130.986 1076.94 131.666C1077.35 132.333 1077.56 133.099 1077.56 133.966C1077.56 134.833 1077.35 135.606 1076.94 136.286C1076.53 136.953 1075.97 137.479 1075.26 137.866C1074.55 138.239 1073.75 138.426 1072.84 138.426C1071.95 138.426 1071.14 138.239 1070.42 137.866C1069.71 137.479 1069.15 136.953 1068.74 136.286C1068.33 135.606 1068.12 134.833 1068.12 133.966C1068.12 133.099 1068.33 132.333 1068.74 131.666C1069.15 130.986 1069.71 130.459 1070.42 130.086C1071.14 129.713 1071.95 129.526 1072.84 129.526ZM1072.84 130.966C1072.25 130.966 1071.73 131.093 1071.26 131.346C1070.79 131.599 1070.42 131.953 1070.14 132.406C1069.87 132.859 1069.74 133.379 1069.74 133.966C1069.74 134.566 1069.87 135.093 1070.14 135.546C1070.42 135.986 1070.79 136.333 1071.26 136.586C1071.73 136.839 1072.25 136.966 1072.84 136.966C1073.43 136.966 1073.95 136.839 1074.42 136.586C1074.9 136.333 1075.27 135.986 1075.54 135.546C1075.81 135.093 1075.94 134.566 1075.94 133.966C1075.94 133.379 1075.81 132.859 1075.54 132.406C1075.27 131.953 1074.9 131.599 1074.42 131.346C1073.95 131.093 1073.43 130.966 1072.84 130.966ZM1098.96 128.246H1100.6V146.366H1098.96V128.246ZM1095.22 135.066H1099.22V136.426H1095.22V135.066ZM1086.56 140.646H1087.92C1089.07 140.646 1090.09 140.633 1090.98 140.606C1091.87 140.579 1092.72 140.526 1093.52 140.446C1094.33 140.366 1095.16 140.253 1096 140.106L1096.18 141.466C1095.31 141.613 1094.47 141.726 1093.64 141.806C1092.81 141.886 1091.94 141.946 1091.02 141.986C1090.11 142.013 1089.08 142.026 1087.92 142.026H1086.56V140.646ZM1086.56 129.906H1094.92V131.266H1088.2V141.106H1086.56V129.906ZM1087.78 134.986H1094.12V136.326H1087.78V134.986ZM1117.56 128.246H1119.16V146.346H1117.56V128.246ZM1111.62 135.126H1114.6V136.606H1111.62V135.126ZM1114.06 128.686H1115.64V145.386H1114.06V128.686ZM1103.9 130.546H1112.14V131.906H1103.9V130.546ZM1103.72 141.886L1103.52 140.486C1104.12 140.486 1104.79 140.486 1105.54 140.486C1106.28 140.473 1107.06 140.453 1107.88 140.426C1108.69 140.386 1109.5 140.339 1110.3 140.286C1111.1 140.219 1111.84 140.139 1112.54 140.046L1112.66 141.286C1111.71 141.459 1110.69 141.593 1109.6 141.686C1108.52 141.766 1107.46 141.819 1106.44 141.846C1105.41 141.873 1104.5 141.886 1103.72 141.886ZM1105.38 131.426H1106.9V140.886H1105.38V131.426ZM1109.12 131.426H1110.66V140.886H1109.12V131.426ZM1134.86 128.246H1136.52V146.366H1134.86V128.246ZM1126.98 129.646C1127.87 129.646 1128.66 129.906 1129.34 130.426C1130.03 130.933 1130.57 131.659 1130.96 132.606C1131.36 133.553 1131.56 134.666 1131.56 135.946C1131.56 137.226 1131.36 138.339 1130.96 139.286C1130.57 140.233 1130.03 140.966 1129.34 141.486C1128.66 142.006 1127.87 142.266 1126.98 142.266C1126.08 142.266 1125.29 142.006 1124.6 141.486C1123.9 140.966 1123.36 140.233 1122.96 139.286C1122.57 138.339 1122.38 137.226 1122.38 135.946C1122.38 134.666 1122.57 133.553 1122.96 132.606C1123.36 131.659 1123.9 130.933 1124.6 130.426C1125.29 129.906 1126.08 129.646 1126.98 129.646ZM1126.98 131.126C1126.38 131.126 1125.85 131.326 1125.4 131.726C1124.96 132.113 1124.61 132.673 1124.36 133.406C1124.1 134.126 1123.98 134.973 1123.98 135.946C1123.98 136.919 1124.1 137.773 1124.36 138.506C1124.61 139.226 1124.96 139.786 1125.4 140.186C1125.85 140.586 1126.38 140.786 1126.98 140.786C1127.56 140.786 1128.08 140.586 1128.52 140.186C1128.97 139.786 1129.32 139.226 1129.58 138.506C1129.83 137.773 1129.96 136.919 1129.96 135.946C1129.96 134.973 1129.83 134.126 1129.58 133.406C1129.32 132.673 1128.97 132.113 1128.52 131.726C1128.08 131.326 1127.56 131.126 1126.98 131.126ZM1146.95 129.486H1148.41V130.886C1148.41 131.673 1148.27 132.419 1147.99 133.126C1147.73 133.833 1147.35 134.493 1146.87 135.106C1146.41 135.706 1145.86 136.246 1145.23 136.726C1144.62 137.206 1143.96 137.613 1143.25 137.946C1142.56 138.279 1141.85 138.533 1141.13 138.706L1140.39 137.326C1141.02 137.193 1141.65 136.986 1142.27 136.706C1142.91 136.426 1143.51 136.086 1144.07 135.686C1144.63 135.273 1145.13 134.813 1145.55 134.306C1145.99 133.799 1146.33 133.259 1146.57 132.686C1146.83 132.099 1146.95 131.499 1146.95 130.886V129.486ZM1147.27 129.486H1148.69V130.886C1148.69 131.499 1148.82 132.099 1149.07 132.686C1149.33 133.259 1149.67 133.799 1150.09 134.306C1150.53 134.813 1151.03 135.273 1151.59 135.686C1152.15 136.086 1152.75 136.433 1153.37 136.726C1154.01 137.006 1154.65 137.206 1155.29 137.326L1154.53 138.706C1153.81 138.533 1153.11 138.279 1152.41 137.946C1151.72 137.613 1151.06 137.206 1150.43 136.726C1149.82 136.246 1149.27 135.706 1148.79 135.106C1148.31 134.493 1147.94 133.833 1147.67 133.126C1147.41 132.419 1147.27 131.673 1147.27 130.886V129.486ZM1139.71 142.526H1156.11V143.906H1139.71V142.526Z" fill="#666666"/>
</svg>
