<svg width="876" height="743" viewBox="0 0 876 743" fill="none" xmlns="http://www.w3.org/2000/svg">
<g filter="url(#filter0_d_365_130)">
<rect x="314.769" y="8" width="241.143" height="200.953" rx="24" fill="white"/>
</g>
<rect x="314.769" y="336.223" width="241.143" height="183.537" rx="24" fill="black"/>
<path d="M418.674 410.992C418.674 403.136 418.674 399.206 421.115 396.767C423.557 394.327 427.484 394.325 435.34 394.325C443.197 394.325 447.126 394.325 449.565 396.767C452.005 399.209 452.007 403.136 452.007 410.992C452.007 418.848 452.007 422.777 449.565 425.217C447.124 427.656 443.197 427.659 435.34 427.659C427.484 427.659 423.555 427.659 421.115 425.217C418.676 422.775 418.674 418.848 418.674 410.992Z" stroke="white" stroke-width="3" stroke-linecap="round" stroke-linejoin="round"/>
<path d="M427.007 390.158V394.325M443.674 390.158V394.325M435.34 390.158V394.325M427.007 427.658V431.825M435.34 427.658V431.825M443.674 427.658V431.825M456.174 419.325H452.007M418.674 402.658H414.507M418.674 419.325H414.507M418.674 410.992H414.507M456.174 402.658H452.007M456.174 410.992H452.007M426.449 419.883C427.974 421.408 430.43 421.408 435.34 421.408C436.986 421.408 438.355 421.408 439.507 421.35L445.699 415.158C445.757 414.006 445.757 412.637 445.757 410.992C445.757 406.081 445.757 403.625 444.232 402.1C442.707 400.575 440.251 400.575 435.34 400.575C430.43 400.575 427.974 400.575 426.449 402.1C424.924 403.625 424.924 406.081 424.924 410.992C424.924 415.902 424.924 418.358 426.449 419.883Z" stroke="white" stroke-width="3" stroke-linecap="round" stroke-linejoin="round"/>
<path d="M388.36 457.771H405.12V459.851H388.36V457.771ZM395.42 455.811H398.06V458.551H395.42V455.811ZM390.46 454.631H403.36V456.651H390.46V454.631ZM390.46 448.711H403.2V450.731H393.1V455.791H390.46V448.711ZM392.34 451.691H402.8V453.631H392.34V451.691ZM396.72 460.691C398.76 460.691 400.34 460.951 401.46 461.471C402.593 461.991 403.16 462.745 403.16 463.731C403.16 464.718 402.593 465.471 401.46 465.991C400.34 466.511 398.76 466.771 396.72 466.771C394.693 466.771 393.113 466.511 391.98 465.991C390.86 465.471 390.3 464.718 390.3 463.731C390.3 462.745 390.86 461.991 391.98 461.471C393.113 460.951 394.693 460.691 396.72 460.691ZM396.72 462.631C395.44 462.631 394.493 462.718 393.88 462.891C393.267 463.065 392.96 463.345 392.96 463.731C392.96 464.118 393.267 464.398 393.88 464.571C394.493 464.731 395.44 464.811 396.72 464.811C398 464.811 398.947 464.731 399.56 464.571C400.173 464.398 400.48 464.118 400.48 463.731C400.48 463.345 400.173 463.065 399.56 462.891C398.947 462.718 398 462.631 396.72 462.631ZM418.299 448.251H420.959V459.091H418.299V448.251ZM419.919 452.691H423.419V454.871H419.919V452.691ZM408.919 459.811H411.559V461.191H418.339V459.811H420.959V466.571H408.919V459.811ZM411.559 463.191V464.491H418.339V463.191H411.559ZM406.399 449.851H417.279V451.951H406.399V449.851ZM411.839 452.431C412.745 452.431 413.539 452.571 414.219 452.851C414.899 453.118 415.432 453.498 415.819 453.991C416.205 454.485 416.399 455.058 416.399 455.711C416.399 456.365 416.205 456.938 415.819 457.431C415.432 457.925 414.899 458.311 414.219 458.591C413.539 458.858 412.745 458.991 411.839 458.991C410.945 458.991 410.152 458.858 409.459 458.591C408.779 458.311 408.245 457.925 407.859 457.431C407.472 456.938 407.279 456.365 407.279 455.711C407.279 455.058 407.472 454.485 407.859 453.991C408.245 453.498 408.779 453.118 409.459 452.851C410.152 452.571 410.945 452.431 411.839 452.431ZM411.839 454.371C411.252 454.371 410.772 454.491 410.399 454.731C410.025 454.958 409.839 455.285 409.839 455.711C409.839 456.151 410.025 456.491 410.399 456.731C410.772 456.958 411.252 457.071 411.839 457.071C412.439 457.071 412.919 456.958 413.279 456.731C413.652 456.491 413.839 456.151 413.839 455.711C413.839 455.285 413.652 454.958 413.279 454.731C412.919 454.491 412.439 454.371 411.839 454.371ZM410.519 448.091H413.159V451.011H410.519V448.091ZM442.884 448.231H445.424V466.751H442.884V448.231ZM436.784 454.571H439.864V456.731H436.784V454.571ZM439.144 448.531H441.624V465.911H439.144V448.531ZM432.804 451.251H434.804V453.151C434.804 454.191 434.724 455.218 434.564 456.231C434.418 457.245 434.184 458.205 433.864 459.111C433.544 460.005 433.124 460.811 432.604 461.531C432.084 462.251 431.458 462.845 430.724 463.311L429.144 461.351C430.051 460.778 430.771 460.058 431.304 459.191C431.838 458.311 432.218 457.351 432.444 456.311C432.684 455.258 432.804 454.205 432.804 453.151V451.251ZM433.404 451.251H435.384V453.151C435.384 454.178 435.498 455.191 435.724 456.191C435.951 457.191 436.324 458.105 436.844 458.931C437.364 459.745 438.071 460.411 438.964 460.931L437.424 462.851C436.438 462.265 435.651 461.471 435.064 460.471C434.478 459.471 434.051 458.345 433.784 457.091C433.531 455.825 433.404 454.511 433.404 453.151V451.251ZM429.824 450.091H438.084V452.231H429.824V450.091ZM452.583 449.511C453.503 449.511 454.323 449.785 455.043 450.331C455.776 450.865 456.343 451.631 456.743 452.631C457.156 453.618 457.363 454.785 457.363 456.131C457.363 457.491 457.156 458.671 456.743 459.671C456.343 460.658 455.776 461.425 455.043 461.971C454.323 462.505 453.503 462.771 452.583 462.771C451.663 462.771 450.843 462.505 450.123 461.971C449.403 461.425 448.836 460.658 448.423 459.671C448.009 458.671 447.803 457.491 447.803 456.131C447.803 454.785 448.009 453.618 448.423 452.631C448.836 451.631 449.403 450.865 450.123 450.331C450.843 449.785 451.663 449.511 452.583 449.511ZM452.583 451.931C452.143 451.931 451.749 452.091 451.403 452.411C451.069 452.731 450.809 453.205 450.623 453.831C450.436 454.445 450.343 455.211 450.343 456.131C450.343 457.038 450.436 457.811 450.623 458.451C450.809 459.078 451.069 459.551 451.403 459.871C451.749 460.191 452.143 460.351 452.583 460.351C453.049 460.351 453.449 460.191 453.783 459.871C454.116 459.551 454.376 459.078 454.563 458.451C454.749 457.811 454.843 457.038 454.843 456.131C454.843 455.211 454.749 454.445 454.563 453.831C454.376 453.205 454.116 452.731 453.783 452.411C453.449 452.091 453.049 451.931 452.583 451.931ZM460.403 448.211H463.063V466.791H460.403V448.211ZM456.583 454.911H461.523V457.031H456.583V454.911ZM478.281 448.231H480.941V466.751H478.281V448.231ZM472.821 450.151H475.441C475.441 451.565 475.301 452.918 475.021 454.211C474.755 455.491 474.301 456.698 473.661 457.831C473.035 458.965 472.168 460.018 471.061 460.991C469.968 461.951 468.601 462.831 466.961 463.631L465.561 461.531C467.348 460.665 468.768 459.711 469.821 458.671C470.888 457.618 471.655 456.431 472.121 455.111C472.588 453.778 472.821 452.285 472.821 450.631V450.151ZM466.561 450.151H474.061V452.271H466.561V450.151Z" fill="white"/>
<rect x="314.769" y="566.648" width="241.143" height="176.838" rx="24" fill="#3471FF"/>
<path d="M454.09 646.401H416.59V621.401H454.09M454.09 617.234H416.59C414.277 617.234 412.423 619.089 412.423 621.401V646.401C412.423 647.506 412.862 648.566 413.643 649.347C414.425 650.129 415.484 650.568 416.59 650.568H431.173V654.734H427.006V658.901H443.673V654.734H439.506V650.568H454.09C455.195 650.568 456.254 650.129 457.036 649.347C457.817 648.566 458.256 647.506 458.256 646.401V621.401C458.256 620.296 457.817 619.236 457.036 618.455C456.254 617.673 455.195 617.234 454.09 617.234Z" fill="white"/>
<path d="M380.696 676.147V693.827H378.496V676.147H380.696ZM367.096 689.587V677.747H375.616V679.547H369.296V687.707C372.556 687.707 374.576 687.607 376.936 687.187L377.136 688.987C374.616 689.467 372.336 689.567 368.576 689.587H367.096ZM392.022 678.587C392.002 681.307 394.682 684.047 398.382 684.667L397.382 686.507C394.422 685.887 392.022 684.087 390.882 681.727C389.702 684.067 387.282 685.867 384.342 686.507L383.382 684.667C387.022 684.027 389.682 681.287 389.702 678.587V677.267H392.022V678.587ZM382.902 691.547V689.747H399.022V691.547H382.902ZM414.387 676.667V678.307H411.947V680.987H414.267V682.627H401.307V680.987H403.667V678.307H401.227V676.667H414.387ZM399.787 685.467V683.747H415.867V685.467H399.787ZM401.667 693.667V689.347H411.707V688.227H401.667V686.627H413.867V690.827H403.827V692.027H414.347V693.667H401.667ZM405.827 680.987H409.787V678.307H405.827V680.987ZM423.432 677.987V684.467H419.272V687.787C421.092 687.767 422.812 687.687 424.832 687.307L424.992 689.107C422.632 689.527 420.632 689.587 418.432 689.587H417.192V682.747H421.352V679.747H417.152V677.987H423.432ZM424.232 684.067V682.307H426.192V676.507H428.232V692.907H426.192V684.067H424.232ZM429.792 693.787V676.147H431.832V693.787H429.792ZM448.237 676.147V693.827H446.037V676.147H448.237ZM434.117 683.667C434.097 679.867 436.037 677.447 438.717 677.427C441.377 677.447 443.317 679.867 443.317 683.667C443.317 687.507 441.377 689.927 438.717 689.907C436.037 689.927 434.097 687.507 434.117 683.667ZM436.197 683.667C436.197 686.387 437.217 687.967 438.717 687.947C440.197 687.967 441.217 686.387 441.237 683.667C441.217 680.987 440.197 679.387 438.717 679.387C437.217 679.387 436.197 680.987 436.197 683.667ZM470.928 689.867V691.667H454.808V689.867H461.768V686.027H456.568V677.507H469.088V686.027H463.888V689.867H470.928ZM458.688 684.307H466.928V679.267H458.688V684.307ZM486.413 676.147V693.787H484.253V676.147H486.413ZM472.693 689.387V677.867H474.853V687.507C477.333 687.487 479.953 687.267 482.653 686.707L482.933 688.547C479.833 689.167 476.953 689.387 474.213 689.387H472.693ZM503.378 676.147V693.827H501.218V684.267H497.898V682.547H501.218V676.147H503.378ZM489.378 689.747V677.667H497.618V679.427H491.538V682.627H496.938V684.347H491.538V687.987C494.238 687.947 496.238 687.867 498.498 687.507L498.738 689.227C496.158 689.647 493.898 689.747 490.738 689.747H489.378Z" fill="white"/>
<g filter="url(#filter1_d_365_130)">
<rect x="11.9995" y="8" width="241.143" height="200.953" rx="24" fill="white" shape-rendering="crispEdges"/>
<path d="M84.7383 77.4764C84.7383 71.1914 84.7383 68.0481 86.6916 66.0964C88.6449 64.1447 91.7866 64.1431 98.0716 64.1431C104.357 64.1431 107.5 64.1431 109.452 66.0964C111.403 68.0497 111.405 71.1914 111.405 77.4764C111.405 83.7614 111.405 86.9047 109.452 88.8564C107.498 90.8081 104.357 90.8097 98.0716 90.8097C91.7866 90.8097 88.6433 90.8097 86.6916 88.8564C84.7399 86.9031 84.7383 83.7614 84.7383 77.4764Z" stroke="#666666" stroke-width="3" stroke-linecap="round" stroke-linejoin="round"/>
<path d="M91.4048 60.8096V64.1429M104.738 60.8096V64.1429M98.0715 60.8096V64.1429M91.4048 90.8096V94.1429M98.0715 90.8096V94.1429M104.738 90.8096V94.1429M114.738 84.1429H111.405M84.7381 70.8096H81.4048M84.7381 84.1429H81.4048M84.7381 77.4762H81.4048M114.738 70.8096H111.405M114.738 77.4762H111.405M90.9581 84.5896C92.1781 85.8096 94.1431 85.8096 98.0715 85.8096C99.3881 85.8096 100.483 85.8096 101.405 85.7629L106.358 80.8096C106.405 79.8879 106.405 78.7929 106.405 77.4762C106.405 73.5479 106.405 71.5829 105.185 70.3629C103.965 69.1429 102 69.1429 98.0715 69.1429C94.1431 69.1429 92.1781 69.1429 90.9581 70.3629C89.7381 71.5829 89.7381 73.5479 89.7381 77.4762C89.7381 81.4046 89.7381 83.3696 90.9581 84.5896Z" stroke="#666666" stroke-width="3" stroke-linecap="round" stroke-linejoin="round"/>
<path d="M131.614 83.5961V79.8361H127.894V77.9561H131.614V74.2361H133.494V77.9561H137.254V79.8361H133.494V83.5961H131.614Z" fill="#666666"/>
<path d="M177.905 88.3096C178.805 88.3096 179.571 89.0762 179.571 89.9762C179.571 90.8762 178.805 91.6429 177.905 91.6429H157.905C157.005 91.6429 156.238 90.8762 156.238 89.9762C156.238 89.0762 157.005 88.3096 157.905 88.3096H177.905ZM177.905 85.8096H157.905C155.621 85.8096 153.738 87.6929 153.738 89.9762C153.738 92.2596 155.621 94.1429 157.905 94.1429H177.905C179.01 94.1429 180.07 93.7039 180.851 92.9225C181.633 92.1411 182.071 91.0813 182.071 89.9762C182.071 88.8712 181.633 87.8114 180.851 87.03C180.07 86.2486 179.01 85.8096 177.905 85.8096ZM182.071 75.8096H177.071V69.1429H168.738L163.738 75.8096V84.1429H183.738L182.071 75.8096ZM166.305 75.8096L169.571 71.6429H173.738V75.8096H166.305ZM163.338 63.1596L155.005 60.8096L150.405 77.1929C149.838 79.3262 151.088 81.5429 153.238 82.1429L155.171 82.6762L160.655 77.9596L154.188 76.1596L157.321 64.9096L161.971 66.2096C162.905 66.6929 164.921 68.0429 166.188 69.7596L167.905 67.4762H168.638C166.538 64.8262 163.488 63.2429 163.338 63.1596Z" fill="#666666"/>
<path d="M102.557 112.356V113.476C102.557 114.596 102.557 116.076 102.197 117.876H104.597V119.316H97.437V121.396H102.557V125.756H92.317V127.476H102.997V128.956H90.477V124.476H100.717V122.876H90.437V121.396H95.597V119.316H88.557V117.876H100.317C100.677 116.176 100.717 114.916 100.717 113.836H90.557V112.356H102.557ZM111.562 115.436C111.582 117.476 113.162 119.436 115.842 120.196L114.962 121.676C112.962 121.076 111.462 119.796 110.682 118.176C109.922 119.956 108.402 121.336 106.322 121.996L105.402 120.516C108.102 119.736 109.742 117.656 109.722 115.436V115.156H105.922V113.676H109.722V111.556H111.602V113.676H115.362V115.156H111.562V115.436ZM107.642 124.676V123.196H119.202V129.156H117.362V124.676H107.642ZM117.362 122.316V111.636H119.202V116.196H121.722V117.756H119.202V122.316H117.362ZM136.887 111.636V129.116H135.007V111.636H136.887ZM122.487 124.436C127.167 122.236 129.427 119.076 129.787 114.996H123.367V113.516H131.687C131.667 118.636 129.487 123.076 123.487 125.956L122.487 124.436ZM151.095 113.596V118.156H153.415V111.956H155.215V128.276H153.415V119.676H151.095V124.516H144.295V113.596H151.095ZM146.055 123.036H149.335V115.076H146.055V123.036ZM156.975 129.116V111.636H158.735V129.116H156.975ZM175.1 111.636V124.356H173.26V111.636H175.1ZM160.94 117.156C160.94 114.636 162.96 112.836 165.62 112.836C168.24 112.836 170.26 114.636 170.26 117.156C170.26 119.736 168.24 121.516 165.62 121.516C162.96 121.516 160.94 119.736 160.94 117.156ZM162.74 117.156C162.74 118.816 163.98 119.896 165.62 119.916C167.2 119.896 168.44 118.816 168.42 117.156C168.44 115.556 167.2 114.456 165.62 114.436C163.98 114.456 162.74 115.556 162.74 117.156ZM163.66 128.756V123.076H165.5V127.276H175.62V128.756H163.66ZM122.684 137.636V155.116H120.924V137.636H122.684ZM107.444 150.316C109.904 148.816 111.184 145.636 111.164 142.516V141.116H107.964V139.596H115.964V141.116H112.964V142.516C112.964 145.516 114.164 148.496 116.644 149.916L115.524 151.276C113.844 150.276 112.704 148.516 112.084 146.396C111.464 148.676 110.284 150.616 108.564 151.676L107.444 150.316ZM114.684 145.356V143.836H117.404V137.996H119.164V154.236H117.404V145.356H114.684ZM129.329 138.956C131.709 138.956 133.429 140.976 133.689 144.196H137.329V137.636H139.169V155.156H137.329V145.716H133.709C133.509 149.116 131.769 151.236 129.329 151.236C126.709 151.236 124.869 148.856 124.889 145.076C124.869 141.336 126.709 138.956 129.329 138.956ZM126.649 145.076C126.649 147.856 127.729 149.576 129.329 149.556C130.909 149.576 131.989 147.856 132.009 145.076C131.989 142.336 130.909 140.616 129.329 140.596C127.729 140.616 126.649 142.336 126.649 145.076ZM156.014 137.636V155.116H154.134V137.636H156.014ZM141.614 150.436C146.294 148.236 148.554 145.076 148.914 140.996H142.494V139.516H150.814C150.794 144.636 148.614 149.076 142.614 151.956L141.614 150.436Z" fill="#999999"/>
</g>
<g filter="url(#filter2_d_365_130)">
<rect x="614.856" y="8" width="241.143" height="200.953" rx="24" fill="white" shape-rendering="crispEdges"/>
<path d="M735.428 79.1429V65.8096M722.095 79.1429H748.761M727.095 84.1429H743.761M732.095 89.1429H738.761" stroke="#666666" stroke-width="4.16667" stroke-linecap="round" stroke-linejoin="round"/>
<path d="M685.733 121.516V123.036H681.653V129.116H679.813V123.036H675.613V129.116H673.693V123.036H669.733V121.516H685.733ZM671.453 116.156C671.453 113.796 673.973 112.296 677.693 112.276C681.393 112.296 683.933 113.796 683.933 116.156C683.933 118.496 681.393 119.976 677.693 119.956C673.973 119.976 671.453 118.496 671.453 116.156ZM673.373 116.156C673.353 117.596 675.093 118.496 677.693 118.476C680.293 118.496 682.013 117.596 682.013 116.156C682.013 114.696 680.293 113.796 677.693 113.796C675.093 113.796 673.353 114.696 673.373 116.156ZM691.538 112.476C694.218 112.496 696.158 114.156 696.178 116.556C696.158 118.996 694.218 120.656 691.538 120.636C688.858 120.656 686.898 118.996 686.898 116.556C686.898 114.156 688.858 112.496 691.538 112.476ZM688.738 116.556C688.718 118.076 689.898 119.096 691.538 119.116C693.178 119.096 694.358 118.076 694.378 116.556C694.358 115.056 693.178 114.036 691.538 114.036C689.898 114.036 688.718 115.056 688.738 116.556ZM689.138 128.916V121.916H690.978V123.916H698.538V121.916H700.378V128.916H689.138ZM690.978 127.396H698.538V125.396H690.978V127.396ZM698.538 121.116V111.636H700.378V115.516H702.898V117.076H700.378V121.116H698.538ZM714.026 112.676L709.466 129.596H707.586L712.146 112.676H714.026ZM725.183 114.836C725.163 117.216 726.743 119.496 729.383 120.436L728.383 121.876C726.463 121.136 725.023 119.696 724.263 117.876C723.503 119.896 722.003 121.496 719.943 122.276L718.983 120.796C721.683 119.856 723.303 117.416 723.343 114.796V112.716H725.183V114.836ZM722.143 128.756V123.236H724.023V127.276H733.983V128.756H722.143ZM728.023 117.156V115.636H731.743V111.636H733.583V124.716H731.743V117.156H728.023ZM750.348 111.636V129.116H748.508V111.636H750.348ZM735.948 124.396C737.388 124.376 739.048 124.356 740.748 124.316V122.536C738.728 122.276 737.408 121.076 737.428 119.356C737.408 117.396 739.128 116.096 741.668 116.116C744.208 116.096 745.968 117.396 745.948 119.356C745.968 121.056 744.648 122.256 742.628 122.536V124.236C744.248 124.156 745.868 124.036 747.388 123.836L747.548 125.236C743.668 125.876 739.428 125.916 736.228 125.916L735.948 124.396ZM736.348 115.196V113.716H740.748V111.676H742.628V113.716H747.028V115.196H736.348ZM739.148 119.356C739.148 120.476 740.188 121.176 741.668 121.156C743.168 121.176 744.188 120.476 744.188 119.356C744.188 118.256 743.168 117.536 741.668 117.516C740.188 117.536 739.148 118.256 739.148 119.356ZM763.276 112.676L758.716 129.596H756.836L761.396 112.676H763.276ZM784.193 121.476V122.996H777.073V129.116H775.273V122.996H768.233V121.476H784.193ZM769.113 118.716C772.413 118.256 775.113 116.296 775.153 114.156H769.713V112.676H782.713V114.156H777.273C777.293 116.296 779.993 118.256 783.313 118.716L782.633 120.156C779.773 119.716 777.293 118.316 776.213 116.336C775.133 118.316 772.673 119.716 769.833 120.156L769.113 118.716ZM790.478 114.996C790.478 116.916 791.698 118.836 793.958 119.676L792.998 121.116C791.378 120.496 790.238 119.316 789.598 117.876C788.958 119.496 787.758 120.916 786.078 121.636L785.038 120.196C787.418 119.156 788.678 116.936 788.678 114.996V112.716H790.478V114.996ZM788.238 125.916C788.238 123.936 790.518 122.756 794.198 122.756C797.838 122.756 800.138 123.936 800.118 125.916C800.138 127.916 797.838 129.116 794.198 129.116C790.518 129.116 788.238 127.916 788.238 125.916ZM790.118 125.916C790.078 127.056 791.638 127.696 794.198 127.676C796.718 127.696 798.278 127.056 798.278 125.916C798.278 124.816 796.718 124.176 794.198 124.156C791.638 124.176 790.078 124.816 790.118 125.916ZM794.518 121.876V111.956H796.238V116.196H798.278V111.636H800.038V122.436H798.278V117.716H796.238V121.876H794.518ZM725.06 137.636V150.356H723.22V137.636H725.06ZM710.9 143.156C710.9 140.636 712.92 138.836 715.58 138.836C718.2 138.836 720.22 140.636 720.22 143.156C720.22 145.736 718.2 147.516 715.58 147.516C712.92 147.516 710.9 145.736 710.9 143.156ZM712.7 143.156C712.7 144.816 713.94 145.896 715.58 145.916C717.16 145.896 718.4 144.816 718.38 143.156C718.4 141.556 717.16 140.456 715.58 140.436C713.94 140.456 712.7 141.556 712.7 143.156ZM713.62 154.756V149.076H715.46V153.276H725.58V154.756H713.62ZM742.025 137.636V155.156H740.185V145.556H736.305V150.836H728.105V138.996H729.985V143.436H734.505V138.996H736.305V144.036H740.185V137.636H742.025ZM729.985 149.316H734.505V144.916H729.985V149.316ZM758.91 137.636V155.156H757.07V145.596H753.59V144.116H757.07V137.636H758.91ZM745.11 151.036V139.196H753.31V140.716H746.99V144.116H752.55V145.596H746.99V149.516C749.93 149.496 751.95 149.396 754.27 148.996L754.47 150.516C751.93 150.916 749.73 151.016 746.47 151.036H745.11Z" fill="#999999"/>
</g>
<path d="M410.84 68.1958C410.84 68.5273 410.708 68.8453 410.474 69.0797C410.239 69.3141 409.921 69.4458 409.59 69.4458H408.34V70.6958C408.34 71.0273 408.208 71.3453 407.974 71.5797C407.739 71.8141 407.421 71.9458 407.09 71.9458C406.758 71.9458 406.44 71.8141 406.206 71.5797C405.972 71.3453 405.84 71.0273 405.84 70.6958V69.4458H404.59C404.258 69.4458 403.94 69.3141 403.706 69.0797C403.472 68.8453 403.34 68.5273 403.34 68.1958C403.34 67.8643 403.472 67.5463 403.706 67.3119C403.94 67.0775 404.258 66.9458 404.59 66.9458H405.84V65.6958C405.84 65.3643 405.972 65.0463 406.206 64.8119C406.44 64.5775 406.758 64.4458 407.09 64.4458C407.421 64.4458 407.739 64.5775 407.974 64.8119C408.208 65.0463 408.34 65.3643 408.34 65.6958V66.9458H409.59C409.921 66.9458 410.239 67.0775 410.474 67.3119C410.708 67.5463 410.84 67.8643 410.84 68.1958ZM397.09 66.9458H392.09C391.758 66.9458 391.44 67.0775 391.206 67.3119C390.972 67.5463 390.84 67.8643 390.84 68.1958C390.84 68.5273 390.972 68.8453 391.206 69.0797C391.44 69.3141 391.758 69.4458 392.09 69.4458H397.09C397.421 69.4458 397.739 69.3141 397.974 69.0797C398.208 68.8453 398.34 68.5273 398.34 68.1958C398.34 67.8643 398.208 67.5463 397.974 67.3119C397.739 67.0775 397.421 66.9458 397.09 66.9458ZM418.34 60.6958V75.6958C418.34 76.3588 418.076 76.9947 417.608 77.4636C417.139 77.9324 416.503 78.1958 415.84 78.1958H385.84C385.177 78.1958 384.541 77.9324 384.072 77.4636C383.603 76.9947 383.34 76.3588 383.34 75.6958V60.6958C383.34 60.0328 383.603 59.3969 384.072 58.928C384.541 58.4592 385.177 58.1958 385.84 58.1958H388.34V55.6958C388.34 55.0328 388.603 54.3969 389.072 53.928C389.541 53.4592 390.177 53.1958 390.84 53.1958H395.84C396.503 53.1958 397.139 53.4592 397.608 53.928C398.076 54.3969 398.34 55.0328 398.34 55.6958V58.1958H403.34V55.6958C403.34 55.0328 403.603 54.3969 404.072 53.928C404.541 53.4592 405.177 53.1958 405.84 53.1958H410.84C411.503 53.1958 412.139 53.4592 412.608 53.928C413.076 54.3969 413.34 55.0328 413.34 55.6958V58.1958H415.84C416.503 58.1958 417.139 58.4592 417.608 58.928C418.076 59.3969 418.34 60.0328 418.34 60.6958ZM405.84 58.1958H410.84V55.6958H405.84V58.1958ZM390.84 58.1958H395.84V55.6958H390.84V58.1958ZM415.84 75.6958V60.6958H385.84V75.6958H415.84Z" fill="#666666"/>
<path d="M434.382 73.0658V69.3058H430.662V67.4258H434.382V63.7058H436.262V67.4258H440.022V69.3058H436.262V73.0658H434.382Z" fill="#666666"/>
<g clip-path="url(#clip0_365_130)">
<path d="M452.43 65.227L454.618 59.7583C454.804 59.2956 455.124 58.8993 455.537 58.6207C455.951 58.3421 456.438 58.1941 456.937 58.1958H462.34V56.9458C462.34 56.6143 462.472 56.2963 462.706 56.0619C462.94 55.8275 463.258 55.6958 463.59 55.6958H487.34C488.003 55.6958 488.639 55.9592 489.108 56.428C489.576 56.8969 489.84 57.5328 489.84 58.1958V75.6958C489.84 76.3588 489.576 76.9947 489.108 77.4636C488.639 77.9324 488.003 78.1958 487.34 78.1958H484.684C484.408 79.2713 483.783 80.2246 482.906 80.9053C482.029 81.5861 480.95 81.9556 479.84 81.9556C478.73 81.9556 477.651 81.5861 476.774 80.9053C475.897 80.2246 475.271 79.2713 474.996 78.1958H467.184C466.908 79.2713 466.283 80.2246 465.406 80.9053C464.529 81.5861 463.45 81.9556 462.34 81.9556C461.23 81.9556 460.151 81.5861 459.274 80.9053C458.397 80.2246 457.771 79.2713 457.496 78.1958H454.84C454.177 78.1958 453.541 77.9324 453.072 77.4636C452.603 76.9947 452.34 76.3588 452.34 75.6958V65.6958C452.339 65.5351 452.37 65.3759 452.43 65.227ZM462.34 60.6958H456.937L455.437 64.4458H462.34V60.6958ZM487.34 58.1958H464.84V68.1958H487.34V58.1958ZM479.84 79.4458C480.334 79.4458 480.818 79.2992 481.229 79.0245C481.64 78.7498 481.96 78.3593 482.15 77.9025C482.339 77.4457 482.388 76.943 482.292 76.4581C482.195 75.9731 481.957 75.5277 481.608 75.178C481.258 74.8284 480.813 74.5903 480.328 74.4938C479.843 74.3974 479.34 74.4469 478.883 74.6361C478.426 74.8253 478.036 75.1458 477.761 75.5569C477.486 75.968 477.34 76.4513 477.34 76.9458C477.34 77.6088 477.603 78.2447 478.072 78.7136C478.541 79.1824 479.177 79.4458 479.84 79.4458ZM467.184 75.6958H474.996C475.271 74.6203 475.897 73.667 476.774 72.9862C477.651 72.3055 478.73 71.936 479.84 71.936C480.95 71.936 482.029 72.3055 482.906 72.9862C483.783 73.667 484.408 74.6203 484.684 75.6958H487.34V70.6958H464.84V72.6192C465.415 72.9514 465.918 73.3944 466.32 73.9225C466.723 74.4506 467.016 75.0534 467.184 75.6958ZM462.34 79.4458C462.834 79.4458 463.318 79.2992 463.729 79.0245C464.14 78.7498 464.46 78.3593 464.65 77.9025C464.839 77.4457 464.888 76.943 464.792 76.4581C464.695 75.9731 464.457 75.5277 464.108 75.178C463.758 74.8284 463.313 74.5903 462.828 74.4938C462.343 74.3974 461.84 74.4469 461.383 74.6361C460.926 74.8253 460.536 75.1458 460.261 75.5569C459.986 75.968 459.84 76.4513 459.84 76.9458C459.84 77.6088 460.103 78.2447 460.572 78.7136C461.041 79.1824 461.677 79.4458 462.34 79.4458ZM454.84 75.6958H457.496C457.775 74.6229 458.401 73.6727 459.278 72.9941C460.154 72.3155 461.231 71.9468 462.34 71.9458V66.9458H454.84V75.6958Z" fill="#666666"/>
</g>
<path d="M397.402 111.297V128.817H395.562V111.297H397.402ZM383.842 114.377V112.857H392.042V119.257H385.802V123.097C388.642 123.077 391.122 122.957 394.042 122.457L394.202 124.017C391.102 124.517 388.462 124.637 385.362 124.617H383.882V117.777H390.162V114.377H383.842ZM415.727 120.097V121.577H411.567V123.257H413.767V128.577H401.687V123.257H403.967V121.577H399.727V120.097H415.727ZM401.847 118.817V111.697H413.767V113.137H403.687V114.537H413.327V115.897H403.687V117.377H413.887V118.817H401.847ZM403.527 127.097H411.967V124.737H403.527V127.097ZM405.767 123.257H409.687V121.577H405.767V123.257ZM423.495 112.977V117.177H426.855V112.977H428.535V117.857H430.855V111.657H432.655V127.937H430.855V119.377H428.535V124.497H421.735V112.977H423.495ZM423.495 122.937H426.855V118.697H423.495V122.937ZM434.415 128.777V111.297H436.175V128.777H434.415ZM452.621 111.297V128.817H450.781V119.257H447.301V117.777H450.781V111.297H452.621ZM438.821 124.697V112.857H447.021V114.377H440.701V117.777H446.261V119.257H440.701V123.177C443.641 123.157 445.661 123.057 447.981 122.657L448.181 124.177C445.641 124.577 443.441 124.677 440.181 124.697H438.821ZM469.426 111.297V128.817H467.586V111.297H469.426ZM455.866 114.377V112.857H464.066V119.257H457.826V123.097C460.666 123.077 463.146 122.957 466.066 122.457L466.226 124.017C463.126 124.517 460.486 124.637 457.386 124.617H455.906V117.777H462.186V114.377H455.866ZM486.711 111.297V121.937H484.951V117.377H483.031V121.857H481.271V111.577H483.031V115.817H484.951V111.297H486.711ZM471.671 119.537H473.391V114.337H471.991V112.777H480.191V114.337H478.791V119.317C479.391 119.277 479.971 119.217 480.511 119.137L480.591 120.537C477.811 121.017 474.171 121.077 471.911 121.097L471.671 119.537ZM474.631 124.297V122.777H486.711V128.777H484.871V124.297H474.631ZM475.111 119.497C475.771 119.497 476.451 119.457 477.111 119.437V114.337H475.111V119.497ZM391.201 137.297V154.817H389.321V137.297H391.201ZM377.281 144.737C377.281 140.997 379.181 138.617 381.801 138.617C384.421 138.617 386.341 140.997 386.321 144.737C386.341 148.517 384.421 150.897 381.801 150.897C379.181 150.897 377.281 148.517 377.281 144.737ZM379.081 144.737C379.081 147.517 380.201 149.237 381.801 149.217C383.421 149.237 384.541 147.517 384.521 144.737C384.541 141.997 383.421 140.277 381.801 140.257C380.201 140.277 379.081 141.997 379.081 144.737ZM409.566 145.817V147.297H393.566V145.817H400.646V143.937H395.566V138.097H407.566V139.577H397.406V142.457H407.686V143.937H402.446V145.817H409.566ZM395.446 151.617C395.466 149.577 397.746 148.437 401.526 148.457C405.306 148.437 407.566 149.577 407.566 151.617C407.566 153.637 405.306 154.777 401.526 154.777C397.746 154.777 395.466 153.637 395.446 151.617ZM397.366 151.617C397.326 152.737 398.866 153.357 401.526 153.337C404.186 153.357 405.706 152.737 405.726 151.617C405.706 150.517 404.186 149.877 401.526 149.857C398.866 149.877 397.326 150.517 397.366 151.617ZM420.331 139.137V140.617H410.491V139.137H414.571V137.137H416.411V139.137H420.331ZM411.451 144.697C411.451 142.717 413.091 141.417 415.491 141.417C417.831 141.417 419.511 142.717 419.531 144.697C419.511 146.637 417.831 147.917 415.491 147.937C413.091 147.917 411.451 146.637 411.451 144.697ZM413.211 144.697C413.171 145.817 414.091 146.517 415.491 146.537C416.831 146.517 417.771 145.817 417.811 144.697C417.771 143.537 416.831 142.817 415.491 142.817C414.091 142.817 413.171 143.537 413.211 144.697ZM413.291 151.777C413.271 149.837 415.531 148.737 419.211 148.737C422.891 148.737 425.131 149.837 425.131 151.777C425.131 153.657 422.891 154.777 419.211 154.777C415.531 154.777 413.271 153.657 413.291 151.777ZM415.211 151.777C415.211 152.777 416.711 153.357 419.211 153.337C421.691 153.357 423.171 152.777 423.171 151.777C423.171 150.717 421.691 150.177 419.211 150.177C416.711 150.177 415.211 150.717 415.211 151.777ZM420.371 146.337V144.817H423.211V142.897H420.371V141.377H423.211V137.297H425.051V148.577H423.211V146.337H420.371ZM443.297 145.857V147.337H436.217V148.957C439.477 149.097 441.337 150.117 441.337 151.857C441.337 153.737 439.117 154.777 435.297 154.777C431.477 154.777 429.237 153.737 429.217 151.857C429.237 150.117 431.117 149.097 434.377 148.957V147.337H427.337V145.857H443.297ZM428.177 143.617C431.597 143.357 433.977 142.117 434.277 140.457H428.937V138.977H434.377V137.297H436.217V138.977H441.697V140.457H436.357C436.617 142.117 438.997 143.357 442.417 143.617L441.857 145.057C438.837 144.797 436.397 143.777 435.317 142.137C434.237 143.777 431.777 144.797 428.777 145.057L428.177 143.617ZM431.137 151.857C431.097 152.837 432.597 153.377 435.297 153.377C437.977 153.377 439.477 152.837 439.497 151.857C439.477 150.857 437.977 150.317 435.297 150.297C432.597 150.317 431.097 150.857 431.137 151.857ZM458.822 137.297V150.137H456.982V143.537H453.622V142.057H456.982V137.297H458.822ZM444.222 146.457C446.942 145.557 448.602 143.257 448.622 140.857V140.177H444.822V138.657H454.262V140.177H450.502V140.857C450.482 143.037 452.062 145.217 454.702 146.097L453.742 147.577C451.782 146.897 450.342 145.497 449.582 143.757C448.822 145.697 447.282 147.237 445.182 147.977L444.222 146.457ZM447.462 154.417V148.977H449.302V152.937H459.262V154.417H447.462ZM475.707 137.297V146.297H473.867V141.817H470.147V140.297H473.867V137.297H475.707ZM461.067 144.897C463.787 144.017 465.407 141.837 465.427 139.377V137.857H467.267V139.377C467.267 141.617 468.867 143.697 471.507 144.537L470.507 145.977C468.607 145.317 467.147 143.997 466.367 142.317C465.607 144.197 464.107 145.657 462.027 146.377L461.067 144.897ZM464.267 148.577V147.137H475.707V151.457H466.107V153.097H476.307V154.577H464.307V150.097H473.867V148.577H464.267ZM492.512 137.297V154.817H490.632V137.297H492.512ZM478.952 150.657V138.737H480.832V143.257H485.552V138.737H487.352V150.657H478.952ZM480.832 149.097H485.552V144.697H480.832V149.097Z" fill="#999999"/>
<path d="M476.75 234.888H478.91V244.928C478.91 247.648 477.21 249.248 474.59 249.248C472.19 249.248 470.39 247.908 470.39 245.488H472.55C472.55 246.688 473.41 247.408 474.67 247.408C475.99 247.408 476.75 246.548 476.75 244.928V234.888ZM486.557 234.888V249.048H484.397V237.048H484.317L480.957 239.248V237.208L484.477 234.888H486.557ZM494.642 234.728C497.242 234.728 499.962 236.288 499.962 241.488C499.962 246.428 497.842 249.248 494.442 249.248C491.842 249.248 490.022 247.628 489.682 245.328H491.802C492.102 246.528 493.002 247.368 494.442 247.368C496.622 247.368 497.902 245.468 497.922 242.208H497.722C496.982 243.428 495.642 244.148 494.122 244.128C491.582 244.148 489.562 242.208 489.562 239.488C489.562 236.808 491.562 234.688 494.642 234.728ZM491.642 239.448C491.662 241.108 492.882 242.388 494.602 242.408C496.302 242.388 497.622 241.008 497.642 239.448C497.622 237.908 496.362 236.508 494.642 236.528C492.922 236.508 491.642 237.848 491.642 239.448ZM506.882 249.248C503.942 249.248 501.862 247.668 501.762 245.368H503.962C504.042 246.588 505.262 247.388 506.842 247.408C508.562 247.388 509.802 246.448 509.802 245.088C509.802 243.688 508.642 242.688 506.602 242.688H505.402V240.928H506.602C508.222 240.928 509.362 240.028 509.362 238.688C509.362 237.388 508.382 236.508 506.882 236.528C505.462 236.508 504.202 237.308 504.162 238.568H502.082C502.142 236.268 504.262 234.708 506.922 234.728C509.682 234.708 511.442 236.468 511.442 238.568C511.442 240.168 510.442 241.328 508.922 241.688V241.808C510.842 242.068 511.982 243.368 511.962 245.168C511.982 247.528 509.802 249.248 506.882 249.248ZM518.803 234.728C521.403 234.728 524.123 236.288 524.123 241.488C524.123 246.428 522.003 249.248 518.603 249.248C516.003 249.248 514.183 247.628 513.843 245.328H515.963C516.263 246.528 517.163 247.368 518.603 247.368C520.783 247.368 522.063 245.468 522.083 242.208H521.883C521.143 243.428 519.803 244.148 518.283 244.128C515.743 244.148 513.723 242.208 513.723 239.488C513.723 236.808 515.723 234.688 518.803 234.728ZM515.803 239.448C515.823 241.108 517.043 242.388 518.763 242.408C520.463 242.388 521.783 241.008 521.803 239.448C521.783 237.908 520.523 236.508 518.803 236.528C517.083 236.508 515.803 237.848 515.803 239.448ZM541.363 242.408V243.888H525.363V242.408H532.443V240.888H527.483V233.688H539.403V235.168H529.323V236.568H538.963V237.968H529.323V239.448H539.523V240.888H534.283V242.408H541.363ZM527.283 247.848C527.303 246.028 529.483 245.008 533.363 245.008C537.223 245.008 539.403 246.028 539.403 247.848C539.403 249.708 537.223 250.688 533.363 250.688C529.483 250.688 527.303 249.708 527.283 247.848ZM529.163 247.848C529.143 248.808 530.623 249.288 533.363 249.288C536.103 249.288 537.543 248.808 537.563 247.848C537.543 246.908 536.103 246.408 533.363 246.408C530.623 246.408 529.143 246.908 529.163 247.848ZM556.808 233.208V246.048H554.968V233.208H556.808ZM542.408 242.088C545.128 241.088 546.748 238.568 546.768 235.928V234.208H548.648V235.928C548.648 238.468 550.268 240.828 552.968 241.768L552.008 243.248C549.988 242.508 548.488 241.008 547.728 239.108C546.948 241.148 545.448 242.768 543.368 243.568L542.408 242.088ZM545.368 250.328V244.848H547.208V248.848H557.328V250.328H545.368Z" fill="#3471FF"/>
<rect x="435.34" y="208.952" width="127.27" height="1.33968" transform="rotate(90 435.34 208.952)" fill="#A6BFF8"/>
<ellipse cx="434.669" cy="335.552" rx="11.3873" ry="11.3873" transform="rotate(90 434.669 335.552)" fill="#88AAF9" fill-opacity="0.6"/>
<ellipse cx="434.67" cy="335.552" rx="6.02858" ry="6.02858" transform="rotate(90 434.67 335.552)" fill="#3471FF"/>
<rect x="435.34" y="519.76" width="45.5499" height="1.33966" transform="rotate(90 435.34 519.76)" fill="#A6BFF8"/>
<ellipse cx="434.669" cy="566.648" rx="11.3875" ry="11.3871" transform="rotate(90 434.669 566.648)" fill="#88AAF9" fill-opacity="0.6"/>
<ellipse cx="434.67" cy="566.649" rx="6.02867" ry="6.02848" transform="rotate(90 434.67 566.649)" fill="#3471FF"/>
<rect x="132.571" y="210.293" width="64.3048" height="1.33966" transform="rotate(90 132.571 210.293)" fill="#A6BFF8"/>
<ellipse cx="131.901" cy="209.623" rx="11.3873" ry="11.3871" transform="rotate(90 131.901 209.623)" fill="#88AAF9" fill-opacity="0.6"/>
<ellipse cx="131.901" cy="209.623" rx="6.02858" ry="6.02848" transform="rotate(90 131.901 209.623)" fill="#3471FF"/>
<rect x="735.43" y="210.293" width="64.3048" height="1.33966" transform="rotate(90 735.43 210.293)" fill="#A6BFF8"/>
<ellipse cx="734.759" cy="209.623" rx="11.3873" ry="11.3871" transform="rotate(90 734.759 209.623)" fill="#88AAF9" fill-opacity="0.6"/>
<ellipse cx="734.76" cy="209.623" rx="6.02858" ry="6.02848" transform="rotate(90 734.76 209.623)" fill="#3471FF"/>
<rect x="734.09" y="274.598" width="601.518" height="1.33963" transform="rotate(-180 734.09 274.598)" fill="#A6BFF8"/>
<defs>
<filter id="filter0_d_365_130" x="302.769" y="0" width="273.144" height="232.952" filterUnits="userSpaceOnUse" color-interpolation-filters="sRGB">
<feFlood flood-opacity="0" result="BackgroundImageFix"/>
<feColorMatrix in="SourceAlpha" type="matrix" values="0 0 0 0 0 0 0 0 0 0 0 0 0 0 0 0 0 0 127 0" result="hardAlpha"/>
<feOffset dx="4" dy="8"/>
<feGaussianBlur stdDeviation="8"/>
<feComposite in2="hardAlpha" operator="out"/>
<feColorMatrix type="matrix" values="0 0 0 0 0.0897736 0 0 0 0 0.288263 0 0 0 0 0.88373 0 0 0 0.1 0"/>
<feBlend mode="normal" in2="BackgroundImageFix" result="effect1_dropShadow_365_130"/>
<feBlend mode="normal" in="SourceGraphic" in2="effect1_dropShadow_365_130" result="shape"/>
</filter>
<filter id="filter1_d_365_130" x="-0.000488281" y="0" width="273.143" height="232.952" filterUnits="userSpaceOnUse" color-interpolation-filters="sRGB">
<feFlood flood-opacity="0" result="BackgroundImageFix"/>
<feColorMatrix in="SourceAlpha" type="matrix" values="0 0 0 0 0 0 0 0 0 0 0 0 0 0 0 0 0 0 127 0" result="hardAlpha"/>
<feOffset dx="4" dy="8"/>
<feGaussianBlur stdDeviation="8"/>
<feComposite in2="hardAlpha" operator="out"/>
<feColorMatrix type="matrix" values="0 0 0 0 0.0897736 0 0 0 0 0.288263 0 0 0 0 0.88373 0 0 0 0.1 0"/>
<feBlend mode="normal" in2="BackgroundImageFix" result="effect1_dropShadow_365_130"/>
<feBlend mode="normal" in="SourceGraphic" in2="effect1_dropShadow_365_130" result="shape"/>
</filter>
<filter id="filter2_d_365_130" x="602.856" y="0" width="273.144" height="232.952" filterUnits="userSpaceOnUse" color-interpolation-filters="sRGB">
<feFlood flood-opacity="0" result="BackgroundImageFix"/>
<feColorMatrix in="SourceAlpha" type="matrix" values="0 0 0 0 0 0 0 0 0 0 0 0 0 0 0 0 0 0 127 0" result="hardAlpha"/>
<feOffset dx="4" dy="8"/>
<feGaussianBlur stdDeviation="8"/>
<feComposite in2="hardAlpha" operator="out"/>
<feColorMatrix type="matrix" values="0 0 0 0 0.0897736 0 0 0 0 0.288263 0 0 0 0 0.88373 0 0 0 0.1 0"/>
<feBlend mode="normal" in2="BackgroundImageFix" result="effect1_dropShadow_365_130"/>
<feBlend mode="normal" in="SourceGraphic" in2="effect1_dropShadow_365_130" result="shape"/>
</filter>
<clipPath id="clip0_365_130">
<rect width="40" height="40" fill="white" transform="translate(449.84 46.9458)"/>
</clipPath>
</defs>
</svg>
