<svg width="24" height="24" viewBox="0 0 24 24" fill="none" xmlns="http://www.w3.org/2000/svg">
<path fill-rule="evenodd" clip-rule="evenodd" d="M7.29303 9.29321C7.48056 9.10574 7.73487 9.00043 8.00003 9.00043C8.26519 9.00043 8.5195 9.10574 8.70703 9.29321L12 12.5862L15.293 9.29321C15.4816 9.11106 15.7342 9.01026 15.9964 9.01254C16.2586 9.01482 16.5094 9.11999 16.6948 9.30539C16.8803 9.4908 16.9854 9.74162 16.9877 10.0038C16.99 10.266 16.8892 10.5186 16.707 10.7072L12.707 14.7072C12.5195 14.8947 12.2652 15 12 15C11.7349 15 11.4806 14.8947 11.293 14.7072L7.29303 10.7072C7.10556 10.5197 7.00024 10.2654 7.00024 10.0002C7.00024 9.73505 7.10556 9.48074 7.29303 9.29321Z" fill="black" fill-opacity="0.4"/>
</svg>
