<svg width="48" height="48" viewBox="0 0 48 48" fill="none" xmlns="http://www.w3.org/2000/svg">
<g clip-path="url(#clip0_285_303)">
<path d="M46.2857 36.0006V42.8577C46.2857 43.767 45.9245 44.6391 45.2815 45.2821C44.6385 45.925 43.7665 46.2863 42.8572 46.2863H36M36 1.71484H42.8572C43.7665 1.71484 44.6385 2.07607 45.2815 2.71905C45.9245 3.36203 46.2857 4.2341 46.2857 5.14342V12.0006M1.71429 12.0006V5.14342C1.71429 4.2341 2.07552 3.36203 2.7185 2.71905C3.36148 2.07607 4.23355 1.71484 5.14287 1.71484H12M12 46.2863H5.14287C4.23355 46.2863 3.36148 45.925 2.7185 45.2821C2.07552 44.6391 1.71429 43.767 1.71429 42.8577V36.0006M24 15.4291V27.4291H18.8572M15.4286 34.2863C17.7416 36.4833 20.8099 37.7083 24 37.7083C27.1901 37.7083 30.2585 36.4833 32.5714 34.2863M13.7143 16.2863C13.487 16.2863 13.2689 16.196 13.1082 16.0352C12.9475 15.8745 12.8572 15.6565 12.8572 15.4291C12.8572 15.2018 12.9475 14.9838 13.1082 14.823C13.2689 14.6623 13.487 14.572 13.7143 14.572C13.9416 14.572 14.1596 14.6623 14.3204 14.823C14.4811 14.9838 14.5714 15.2018 14.5714 15.4291C14.5714 15.6565 14.4811 15.8745 14.3204 16.0352C14.1596 16.196 13.9416 16.2863 13.7143 16.2863ZM34.2857 16.2863C34.0584 16.2863 33.8404 16.196 33.6796 16.0352C33.5189 15.8745 33.4286 15.6565 33.4286 15.4291C33.4286 15.2018 33.5189 14.9838 33.6796 14.823C33.8404 14.6623 34.0584 14.572 34.2857 14.572C34.5131 14.572 34.7311 14.6623 34.8918 14.823C35.0526 14.9838 35.1429 15.2018 35.1429 15.4291C35.1429 15.6565 35.0526 15.8745 34.8918 16.0352C34.7311 16.196 34.5131 16.2863 34.2857 16.2863Z" stroke="#222222" stroke-width="3" stroke-linecap="round" stroke-linejoin="round"/>
</g>
<defs>
<clipPath id="clip0_285_303">
<rect width="48" height="48" fill="white"/>
</clipPath>
</defs>
</svg>
