<svg width="104" height="104" viewBox="0 0 104 104" fill="none" xmlns="http://www.w3.org/2000/svg">
<path d="M20.0417 95.3336C18.5467 95.3336 17.3333 94.1203 17.3333 92.6253V17.8753C17.3333 15.4331 18.3035 13.0909 20.0304 11.3641C21.7573 9.63715 24.0995 8.66699 26.5417 8.66699H60.125C62.5672 8.66699 64.9094 9.63715 66.6363 11.3641C68.3632 13.0909 69.3333 15.4331 69.3333 17.8753V41.167H77.4583C79.9005 41.167 82.2427 42.1372 83.9696 43.864C85.6965 45.5909 86.6667 47.9331 86.6667 50.3753V92.6253C86.6667 94.1203 85.4533 95.3336 83.9583 95.3336H20.0417Z" fill="url(#paint0_linear_192_163)"/>
<path d="M73.6667 80.709V95.334H52L49.8333 86.6673L52 75.834H68.7917C70.0846 75.834 71.3246 76.3476 72.2388 77.2618C73.1531 78.1761 73.6667 79.4161 73.6667 80.709Z" fill="url(#paint1_linear_192_163)"/>
<path d="M30.3333 80.709V95.334H52V75.834H35.2083C33.9154 75.834 32.6754 76.3476 31.7612 77.2618C30.8469 78.1761 30.3333 79.4161 30.3333 80.709Z" fill="url(#paint2_linear_192_163)"/>
<path d="M39 30.3333C39 31.4826 38.5434 32.5848 37.7308 33.3975C36.9181 34.2101 35.8159 34.6667 34.6667 34.6667C33.5174 34.6667 32.4152 34.2101 31.6025 33.3975C30.7899 32.5848 30.3333 31.4826 30.3333 30.3333C30.3333 29.1841 30.7899 28.0819 31.6025 27.2692C32.4152 26.4565 33.5174 26 34.6667 26C35.8159 26 36.9181 26.4565 37.7308 27.2692C38.5434 28.0819 39 29.1841 39 30.3333ZM34.6667 49.8333C35.8159 49.8333 36.9181 49.3768 37.7308 48.5641C38.5434 47.7515 39 46.6493 39 45.5C39 44.3507 38.5434 43.2485 37.7308 42.4359C36.9181 41.6232 35.8159 41.1667 34.6667 41.1667C33.5174 41.1667 32.4152 41.6232 31.6025 42.4359C30.7899 43.2485 30.3333 44.3507 30.3333 45.5C30.3333 46.6493 30.7899 47.7515 31.6025 48.5641C32.4152 49.3768 33.5174 49.8333 34.6667 49.8333ZM39 60.6667C39 61.8159 38.5434 62.9181 37.7308 63.7308C36.9181 64.5435 35.8159 65 34.6667 65C33.5174 65 32.4152 64.5435 31.6025 63.7308C30.7899 62.9181 30.3333 61.8159 30.3333 60.6667C30.3333 59.5174 30.7899 58.4152 31.6025 57.6025C32.4152 56.7899 33.5174 56.3333 34.6667 56.3333C35.8159 56.3333 36.9181 56.7899 37.7308 57.6025C38.5434 58.4152 39 59.5174 39 60.6667ZM52 34.6667C53.1493 34.6667 54.2515 34.2101 55.0641 33.3975C55.8768 32.5848 56.3333 31.4826 56.3333 30.3333C56.3333 29.1841 55.8768 28.0819 55.0641 27.2692C54.2515 26.4565 53.1493 26 52 26C50.8507 26 49.7485 26.4565 48.9359 27.2692C48.1232 28.0819 47.6667 29.1841 47.6667 30.3333C47.6667 31.4826 48.1232 32.5848 48.9359 33.3975C49.7485 34.2101 50.8507 34.6667 52 34.6667ZM56.3333 45.5C56.3333 46.6493 55.8768 47.7515 55.0641 48.5641C54.2515 49.3768 53.1493 49.8333 52 49.8333C50.8507 49.8333 49.7485 49.3768 48.9359 48.5641C48.1232 47.7515 47.6667 46.6493 47.6667 45.5C47.6667 44.3507 48.1232 43.2485 48.9359 42.4359C49.7485 41.6232 50.8507 41.1667 52 41.1667C53.1493 41.1667 54.2515 41.6232 55.0641 42.4359C55.8768 43.2485 56.3333 44.3507 56.3333 45.5ZM52 65C53.1493 65 54.2515 64.5435 55.0641 63.7308C55.8768 62.9181 56.3333 61.8159 56.3333 60.6667C56.3333 59.5174 55.8768 58.4152 55.0641 57.6025C54.2515 56.7899 53.1493 56.3333 52 56.3333C50.8507 56.3333 49.7485 56.7899 48.9359 57.6025C48.1232 58.4152 47.6667 59.5174 47.6667 60.6667C47.6667 61.8159 48.1232 62.9181 48.9359 63.7308C49.7485 64.5435 50.8507 65 52 65ZM73.6667 60.6667C73.6667 61.8159 73.2101 62.9181 72.3975 63.7308C71.5848 64.5435 70.4826 65 69.3333 65C68.1841 65 67.0819 64.5435 66.2692 63.7308C65.4565 62.9181 65 61.8159 65 60.6667C65 59.5174 65.4565 58.4152 66.2692 57.6025C67.0819 56.7899 68.1841 56.3333 69.3333 56.3333C70.4826 56.3333 71.5848 56.7899 72.3975 57.6025C73.2101 58.4152 73.6667 59.5174 73.6667 60.6667Z" fill="url(#paint3_linear_192_163)"/>
<defs>
<linearGradient id="paint0_linear_192_163" x1="17.3333" y1="11.3753" x2="100.02" y2="96.0617" gradientUnits="userSpaceOnUse">
<stop stop-color="#29C3FF"/>
<stop offset="1" stop-color="#2764E7"/>
</linearGradient>
<linearGradient id="paint1_linear_192_163" x1="52.8125" y1="72.7378" x2="68.8328" y2="90.7558" gradientUnits="userSpaceOnUse">
<stop stop-color="#0067BF"/>
<stop offset="1" stop-color="#003580"/>
</linearGradient>
<linearGradient id="paint2_linear_192_163" x1="31.1068" y1="79.8965" x2="46.059" y2="95.4315" gradientUnits="userSpaceOnUse">
<stop stop-color="#0067BF"/>
<stop offset="1" stop-color="#003580"/>
</linearGradient>
<linearGradient id="paint3_linear_192_163" x1="43.3333" y1="21.6667" x2="56.3333" y2="73.6667" gradientUnits="userSpaceOnUse">
<stop stop-color="#FDFDFD"/>
<stop offset="1" stop-color="#B3E0FF"/>
</linearGradient>
</defs>
</svg>
