<svg width="104" height="104" viewBox="0 0 104 104" fill="none" xmlns="http://www.w3.org/2000/svg">
<path d="M96.454 79.8893C94.7058 78.168 73.5209 69.9735 69.6768 68.4278C65.8529 66.909 64.3274 62.7004 64.3274 62.7004C64.3274 62.7004 62.6062 63.6522 62.6062 60.9792C62.6062 58.3028 64.3274 62.7004 66.0487 52.3797C66.0487 52.3797 70.8243 51.0398 69.8759 39.9597H68.7284C68.7284 39.9597 71.5972 28.1134 68.7284 24.1039C65.8495 20.0944 64.7223 17.4214 58.4009 15.5044C52.0897 13.5908 54.3847 13.9722 49.8014 14.1679C45.2114 14.3603 41.3909 16.8443 41.3909 18.1774C41.3909 18.1774 38.5222 18.3698 37.3814 19.5173C36.2339 20.6648 34.3237 26.0108 34.3237 27.3473C34.3237 28.6838 35.2788 37.6748 36.2339 39.5783L35.0965 39.9495C34.1414 51.033 38.917 52.3763 38.917 52.3763C40.6383 62.697 42.3595 58.2994 42.3595 60.9758C42.3595 63.6488 40.6383 62.697 40.6383 62.697C40.6383 62.697 39.1094 66.9023 35.2889 68.4244C31.4684 69.9533 10.2599 78.168 8.5353 79.8859C6.81405 81.6409 7.00642 89.6599 7.00642 89.6599H97.9762C97.9762 89.6599 98.1888 81.6342 96.4473 79.8825L96.454 79.8893Z" fill="url(#paint0_linear_193_7)"/>
<defs>
<linearGradient id="paint0_linear_193_7" x1="18.5" y1="38.5" x2="81" y2="90" gradientUnits="userSpaceOnUse">
<stop stop-color="#29BFFE"/>
<stop offset="1" stop-color="#2770EA"/>
</linearGradient>
</defs>
</svg>
