<svg width="104" height="104" viewBox="0 0 104 104" fill="none" xmlns="http://www.w3.org/2000/svg">
<path fill-rule="evenodd" clip-rule="evenodd" d="M14 14H18.75V85.25H90V90H14V14ZM61.5 30.625C61.5 29.9951 61.7502 29.391 62.1956 28.9456C62.641 28.5002 63.2451 28.25 63.875 28.25H82.875C83.5049 28.25 84.109 28.5002 84.5544 28.9456C84.9998 29.391 85.25 29.9951 85.25 30.625V49.625C85.25 50.2549 84.9998 50.859 84.5544 51.3044C84.109 51.7498 83.5049 52 82.875 52C82.2451 52 81.641 51.7498 81.1956 51.3044C80.7502 50.859 80.5 50.2549 80.5 49.625V37.275L63.3383 58.2557C63.1282 58.5122 62.8667 58.7218 62.5707 58.8711C62.2747 59.0204 61.9508 59.1061 61.6197 59.1226C61.2886 59.1392 60.9577 59.0862 60.6483 58.9672C60.3389 58.8482 60.0579 58.6657 59.8233 58.4315L47.535 46.1432L30.169 70.0215C29.7891 70.5046 29.2368 70.8216 28.628 70.9059C28.0193 70.9902 27.4016 70.8353 26.9047 70.4737C26.4078 70.1121 26.0704 69.5719 25.9634 68.9668C25.8564 68.3616 25.9882 67.7385 26.331 67.2285L45.331 41.1035C45.5327 40.8257 45.7922 40.5949 46.0916 40.427C46.3911 40.2592 46.7233 40.1582 47.0656 40.1311C47.4078 40.104 47.7518 40.1515 48.0739 40.2701C48.3961 40.3888 48.6886 40.5759 48.9315 40.8185L61.3242 53.216L77.8638 33H63.875C63.2451 33 62.641 32.7498 62.1956 32.3044C61.7502 31.859 61.5 31.2549 61.5 30.625Z" fill="url(#paint0_linear_192_177)"/>
<defs>
<linearGradient id="paint0_linear_192_177" x1="23.606" y1="38.6101" x2="83.2541" y2="79.4818" gradientUnits="userSpaceOnUse">
<stop stop-color="#29BFFE"/>
<stop offset="1" stop-color="#2770EA"/>
</linearGradient>
</defs>
</svg>
