<svg width="48" height="48" viewBox="0 0 48 48" fill="none" xmlns="http://www.w3.org/2000/svg">
<mask id="path-1-outside-1_263_23" maskUnits="userSpaceOnUse" x="4" y="4" width="40" height="40" fill="black">
<rect fill="white" x="4" y="4" width="40" height="40"/>
<path fill-rule="evenodd" clip-rule="evenodd" d="M29.032 15.093C28.178 14.682 27.181 14.33 26 14C27.18 13.669 28.178 13.318 29.032 12.907C30.854 12.031 32.02 10.877 32.907 9.043C33.319 8.189 33.67 7.189 34 6C34.33 7.189 34.68 8.19 35.093 9.043C35.98 10.878 37.146 12.031 38.968 12.907C39.821 13.318 40.819 13.669 42 14C40.82 14.331 39.822 14.682 38.968 15.093C37.146 15.97 35.98 17.123 35.093 18.957C34.681 19.811 34.329 20.811 34 22C33.67 20.811 33.32 19.81 32.907 18.957C32.02 17.122 30.854 15.969 29.032 15.093ZM32.722 15.239C32.2503 14.7731 31.7312 14.3578 31.173 14C31.7315 13.6419 32.2511 13.2263 32.723 12.76C33.2039 12.2805 33.632 11.7508 34 11.18C34.3675 11.752 34.796 12.2824 35.278 12.762C35.752 13.232 36.268 13.64 36.827 14.001C36.2685 14.3591 35.7489 14.7747 35.277 15.241C34.7961 15.7202 34.368 16.2496 34 16.82C33.6318 16.2485 33.2034 15.7181 32.722 15.238M9.304 29.064C8.21818 28.6629 7.11586 28.3079 6 28C7.11586 27.6921 8.21818 27.3371 9.304 26.936C14.387 25.03 17.011 22.459 18.936 17.324C19.3389 16.232 19.6939 15.123 20 14C20.3061 15.123 20.6611 16.232 21.064 17.324C22.989 22.459 25.614 25.03 30.696 26.936C31.698 27.312 32.794 27.662 34 28C32.8841 28.3079 31.7818 28.6629 30.696 29.064C25.613 30.97 22.989 33.541 21.064 38.676C20.6611 39.768 20.3061 40.877 20 42C19.6939 40.877 19.3389 39.768 18.936 38.676C17.011 33.541 14.386 30.97 9.304 29.064ZM16.707 31.234C15.364 29.9 13.791 28.864 11.942 28C13.791 27.136 15.364 26.1 16.707 24.767C18.062 23.422 19.119 21.837 20 19.959C20.88 21.837 21.938 23.422 23.293 24.767C24.636 26.1 26.209 27.136 28.058 28C26.209 28.864 24.636 29.9 23.293 31.233C21.938 32.578 20.881 34.163 20 36.041C19.12 34.163 18.062 32.578 16.707 31.234Z"/>
</mask>
<path fill-rule="evenodd" clip-rule="evenodd" d="M29.032 15.093C28.178 14.682 27.181 14.33 26 14C27.18 13.669 28.178 13.318 29.032 12.907C30.854 12.031 32.02 10.877 32.907 9.043C33.319 8.189 33.67 7.189 34 6C34.33 7.189 34.68 8.19 35.093 9.043C35.98 10.878 37.146 12.031 38.968 12.907C39.821 13.318 40.819 13.669 42 14C40.82 14.331 39.822 14.682 38.968 15.093C37.146 15.97 35.98 17.123 35.093 18.957C34.681 19.811 34.329 20.811 34 22C33.67 20.811 33.32 19.81 32.907 18.957C32.02 17.122 30.854 15.969 29.032 15.093ZM32.722 15.239C32.2503 14.7731 31.7312 14.3578 31.173 14C31.7315 13.6419 32.2511 13.2263 32.723 12.76C33.2039 12.2805 33.632 11.7508 34 11.18C34.3675 11.752 34.796 12.2824 35.278 12.762C35.752 13.232 36.268 13.64 36.827 14.001C36.2685 14.3591 35.7489 14.7747 35.277 15.241C34.7961 15.7202 34.368 16.2496 34 16.82C33.6318 16.2485 33.2034 15.7181 32.722 15.238M9.304 29.064C8.21818 28.6629 7.11586 28.3079 6 28C7.11586 27.6921 8.21818 27.3371 9.304 26.936C14.387 25.03 17.011 22.459 18.936 17.324C19.3389 16.232 19.6939 15.123 20 14C20.3061 15.123 20.6611 16.232 21.064 17.324C22.989 22.459 25.614 25.03 30.696 26.936C31.698 27.312 32.794 27.662 34 28C32.8841 28.3079 31.7818 28.6629 30.696 29.064C25.613 30.97 22.989 33.541 21.064 38.676C20.6611 39.768 20.3061 40.877 20 42C19.6939 40.877 19.3389 39.768 18.936 38.676C17.011 33.541 14.386 30.97 9.304 29.064ZM16.707 31.234C15.364 29.9 13.791 28.864 11.942 28C13.791 27.136 15.364 26.1 16.707 24.767C18.062 23.422 19.119 21.837 20 19.959C20.88 21.837 21.938 23.422 23.293 24.767C24.636 26.1 26.209 27.136 28.058 28C26.209 28.864 24.636 29.9 23.293 31.233C21.938 32.578 20.881 34.163 20 36.041C19.12 34.163 18.062 32.578 16.707 31.234Z" fill="#222222"/>
<path d="M29.032 15.093L28.8152 15.5435L28.8153 15.5436L29.032 15.093ZM26 14L25.865 13.5186L24.1454 14.0009L25.8654 14.4816L26 14ZM29.032 12.907L28.8153 12.4564L28.8152 12.4565L29.032 12.907ZM32.907 9.043L33.3571 9.2607L33.3573 9.26026L32.907 9.043ZM34 6L34.4818 5.86628L34 4.13039L33.5182 5.86628L34 6ZM35.093 9.043L35.5432 8.8254L35.543 8.82511L35.093 9.043ZM38.968 12.907L39.185 12.4566L39.1847 12.4564L38.968 12.907ZM42 14L42.135 14.4814L43.852 13.9998L42.1349 13.5186L42 14ZM38.968 15.093L38.7512 14.6425L38.7511 14.6425L38.968 15.093ZM35.093 18.957L34.6429 18.7393L34.6427 18.7397L35.093 18.957ZM34 22L33.5182 22.1337L34.0007 23.8722L34.4819 22.1333L34 22ZM32.907 18.957L32.4568 19.1746L32.457 19.1749L32.907 18.957ZM31.173 14L30.9032 13.5791L30.2466 14L30.9032 14.4209L31.173 14ZM32.723 12.76L33.0744 13.1157L33.076 13.1141L32.723 12.76ZM34 11.18L34.4206 10.9097L34.0007 10.2561L33.5798 10.9091L34 11.18ZM35.278 12.762L34.9253 13.1164L34.9259 13.117L35.278 12.762ZM36.827 14.001L37.0968 14.4219L37.751 14.0025L37.0983 13.581L36.827 14.001ZM35.277 15.241L34.9256 14.8853L34.9241 14.8868L35.277 15.241ZM34 16.82L33.5797 17.0908L33.9997 17.7428L34.4201 17.0911L34 16.82ZM9.304 29.064L9.47958 28.5958L9.47727 28.595L9.304 29.064ZM6 28L5.86702 27.518L4.12005 28L5.86702 28.482L6 28ZM9.304 26.936L9.47728 27.405L9.47955 27.4042L9.304 26.936ZM18.936 17.324L19.4042 17.4995L19.4051 17.4971L18.936 17.324ZM20 14L20.4824 13.8685L20 12.099L19.5176 13.8685L20 14ZM21.064 17.324L20.5949 17.4971L20.5958 17.4995L21.064 17.324ZM30.696 26.936L30.8717 26.4679L30.8716 26.4678L30.696 26.936ZM34 28L34.133 28.482L35.8663 28.0038L34.1349 27.5186L34 28ZM30.696 29.064L30.5227 28.595L30.5204 28.5958L30.696 29.064ZM21.064 38.676L20.5958 38.5005L20.5949 38.5029L21.064 38.676ZM20 42L19.5176 42.1315L20 43.901L20.4824 42.1315L20 42ZM18.936 38.676L19.4051 38.5029L19.4042 38.5005L18.936 38.676ZM16.707 31.234L16.3546 31.5887L16.3549 31.589L16.707 31.234ZM11.942 28L11.7303 27.547L10.7609 28L11.7303 28.453L11.942 28ZM16.707 24.767L17.0592 25.1219L17.0592 25.1219L16.707 24.767ZM20 19.959L20.4528 19.7468L20.0003 18.7812L19.5473 19.7466L20 19.959ZM23.293 24.767L22.9408 25.1219L22.9408 25.1219L23.293 24.767ZM28.058 28L28.2697 28.453L29.2391 28L28.2697 27.547L28.058 28ZM23.293 31.233L22.9408 30.8781L22.9408 30.8781L23.293 31.233ZM20 36.041L19.5472 36.2532L19.9997 37.2188L20.4527 36.2534L20 36.041ZM29.032 15.093L29.2488 14.6425C28.3595 14.2145 27.3325 13.8532 26.1346 13.5184L26 14L25.8654 14.4816C27.0295 14.8068 27.9965 15.1495 28.8152 15.5435L29.032 15.093ZM26 14L26.135 14.4814C27.3312 14.1459 28.3593 13.7856 29.2488 13.3575L29.032 12.907L28.8152 12.4565C27.9967 12.8504 27.0288 13.1921 25.865 13.5186L26 14ZM29.032 12.907L29.2487 13.3576C31.1719 12.433 32.4205 11.1972 33.3571 9.2607L32.907 9.043L32.4569 8.8253C31.6195 10.5568 30.5361 11.629 28.8153 12.4564L29.032 12.907ZM32.907 9.043L33.3573 9.26026C33.7868 8.37009 34.1472 7.33938 34.4818 6.13372L34 6L33.5182 5.86628C33.1928 7.03862 32.8512 8.00791 32.4567 8.82574L32.907 9.043ZM34 6L33.5182 6.13372C33.8527 7.33885 34.2121 8.37104 34.643 9.26089L35.093 9.043L35.543 8.82511C35.1479 8.00896 34.8073 7.03915 34.4818 5.86628L34 6ZM35.093 9.043L34.6428 9.2606C35.5795 11.1983 36.8282 12.433 38.7513 13.3576L38.968 12.907L39.1847 12.4564C37.4638 11.629 36.3805 10.5577 35.5432 8.8254L35.093 9.043ZM38.968 12.907L38.751 13.3574C39.6397 13.7856 40.6679 14.1459 41.8651 14.4814L42 14L42.1349 13.5186C40.9701 13.1921 40.0023 12.8504 39.185 12.4566L38.968 12.907ZM42 14L41.865 13.5186C40.6688 13.8541 39.6407 14.2144 38.7512 14.6425L38.968 15.093L39.1848 15.5435C40.0033 15.1496 40.9712 14.8079 42.135 14.4814L42 14ZM38.968 15.093L38.7511 14.6425C36.8282 15.568 35.5795 16.8026 34.6429 18.7393L35.093 18.957L35.5431 19.1747C36.3805 17.4434 37.4638 16.372 39.1849 15.5435L38.968 15.093ZM35.093 18.957L34.6427 18.7397C34.2133 19.6297 33.8519 20.6604 33.5181 21.8667L34 22L34.4819 22.1333C34.8061 20.9616 35.1487 19.9923 35.5433 19.1743L35.093 18.957ZM34 22L34.4818 21.8663C34.1473 20.6612 33.7879 19.629 33.357 18.7391L32.907 18.957L32.457 19.1749C32.8521 19.991 33.1927 20.9608 33.5182 22.1337L34 22ZM32.907 18.957L33.3572 18.7394C32.4205 16.8017 31.1718 15.567 29.2487 14.6424L29.032 15.093L28.8153 15.5436C30.5362 16.371 31.6195 17.4423 32.4568 19.1746L32.907 18.957ZM32.722 15.239L33.0734 14.8833C32.5769 14.3928 32.0304 13.9557 31.4428 13.5791L31.173 14L30.9032 14.4209C31.4319 14.7599 31.9238 15.1533 32.3706 15.5947L32.722 15.239ZM31.173 14L31.4428 14.4209C32.0308 14.044 32.5776 13.6065 33.0744 13.1157L32.723 12.76L32.3716 12.4043C31.9245 12.8461 31.4323 13.2398 30.9032 13.5791L31.173 14ZM32.723 12.76L33.076 13.1141C33.5823 12.6093 34.0329 12.0518 34.4202 11.4509L34 11.18L33.5798 10.9091C33.2312 11.4498 32.8256 11.9517 32.37 12.4059L32.723 12.76ZM34 11.18L33.5794 11.4503C33.9664 12.0527 34.4177 12.6114 34.9253 13.1164L35.278 12.762L35.6307 12.4076C35.1743 11.9535 34.7686 11.4513 34.4206 10.9097L34 11.18ZM35.278 12.762L34.9259 13.117C35.4264 13.6133 35.9699 14.0427 36.5557 14.421L36.827 14.001L37.0983 13.581C36.5661 13.2373 36.0776 12.8507 35.6301 12.407L35.278 12.762ZM36.827 14.001L36.5572 13.5801C35.9692 13.957 35.4224 14.3945 34.9256 14.8853L35.277 15.241L35.6284 15.5967C36.0755 15.1549 36.5677 14.7612 37.0968 14.4219L36.827 14.001ZM35.277 15.241L34.9241 14.8868C34.4179 15.3912 33.9672 15.9485 33.5799 16.5489L34 16.82L34.4201 17.0911C34.7688 16.5506 35.1744 16.0491 35.6299 15.5952L35.277 15.241ZM34 16.82L34.4203 16.5492C34.0328 15.9476 33.5818 15.3893 33.0751 14.884L32.722 15.238L32.3689 15.592C32.825 16.0468 33.2309 16.5493 33.5797 17.0908L34 16.82ZM9.304 29.064L9.47727 28.595C8.37821 28.1889 7.26245 27.8296 6.13298 27.518L6 28L5.86702 28.482C6.96927 28.7861 8.05815 29.1368 9.13073 29.533L9.304 29.064ZM6 28L6.13298 28.482C7.26245 28.1704 8.37821 27.8111 9.47727 27.405L9.304 26.936L9.13073 26.467C8.05815 26.8632 6.96927 27.2139 5.86702 27.518L6 28ZM9.304 26.936L9.47955 27.4042C12.064 26.4351 14.0593 25.2834 15.6567 23.6955C17.2544 22.1073 18.4249 20.1118 19.4042 17.4995L18.936 17.324L18.4678 17.1485C17.5221 19.6712 16.4181 21.5287 14.9518 22.9863C13.4852 24.4441 11.627 25.5309 9.12845 26.4678L9.304 26.936ZM18.936 17.324L19.4051 17.4971C19.813 16.3914 20.1724 15.2685 20.4824 14.1315L20 14L19.5176 13.8685C19.2153 14.9774 18.8647 16.0726 18.4669 17.1509L18.936 17.324ZM20 14L19.5176 14.1315C19.8276 15.2685 20.187 16.3914 20.5949 17.4971L21.064 17.324L21.5331 17.1509C21.1353 16.0726 20.7847 14.9774 20.4824 13.8685L20 14ZM21.064 17.324L20.5958 17.4995C21.5751 20.1118 22.7458 22.1073 24.3436 23.6955C25.9412 25.2834 27.9365 26.4351 30.5204 27.4042L30.696 26.936L30.8716 26.4678C28.3735 25.5309 26.5153 24.4441 25.0486 22.9863C23.5822 21.5287 22.4779 19.6712 21.5322 17.1485L21.064 17.324ZM30.696 26.936L30.5203 27.4041C31.5388 27.7863 32.6488 28.1406 33.8651 28.4814L34 28L34.1349 27.5186C32.9392 27.1834 31.8572 26.8377 30.8717 26.4679L30.696 26.936ZM34 28L33.867 27.518C32.7376 27.8296 31.6218 28.1889 30.5227 28.595L30.696 29.064L30.8693 29.533C31.9419 29.1368 33.0307 28.7861 34.133 28.482L34 28ZM30.696 29.064L30.5204 28.5958C27.936 29.5649 25.9407 30.7166 24.3433 32.3045C22.7456 33.8927 21.5751 35.8882 20.5958 38.5005L21.064 38.676L21.5322 38.8515C22.4779 36.3288 23.5819 34.4713 25.0482 33.0137C26.5148 31.5559 28.373 30.4691 30.8716 29.5322L30.696 29.064ZM21.064 38.676L20.5949 38.5029C20.187 39.6086 19.8276 40.7315 19.5176 41.8685L20 42L20.4824 42.1315C20.7847 41.0226 21.1353 39.9274 21.5331 38.8491L21.064 38.676ZM20 42L20.4824 41.8685C20.1724 40.7315 19.813 39.6086 19.4051 38.5029L18.936 38.676L18.4669 38.8491C18.8647 39.9274 19.2153 41.0226 19.5176 42.1315L20 42ZM18.936 38.676L19.4042 38.5005C18.4249 35.8882 17.2542 33.8927 15.6564 32.3045C14.0588 30.7166 12.0635 29.5649 9.47958 28.5958L9.304 29.064L9.12842 29.5322C11.6265 30.4691 13.4847 31.5559 14.9514 33.0137C16.4178 34.4713 17.5221 36.3288 18.4678 38.8515L18.936 38.676ZM16.707 31.234L17.0594 30.8793C15.6678 29.4971 14.0441 28.4304 12.1537 27.547L11.942 28L11.7303 28.453C13.5379 29.2976 15.0602 30.3029 16.3546 31.5887L16.707 31.234ZM11.942 28L12.1537 28.453C14.0441 27.5696 15.6678 26.503 17.0592 25.1219L16.707 24.767L16.3548 24.4121C15.0602 25.697 13.5379 26.7024 11.7303 27.547L11.942 28ZM16.707 24.767L17.0592 25.1219C18.4633 23.7281 19.5517 22.0919 20.4527 20.1714L20 19.959L19.5473 19.7466C18.6863 21.5821 17.6607 23.1159 16.3548 24.4121L16.707 24.767ZM20 19.959L19.5472 20.1712C20.4473 22.0919 21.5368 23.7282 22.9408 25.1219L23.293 24.767L23.6452 24.4121C22.3392 23.1158 21.3127 21.5821 20.4528 19.7468L20 19.959ZM23.293 24.767L22.9408 25.1219C24.3322 26.503 25.9559 27.5696 27.8463 28.453L28.058 28L28.2697 27.547C26.4621 26.7024 24.9398 25.697 23.6452 24.4121L23.293 24.767ZM28.058 28L27.8463 27.547C25.9559 28.4304 24.3322 29.497 22.9408 30.8781L23.293 31.233L23.6452 31.5879C24.9398 30.303 26.4621 29.2976 28.2697 28.453L28.058 28ZM23.293 31.233L22.9408 30.8781C21.5367 32.2719 20.4483 33.9081 19.5473 35.8286L20 36.041L20.4527 36.2534C21.3137 34.4179 22.3393 32.8841 23.6452 31.5879L23.293 31.233ZM20 36.041L20.4528 35.8288C19.5527 33.9081 18.4632 32.2717 17.0591 30.879L16.707 31.234L16.3549 31.589C17.6608 32.8843 18.6873 34.4179 19.5472 36.2532L20 36.041Z" fill="black" mask="url(#path-1-outside-1_263_23)"/>
</svg>
