<svg width="24" height="24" viewBox="0 0 24 24" fill="none" xmlns="http://www.w3.org/2000/svg">
<path d="M22.4503 17.35C22.2056 17.0894 21.3417 16.3188 19.7536 15.2992C18.1537 14.2708 16.9739 13.6295 16.6354 13.48C16.6056 13.4668 16.5727 13.4619 16.5404 13.466C16.508 13.47 16.4773 13.4828 16.4517 13.503C15.9065 13.9281 14.9887 14.7091 14.9395 14.7513C14.6217 15.0236 14.6217 15.0236 14.3615 14.9388C13.904 14.7888 12.4828 14.0341 11.2443 12.7928C10.0059 11.5516 9.21231 10.0952 9.06231 9.63813C8.97653 9.37751 8.97653 9.37751 9.24981 9.0597C9.292 9.01048 10.0734 8.09267 10.4986 7.54798C10.5187 7.52233 10.5315 7.49167 10.5356 7.45929C10.5396 7.42692 10.5348 7.39405 10.5215 7.36423C10.372 7.02532 9.73075 5.84595 8.70231 4.2461C7.68137 2.65845 6.91168 1.79454 6.65106 1.54985C6.62714 1.52728 6.59758 1.51158 6.56549 1.50441C6.5334 1.49723 6.49997 1.49884 6.46871 1.50907C5.55769 1.82216 4.67869 2.22163 3.84371 2.70204C3.03766 3.17062 2.27455 3.70943 1.56325 4.3122C1.53842 4.33331 1.5198 4.36078 1.5094 4.39166C1.49899 4.42254 1.49719 4.45568 1.50418 4.48751C1.60215 4.94407 2.07043 6.85001 3.52356 9.49001C5.00621 12.1844 6.03371 13.5649 8.21106 15.7347C10.3884 17.9045 11.8125 18.9939 14.5097 20.4766C17.1497 21.9297 19.0565 22.3984 19.5122 22.4955C19.5441 22.5024 19.5772 22.5006 19.6082 22.4902C19.6391 22.4798 19.6667 22.4612 19.6879 22.4364C20.2906 21.7251 20.8293 20.962 21.2976 20.1559C21.778 19.3209 22.1774 18.4419 22.4906 17.5309C22.5006 17.4999 22.5022 17.4668 22.4951 17.435C22.488 17.4032 22.4725 17.3738 22.4503 17.35Z" fill="white"/>
</svg>
