<svg width="48" height="48" viewBox="0 0 48 48" fill="none" xmlns="http://www.w3.org/2000/svg">
<g clip-path="url(#clip0_300_33)">
<path d="M3.42999 28.5H13.75M3.42999 15.334H40.573M18 32.502V44.565M30.573 22C30.573 10.954 26.735 2 22.001 2C17.267 2 13.43 10.954 13.43 22C13.43 24.275 13.593 26.462 13.893 28.5" stroke="#222222" stroke-width="3" stroke-linecap="round" stroke-linejoin="round"/>
<path d="M41.777 25C41.925 24.02 41.9993 23.02 42 22C42 10.954 33.046 2 22 2C10.954 2 2 10.954 2 22C2 29.809 6.475 36.572 13 39.865" stroke="#222222" stroke-width="3" stroke-linecap="round" stroke-linejoin="round"/>
<path d="M19.006 33.958C17.662 33.352 17.662 31.653 19.006 31.047C20.5249 30.366 22.0565 29.7135 23.6 29.09C26.715 27.825 28.963 27.012 30.346 26.54C31.4183 26.1722 32.5826 26.1722 33.655 26.54C35.037 27.012 37.285 27.825 40.4 29.09C41.9436 29.7139 43.4755 30.3664 44.995 31.047C46.339 31.653 46.339 33.352 44.995 33.958C43.4757 34.639 41.9438 35.2915 40.4 35.915C37.286 37.18 35.037 37.993 33.655 38.465C32.5823 38.833 31.4176 38.833 30.345 38.465C28.964 37.993 26.715 37.18 23.6 35.915C22.0562 35.2915 20.5243 34.639 19.005 33.958" stroke="#222222" stroke-width="3" stroke-linecap="round" stroke-linejoin="round"/>
<path d="M23.5 35.874V38.961C23.5 40.549 23.565 41.671 23.643 42.445C23.745 43.467 24.323 44.338 25.26 44.758C26.528 45.328 28.722 46.002 32 46.002C35.278 46.002 37.472 45.327 38.74 44.758C39.676 44.338 40.255 43.467 40.357 42.445C40.435 41.671 40.5 40.549 40.5 38.961V35.874" stroke="#222222" stroke-width="3" stroke-linecap="round" stroke-linejoin="round"/>
</g>
<defs>
<clipPath id="clip0_300_33">
<rect width="48" height="48" fill="white"/>
</clipPath>
</defs>
</svg>
