<svg width="48" height="48" viewBox="0 0 48 48" fill="none" xmlns="http://www.w3.org/2000/svg">
<path d="M45 36V33H41.8485C41.6539 32.0614 41.2812 31.1688 40.7505 30.3705L42.9855 28.1355L40.8645 26.0145L38.6295 28.2495C37.8312 27.7188 36.9386 27.3461 36 27.1515V24H33V27.1515C32.0614 27.3461 31.1688 27.7188 30.3705 28.2495L28.1355 26.0145L26.0145 28.1355L28.2495 30.3705C27.7188 31.1688 27.3461 32.0614 27.1515 33H24V36H27.1515C27.3461 36.9386 27.7188 37.8312 28.2495 38.6295L26.0145 40.8645L28.1355 42.9855L30.3705 40.7505C31.1688 41.2812 32.0614 41.6539 33 41.8485V45H36V41.8485C36.9386 41.6539 37.8312 41.2812 38.6295 40.7505L40.8645 42.9855L42.9855 40.8645L40.7505 38.6295C41.2812 37.8312 41.6539 36.9386 41.8485 36H45ZM34.5 39C33.61 39 32.74 38.7361 31.9999 38.2416C31.2599 37.7471 30.6831 37.0443 30.3425 36.2221C30.0019 35.3998 29.9128 34.495 30.0865 33.6221C30.2601 32.7492 30.6887 31.9474 31.318 31.318C31.9474 30.6887 32.7492 30.2601 33.6221 30.0865C34.495 29.9128 35.3998 30.0019 36.2221 30.3425C37.0443 30.6831 37.7471 31.2599 38.2416 31.9999C38.7361 32.74 39 33.61 39 34.5C38.9988 35.6931 38.5243 36.837 37.6807 37.6807C36.837 38.5243 35.6931 38.9988 34.5 39Z" fill="#222222"/>
<path d="M42 6H6C5.20435 6 4.44129 6.31607 3.87868 6.87868C3.31607 7.44129 3 8.20435 3 9V39C3 39.7957 3.31607 40.5587 3.87868 41.1213C4.44129 41.6839 5.20435 42 6 42H21V39H6V18H42V22.5H45V9C45 8.20435 44.6839 7.44129 44.1213 6.87868C43.5587 6.31607 42.7957 6 42 6ZM42 15H6V9H42V15Z" fill="#222222"/>
<path d="M30 13.5C30.8284 13.5 31.5 12.8284 31.5 12C31.5 11.1716 30.8284 10.5 30 10.5C29.1716 10.5 28.5 11.1716 28.5 12C28.5 12.8284 29.1716 13.5 30 13.5Z" fill="#222222"/>
<path d="M34.5 13.5C35.3284 13.5 36 12.8284 36 12C36 11.1716 35.3284 10.5 34.5 10.5C33.6716 10.5 33 11.1716 33 12C33 12.8284 33.6716 13.5 34.5 13.5Z" fill="#222222"/>
<path d="M39 13.5C39.8284 13.5 40.5 12.8284 40.5 12C40.5 11.1716 39.8284 10.5 39 10.5C38.1716 10.5 37.5 11.1716 37.5 12C37.5 12.8284 38.1716 13.5 39 13.5Z" fill="#222222"/>
</svg>
