<svg width="48" height="48" viewBox="0 0 48 48" fill="none" xmlns="http://www.w3.org/2000/svg">
<path d="M20.3574 39.75L20.416 39.917C20.6045 40.4517 20.9542 40.9146 21.417 41.2422C21.8799 41.5698 22.4329 41.7461 23 41.7461C23.5671 41.7461 24.1201 41.5698 24.583 41.2422C25.0458 40.9146 25.3955 40.4517 25.584 39.917L25.6426 39.75H28.2061L28.1445 40.0498C27.9025 41.2356 27.2589 42.302 26.3213 43.0674C25.4424 43.7849 24.3561 44.1966 23.2266 44.2451L23 44.25C21.7897 44.2502 20.6163 43.8327 19.6787 43.0674C18.7411 42.302 18.0975 41.2356 17.8555 40.0498L17.7939 39.75H20.3574ZM23 5.75C23.862 5.75 24.6884 6.09266 25.2979 6.70215C25.9073 7.31164 26.25 8.13805 26.25 9V10.2344C30.8817 11.6244 34.25 15.952 34.25 21V31.8965L40.6035 38.25H5.39648L11.75 31.8965V21C11.75 15.952 15.1183 11.6244 19.75 10.2344V9C19.75 8.13805 20.0927 7.31164 20.7021 6.70215C21.3116 6.09266 22.138 5.75 23 5.75ZM23 8.25C22.8011 8.25 22.6104 8.32907 22.4697 8.46973C22.3291 8.61038 22.25 8.80109 22.25 9V12.2842L22.0273 12.3086C17.6522 12.7949 14.25 16.4894 14.25 21V32.9238L11.4238 35.75H34.5762L31.75 32.9238V21C31.75 16.4894 28.3478 12.7949 23.9727 12.3086L23.75 12.2842V9C23.75 8.80109 23.6709 8.61038 23.5303 8.46973C23.3896 8.32907 23.1989 8.25 23 8.25Z" fill="#222222" stroke="#222222" stroke-width="0.5"/>
</svg>
