<svg width="427" height="360" viewBox="0 0 427 360" fill="none" xmlns="http://www.w3.org/2000/svg">
<g filter="url(#filter0_f_249_371)">
<rect width="192.817" height="192.817" transform="matrix(0.707105 -0.707108 0.707105 0.707108 77 148.344)" fill="url(#paint0_linear_249_371)" fill-opacity="0.05"/>
</g>
<g filter="url(#filter1_f_249_371)">
<rect width="164.234" height="164.234" transform="matrix(0.707105 -0.707108 0.707105 0.707108 97.2119 148.344)" fill="url(#paint1_linear_249_371)" fill-opacity="0.16"/>
</g>
<rect x="0.707105" y="-2.98023e-08" width="143.37" height="143.37" transform="matrix(0.707105 -0.707108 0.707105 0.707108 111.464 148.844)" fill="url(#paint2_linear_249_371)" stroke="url(#paint3_linear_249_371)"/>
<path d="M193.819 158.336C187.743 158.336 183.207 154.108 183.207 148.2C183.207 142.292 187.743 138.064 193.847 138.064C197.235 138.064 200.063 139.296 201.911 141.536L198.999 144.224C197.683 142.712 196.031 141.928 194.071 141.928C190.403 141.928 187.799 144.504 187.799 148.2C187.799 151.896 190.403 154.472 194.071 154.472C196.031 154.472 197.683 153.688 198.999 152.148L201.911 154.836C200.063 157.104 197.235 158.336 193.819 158.336ZM208.922 154.36H219.59V158H204.414V138.4H219.226V142.04H208.922V146.296H218.022V149.824H208.922V154.36ZM232.076 158.336C225.888 158.336 221.352 154.024 221.352 148.2C221.352 142.376 225.888 138.064 232.076 138.064C238.236 138.064 242.8 142.348 242.8 148.2C242.8 154.052 238.236 158.336 232.076 158.336ZM232.076 154.472C235.576 154.472 238.208 151.924 238.208 148.2C238.208 144.476 235.576 141.928 232.076 141.928C228.576 141.928 225.944 144.476 225.944 148.2C225.944 151.924 228.576 154.472 232.076 154.472Z" fill="white"/>
<rect width="69.6218" height="69.6218" transform="matrix(0.707106 -0.707108 0.707106 0.707108 164.3 309.229)" fill="#3A8FFF"/>
<path d="M195.28 305.326H198.318V306.796H195.28V305.326ZM195.168 308H198.22V309.498H195.168V308ZM198.01 303.268H199.886V310.73H198.01V303.268ZM193.796 304.15H195.77C195.77 305.326 195.551 306.367 195.112 307.272C194.673 308.168 194.015 308.929 193.138 309.554C192.261 310.17 191.164 310.66 189.848 311.024L189.134 309.568C190.235 309.279 191.127 308.915 191.808 308.476C192.489 308.028 192.989 307.515 193.306 306.936C193.633 306.357 193.796 305.732 193.796 305.06V304.15ZM189.834 304.15H195.098V305.634H189.834V304.15ZM195.588 310.898C196.465 310.898 197.231 311.005 197.884 311.22C198.547 311.435 199.055 311.738 199.41 312.13C199.774 312.522 199.956 312.989 199.956 313.53C199.956 314.071 199.774 314.538 199.41 314.93C199.055 315.322 198.547 315.625 197.884 315.84C197.231 316.064 196.465 316.176 195.588 316.176C194.711 316.176 193.941 316.064 193.278 315.84C192.625 315.625 192.116 315.322 191.752 314.93C191.388 314.538 191.206 314.071 191.206 313.53C191.206 312.989 191.388 312.522 191.752 312.13C192.116 311.738 192.625 311.435 193.278 311.22C193.941 311.005 194.711 310.898 195.588 310.898ZM195.588 312.326C195.056 312.326 194.599 312.373 194.216 312.466C193.843 312.559 193.553 312.695 193.348 312.872C193.143 313.049 193.04 313.269 193.04 313.53C193.04 313.791 193.143 314.015 193.348 314.202C193.553 314.379 193.843 314.515 194.216 314.608C194.599 314.692 195.056 314.734 195.588 314.734C196.12 314.734 196.573 314.692 196.946 314.608C197.319 314.515 197.609 314.379 197.814 314.202C198.019 314.015 198.122 313.791 198.122 313.53C198.122 313.269 198.019 313.049 197.814 312.872C197.609 312.695 197.319 312.559 196.946 312.466C196.573 312.373 196.12 312.326 195.588 312.326ZM207.361 304.962H211.197V306.46H207.361V304.962ZM207.361 307.846H211.197V309.33H207.361V307.846ZM205.205 303.968C205.858 303.968 206.442 304.108 206.955 304.388C207.468 304.659 207.874 305.032 208.173 305.508C208.481 305.984 208.635 306.53 208.635 307.146C208.635 307.753 208.481 308.294 208.173 308.77C207.874 309.246 207.468 309.624 206.955 309.904C206.442 310.175 205.858 310.31 205.205 310.31C204.57 310.31 203.992 310.175 203.469 309.904C202.956 309.624 202.545 309.246 202.237 308.77C201.938 308.294 201.789 307.753 201.789 307.146C201.789 306.53 201.938 305.984 202.237 305.508C202.545 305.032 202.956 304.659 203.469 304.388C203.992 304.108 204.57 303.968 205.205 303.968ZM205.205 305.536C204.897 305.536 204.617 305.601 204.365 305.732C204.113 305.853 203.912 306.035 203.763 306.278C203.623 306.511 203.553 306.801 203.553 307.146C203.553 307.473 203.623 307.757 203.763 308C203.912 308.243 204.113 308.429 204.365 308.56C204.617 308.681 204.897 308.742 205.205 308.742C205.532 308.742 205.816 308.681 206.059 308.56C206.311 308.429 206.507 308.243 206.647 308C206.787 307.757 206.857 307.473 206.857 307.146C206.857 306.801 206.787 306.511 206.647 306.278C206.507 306.035 206.311 305.853 206.059 305.732C205.816 305.601 205.532 305.536 205.205 305.536ZM210.609 303.282H212.485V310.87H210.609V303.282ZM208.089 311.136C209.004 311.136 209.788 311.239 210.441 311.444C211.104 311.64 211.617 311.929 211.981 312.312C212.345 312.695 212.527 313.152 212.527 313.684C212.527 314.216 212.345 314.673 211.981 315.056C211.617 315.448 211.104 315.742 210.441 315.938C209.788 316.143 209.004 316.246 208.089 316.246C207.174 316.246 206.386 316.143 205.723 315.938C205.06 315.742 204.547 315.448 204.183 315.056C203.828 314.673 203.651 314.216 203.651 313.684C203.651 313.152 203.828 312.695 204.183 312.312C204.547 311.929 205.06 311.64 205.723 311.444C206.386 311.239 207.174 311.136 208.089 311.136ZM208.089 312.564C207.529 312.564 207.053 312.606 206.661 312.69C206.269 312.774 205.975 312.9 205.779 313.068C205.583 313.227 205.485 313.432 205.485 313.684C205.485 313.936 205.583 314.146 205.779 314.314C205.975 314.482 206.269 314.608 206.661 314.692C207.053 314.767 207.529 314.804 208.089 314.804C208.658 314.804 209.134 314.767 209.517 314.692C209.909 314.608 210.203 314.482 210.399 314.314C210.595 314.146 210.693 313.936 210.693 313.684C210.693 313.432 210.595 313.227 210.399 313.068C210.203 312.9 209.909 312.774 209.517 312.69C209.134 312.606 208.658 312.564 208.089 312.564ZM223.166 303.268H225.028V316.232H223.166V303.268ZM219.344 304.612H221.178C221.178 305.601 221.08 306.549 220.884 307.454C220.697 308.35 220.38 309.195 219.932 309.988C219.493 310.781 218.886 311.519 218.112 312.2C217.346 312.872 216.39 313.488 215.242 314.048L214.262 312.578C215.512 311.971 216.506 311.304 217.244 310.576C217.99 309.839 218.527 309.008 218.854 308.084C219.18 307.151 219.344 306.105 219.344 304.948V304.612ZM214.962 304.612H220.212V306.096H214.962V304.612ZM227.267 304.22H234.869V305.564H227.267V304.22ZM231.061 305.872C231.714 305.872 232.279 305.951 232.755 306.11C233.24 306.269 233.618 306.493 233.889 306.782C234.159 307.071 234.295 307.412 234.295 307.804C234.295 308.205 234.159 308.551 233.889 308.84C233.618 309.129 233.24 309.358 232.755 309.526C232.279 309.685 231.714 309.764 231.061 309.764C230.417 309.764 229.852 309.685 229.367 309.526C228.891 309.358 228.517 309.129 228.247 308.84C227.985 308.551 227.855 308.205 227.855 307.804C227.855 307.412 227.985 307.071 228.247 306.782C228.517 306.493 228.891 306.269 229.367 306.11C229.852 305.951 230.417 305.872 231.061 305.872ZM231.061 307.104C230.631 307.104 230.281 307.165 230.011 307.286C229.749 307.398 229.619 307.571 229.619 307.804C229.619 308.037 229.749 308.219 230.011 308.35C230.281 308.471 230.631 308.532 231.061 308.532C231.499 308.532 231.849 308.471 232.111 308.35C232.381 308.219 232.517 308.037 232.517 307.804C232.517 307.571 232.381 307.398 232.111 307.286C231.849 307.165 231.499 307.104 231.061 307.104ZM230.137 303.184H232.013V304.906H230.137V303.184ZM230.137 309.064H232.013V310.87H230.137V309.064ZM235.765 303.282H237.627V312.074H235.765V303.282ZM228.667 312.564H237.627V316.246H235.765V314.006H228.667V312.564ZM227.113 311.808L226.903 310.394C227.687 310.394 228.531 310.389 229.437 310.38C230.351 310.371 231.285 310.343 232.237 310.296C233.198 310.24 234.117 310.156 234.995 310.044L235.135 311.304C234.22 311.453 233.291 311.565 232.349 311.64C231.406 311.715 230.487 311.761 229.591 311.78C228.704 311.799 227.878 311.808 227.113 311.808Z" fill="white"/>
<rect x="1.41421" y="-5.96046e-08" width="67.6218" height="67.6218" transform="matrix(0.707106 -0.707108 0.707106 0.707108 55.11 311.771)" fill="white" stroke="#D9D9D9" stroke-width="2"/>
<path d="M82.5745 316.168C81.0205 316.168 79.4525 315.706 78.5845 315.034L79.3545 313.326C80.1805 313.928 81.4125 314.348 82.5885 314.348C83.9325 314.348 84.4785 313.9 84.4785 313.298C84.4785 311.464 78.7805 312.724 78.7805 309.084C78.7805 307.418 80.1245 306.032 82.9105 306.032C84.1425 306.032 85.4025 306.326 86.3125 306.9L85.6125 308.622C84.7025 308.104 83.7645 307.852 82.8965 307.852C81.5525 307.852 81.0345 308.356 81.0345 308.972C81.0345 310.778 86.7325 309.532 86.7325 313.13C86.7325 314.768 85.3745 316.168 82.5745 316.168ZM88.0023 316V306.2H90.2703V316H88.0023ZM104.723 314.782L103.533 316.168L102.357 315.076C101.461 315.776 100.341 316.168 99.0809 316.168C96.9249 316.168 95.3429 315.048 95.3429 313.48C95.3429 312.248 96.0009 311.394 97.4989 310.554C96.7849 309.812 96.4909 309.182 96.4909 308.482C96.4909 307.054 97.6949 306.074 99.5429 306.074C101.237 306.074 102.357 306.942 102.357 308.328C102.357 309.336 101.769 310.078 100.439 310.806L102.231 312.472C102.441 312.038 102.609 311.52 102.721 310.946L104.471 311.492C104.289 312.332 103.995 313.088 103.575 313.718L104.723 314.782ZM99.5429 307.558C98.8709 307.558 98.4789 307.936 98.4789 308.454C98.4789 308.832 98.6329 309.112 99.2349 309.7C100.201 309.182 100.509 308.818 100.509 308.37C100.509 307.894 100.173 307.558 99.5429 307.558ZM99.2349 314.46C99.9069 314.46 100.537 314.264 101.069 313.886L98.7029 311.674C97.8069 312.192 97.4849 312.64 97.4849 313.242C97.4849 313.956 98.1569 314.46 99.2349 314.46ZM112.811 316.168C111.257 316.168 109.689 315.706 108.821 315.034L109.591 313.326C110.417 313.928 111.649 314.348 112.825 314.348C114.169 314.348 114.715 313.9 114.715 313.298C114.715 311.464 109.017 312.724 109.017 309.084C109.017 307.418 110.361 306.032 113.147 306.032C114.379 306.032 115.639 306.326 116.549 306.9L115.849 308.622C114.939 308.104 114.001 307.852 113.133 307.852C111.789 307.852 111.271 308.356 111.271 308.972C111.271 310.778 116.969 309.532 116.969 313.13C116.969 314.768 115.611 316.168 112.811 316.168ZM129.285 316H127.157L127.143 310.12L124.259 314.964H123.237L120.367 310.246V316H118.239V306.2H120.115L123.783 312.29L127.395 306.2H129.257L129.285 316Z" fill="#2F80EB"/>
<rect x="-1.41421" y="-5.96046e-08" width="67.6218" height="67.6218" transform="matrix(-0.707106 -0.707108 -0.707106 0.707108 369.741 309.771)" fill="white" stroke="#D9D9D9" stroke-width="2"/>
<path d="M309.989 308.002L309.183 306.052H304.958L304.152 308.002H301.994L306.05 298.902H308.13L312.199 308.002H309.989ZM305.634 304.453H308.52L307.077 300.969L305.634 304.453ZM312.883 308.002V298.902H314.989V308.002H312.883ZM326.563 299.682H328.76V301.06H326.563V299.682ZM326.537 302.048H328.734V303.426H326.537V302.048ZM319.79 298.122H326.407V299.487H319.79V298.122ZM323.17 299.851C323.725 299.851 324.215 299.942 324.639 300.124C325.064 300.306 325.398 300.562 325.64 300.891C325.883 301.22 326.004 301.602 326.004 302.035C326.004 302.46 325.883 302.837 325.64 303.166C325.398 303.495 325.064 303.751 324.639 303.933C324.215 304.115 323.725 304.206 323.17 304.206C322.624 304.206 322.139 304.115 321.714 303.933C321.29 303.751 320.956 303.495 320.713 303.166C320.471 302.837 320.349 302.46 320.349 302.035C320.349 301.602 320.471 301.22 320.713 300.891C320.956 300.562 321.29 300.306 321.714 300.124C322.139 299.942 322.624 299.851 323.17 299.851ZM323.17 301.112C322.806 301.112 322.512 301.194 322.286 301.359C322.07 301.515 321.961 301.74 321.961 302.035C321.961 302.33 322.07 302.559 322.286 302.724C322.512 302.88 322.806 302.958 323.17 302.958C323.534 302.958 323.829 302.88 324.054 302.724C324.28 302.559 324.392 302.33 324.392 302.035C324.392 301.74 324.28 301.515 324.054 301.359C323.829 301.194 323.534 301.112 323.17 301.112ZM322.312 297.017H324.054V299.071H322.312V297.017ZM328.097 297.121H329.839V304.284H328.097V297.121ZM321.779 304.739H323.482V305.61H328.123V304.739H329.839V309.029H321.779V304.739ZM323.482 306.884V307.69H328.123V306.884H323.482ZM337.547 299.773H340.563V301.164H337.547V299.773ZM334.778 297.615C335.385 297.615 335.927 297.741 336.403 297.992C336.889 298.235 337.27 298.573 337.547 299.006C337.825 299.431 337.963 299.925 337.963 300.488C337.963 301.043 337.825 301.537 337.547 301.97C337.27 302.403 336.889 302.746 336.403 302.997C335.927 303.24 335.385 303.361 334.778 303.361C334.18 303.361 333.639 303.24 333.153 302.997C332.677 302.746 332.3 302.403 332.022 301.97C331.745 301.537 331.606 301.043 331.606 300.488C331.606 299.925 331.745 299.431 332.022 299.006C332.3 298.573 332.677 298.235 333.153 297.992C333.639 297.741 334.18 297.615 334.778 297.615ZM334.778 299.045C334.484 299.045 334.219 299.101 333.985 299.214C333.76 299.327 333.582 299.491 333.452 299.708C333.322 299.925 333.257 300.185 333.257 300.488C333.257 300.783 333.322 301.038 333.452 301.255C333.582 301.472 333.76 301.636 333.985 301.749C334.219 301.862 334.484 301.918 334.778 301.918C335.073 301.918 335.333 301.862 335.558 301.749C335.792 301.636 335.974 301.472 336.104 301.255C336.234 301.038 336.299 300.783 336.299 300.488C336.299 300.185 336.234 299.925 336.104 299.708C335.974 299.491 335.792 299.327 335.558 299.214C335.333 299.101 335.073 299.045 334.778 299.045ZM339.796 297.121H341.538V303.582H339.796V297.121ZM333.543 304.115H335.259V305.246H339.822V304.115H341.538V309.029H333.543V304.115ZM335.259 306.572V307.651H339.822V306.572H335.259ZM298.016 316.878H301.188V318.269H298.016V316.878ZM294.74 314.031H296.131V315.786C296.131 316.54 296.066 317.272 295.936 317.983C295.806 318.694 295.606 319.357 295.338 319.972C295.069 320.587 294.727 321.129 294.311 321.597C293.903 322.065 293.418 322.442 292.855 322.728L291.776 321.35C292.287 321.107 292.725 320.791 293.089 320.401C293.461 320.011 293.769 319.569 294.012 319.075C294.263 318.572 294.445 318.044 294.558 317.489C294.679 316.926 294.74 316.358 294.74 315.786V314.031ZM295.091 314.031H296.469V315.786C296.469 316.349 296.525 316.908 296.638 317.463C296.75 318.009 296.919 318.52 297.145 318.997C297.379 319.474 297.678 319.898 298.042 320.271C298.406 320.635 298.839 320.93 299.342 321.155L298.302 322.533C297.738 322.256 297.253 321.892 296.846 321.441C296.438 320.982 296.105 320.457 295.845 319.868C295.593 319.279 295.403 318.637 295.273 317.944C295.151 317.251 295.091 316.531 295.091 315.786V314.031ZM300.317 313.095H302.046V325.172H300.317V313.095ZM311.899 313.095H313.628V325.172H311.899V313.095ZM304.229 314.057H305.945V316.995H308.441V314.057H310.157V322.364H304.229V314.057ZM305.945 318.334V320.986H308.441V318.334H305.945ZM319.815 313.81H321.31V314.681C321.31 315.201 321.236 315.708 321.089 316.202C320.95 316.687 320.742 317.147 320.465 317.58C320.187 318.013 319.845 318.408 319.438 318.763C319.039 319.11 318.58 319.409 318.06 319.66C317.54 319.911 316.968 320.098 316.344 320.219L315.603 318.776C316.14 318.681 316.63 318.538 317.072 318.347C317.522 318.148 317.917 317.909 318.255 317.632C318.593 317.355 318.879 317.056 319.113 316.735C319.347 316.406 319.52 316.068 319.633 315.721C319.754 315.366 319.815 315.019 319.815 314.681V313.81ZM320.153 313.81H321.661V314.681C321.661 315.028 321.717 315.379 321.83 315.734C321.951 316.089 322.124 316.432 322.35 316.761C322.584 317.082 322.87 317.376 323.208 317.645C323.546 317.914 323.936 318.148 324.378 318.347C324.82 318.538 325.318 318.681 325.873 318.776L325.132 320.219C324.508 320.098 323.936 319.911 323.416 319.66C322.896 319.409 322.432 319.11 322.025 318.763C321.626 318.416 321.284 318.026 320.998 317.593C320.72 317.16 320.508 316.696 320.361 316.202C320.222 315.708 320.153 315.201 320.153 314.681V313.81ZM315.343 322.273H326.25V323.69H315.343V322.273ZM335.897 314.785H339.446V316.176H335.897V314.785ZM335.897 317.71H339.446V319.101H335.897V317.71ZM338.796 313.121H340.538V321.922H338.796V313.121ZM332.582 323.56H340.811V324.951H332.582V323.56ZM332.582 321.064H334.311V324.288H332.582V321.064ZM333.778 313.836C334.376 313.836 334.914 313.97 335.39 314.239C335.876 314.499 336.257 314.863 336.534 315.331C336.82 315.799 336.963 316.336 336.963 316.943C336.963 317.541 336.82 318.078 336.534 318.555C336.257 319.023 335.876 319.391 335.39 319.66C334.914 319.929 334.376 320.063 333.778 320.063C333.189 320.063 332.652 319.929 332.166 319.66C331.69 319.391 331.308 319.023 331.022 318.555C330.745 318.078 330.606 317.541 330.606 316.943C330.606 316.336 330.745 315.799 331.022 315.331C331.308 314.863 331.69 314.499 332.166 314.239C332.652 313.97 333.189 313.836 333.778 313.836ZM333.778 315.344C333.492 315.344 333.232 315.409 332.998 315.539C332.764 315.669 332.578 315.855 332.439 316.098C332.309 316.332 332.244 316.614 332.244 316.943C332.244 317.281 332.309 317.571 332.439 317.814C332.578 318.048 332.764 318.23 332.998 318.36C333.232 318.481 333.492 318.542 333.778 318.542C334.073 318.542 334.333 318.481 334.558 318.36C334.792 318.23 334.974 318.048 335.104 317.814C335.243 317.571 335.312 317.281 335.312 316.943C335.312 316.614 335.243 316.332 335.104 316.098C334.974 315.855 334.792 315.669 334.558 315.539C334.333 315.409 334.073 315.344 333.778 315.344ZM343.41 313.81H350.95V315.175H343.41V313.81ZM342.162 318.932H353.056V320.336H342.162V318.932ZM346.673 319.92H348.415V325.159H346.673V319.92ZM350.066 313.81H351.769V314.876C351.769 315.309 351.761 315.769 351.743 316.254C351.735 316.739 351.7 317.272 351.639 317.853C351.579 318.425 351.466 319.066 351.301 319.777L349.611 319.569C349.837 318.572 349.967 317.701 350.001 316.956C350.045 316.202 350.066 315.509 350.066 314.876V313.81Z" fill="#2F80EB"/>
<g filter="url(#filter2_d_249_371)">
<rect width="69.6218" height="69.6218" transform="matrix(0.707106 -0.707108 0.707106 0.707108 55 203.232)" fill="#3A8FFF"/>
<path d="M75.0281 203.27C76.0421 203.595 76.6921 204.375 76.6921 205.519C76.6921 207.092 75.4441 208.002 73.0521 208.002H68.3461V198.902H72.7921C75.0671 198.902 76.2371 199.851 76.2371 201.268C76.2371 202.178 75.7691 202.88 75.0281 203.27ZM72.5321 200.488H70.4391V202.633H72.5321C73.5591 202.633 74.1181 202.269 74.1181 201.554C74.1181 200.839 73.5591 200.488 72.5321 200.488ZM72.8961 206.416C73.9881 206.416 74.5731 206.078 74.5731 205.298C74.5731 204.531 73.9881 204.167 72.8961 204.167H70.4391V206.416H72.8961ZM78.8975 200.033C78.1435 200.033 77.6365 199.539 77.6365 198.902C77.6365 198.265 78.1435 197.771 78.8975 197.771C79.6515 197.771 80.1585 198.239 80.1585 198.863C80.1585 199.539 79.6515 200.033 78.8975 200.033ZM77.8835 208.002V201.008H79.9115V208.002H77.8835ZM83.6136 206.442H87.2926V208.002H81.0526V206.78L84.6146 202.568H81.1436V201.008H87.1756V202.23L83.6136 206.442ZM94.0549 198.044H95.4459V199.786C95.4459 200.531 95.3809 201.259 95.2509 201.97C95.1209 202.672 94.9172 203.326 94.6399 203.933C94.3712 204.54 94.0289 205.081 93.6129 205.558C93.1969 206.026 92.7072 206.399 92.1439 206.676L91.1039 205.285C91.6152 205.051 92.0529 204.739 92.4169 204.349C92.7895 203.959 93.0972 203.517 93.3399 203.023C93.5825 202.529 93.7602 202.009 93.8729 201.463C93.9942 200.908 94.0549 200.349 94.0549 199.786V198.044ZM94.3929 198.044H95.7839V199.786C95.7839 200.332 95.8359 200.869 95.9399 201.398C96.0525 201.927 96.2215 202.429 96.4469 202.906C96.6809 203.374 96.9712 203.794 97.3179 204.167C97.6645 204.54 98.0805 204.847 98.5659 205.09L97.5129 206.468C96.9755 206.191 96.5075 205.827 96.1089 205.376C95.7189 204.917 95.3982 204.392 95.1469 203.803C94.8955 203.205 94.7049 202.568 94.5749 201.892C94.4535 201.207 94.3929 200.505 94.3929 199.786V198.044ZM99.0339 197.121H100.776V209.159H99.0339V197.121ZM100.399 201.749H102.518V203.179H100.399V201.749ZM109.134 199.773H112.15V201.164H109.134V199.773ZM106.365 197.615C106.972 197.615 107.513 197.741 107.99 197.992C108.475 198.235 108.857 198.573 109.134 199.006C109.411 199.431 109.55 199.925 109.55 200.488C109.55 201.043 109.411 201.537 109.134 201.97C108.857 202.403 108.475 202.746 107.99 202.997C107.513 203.24 106.972 203.361 106.365 203.361C105.767 203.361 105.225 203.24 104.74 202.997C104.263 202.746 103.886 202.403 103.609 201.97C103.332 201.537 103.193 201.043 103.193 200.488C103.193 199.925 103.332 199.431 103.609 199.006C103.886 198.573 104.263 198.235 104.74 197.992C105.225 197.741 105.767 197.615 106.365 197.615ZM106.365 199.045C106.07 199.045 105.806 199.101 105.572 199.214C105.347 199.327 105.169 199.491 105.039 199.708C104.909 199.925 104.844 200.185 104.844 200.488C104.844 200.783 104.909 201.038 105.039 201.255C105.169 201.472 105.347 201.636 105.572 201.749C105.806 201.862 106.07 201.918 106.365 201.918C106.66 201.918 106.92 201.862 107.145 201.749C107.379 201.636 107.561 201.472 107.691 201.255C107.821 201.038 107.886 200.783 107.886 200.488C107.886 200.185 107.821 199.925 107.691 199.708C107.561 199.491 107.379 199.327 107.145 199.214C106.92 199.101 106.66 199.045 106.365 199.045ZM111.383 197.121H113.125V203.582H111.383V197.121ZM105.13 204.115H106.846V205.246H111.409V204.115H113.125V209.029H105.13V204.115ZM106.846 206.572V207.651H111.409V206.572H106.846ZM118.17 204.037H129.064V205.402H118.17V204.037ZM122.707 204.726H124.436V209.159H122.707V204.726ZM119.405 197.576H121.121V198.941H126.074V197.576H127.777V202.893H119.405V197.576ZM121.121 200.293V201.528H126.074V200.293H121.121ZM129.856 203.062H140.763V204.427H129.856V203.062ZM134.588 203.92H136.317V206.455H134.588V203.92ZM131.195 197.615H139.372V202.1H131.195V197.615ZM137.669 198.967H132.898V200.735H137.669V198.967ZM131.117 207.56H139.554V208.951H131.117V207.56ZM131.117 205.441H132.846V208.028H131.117V205.441Z" fill="white"/>
</g>
<g filter="url(#filter3_d_249_371)">
<rect width="69.6218" height="69.6218" transform="matrix(-0.707106 -0.707108 -0.707106 0.707108 372.46 203.23)" fill="#3A8FFF"/>
<path d="M307.088 189.106H308.817V201.144H307.088V189.106ZM303.539 190.354H305.242C305.242 191.273 305.151 192.152 304.969 192.993C304.796 193.825 304.501 194.609 304.085 195.346C303.678 196.083 303.115 196.767 302.395 197.4C301.685 198.024 300.796 198.596 299.73 199.116L298.82 197.751C299.982 197.188 300.905 196.568 301.589 195.892C302.283 195.207 302.781 194.436 303.084 193.578C303.388 192.711 303.539 191.741 303.539 190.666V190.354ZM299.47 190.354H304.345V191.732H299.47V190.354ZM316.577 191.771H319.593V193.162H316.577V191.771ZM313.808 189.613C314.415 189.613 314.957 189.739 315.433 189.99C315.919 190.233 316.3 190.571 316.577 191.004C316.855 191.429 316.993 191.923 316.993 192.486C316.993 193.041 316.855 193.535 316.577 193.968C316.3 194.401 315.919 194.744 315.433 194.995C314.957 195.238 314.415 195.359 313.808 195.359C313.21 195.359 312.669 195.238 312.183 194.995C311.707 194.744 311.33 194.401 311.052 193.968C310.775 193.535 310.636 193.041 310.636 192.486C310.636 191.923 310.775 191.429 311.052 191.004C311.33 190.571 311.707 190.233 312.183 189.99C312.669 189.739 313.21 189.613 313.808 189.613ZM313.808 191.043C313.514 191.043 313.249 191.099 313.015 191.212C312.79 191.325 312.612 191.489 312.482 191.706C312.352 191.923 312.287 192.183 312.287 192.486C312.287 192.781 312.352 193.036 312.482 193.253C312.612 193.47 312.79 193.634 313.015 193.747C313.249 193.86 313.514 193.916 313.808 193.916C314.103 193.916 314.363 193.86 314.588 193.747C314.822 193.634 315.004 193.47 315.134 193.253C315.264 193.036 315.329 192.781 315.329 192.486C315.329 192.183 315.264 191.923 315.134 191.706C315.004 191.489 314.822 191.325 314.588 191.212C314.363 191.099 314.103 191.043 313.808 191.043ZM318.826 189.119H320.568V195.58H318.826V189.119ZM312.573 196.113H314.289V197.244H318.852V196.113H320.568V201.027H312.573V196.113ZM314.289 198.57V199.649H318.852V198.57H314.289ZM325.614 196.035H336.508V197.4H325.614V196.035ZM330.151 196.724H331.88V201.157H330.151V196.724ZM326.849 189.574H328.565V190.939H333.518V189.574H335.221V194.891H326.849V189.574ZM328.565 192.291V193.526H333.518V192.291H328.565ZM343.449 190.874H346.413V192.252H343.449V190.874ZM345.646 189.119H347.388V195.229H345.646V189.119ZM339.432 195.723H347.388V198.973H341.161V200.481H339.445V197.725H345.672V197.062H339.432V195.723ZM339.445 199.675H347.726V201.027H339.445V199.675ZM340.056 189.496H341.46V190.367C341.46 191.112 341.338 191.819 341.096 192.486C340.862 193.153 340.498 193.734 340.004 194.228C339.51 194.713 338.877 195.077 338.106 195.32L337.222 193.968C337.889 193.76 338.431 193.474 338.847 193.11C339.263 192.737 339.566 192.313 339.757 191.836C339.956 191.359 340.056 190.87 340.056 190.367V189.496ZM340.407 189.496H341.798V190.367C341.798 190.714 341.85 191.06 341.954 191.407C342.066 191.754 342.231 192.079 342.448 192.382C342.664 192.685 342.942 192.954 343.28 193.188C343.626 193.422 344.034 193.613 344.502 193.76L343.618 195.086C342.89 194.852 342.287 194.501 341.811 194.033C341.334 193.565 340.979 193.015 340.745 192.382C340.519 191.749 340.407 191.078 340.407 190.367V189.496ZM311.789 206.783H315.338V208.174H311.789V206.783ZM311.789 209.708H315.338V211.099H311.789V209.708ZM314.688 205.119H316.43V213.92H314.688V205.119ZM308.474 215.558H316.703V216.949H308.474V215.558ZM308.474 213.062H310.203V216.286H308.474V213.062ZM309.67 205.834C310.268 205.834 310.805 205.968 311.282 206.237C311.767 206.497 312.148 206.861 312.426 207.329C312.712 207.797 312.855 208.334 312.855 208.941C312.855 209.539 312.712 210.076 312.426 210.553C312.148 211.021 311.767 211.389 311.282 211.658C310.805 211.927 310.268 212.061 309.67 212.061C309.08 212.061 308.543 211.927 308.058 211.658C307.581 211.389 307.2 211.021 306.914 210.553C306.636 210.076 306.498 209.539 306.498 208.941C306.498 208.334 306.636 207.797 306.914 207.329C307.2 206.861 307.581 206.497 308.058 206.237C308.543 205.968 309.08 205.834 309.67 205.834ZM309.67 207.342C309.384 207.342 309.124 207.407 308.89 207.537C308.656 207.667 308.469 207.853 308.331 208.096C308.201 208.33 308.136 208.612 308.136 208.941C308.136 209.279 308.201 209.569 308.331 209.812C308.469 210.046 308.656 210.228 308.89 210.358C309.124 210.479 309.384 210.54 309.67 210.54C309.964 210.54 310.224 210.479 310.45 210.358C310.684 210.228 310.866 210.046 310.996 209.812C311.134 209.569 311.204 209.279 311.204 208.941C311.204 208.612 311.134 208.33 310.996 208.096C310.866 207.853 310.684 207.667 310.45 207.537C310.224 207.407 309.964 207.342 309.67 207.342ZM319.302 205.808H326.842V207.173H319.302V205.808ZM318.054 210.93H328.948V212.334H318.054V210.93ZM322.565 211.918H324.307V217.157H322.565V211.918ZM325.958 205.808H327.661V206.874C327.661 207.307 327.652 207.767 327.635 208.252C327.626 208.737 327.591 209.27 327.531 209.851C327.47 210.423 327.357 211.064 327.193 211.775L325.503 211.567C325.728 210.57 325.858 209.699 325.893 208.954C325.936 208.2 325.958 207.507 325.958 206.874V205.808ZM329.752 214.336H340.659V215.74H329.752V214.336ZM334.276 211.658H336.005V214.713H334.276V211.658ZM334.224 205.782H335.732V206.653C335.732 207.164 335.659 207.658 335.511 208.135C335.373 208.612 335.16 209.062 334.874 209.487C334.597 209.912 334.255 210.297 333.847 210.644C333.44 210.982 332.972 211.272 332.443 211.515C331.923 211.758 331.347 211.935 330.714 212.048L329.999 210.605C330.554 210.518 331.052 210.38 331.494 210.189C331.936 209.998 332.326 209.773 332.664 209.513C333.011 209.244 333.297 208.954 333.522 208.642C333.756 208.321 333.93 207.992 334.042 207.654C334.164 207.316 334.224 206.982 334.224 206.653V205.782ZM334.549 205.782H336.07V206.653C336.07 206.991 336.127 207.329 336.239 207.667C336.361 208.005 336.534 208.33 336.759 208.642C336.993 208.954 337.279 209.244 337.617 209.513C337.955 209.773 338.345 209.998 338.787 210.189C339.238 210.38 339.736 210.518 340.282 210.605L339.567 212.048C338.935 211.927 338.358 211.749 337.838 211.515C337.318 211.272 336.855 210.982 336.447 210.644C336.04 210.306 335.693 209.929 335.407 209.513C335.13 209.088 334.918 208.638 334.77 208.161C334.623 207.676 334.549 207.173 334.549 206.653V205.782Z" fill="white"/>
</g>
<rect x="1.41421" y="-5.96046e-08" width="67.6218" height="67.6218" transform="matrix(0.707106 -0.707108 0.707106 0.707108 110.414 258.232)" fill="white" stroke="#D9D9D9" stroke-width="2"/>
<path d="M127.724 252.6H132.834V261H127.724V252.6ZM131.112 254.056H129.46V259.558H131.112V254.056ZM136.712 251.27H138.49V264.234H136.712V251.27ZM131.896 255.988H134.808V257.486H131.896V255.988ZM134.08 251.48H135.816V263.66H134.08V251.48ZM140.462 259.81H141.54C142.268 259.81 142.95 259.805 143.584 259.796C144.219 259.777 144.84 259.745 145.446 259.698C146.053 259.642 146.683 259.567 147.336 259.474L147.504 260.944C146.851 261.047 146.207 261.126 145.572 261.182C144.947 261.238 144.303 261.275 143.64 261.294C142.987 261.303 142.287 261.308 141.54 261.308H140.462V259.81ZM140.462 252.348H146.552V253.86H142.324V260.3H140.462V252.348ZM141.876 255.96H146.37V257.416H141.876V255.96ZM148.232 251.284H150.108V264.248H148.232V251.284ZM149.702 256.198H151.984V257.724H149.702V256.198ZM153.565 251.62H163.239V253.02H153.565V251.62ZM153.663 254.658H163.127V256.058H153.663V254.658ZM155.217 252.166H157.079V255.554H155.217V252.166ZM159.725 252.166H161.587V255.554H159.725V252.166ZM152.543 256.716H164.275V258.172H152.543V256.716ZM153.887 258.886H162.847V262.12H155.749V263.324H153.901V260.874H161.013V260.216H153.887V258.886ZM153.901 262.806H163.197V264.164H153.901V262.806ZM174.424 251.27H176.202V259.992H174.424V251.27ZM172.898 254.406H174.956V255.904H172.898V254.406ZM171.666 251.508H173.402V258.914H171.666V251.508ZM165.674 257.374H166.57C167.196 257.374 167.756 257.365 168.25 257.346C168.754 257.327 169.23 257.295 169.678 257.248C170.126 257.201 170.584 257.131 171.05 257.038L171.204 258.494C170.719 258.597 170.243 258.671 169.776 258.718C169.319 258.765 168.829 258.797 168.306 258.816C167.793 258.825 167.214 258.83 166.57 258.83H165.674V257.374ZM165.646 252.18H170.574V256.128H167.466V258.354H165.674V254.784H168.768V253.636H165.646V252.18ZM170.812 259.446H172.394V259.656C172.394 260.225 172.282 260.762 172.058 261.266C171.834 261.761 171.508 262.209 171.078 262.61C170.658 263.002 170.14 263.333 169.524 263.604C168.908 263.884 168.199 264.085 167.396 264.206L166.682 262.764C167.242 262.689 167.742 262.582 168.18 262.442C168.628 262.293 169.016 262.115 169.342 261.91C169.669 261.695 169.94 261.467 170.154 261.224C170.378 260.981 170.542 260.729 170.644 260.468C170.756 260.197 170.812 259.927 170.812 259.656V259.446ZM171.064 259.446H172.66V259.656C172.66 259.927 172.712 260.197 172.814 260.468C172.917 260.729 173.076 260.981 173.29 261.224C173.514 261.467 173.79 261.695 174.116 261.91C174.443 262.115 174.826 262.293 175.264 262.442C175.712 262.582 176.216 262.689 176.776 262.764L176.062 264.206C175.26 264.085 174.55 263.884 173.934 263.604C173.318 263.333 172.796 263.002 172.366 262.61C171.937 262.209 171.61 261.761 171.386 261.266C171.172 260.762 171.064 260.225 171.064 259.656V259.446ZM177.741 257.542H189.473V259.012H177.741V257.542ZM182.669 256.226H184.517V258.2H182.669V256.226ZM178.763 251.634H188.437V253.118H178.763V251.634ZM178.861 255.064H188.325V256.534H178.861V255.064ZM180.415 252.166H182.277V256.03H180.415V252.166ZM184.923 252.166H186.785V256.03H184.923V252.166ZM179.113 259.866H188.073V264.108H179.113V259.866ZM186.253 261.322H180.933V262.638H186.253V261.322Z" fill="#2F80EB"/>
<rect x="-1.41421" y="-5.96046e-08" width="67.6218" height="67.6218" transform="matrix(-0.707106 -0.707108 -0.707106 0.707108 316.046 256.229)" fill="white" stroke="#D9D9D9" stroke-width="2"/>
<path d="M237.612 254.243H242.722V262.643H237.612V254.243ZM241 255.699H239.348V261.201H241V255.699ZM246.6 252.913H248.378V265.877H246.6V252.913ZM241.784 257.631H244.696V259.129H241.784V257.631ZM243.968 253.123H245.704V265.303H243.968V253.123ZM250.351 261.453H251.429C252.157 261.453 252.838 261.448 253.473 261.439C254.107 261.42 254.728 261.387 255.335 261.341C255.941 261.285 256.571 261.21 257.225 261.117L257.393 262.587C256.739 262.689 256.095 262.769 255.461 262.825C254.835 262.881 254.191 262.918 253.529 262.937C252.875 262.946 252.175 262.951 251.429 262.951H250.351V261.453ZM250.351 253.991H256.441V255.503H252.213V261.943H250.351V253.991ZM251.765 257.603H256.259V259.059H251.765V257.603ZM258.121 252.927H259.997V265.891H258.121V252.927ZM259.591 257.841H261.873V259.367H259.591V257.841ZM263.454 253.263H273.128V254.663H263.454V253.263ZM263.552 256.301H273.016V257.701H263.552V256.301ZM265.106 253.809H266.968V257.197H265.106V253.809ZM269.614 253.809H271.476V257.197H269.614V253.809ZM262.432 258.359H274.164V259.815H262.432V258.359ZM263.776 260.529H272.736V263.763H265.638V264.967H263.79V262.517H270.902V261.859H263.776V260.529ZM263.79 264.449H273.086V265.807H263.79V264.449ZM284.312 252.913H286.09V261.635H284.312V252.913ZM282.786 256.049H284.844V257.547H282.786V256.049ZM281.554 253.151H283.29V260.557H281.554V253.151ZM275.562 259.017H276.458C277.084 259.017 277.644 259.007 278.138 258.989C278.642 258.97 279.118 258.937 279.566 258.891C280.014 258.844 280.472 258.774 280.938 258.681L281.092 260.137C280.607 260.239 280.131 260.314 279.664 260.361C279.207 260.407 278.717 260.44 278.194 260.459C277.681 260.468 277.102 260.473 276.458 260.473H275.562V259.017ZM275.534 253.823H280.462V257.771H277.354V259.997H275.562V256.427H278.656V255.279H275.534V253.823ZM280.7 261.089H282.282V261.299C282.282 261.868 282.17 262.405 281.946 262.909C281.722 263.403 281.396 263.851 280.966 264.253C280.546 264.645 280.028 264.976 279.412 265.247C278.796 265.527 278.087 265.727 277.284 265.849L276.57 264.407C277.13 264.332 277.63 264.225 278.068 264.085C278.516 263.935 278.904 263.758 279.23 263.553C279.557 263.338 279.828 263.109 280.042 262.867C280.266 262.624 280.43 262.372 280.532 262.111C280.644 261.84 280.7 261.569 280.7 261.299V261.089ZM280.952 261.089H282.548V261.299C282.548 261.569 282.6 261.84 282.702 262.111C282.805 262.372 282.964 262.624 283.178 262.867C283.402 263.109 283.678 263.338 284.004 263.553C284.331 263.758 284.714 263.935 285.152 264.085C285.6 264.225 286.104 264.332 286.664 264.407L285.95 265.849C285.148 265.727 284.438 265.527 283.822 265.247C283.206 264.976 282.684 264.645 282.254 264.253C281.825 263.851 281.498 263.403 281.274 262.909C281.06 262.405 280.952 261.868 280.952 261.299V261.089ZM287.629 259.185H299.361V260.655H287.629V259.185ZM292.557 257.869H294.405V259.843H292.557V257.869ZM288.651 253.277H298.325V254.761H288.651V253.277ZM288.749 256.707H298.213V258.177H288.749V256.707ZM290.303 253.809H292.165V257.673H290.303V253.809ZM294.811 253.809H296.673V257.673H294.811V253.809ZM289.001 261.509H297.961V265.751H289.001V261.509ZM296.141 262.965H290.821V264.281H296.141V262.965Z" fill="#2F80EB"/>
<rect x="1.41421" y="-5.96046e-08" width="67.6218" height="67.6218" transform="matrix(0.707106 -0.707108 0.707106 0.707108 0.414215 257.998)" fill="white" stroke="#D9D9D9" stroke-width="2"/>
<path d="M35.4327 262L34.5647 259.9H30.0147L29.1467 262H26.8227L31.1907 252.2H33.4307L37.8127 262H35.4327ZM30.7427 258.178H33.8507L32.2967 254.426L30.7427 258.178ZM38.5494 262V252.2H40.8174V262H38.5494ZM48.55 256.96H50.412V259.508H48.55V256.96ZM53.226 256.96H55.088V259.508H53.226V256.96ZM45.946 256.092H57.678V257.562H45.946V256.092ZM51.784 258.514C53.184 258.514 54.2853 258.719 55.088 259.13C55.8907 259.541 56.292 260.124 56.292 260.88C56.292 261.645 55.8907 262.233 55.088 262.644C54.2853 263.055 53.184 263.26 51.784 263.26C50.384 263.26 49.2827 263.055 48.48 262.644C47.6867 262.233 47.29 261.645 47.29 260.88C47.29 260.124 47.6867 259.541 48.48 259.13C49.2827 258.719 50.384 258.514 51.784 258.514ZM51.784 259.914C51.2053 259.914 50.72 259.951 50.328 260.026C49.9453 260.101 49.656 260.208 49.46 260.348C49.264 260.488 49.166 260.665 49.166 260.88C49.166 261.104 49.264 261.291 49.46 261.44C49.656 261.58 49.9453 261.683 50.328 261.748C50.72 261.813 51.2053 261.846 51.784 261.846C52.3627 261.846 52.8433 261.813 53.226 261.748C53.618 261.683 53.912 261.58 54.108 261.44C54.304 261.291 54.402 261.104 54.402 260.88C54.402 260.665 54.304 260.488 54.108 260.348C53.912 260.208 53.618 260.101 53.226 260.026C52.8433 259.951 52.3627 259.914 51.784 259.914ZM51.826 250.492C52.778 250.492 53.604 250.595 54.304 250.8C55.0133 250.996 55.5593 251.281 55.942 251.654C56.3247 252.027 56.516 252.471 56.516 252.984C56.516 253.497 56.3247 253.941 55.942 254.314C55.5593 254.687 55.0133 254.977 54.304 255.182C53.604 255.378 52.778 255.476 51.826 255.476C50.874 255.476 50.0433 255.378 49.334 255.182C48.6247 254.977 48.0787 254.687 47.696 254.314C47.3133 253.941 47.122 253.497 47.122 252.984C47.122 252.471 47.3133 252.027 47.696 251.654C48.0787 251.281 48.6247 250.996 49.334 250.8C50.0433 250.595 50.874 250.492 51.826 250.492ZM51.826 251.906C51.238 251.906 50.734 251.948 50.314 252.032C49.894 252.107 49.5767 252.223 49.362 252.382C49.1567 252.541 49.054 252.741 49.054 252.984C49.054 253.227 49.1567 253.427 49.362 253.586C49.5767 253.745 49.894 253.866 50.314 253.95C50.734 254.025 51.238 254.062 51.826 254.062C52.414 254.062 52.9133 254.025 53.324 253.95C53.7347 253.866 54.0473 253.745 54.262 253.586C54.4767 253.427 54.584 253.227 54.584 252.984C54.584 252.741 54.4767 252.541 54.262 252.382C54.0473 252.223 53.7347 252.107 53.324 252.032C52.9133 251.948 52.414 251.906 51.826 251.906ZM66.8889 250.282H68.7509V257.87H66.8889V250.282ZM68.0229 253.39H70.4729V254.916H68.0229V253.39ZM60.3229 258.374H62.1709V259.34H66.9169V258.374H68.7509V263.106H60.3229V258.374ZM62.1709 260.74V261.65H66.9169V260.74H62.1709ZM58.5589 251.402H66.1749V252.872H58.5589V251.402ZM62.3669 253.208C63.0016 253.208 63.5569 253.306 64.0329 253.502C64.5089 253.689 64.8823 253.955 65.1529 254.3C65.4236 254.645 65.5589 255.047 65.5589 255.504C65.5589 255.961 65.4236 256.363 65.1529 256.708C64.8823 257.053 64.5089 257.324 64.0329 257.52C63.5569 257.707 63.0016 257.8 62.3669 257.8C61.7416 257.8 61.1863 257.707 60.7009 257.52C60.2249 257.324 59.8516 257.053 59.5809 256.708C59.3103 256.363 59.1749 255.961 59.1749 255.504C59.1749 255.047 59.3103 254.645 59.5809 254.3C59.8516 253.955 60.2249 253.689 60.7009 253.502C61.1863 253.306 61.7416 253.208 62.3669 253.208ZM62.3669 254.566C61.9563 254.566 61.6203 254.65 61.3589 254.818C61.0976 254.977 60.9669 255.205 60.9669 255.504C60.9669 255.812 61.0976 256.05 61.3589 256.218C61.6203 256.377 61.9563 256.456 62.3669 256.456C62.7869 256.456 63.1229 256.377 63.3749 256.218C63.6363 256.05 63.7669 255.812 63.7669 255.504C63.7669 255.205 63.6363 254.977 63.3749 254.818C63.1229 254.65 62.7869 254.566 62.3669 254.566ZM61.4429 250.17H63.2909V252.214H61.4429V250.17Z" fill="#2F80EB"/>
<rect x="-1.41421" y="-5.96046e-08" width="67.6218" height="67.6218" transform="matrix(-0.707106 -0.707108 -0.707106 0.707108 424.436 255.998)" fill="white" stroke="#D9D9D9" stroke-width="2"/>
<path d="M350.374 245.16H360.43V246.444H350.374V245.16ZM354.562 246H356.158V250.068H354.562V246ZM355.378 239.328C356.17 239.328 356.866 239.432 357.466 239.64C358.074 239.84 358.546 240.128 358.882 240.504C359.218 240.88 359.386 241.32 359.386 241.824C359.386 242.336 359.218 242.78 358.882 243.156C358.546 243.524 358.074 243.812 357.466 244.02C356.866 244.22 356.17 244.32 355.378 244.32C354.586 244.32 353.886 244.22 353.278 244.02C352.678 243.812 352.206 243.524 351.862 243.156C351.526 242.78 351.358 242.336 351.358 241.824C351.358 241.32 351.526 240.88 351.862 240.504C352.206 240.128 352.678 239.84 353.278 239.64C353.886 239.432 354.586 239.328 355.378 239.328ZM355.366 240.588C354.886 240.588 354.466 240.636 354.106 240.732C353.754 240.828 353.482 240.968 353.29 241.152C353.098 241.328 353.002 241.552 353.002 241.824C353.002 242.088 353.098 242.312 353.29 242.496C353.482 242.68 353.754 242.82 354.106 242.916C354.466 243.004 354.886 243.048 355.366 243.048C355.862 243.048 356.286 243.004 356.638 242.916C356.99 242.82 357.262 242.68 357.454 242.496C357.654 242.312 357.754 242.088 357.754 241.824C357.754 241.552 357.654 241.328 357.454 241.152C357.262 240.968 356.99 240.828 356.638 240.732C356.286 240.636 355.862 240.588 355.366 240.588ZM365.277 240.18H366.669V240.516C366.669 240.9 366.605 241.272 366.477 241.632C366.357 241.992 366.173 242.328 365.925 242.64C365.677 242.944 365.373 243.22 365.013 243.468C364.661 243.708 364.253 243.912 363.789 244.08C363.325 244.248 362.809 244.368 362.241 244.44L361.653 243.204C362.149 243.14 362.589 243.044 362.973 242.916C363.365 242.78 363.705 242.624 363.993 242.448C364.281 242.264 364.521 242.068 364.713 241.86C364.905 241.652 365.045 241.432 365.133 241.2C365.229 240.968 365.277 240.74 365.277 240.516V240.18ZM365.745 240.18H367.125V240.516C367.125 240.74 367.169 240.968 367.257 241.2C367.353 241.432 367.497 241.652 367.689 241.86C367.881 242.068 368.121 242.264 368.409 242.448C368.705 242.624 369.045 242.78 369.429 242.916C369.813 243.044 370.253 243.14 370.749 243.204L370.161 244.44C369.593 244.368 369.077 244.248 368.613 244.08C368.149 243.912 367.737 243.708 367.377 243.468C367.025 243.22 366.725 242.944 366.477 242.64C366.237 242.328 366.053 241.992 365.925 241.632C365.805 241.272 365.745 240.9 365.745 240.516V240.18ZM365.361 246H366.957V250.068H365.361V246ZM361.173 245.076H371.229V246.36H361.173V245.076ZM362.061 239.52H370.305V240.78H362.061V239.52ZM379.112 238.956H380.708V246H379.112V238.956ZM380.276 241.788H382.184V243.084H380.276V241.788ZM377.108 246.108C377.868 246.108 378.528 246.188 379.088 246.348C379.648 246.508 380.076 246.736 380.372 247.032C380.676 247.328 380.828 247.68 380.828 248.088C380.828 248.504 380.676 248.86 380.372 249.156C380.076 249.452 379.648 249.676 379.088 249.828C378.528 249.988 377.868 250.068 377.108 250.068C376.34 250.068 375.676 249.988 375.116 249.828C374.556 249.676 374.124 249.452 373.82 249.156C373.516 248.86 373.364 248.504 373.364 248.088C373.364 247.68 373.516 247.328 373.82 247.032C374.124 246.736 374.556 246.508 375.116 246.348C375.676 246.188 376.34 246.108 377.108 246.108ZM377.108 247.32C376.404 247.32 375.868 247.384 375.5 247.512C375.14 247.632 374.96 247.824 374.96 248.088C374.96 248.36 375.14 248.56 375.5 248.688C375.868 248.816 376.404 248.88 377.108 248.88C377.804 248.88 378.332 248.816 378.692 248.688C379.06 248.56 379.244 248.36 379.244 248.088C379.244 247.824 379.06 247.632 378.692 247.512C378.332 247.384 377.804 247.32 377.108 247.32ZM371.972 240H378.5V241.248H371.972V240ZM375.236 241.62C375.78 241.62 376.256 241.704 376.664 241.872C377.072 242.032 377.392 242.264 377.624 242.568C377.856 242.864 377.972 243.212 377.972 243.612C377.972 244.004 377.856 244.352 377.624 244.656C377.392 244.952 377.072 245.184 376.664 245.352C376.256 245.512 375.78 245.592 375.236 245.592C374.7 245.592 374.224 245.512 373.808 245.352C373.4 245.184 373.08 244.952 372.848 244.656C372.616 244.352 372.5 244.004 372.5 243.612C372.5 243.212 372.616 242.864 372.848 242.568C373.08 242.264 373.4 242.032 373.808 241.872C374.224 241.704 374.7 241.62 375.236 241.62ZM375.236 242.772C374.884 242.772 374.596 242.844 374.372 242.988C374.148 243.124 374.036 243.332 374.036 243.612C374.036 243.884 374.148 244.088 374.372 244.224C374.596 244.36 374.884 244.428 375.236 244.428C375.596 244.428 375.884 244.36 376.1 244.224C376.324 244.088 376.436 243.884 376.436 243.612C376.436 243.332 376.324 243.124 376.1 242.988C375.884 242.844 375.596 242.772 375.236 242.772ZM374.444 238.872H376.028V240.672H374.444V238.872ZM387.727 245.868C388.527 245.868 389.223 245.952 389.815 246.12C390.407 246.288 390.863 246.528 391.183 246.84C391.511 247.152 391.675 247.528 391.675 247.968C391.675 248.4 391.511 248.772 391.183 249.084C390.863 249.404 390.407 249.648 389.815 249.816C389.223 249.984 388.527 250.068 387.727 250.068C386.935 250.068 386.243 249.984 385.651 249.816C385.059 249.648 384.599 249.404 384.271 249.084C383.951 248.772 383.791 248.4 383.791 247.968C383.791 247.528 383.951 247.152 384.271 246.84C384.599 246.528 385.059 246.288 385.651 246.12C386.243 245.952 386.935 245.868 387.727 245.868ZM387.727 247.068C387.231 247.068 386.807 247.1 386.455 247.164C386.103 247.228 385.835 247.328 385.651 247.464C385.475 247.6 385.387 247.768 385.387 247.968C385.387 248.168 385.475 248.336 385.651 248.472C385.835 248.6 386.103 248.7 386.455 248.772C386.807 248.836 387.231 248.868 387.727 248.868C388.231 248.868 388.659 248.836 389.011 248.772C389.363 248.7 389.631 248.6 389.815 248.472C389.999 248.336 390.091 248.168 390.091 247.968C390.091 247.768 389.999 247.6 389.815 247.464C389.631 247.328 389.363 247.228 389.011 247.164C388.659 247.1 388.231 247.068 387.727 247.068ZM383.911 239.448H390.955V240.696H383.911V239.448ZM382.795 243.912H392.791V245.172H382.795V243.912ZM386.491 241.968H388.087V244.224H386.491V241.968ZM390.019 239.448H391.615V240.36C391.615 240.8 391.603 241.26 391.579 241.74C391.555 242.22 391.463 242.748 391.303 243.324L389.719 243.168C389.871 242.6 389.959 242.096 389.983 241.656C390.007 241.216 390.019 240.784 390.019 240.36V239.448ZM395.826 242.664H397.41V244.704H395.826V242.664ZM399.726 242.664H401.322V244.704H399.726V242.664ZM393.558 244.224H403.614V245.472H393.558V244.224ZM398.562 246.036C399.762 246.036 400.706 246.212 401.394 246.564C402.082 246.908 402.426 247.404 402.426 248.052C402.426 248.692 402.082 249.188 401.394 249.54C400.706 249.892 399.762 250.068 398.562 250.068C397.362 250.068 396.418 249.892 395.73 249.54C395.05 249.188 394.71 248.692 394.71 248.052C394.71 247.404 395.05 246.908 395.73 246.564C396.418 246.212 397.362 246.036 398.562 246.036ZM398.562 247.236C398.066 247.236 397.65 247.268 397.314 247.332C396.986 247.388 396.738 247.476 396.57 247.596C396.402 247.716 396.318 247.868 396.318 248.052C396.318 248.236 396.402 248.392 396.57 248.52C396.738 248.64 396.986 248.728 397.314 248.784C397.65 248.84 398.066 248.868 398.562 248.868C399.058 248.868 399.47 248.84 399.798 248.784C400.134 248.728 400.386 248.64 400.554 248.52C400.722 248.392 400.806 248.236 400.806 248.052C400.806 247.868 400.722 247.716 400.554 247.596C400.386 247.476 400.134 247.388 399.798 247.332C399.47 247.268 399.058 247.236 398.562 247.236ZM398.586 239.112C399.41 239.112 400.122 239.2 400.722 239.376C401.33 239.544 401.798 239.788 402.126 240.108C402.454 240.428 402.618 240.808 402.618 241.248C402.618 241.688 402.454 242.068 402.126 242.388C401.798 242.7 401.33 242.944 400.722 243.12C400.122 243.288 399.41 243.372 398.586 243.372C397.778 243.372 397.07 243.288 396.462 243.12C395.854 242.944 395.386 242.7 395.058 242.388C394.73 242.068 394.566 241.688 394.566 241.248C394.566 240.808 394.73 240.428 395.058 240.108C395.386 239.788 395.854 239.544 396.462 239.376C397.07 239.2 397.778 239.112 398.586 239.112ZM398.586 240.324C398.09 240.324 397.662 240.36 397.302 240.432C396.942 240.496 396.67 240.596 396.486 240.732C396.31 240.868 396.222 241.04 396.222 241.248C396.222 241.448 396.31 241.616 396.486 241.752C396.67 241.888 396.942 241.992 397.302 242.064C397.662 242.128 398.09 242.16 398.586 242.16C399.098 242.16 399.53 242.128 399.882 242.064C400.234 241.992 400.502 241.888 400.686 241.752C400.87 241.616 400.962 241.448 400.962 241.248C400.962 241.04 400.87 240.868 400.686 240.732C400.502 240.596 400.234 240.496 399.882 240.432C399.53 240.36 399.098 240.324 398.586 240.324ZM350.643 255.6C352.887 255.6 354.291 256.764 354.291 258.648C354.291 260.52 352.887 261.684 350.643 261.684H348.951V264H347.007V255.6H350.643ZM350.535 260.1C351.723 260.1 352.323 259.56 352.323 258.648C352.323 257.724 351.723 257.184 350.535 257.184H348.951V260.1H350.535ZM361.199 255.6H363.143V264H361.199V260.556H357.383V264H355.439V255.6H357.383V258.912H361.199V255.6ZM372.187 255.6L368.923 261.024V264H366.979V261L363.727 255.6H365.791L368.035 259.332L370.279 255.6H372.187ZM383.358 264H381.27L379.65 261.66H379.554H377.862V264H375.918V255.6H379.554C381.798 255.6 383.202 256.764 383.202 258.648C383.202 259.908 382.566 260.832 381.474 261.3L383.358 264ZM381.234 258.648C381.234 257.724 380.634 257.184 379.446 257.184H377.862V260.112H379.446C380.634 260.112 381.234 259.56 381.234 258.648ZM386.126 264V257.184H383.438V255.6H390.758V257.184H388.07V264H386.126ZM395.514 264.144C392.862 264.144 390.918 262.296 390.918 259.8C390.918 257.304 392.862 255.456 395.514 255.456C398.154 255.456 400.11 257.292 400.11 259.8C400.11 262.308 398.154 264.144 395.514 264.144ZM395.514 262.488C397.014 262.488 398.142 261.396 398.142 259.8C398.142 258.204 397.014 257.112 395.514 257.112C394.014 257.112 392.886 258.204 392.886 259.8C392.886 261.396 394.014 262.488 395.514 262.488ZM404.091 264.144C402.759 264.144 401.415 263.748 400.671 263.172L401.331 261.708C402.039 262.224 403.095 262.584 404.103 262.584C405.255 262.584 405.723 262.2 405.723 261.684C405.723 260.112 400.839 261.192 400.839 258.072C400.839 256.644 401.991 255.456 404.379 255.456C405.435 255.456 406.515 255.708 407.295 256.2L406.695 257.676C405.915 257.232 405.111 257.016 404.367 257.016C403.215 257.016 402.771 257.448 402.771 257.976C402.771 259.524 407.655 258.456 407.655 261.54C407.655 262.944 406.491 264.144 404.091 264.144ZM371.588 270.492H374.864V271.776H371.588V270.492ZM371.588 273.192H374.864V274.476H371.588V273.192ZM374.264 268.956H375.872V277.08H374.264V268.956ZM368.528 278.592H376.124V279.876H368.528V278.592ZM368.528 276.288H370.124V279.264H368.528V276.288ZM369.632 269.616C370.184 269.616 370.68 269.74 371.12 269.988C371.568 270.228 371.92 270.564 372.176 270.996C372.44 271.428 372.572 271.924 372.572 272.484C372.572 273.036 372.44 273.532 372.176 273.972C371.92 274.404 371.568 274.744 371.12 274.992C370.68 275.24 370.184 275.364 369.632 275.364C369.088 275.364 368.592 275.24 368.144 274.992C367.704 274.744 367.352 274.404 367.088 273.972C366.832 273.532 366.704 273.036 366.704 272.484C366.704 271.924 366.832 271.428 367.088 270.996C367.352 270.564 367.704 270.228 368.144 269.988C368.592 269.74 369.088 269.616 369.632 269.616ZM369.632 271.008C369.368 271.008 369.128 271.068 368.912 271.188C368.696 271.308 368.524 271.48 368.396 271.704C368.276 271.92 368.216 272.18 368.216 272.484C368.216 272.796 368.276 273.064 368.396 273.288C368.524 273.504 368.696 273.672 368.912 273.792C369.128 273.904 369.368 273.96 369.632 273.96C369.904 273.96 370.144 273.904 370.352 273.792C370.568 273.672 370.736 273.504 370.856 273.288C370.984 273.064 371.048 272.796 371.048 272.484C371.048 272.18 370.984 271.92 370.856 271.704C370.736 271.48 370.568 271.308 370.352 271.188C370.144 271.068 369.904 271.008 369.632 271.008ZM378.524 269.592H385.484V270.852H378.524V269.592ZM377.372 274.32H387.428V275.616H377.372V274.32ZM381.536 275.232H383.144V280.068H381.536V275.232ZM384.668 269.592H386.24V270.576C386.24 270.976 386.232 271.4 386.216 271.848C386.208 272.296 386.176 272.788 386.12 273.324C386.064 273.852 385.96 274.444 385.808 275.1L384.248 274.908C384.456 273.988 384.576 273.184 384.608 272.496C384.648 271.8 384.668 271.16 384.668 270.576V269.592Z" fill="#2F80EB"/>
<defs>
<filter id="filter0_f_249_371" x="65" y="0.000976562" width="296.685" height="296.687" filterUnits="userSpaceOnUse" color-interpolation-filters="sRGB">
<feFlood flood-opacity="0" result="BackgroundImageFix"/>
<feBlend mode="normal" in="SourceGraphic" in2="BackgroundImageFix" result="shape"/>
<feGaussianBlur stdDeviation="6" result="effect1_foregroundBlur_249_371"/>
</filter>
<filter id="filter1_f_249_371" x="89.2119" y="24.2129" width="248.261" height="248.262" filterUnits="userSpaceOnUse" color-interpolation-filters="sRGB">
<feFlood flood-opacity="0" result="BackgroundImageFix"/>
<feBlend mode="normal" in="SourceGraphic" in2="BackgroundImageFix" result="shape"/>
<feGaussianBlur stdDeviation="4" result="effect1_foregroundBlur_249_371"/>
</filter>
<filter id="filter2_d_249_371" x="51" y="150.002" width="106.46" height="106.461" filterUnits="userSpaceOnUse" color-interpolation-filters="sRGB">
<feFlood flood-opacity="0" result="BackgroundImageFix"/>
<feColorMatrix in="SourceAlpha" type="matrix" values="0 0 0 0 0 0 0 0 0 0 0 0 0 0 0 0 0 0 127 0" result="hardAlpha"/>
<feOffset/>
<feGaussianBlur stdDeviation="2"/>
<feComposite in2="hardAlpha" operator="out"/>
<feColorMatrix type="matrix" values="0 0 0 0 1 0 0 0 0 1 0 0 0 0 1 0 0 0 0.25 0"/>
<feBlend mode="normal" in2="BackgroundImageFix" result="effect1_dropShadow_249_371"/>
<feBlend mode="normal" in="SourceGraphic" in2="effect1_dropShadow_249_371" result="shape"/>
</filter>
<filter id="filter3_d_249_371" x="270" y="150" width="106.46" height="106.461" filterUnits="userSpaceOnUse" color-interpolation-filters="sRGB">
<feFlood flood-opacity="0" result="BackgroundImageFix"/>
<feColorMatrix in="SourceAlpha" type="matrix" values="0 0 0 0 0 0 0 0 0 0 0 0 0 0 0 0 0 0 127 0" result="hardAlpha"/>
<feOffset/>
<feGaussianBlur stdDeviation="2"/>
<feComposite in2="hardAlpha" operator="out"/>
<feColorMatrix type="matrix" values="0 0 0 0 1 0 0 0 0 1 0 0 0 0 1 0 0 0 0.25 0"/>
<feBlend mode="normal" in2="BackgroundImageFix" result="effect1_dropShadow_249_371"/>
<feBlend mode="normal" in="SourceGraphic" in2="effect1_dropShadow_249_371" result="shape"/>
</filter>
<linearGradient id="paint0_linear_249_371" x1="17.1467" y1="-17.5195" x2="119.404" y2="212.899" gradientUnits="userSpaceOnUse">
<stop stop-color="#4896FC"/>
<stop offset="1" stop-color="#0D448C"/>
</linearGradient>
<linearGradient id="paint1_linear_249_371" x1="14.6048" y1="-14.9223" x2="101.703" y2="181.339" gradientUnits="userSpaceOnUse">
<stop stop-color="#4896FC"/>
<stop offset="1" stop-color="#0D448C"/>
</linearGradient>
<linearGradient id="paint2_linear_249_371" x1="12.8384" y1="-13.1175" x2="89.4021" y2="159.406" gradientUnits="userSpaceOnUse">
<stop stop-color="#4896FC"/>
<stop offset="1" stop-color="#0D448C"/>
</linearGradient>
<linearGradient id="paint3_linear_249_371" x1="175.154" y1="-0.867145" x2="-41.2665" y2="115.51" gradientUnits="userSpaceOnUse">
<stop stop-color="#C7D3F3"/>
<stop offset="0.283654" stop-color="#1D64F0"/>
<stop offset="0.55728" stop-color="#155A8E"/>
<stop offset="0.849414" stop-color="#547DF2"/>
<stop offset="1" stop-color="#365ED4"/>
</linearGradient>
</defs>
</svg>
