<svg width="912" height="436" viewBox="0 0 912 436" fill="none" xmlns="http://www.w3.org/2000/svg">
<line x1="667.266" y1="172.455" x2="246.929" y2="172.455" stroke="#B9B9B9"/>
<g filter="url(#filter0_f_196_134)">
<rect x="349.662" y="171.631" width="150.105" height="150.105" transform="rotate(-45 349.662 171.631)" fill="url(#paint0_linear_196_134)" fill-opacity="0.05"/>
</g>
<g filter="url(#filter1_f_196_134)">
<rect x="365.396" y="171.631" width="127.853" height="127.853" transform="rotate(-45 365.396 171.631)" fill="url(#paint1_linear_196_134)" fill-opacity="0.16"/>
</g>
<rect x="377.038" y="171.631" width="111.39" height="111.39" transform="rotate(-45 377.038 171.631)" fill="url(#paint2_linear_196_134)" stroke="url(#paint3_linear_196_134)"/>
<path d="M431.622 180.384C424.678 180.384 419.494 175.552 419.494 168.8C419.494 162.048 424.678 157.216 431.654 157.216C435.526 157.216 438.758 158.624 440.87 161.184L437.542 164.256C436.038 162.528 434.15 161.632 431.91 161.632C427.718 161.632 424.742 164.576 424.742 168.8C424.742 173.024 427.718 175.968 431.91 175.968C434.15 175.968 436.038 175.072 437.542 173.312L440.87 176.384C438.758 178.976 435.526 180.384 431.622 180.384ZM448.883 175.84H461.075V180H443.731V157.6H460.659V161.76H448.883V166.624H459.283V170.656H448.883V175.84ZM475.345 180.384C468.273 180.384 463.089 175.456 463.089 168.8C463.089 162.144 468.273 157.216 475.345 157.216C482.385 157.216 487.601 162.112 487.601 168.8C487.601 175.488 482.385 180.384 475.345 180.384ZM475.345 175.968C479.345 175.968 482.353 173.056 482.353 168.8C482.353 164.544 479.345 161.632 475.345 161.632C471.345 161.632 468.337 164.544 468.337 168.8C468.337 173.056 471.345 175.968 475.345 175.968Z" fill="white"/>
<rect x="376.331" y="355.949" width="112.39" height="112.39" transform="rotate(-45 376.331 355.949)" fill="#3A8FFF"/>
<path d="M434.808 349.977H438.28V351.657H434.808V349.977ZM434.68 353.033H438.168V354.745H434.68V353.033ZM437.928 347.625H440.072V356.153H437.928V347.625ZM433.112 348.633H435.368C435.368 349.977 435.118 351.167 434.616 352.201C434.115 353.225 433.363 354.095 432.36 354.809C431.358 355.513 430.104 356.073 428.6 356.489L427.784 354.825C429.043 354.495 430.062 354.079 430.84 353.577C431.619 353.065 432.19 352.479 432.552 351.817C432.926 351.156 433.112 350.441 433.112 349.673V348.633ZM428.584 348.633H434.6V350.329H428.584V348.633ZM435.16 356.345C436.163 356.345 437.038 356.468 437.784 356.713C438.542 356.959 439.123 357.305 439.528 357.753C439.944 358.201 440.152 358.735 440.152 359.353C440.152 359.972 439.944 360.505 439.528 360.953C439.123 361.401 438.542 361.748 437.784 361.993C437.038 362.249 436.163 362.377 435.16 362.377C434.158 362.377 433.278 362.249 432.52 361.993C431.774 361.748 431.192 361.401 430.776 360.953C430.36 360.505 430.152 359.972 430.152 359.353C430.152 358.735 430.36 358.201 430.776 357.753C431.192 357.305 431.774 356.959 432.52 356.713C433.278 356.468 434.158 356.345 435.16 356.345ZM435.16 357.977C434.552 357.977 434.03 358.031 433.592 358.137C433.166 358.244 432.835 358.399 432.6 358.601C432.366 358.804 432.248 359.055 432.248 359.353C432.248 359.652 432.366 359.908 432.6 360.121C432.835 360.324 433.166 360.479 433.592 360.585C434.03 360.681 434.552 360.729 435.16 360.729C435.768 360.729 436.286 360.681 436.712 360.585C437.139 360.479 437.47 360.324 437.704 360.121C437.939 359.908 438.056 359.652 438.056 359.353C438.056 359.055 437.939 358.804 437.704 358.601C437.47 358.399 437.139 358.244 436.712 358.137C436.286 358.031 435.768 357.977 435.16 357.977ZM448.615 349.561H452.999V351.273H448.615V349.561ZM448.615 352.857H452.999V354.553H448.615V352.857ZM446.151 348.425C446.898 348.425 447.564 348.585 448.151 348.905C448.738 349.215 449.202 349.641 449.543 350.185C449.895 350.729 450.071 351.353 450.071 352.057C450.071 352.751 449.895 353.369 449.543 353.913C449.202 354.457 448.738 354.889 448.151 355.209C447.564 355.519 446.898 355.673 446.151 355.673C445.426 355.673 444.764 355.519 444.167 355.209C443.58 354.889 443.111 354.457 442.759 353.913C442.418 353.369 442.247 352.751 442.247 352.057C442.247 351.353 442.418 350.729 442.759 350.185C443.111 349.641 443.58 349.215 444.167 348.905C444.764 348.585 445.426 348.425 446.151 348.425ZM446.151 350.217C445.799 350.217 445.479 350.292 445.191 350.441C444.903 350.58 444.674 350.788 444.503 351.065C444.343 351.332 444.263 351.663 444.263 352.057C444.263 352.431 444.343 352.756 444.503 353.033C444.674 353.311 444.903 353.524 445.191 353.673C445.479 353.812 445.799 353.881 446.151 353.881C446.524 353.881 446.85 353.812 447.127 353.673C447.415 353.524 447.639 353.311 447.799 353.033C447.959 352.756 448.039 352.431 448.039 352.057C448.039 351.663 447.959 351.332 447.799 351.065C447.639 350.788 447.415 350.58 447.127 350.441C446.85 350.292 446.524 350.217 446.151 350.217ZM452.327 347.641H454.471V356.313H452.327V347.641ZM449.447 356.617C450.492 356.617 451.388 356.735 452.135 356.969C452.892 357.193 453.479 357.524 453.895 357.961C454.311 358.399 454.519 358.921 454.519 359.529C454.519 360.137 454.311 360.66 453.895 361.097C453.479 361.545 452.892 361.881 452.135 362.105C451.388 362.34 450.492 362.457 449.447 362.457C448.402 362.457 447.5 362.34 446.743 362.105C445.986 361.881 445.399 361.545 444.983 361.097C444.578 360.66 444.375 360.137 444.375 359.529C444.375 358.921 444.578 358.399 444.983 357.961C445.399 357.524 445.986 357.193 446.743 356.969C447.5 356.735 448.402 356.617 449.447 356.617ZM449.447 358.249C448.807 358.249 448.263 358.297 447.815 358.393C447.367 358.489 447.031 358.633 446.807 358.825C446.583 359.007 446.471 359.241 446.471 359.529C446.471 359.817 446.583 360.057 446.807 360.249C447.031 360.441 447.367 360.585 447.815 360.681C448.263 360.767 448.807 360.809 449.447 360.809C450.098 360.809 450.642 360.767 451.079 360.681C451.527 360.585 451.863 360.441 452.087 360.249C452.311 360.057 452.423 359.817 452.423 359.529C452.423 359.241 452.311 359.007 452.087 358.825C451.863 358.633 451.527 358.489 451.079 358.393C450.642 358.297 450.098 358.249 449.447 358.249ZM466.678 347.625H468.806V362.441H466.678V347.625ZM462.31 349.161H464.406C464.406 350.292 464.294 351.375 464.07 352.409C463.857 353.433 463.494 354.399 462.982 355.305C462.481 356.212 461.787 357.055 460.902 357.833C460.027 358.601 458.934 359.305 457.622 359.945L456.502 358.265C457.931 357.572 459.067 356.809 459.91 355.977C460.763 355.135 461.377 354.185 461.75 353.129C462.123 352.063 462.31 350.868 462.31 349.545V349.161ZM457.302 349.161H463.302V350.857H457.302V349.161ZM471.365 348.713H480.053V350.249H471.365V348.713ZM475.701 350.601C476.447 350.601 477.093 350.692 477.637 350.873C478.191 351.055 478.623 351.311 478.933 351.641C479.242 351.972 479.397 352.361 479.397 352.809C479.397 353.268 479.242 353.663 478.933 353.993C478.623 354.324 478.191 354.585 477.637 354.777C477.093 354.959 476.447 355.049 475.701 355.049C474.965 355.049 474.319 354.959 473.765 354.777C473.221 354.585 472.794 354.324 472.485 353.993C472.186 353.663 472.037 353.268 472.037 352.809C472.037 352.361 472.186 351.972 472.485 351.641C472.794 351.311 473.221 351.055 473.765 350.873C474.319 350.692 474.965 350.601 475.701 350.601ZM475.701 352.009C475.21 352.009 474.81 352.079 474.501 352.217C474.202 352.345 474.053 352.543 474.053 352.809C474.053 353.076 474.202 353.284 474.501 353.433C474.81 353.572 475.21 353.641 475.701 353.641C476.202 353.641 476.602 353.572 476.901 353.433C477.21 353.284 477.365 353.076 477.365 352.809C477.365 352.543 477.21 352.345 476.901 352.217C476.602 352.079 476.202 352.009 475.701 352.009ZM474.645 347.529H476.789V349.497H474.645V347.529ZM474.645 354.249H476.789V356.313H474.645V354.249ZM481.077 347.641H483.205V357.689H481.077V347.641ZM472.965 358.249H483.205V362.457H481.077V359.897H472.965V358.249ZM471.189 357.385L470.949 355.769C471.845 355.769 472.81 355.764 473.845 355.753C474.89 355.743 475.957 355.711 477.045 355.657C478.143 355.593 479.194 355.497 480.197 355.369L480.357 356.809C479.311 356.98 478.25 357.108 477.173 357.193C476.095 357.279 475.045 357.332 474.021 357.353C473.007 357.375 472.063 357.385 471.189 357.385Z" fill="white"/>
<rect x="97.7413" y="266.035" width="110.39" height="110.39" transform="rotate(-45 97.7413 266.035)" fill="white" stroke="#2F80EB" stroke-width="2"/>
<path d="M150.643 271.153C148.867 271.153 147.075 270.625 146.083 269.857L146.963 267.905C147.907 268.593 149.315 269.073 150.659 269.073C152.195 269.073 152.819 268.561 152.819 267.873C152.819 265.777 146.307 267.217 146.307 263.057C146.307 261.153 147.843 259.569 151.027 259.569C152.435 259.569 153.875 259.905 154.915 260.561L154.115 262.529C153.075 261.937 152.003 261.649 151.011 261.649C149.475 261.649 148.883 262.225 148.883 262.929C148.883 264.993 155.395 263.569 155.395 267.681C155.395 269.553 153.843 271.153 150.643 271.153ZM156.846 270.961V259.761H159.438V270.961H156.846ZM175.955 269.569L174.595 271.153L173.251 269.905C172.227 270.705 170.947 271.153 169.507 271.153C167.043 271.153 165.235 269.873 165.235 268.081C165.235 266.673 165.987 265.697 167.699 264.737C166.883 263.889 166.547 263.169 166.547 262.369C166.547 260.737 167.923 259.617 170.035 259.617C171.971 259.617 173.251 260.609 173.251 262.193C173.251 263.345 172.579 264.193 171.059 265.025L173.107 266.929C173.347 266.433 173.539 265.841 173.667 265.185L175.667 265.809C175.459 266.769 175.123 267.633 174.643 268.353L175.955 269.569ZM170.035 261.313C169.267 261.313 168.819 261.745 168.819 262.337C168.819 262.769 168.995 263.089 169.683 263.761C170.787 263.169 171.139 262.753 171.139 262.241C171.139 261.697 170.755 261.313 170.035 261.313ZM169.683 269.201C170.451 269.201 171.171 268.977 171.779 268.545L169.075 266.017C168.051 266.609 167.683 267.121 167.683 267.809C167.683 268.625 168.451 269.201 169.683 269.201ZM185.199 271.153C183.423 271.153 181.631 270.625 180.639 269.857L181.519 267.905C182.463 268.593 183.871 269.073 185.215 269.073C186.751 269.073 187.375 268.561 187.375 267.873C187.375 265.777 180.863 267.217 180.863 263.057C180.863 261.153 182.399 259.569 185.583 259.569C186.991 259.569 188.431 259.905 189.471 260.561L188.671 262.529C187.631 261.937 186.559 261.649 185.567 261.649C184.031 261.649 183.439 262.225 183.439 262.929C183.439 264.993 189.951 263.569 189.951 267.681C189.951 269.553 188.399 271.153 185.199 271.153ZM204.026 270.961H201.594L201.578 264.241L198.282 269.777H197.114L193.834 264.385V270.961H191.402V259.761H193.546L197.738 266.721L201.866 259.761H203.994L204.026 270.961Z" fill="#2F80EB"/>
<rect x="658.566" y="268.283" width="110.39" height="110.39" transform="rotate(-45 658.566 268.283)" fill="white" stroke="#2F80EB" stroke-width="2"/>
<path d="M721.483 261.008L720.491 258.608H715.291L714.299 261.008H711.643L716.635 249.808H719.195L724.203 261.008H721.483ZM716.123 256.64H719.675L717.899 252.352L716.123 256.64ZM725.045 261.008V249.808H727.637V261.008H725.045ZM741.882 250.768H744.586V252.464H741.882V250.768ZM741.85 253.68H744.554V255.376H741.85V253.68ZM733.546 248.848H741.69V250.528H733.546V248.848ZM737.706 250.976C738.389 250.976 738.992 251.088 739.514 251.312C740.037 251.536 740.448 251.85 740.746 252.256C741.045 252.661 741.194 253.13 741.194 253.664C741.194 254.186 741.045 254.65 740.746 255.056C740.448 255.461 740.037 255.776 739.514 256C738.992 256.224 738.389 256.336 737.706 256.336C737.034 256.336 736.437 256.224 735.914 256C735.392 255.776 734.981 255.461 734.682 255.056C734.384 254.65 734.234 254.186 734.234 253.664C734.234 253.13 734.384 252.661 734.682 252.256C734.981 251.85 735.392 251.536 735.914 251.312C736.437 251.088 737.034 250.976 737.706 250.976ZM737.706 252.528C737.258 252.528 736.896 252.629 736.618 252.832C736.352 253.024 736.218 253.301 736.218 253.664C736.218 254.026 736.352 254.309 736.618 254.512C736.896 254.704 737.258 254.8 737.706 254.8C738.154 254.8 738.517 254.704 738.794 254.512C739.072 254.309 739.21 254.026 739.21 253.664C739.21 253.301 739.072 253.024 738.794 252.832C738.517 252.629 738.154 252.528 737.706 252.528ZM736.65 247.488H738.794V250.016H736.65V247.488ZM743.77 247.616H745.914V256.432H743.77V247.616ZM735.994 256.992H738.09V258.064H743.802V256.992H745.914V262.272H735.994V256.992ZM738.09 259.632V260.624H743.802V259.632H738.09ZM755.401 250.88H759.113V252.592H755.401V250.88ZM751.993 248.224C752.74 248.224 753.406 248.378 753.993 248.688C754.59 248.986 755.06 249.402 755.401 249.936C755.742 250.458 755.913 251.066 755.913 251.76C755.913 252.442 755.742 253.05 755.401 253.584C755.06 254.117 754.59 254.538 753.993 254.848C753.406 255.146 752.74 255.296 751.993 255.296C751.257 255.296 750.59 255.146 749.993 254.848C749.406 254.538 748.942 254.117 748.601 253.584C748.26 253.05 748.089 252.442 748.089 251.76C748.089 251.066 748.26 250.458 748.601 249.936C748.942 249.402 749.406 248.986 749.993 248.688C750.59 248.378 751.257 248.224 751.993 248.224ZM751.993 249.984C751.63 249.984 751.305 250.053 751.017 250.192C750.74 250.33 750.521 250.533 750.361 250.8C750.201 251.066 750.121 251.386 750.121 251.76C750.121 252.122 750.201 252.437 750.361 252.704C750.521 252.97 750.74 253.173 751.017 253.312C751.305 253.45 751.63 253.52 751.993 253.52C752.356 253.52 752.676 253.45 752.953 253.312C753.241 253.173 753.465 252.97 753.625 252.704C753.785 252.437 753.865 252.122 753.865 251.76C753.865 251.386 753.785 251.066 753.625 250.8C753.465 250.533 753.241 250.33 752.953 250.192C752.676 250.053 752.356 249.984 751.993 249.984ZM758.169 247.616H760.313V255.568H758.169V247.616ZM750.473 256.224H752.585V257.616H758.201V256.224H760.313V262.272H750.473V256.224ZM752.585 259.248V260.576H758.201V259.248H752.585ZM706.747 272.24H710.651V273.952H706.747V272.24ZM702.715 268.736H704.427V270.896C704.427 271.824 704.347 272.725 704.187 273.6C704.027 274.474 703.782 275.29 703.451 276.048C703.12 276.805 702.699 277.472 702.187 278.048C701.686 278.624 701.088 279.088 700.395 279.44L699.067 277.744C699.696 277.445 700.235 277.056 700.683 276.576C701.142 276.096 701.52 275.552 701.819 274.944C702.128 274.325 702.352 273.674 702.491 272.992C702.64 272.298 702.715 271.6 702.715 270.896V268.736ZM703.147 268.736H704.843V270.896C704.843 271.589 704.912 272.277 705.051 272.96C705.19 273.632 705.398 274.261 705.675 274.848C705.963 275.434 706.331 275.957 706.779 276.416C707.227 276.864 707.76 277.226 708.379 277.504L707.099 279.2C706.406 278.858 705.808 278.41 705.307 277.856C704.806 277.29 704.395 276.645 704.075 275.92C703.766 275.194 703.531 274.405 703.371 273.552C703.222 272.698 703.147 271.813 703.147 270.896V268.736ZM709.579 267.584H711.707V282.448H709.579V267.584ZM723.834 267.584H725.962V282.448H723.834V267.584ZM714.394 268.768H716.506V272.384H719.578V268.768H721.69V278.992H714.394V268.768ZM716.506 274.032V277.296H719.578V274.032H716.506ZM733.577 268.464H735.417V269.536C735.417 270.176 735.326 270.8 735.145 271.408C734.974 272.005 734.718 272.57 734.377 273.104C734.035 273.637 733.614 274.122 733.113 274.56C732.622 274.986 732.057 275.354 731.417 275.664C730.777 275.973 730.073 276.202 729.305 276.352L728.393 274.576C729.054 274.458 729.657 274.282 730.201 274.048C730.755 273.802 731.241 273.509 731.657 273.168C732.073 272.826 732.425 272.458 732.713 272.064C733.001 271.658 733.214 271.242 733.353 270.816C733.502 270.378 733.577 269.952 733.577 269.536V268.464ZM733.993 268.464H735.849V269.536C735.849 269.962 735.918 270.394 736.057 270.832C736.206 271.269 736.419 271.69 736.697 272.096C736.985 272.49 737.337 272.853 737.753 273.184C738.169 273.514 738.649 273.802 739.193 274.048C739.737 274.282 740.35 274.458 741.033 274.576L740.121 276.352C739.353 276.202 738.649 275.973 738.009 275.664C737.369 275.354 736.798 274.986 736.297 274.56C735.806 274.133 735.385 273.653 735.033 273.12C734.691 272.586 734.43 272.016 734.249 271.408C734.078 270.8 733.993 270.176 733.993 269.536V268.464ZM728.073 278.88H741.497V280.624H728.073V278.88ZM753.371 269.664H757.739V271.376H753.371V269.664ZM753.371 273.264H757.739V274.976H753.371V273.264ZM756.939 267.616H759.083V278.448H756.939V267.616ZM749.291 280.464H759.419V282.176H749.291V280.464ZM749.291 277.392H751.419V281.36H749.291V277.392ZM750.763 268.496C751.499 268.496 752.16 268.661 752.747 268.992C753.344 269.312 753.813 269.76 754.155 270.336C754.507 270.912 754.683 271.573 754.683 272.32C754.683 273.056 754.507 273.717 754.155 274.304C753.813 274.88 753.344 275.333 752.747 275.664C752.16 275.994 751.499 276.16 750.763 276.16C750.037 276.16 749.376 275.994 748.779 275.664C748.192 275.333 747.723 274.88 747.371 274.304C747.029 273.717 746.859 273.056 746.859 272.32C746.859 271.573 747.029 270.912 747.371 270.336C747.723 269.76 748.192 269.312 748.779 268.992C749.376 268.661 750.037 268.496 750.763 268.496ZM750.763 270.352C750.411 270.352 750.091 270.432 749.803 270.592C749.515 270.752 749.285 270.981 749.115 271.28C748.955 271.568 748.875 271.914 748.875 272.32C748.875 272.736 748.955 273.093 749.115 273.392C749.285 273.68 749.515 273.904 749.803 274.064C750.091 274.213 750.411 274.288 750.763 274.288C751.125 274.288 751.445 274.213 751.723 274.064C752.011 273.904 752.235 273.68 752.395 273.392C752.565 273.093 752.651 272.736 752.651 272.32C752.651 271.914 752.565 271.568 752.395 271.28C752.235 270.981 752.011 270.752 751.723 270.592C751.445 270.432 751.125 270.352 750.763 270.352ZM762.617 268.464H771.897V270.144H762.617V268.464ZM761.081 274.768H774.489V276.496H761.081V274.768ZM766.633 275.984H768.777V282.432H766.633V275.984ZM770.809 268.464H772.905V269.776C772.905 270.309 772.895 270.874 772.873 271.472C772.863 272.069 772.82 272.725 772.745 273.44C772.671 274.144 772.532 274.933 772.329 275.808L770.249 275.552C770.527 274.325 770.687 273.253 770.729 272.336C770.783 271.408 770.809 270.554 770.809 269.776V268.464Z" fill="#2F80EB"/>
<g filter="url(#filter2_d_196_134)">
<rect x="190.734" y="171.631" width="112.39" height="112.39" transform="rotate(-45 190.734 171.631)" fill="#3A8FFF"/>
<path d="M233.899 170.733C235.147 171.133 235.947 172.093 235.947 173.501C235.947 175.437 234.411 176.557 231.467 176.557H225.675V165.357H231.147C233.947 165.357 235.387 166.525 235.387 168.269C235.387 169.389 234.811 170.253 233.899 170.733ZM230.827 167.309H228.251V169.949H230.827C232.091 169.949 232.779 169.501 232.779 168.621C232.779 167.741 232.091 167.309 230.827 167.309ZM231.275 174.605C232.619 174.605 233.339 174.189 233.339 173.229C233.339 172.285 232.619 171.837 231.275 171.837H228.251V174.605H231.275ZM238.661 166.749C237.733 166.749 237.109 166.141 237.109 165.357C237.109 164.573 237.733 163.965 238.661 163.965C239.589 163.965 240.213 164.541 240.213 165.309C240.213 166.141 239.589 166.749 238.661 166.749ZM237.413 176.557V167.949H239.909V176.557H237.413ZM244.466 174.637H248.994V176.557H241.314V175.053L245.698 169.869H241.426V167.949H248.85V169.453L244.466 174.637ZM257.316 164.301H259.028V166.445C259.028 167.362 258.948 168.258 258.788 169.133C258.628 169.997 258.378 170.802 258.036 171.549C257.706 172.295 257.284 172.962 256.772 173.549C256.26 174.125 255.658 174.583 254.964 174.925L253.684 173.213C254.314 172.925 254.852 172.541 255.3 172.061C255.759 171.581 256.138 171.037 256.436 170.429C256.735 169.821 256.954 169.181 257.092 168.509C257.242 167.826 257.316 167.138 257.316 166.445V164.301ZM257.732 164.301H259.444V166.445C259.444 167.117 259.508 167.778 259.636 168.429C259.775 169.079 259.983 169.698 260.26 170.285C260.548 170.861 260.906 171.378 261.332 171.837C261.759 172.295 262.271 172.674 262.868 172.973L261.572 174.669C260.911 174.327 260.335 173.879 259.844 173.325C259.364 172.759 258.97 172.114 258.66 171.389C258.351 170.653 258.116 169.869 257.956 169.037C257.807 168.194 257.732 167.33 257.732 166.445V164.301ZM263.444 163.165H265.588V177.981H263.444V163.165ZM265.124 168.861H267.732V170.621H265.124V168.861ZM275.875 166.429H279.587V168.141H275.875V166.429ZM272.467 163.773C273.214 163.773 273.88 163.927 274.467 164.237C275.064 164.535 275.534 164.951 275.875 165.485C276.216 166.007 276.387 166.615 276.387 167.309C276.387 167.991 276.216 168.599 275.875 169.133C275.534 169.666 275.064 170.087 274.467 170.397C273.88 170.695 273.214 170.845 272.467 170.845C271.731 170.845 271.064 170.695 270.467 170.397C269.88 170.087 269.416 169.666 269.075 169.133C268.734 168.599 268.563 167.991 268.563 167.309C268.563 166.615 268.734 166.007 269.075 165.485C269.416 164.951 269.88 164.535 270.467 164.237C271.064 163.927 271.731 163.773 272.467 163.773ZM272.467 165.533C272.104 165.533 271.779 165.602 271.491 165.741C271.214 165.879 270.995 166.082 270.835 166.349C270.675 166.615 270.595 166.935 270.595 167.309C270.595 167.671 270.675 167.986 270.835 168.253C270.995 168.519 271.214 168.722 271.491 168.861C271.779 168.999 272.104 169.069 272.467 169.069C272.83 169.069 273.15 168.999 273.427 168.861C273.715 168.722 273.939 168.519 274.099 168.253C274.259 167.986 274.339 167.671 274.339 167.309C274.339 166.935 274.259 166.615 274.099 166.349C273.939 166.082 273.715 165.879 273.427 165.741C273.15 165.602 272.83 165.533 272.467 165.533ZM278.643 163.165H280.787V171.117H278.643V163.165ZM270.947 171.773H273.059V173.165H278.675V171.773H280.787V177.821H270.947V171.773ZM273.059 174.797V176.125H278.675V174.797H273.059ZM286.997 171.677H300.405V173.357H286.997V171.677ZM292.581 172.525H294.709V177.981H292.581V172.525ZM288.517 163.725H290.629V165.405H296.725V163.725H298.821V170.269H288.517V163.725ZM290.629 167.069V168.589H296.725V167.069H290.629ZM301.38 170.477H314.804V172.157H301.38V170.477ZM307.204 171.533H309.332V174.653H307.204V171.533ZM303.028 163.773H313.092V169.293H303.028V163.773ZM310.996 165.437H305.124V167.613H310.996V165.437ZM302.932 176.013H313.316V177.725H302.932V176.013ZM302.932 173.405H305.06V176.589H302.932V173.405Z" fill="white"/>
</g>
<g filter="url(#filter3_d_196_134)">
<rect x="561.62" y="171.625" width="112.39" height="112.39" transform="rotate(-45 561.62 171.625)" fill="#3A8FFF"/>
<path d="M598.991 163.143H601.119V177.959H598.991V163.143ZM594.623 164.679H596.719C596.719 165.809 596.607 166.892 596.383 167.927C596.17 168.951 595.807 169.916 595.295 170.823C594.794 171.729 594.101 172.572 593.215 173.351C592.341 174.119 591.247 174.823 589.935 175.463L588.815 173.783C590.245 173.089 591.381 172.327 592.223 171.495C593.077 170.652 593.69 169.703 594.063 168.647C594.437 167.58 594.623 166.385 594.623 165.063V164.679ZM589.615 164.679H595.615V166.375H589.615V164.679ZM610.67 166.423H614.382V168.135H610.67V166.423ZM607.262 163.767C608.009 163.767 608.675 163.921 609.262 164.231C609.859 164.529 610.329 164.945 610.67 165.479C611.011 166.001 611.182 166.609 611.182 167.303C611.182 167.985 611.011 168.593 610.67 169.127C610.329 169.66 609.859 170.081 609.262 170.391C608.675 170.689 608.009 170.839 607.262 170.839C606.526 170.839 605.859 170.689 605.262 170.391C604.675 170.081 604.211 169.66 603.87 169.127C603.529 168.593 603.358 167.985 603.358 167.303C603.358 166.609 603.529 166.001 603.87 165.479C604.211 164.945 604.675 164.529 605.262 164.231C605.859 163.921 606.526 163.767 607.262 163.767ZM607.262 165.527C606.899 165.527 606.574 165.596 606.286 165.735C606.009 165.873 605.79 166.076 605.63 166.343C605.47 166.609 605.39 166.929 605.39 167.303C605.39 167.665 605.47 167.98 605.63 168.247C605.79 168.513 606.009 168.716 606.286 168.855C606.574 168.993 606.899 169.063 607.262 169.063C607.625 169.063 607.945 168.993 608.222 168.855C608.51 168.716 608.734 168.513 608.894 168.247C609.054 167.98 609.134 167.665 609.134 167.303C609.134 166.929 609.054 166.609 608.894 166.343C608.734 166.076 608.51 165.873 608.222 165.735C607.945 165.596 607.625 165.527 607.262 165.527ZM613.438 163.159H615.582V171.111H613.438V163.159ZM605.742 171.767H607.854V173.159H613.47V171.767H615.582V177.815H605.742V171.767ZM607.854 174.791V176.119H613.47V174.791H607.854ZM617.581 171.671H630.989V173.351H617.581V171.671ZM623.165 172.519H625.293V177.975H623.165V172.519ZM619.101 163.719H621.213V165.399H627.309V163.719H629.405V170.263H619.101V163.719ZM621.213 167.063V168.583H627.309V167.063H621.213ZM639.531 165.319H643.179V167.015H639.531V165.319ZM642.235 163.159H644.379V170.679H642.235V163.159ZM634.587 171.287H644.379V175.287H636.715V177.143H634.603V173.751H642.267V172.935H634.587V171.287ZM634.603 176.151H644.795V177.815H634.603V176.151ZM635.355 163.623H637.083V164.695C637.083 165.612 636.934 166.481 636.635 167.303C636.347 168.124 635.899 168.839 635.291 169.447C634.683 170.044 633.905 170.492 632.955 170.791L631.867 169.127C632.689 168.871 633.355 168.519 633.867 168.071C634.379 167.612 634.753 167.089 634.987 166.503C635.233 165.916 635.355 165.313 635.355 164.695V163.623ZM635.787 163.623H637.499V164.695C637.499 165.121 637.563 165.548 637.691 165.975C637.83 166.401 638.033 166.801 638.299 167.175C638.566 167.548 638.907 167.879 639.323 168.167C639.75 168.455 640.251 168.689 640.827 168.871L639.739 170.503C638.843 170.215 638.102 169.783 637.515 169.207C636.929 168.631 636.491 167.953 636.203 167.175C635.926 166.396 635.787 165.569 635.787 164.695V163.623ZM657.277 165.207H661.645V166.919H657.277V165.207ZM657.277 168.807H661.645V170.519H657.277V168.807ZM660.845 163.159H662.989V173.991H660.845V163.159ZM653.197 176.007H663.325V177.719H653.197V176.007ZM653.197 172.935H655.325V176.903H653.197V172.935ZM654.669 164.039C655.405 164.039 656.067 164.204 656.653 164.535C657.251 164.855 657.72 165.303 658.061 165.879C658.413 166.455 658.589 167.116 658.589 167.863C658.589 168.599 658.413 169.26 658.061 169.847C657.72 170.423 657.251 170.876 656.653 171.207C656.067 171.537 655.405 171.703 654.669 171.703C653.944 171.703 653.283 171.537 652.685 171.207C652.099 170.876 651.629 170.423 651.277 169.847C650.936 169.26 650.765 168.599 650.765 167.863C650.765 167.116 650.936 166.455 651.277 165.879C651.629 165.303 652.099 164.855 652.685 164.535C653.283 164.204 653.944 164.039 654.669 164.039ZM654.669 165.895C654.317 165.895 653.997 165.975 653.709 166.135C653.421 166.295 653.192 166.524 653.021 166.823C652.861 167.111 652.781 167.457 652.781 167.863C652.781 168.279 652.861 168.636 653.021 168.935C653.192 169.223 653.421 169.447 653.709 169.607C653.997 169.756 654.317 169.831 654.669 169.831C655.032 169.831 655.352 169.756 655.629 169.607C655.917 169.447 656.141 169.223 656.301 168.935C656.472 168.636 656.557 168.279 656.557 167.863C656.557 167.457 656.472 167.111 656.301 166.823C656.141 166.524 655.917 166.295 655.629 166.135C655.352 165.975 655.032 165.895 654.669 165.895ZM666.524 164.007H675.804V165.687H666.524V164.007ZM664.988 170.311H678.396V172.039H664.988V170.311ZM670.54 171.527H672.684V177.975H670.54V171.527ZM674.716 164.007H676.812V165.319C676.812 165.852 676.802 166.417 676.78 167.015C676.77 167.612 676.727 168.268 676.652 168.983C676.578 169.687 676.439 170.476 676.236 171.351L674.156 171.095C674.434 169.868 674.594 168.796 674.636 167.879C674.69 166.951 674.716 166.097 674.716 165.319V164.007ZM679.387 174.503H692.811V176.231H679.387V174.503ZM684.955 171.207H687.083V174.967H684.955V171.207ZM684.891 163.975H686.747V165.047C686.747 165.676 686.656 166.284 686.475 166.871C686.304 167.457 686.043 168.012 685.691 168.535C685.35 169.057 684.928 169.532 684.427 169.959C683.926 170.375 683.35 170.732 682.699 171.031C682.059 171.329 681.35 171.548 680.571 171.687L679.691 169.911C680.374 169.804 680.987 169.633 681.531 169.399C682.075 169.164 682.555 168.887 682.971 168.567C683.398 168.236 683.75 167.879 684.027 167.495C684.315 167.1 684.528 166.695 684.667 166.279C684.816 165.863 684.891 165.452 684.891 165.047V163.975ZM685.291 163.975H687.163V165.047C687.163 165.463 687.232 165.879 687.371 166.295C687.52 166.711 687.734 167.111 688.011 167.495C688.299 167.879 688.651 168.236 689.067 168.567C689.483 168.887 689.963 169.164 690.507 169.399C691.062 169.633 691.675 169.804 692.347 169.911L691.467 171.687C690.688 171.537 689.979 171.319 689.339 171.031C688.699 170.732 688.128 170.375 687.627 169.959C687.126 169.543 686.699 169.079 686.347 168.567C686.006 168.044 685.744 167.489 685.563 166.903C685.382 166.305 685.291 165.687 685.291 165.047V163.975Z" fill="white"/>
</g>
<rect x="97.7413" y="79.4707" width="110.39" height="110.39" transform="rotate(-45 97.7413 79.4707)" fill="white" stroke="#2F80EB" stroke-width="2"/>
<path d="M140.972 72.5085H146.812V82.1085H140.972V72.5085ZM144.844 74.1725H142.956V80.4605H144.844V74.1725ZM151.244 70.9885H153.276V85.8045H151.244V70.9885ZM145.74 76.3805H149.068V78.0925H145.74V76.3805ZM148.236 71.2285H150.22V85.1485H148.236V71.2285ZM155.531 80.7485H156.763C157.595 80.7485 158.374 80.7432 159.099 80.7325C159.824 80.7112 160.534 80.6738 161.227 80.6205C161.92 80.5565 162.64 80.4712 163.387 80.3645L163.579 82.0445C162.832 82.1618 162.096 82.2525 161.371 82.3165C160.656 82.3805 159.92 82.4232 159.163 82.4445C158.416 82.4552 157.616 82.4605 156.763 82.4605H155.531V80.7485ZM155.531 72.2205H162.491V73.9485H157.659V81.3085H155.531V72.2205ZM157.147 76.3485H162.283V78.0125H157.147V76.3485ZM164.411 71.0045H166.555V85.8205H164.411V71.0045ZM166.091 76.6205H168.699V78.3645H166.091V76.6205ZM170.506 71.3885H181.562V72.9885H170.506V71.3885ZM170.618 74.8605H181.434V76.4605H170.618V74.8605ZM172.394 72.0125H174.522V75.8845H172.394V72.0125ZM177.546 72.0125H179.674V75.8845H177.546V72.0125ZM169.338 77.2125H182.746V78.8765H169.338V77.2125ZM170.874 79.6925H181.114V83.3885H173.002V84.7645H170.89V81.9645H179.018V81.2125H170.874V79.6925ZM170.89 84.1725H181.514V85.7245H170.89V84.1725ZM194.345 70.9885H196.377V80.9565H194.345V70.9885ZM192.601 74.5725H194.953V76.2845H192.601V74.5725ZM191.193 71.2605H193.177V79.7245H191.193V71.2605ZM184.345 77.9645H185.369C186.083 77.9645 186.723 77.9538 187.289 77.9325C187.865 77.9112 188.409 77.8738 188.921 77.8205C189.433 77.7672 189.955 77.6872 190.489 77.5805L190.665 79.2445C190.11 79.3618 189.566 79.4472 189.033 79.5005C188.51 79.5538 187.95 79.5912 187.353 79.6125C186.766 79.6232 186.105 79.6285 185.369 79.6285H184.345V77.9645ZM184.313 72.0285H189.945V76.5405H186.393V79.0845H184.345V75.0045H187.881V73.6925H184.313V72.0285ZM190.217 80.3325H192.025V80.5725C192.025 81.2232 191.897 81.8365 191.641 82.4125C191.385 82.9778 191.011 83.4898 190.521 83.9485C190.041 84.3965 189.449 84.7752 188.745 85.0845C188.041 85.4045 187.23 85.6338 186.313 85.7725L185.497 84.1245C186.137 84.0392 186.707 83.9165 187.209 83.7565C187.721 83.5858 188.163 83.3832 188.537 83.1485C188.91 82.9032 189.219 82.6418 189.465 82.3645C189.721 82.0872 189.907 81.7992 190.025 81.5005C190.153 81.1912 190.217 80.8818 190.217 80.5725V80.3325ZM190.505 80.3325H192.329V80.5725C192.329 80.8818 192.387 81.1912 192.505 81.5005C192.622 81.7992 192.803 82.0872 193.049 82.3645C193.305 82.6418 193.619 82.9032 193.993 83.1485C194.366 83.3832 194.803 83.5858 195.305 83.7565C195.817 83.9165 196.393 84.0392 197.033 84.1245L196.217 85.7725C195.299 85.6338 194.489 85.4045 193.785 85.0845C193.081 84.7752 192.483 84.3965 191.993 83.9485C191.502 83.4898 191.129 82.9778 190.873 82.4125C190.627 81.8365 190.505 81.2232 190.505 80.5725V80.3325ZM198.135 78.1565H211.543V79.8365H198.135V78.1565ZM203.767 76.6525H205.879V78.9085H203.767V76.6525ZM199.303 71.4045H210.359V73.1005H199.303V71.4045ZM199.415 75.3245H210.231V77.0045H199.415V75.3245ZM201.191 72.0125H203.319V76.4285H201.191V72.0125ZM206.343 72.0125H208.471V76.4285H206.343V72.0125ZM199.703 80.8125H209.943V85.6605H199.703V80.8125ZM207.863 82.4765H201.783V83.9805H207.863V82.4765Z" fill="#2F80EB"/>
<rect x="754.097" y="173.875" width="110.39" height="110.39" transform="rotate(-45 754.097 173.875)" fill="white" stroke="#2F80EB" stroke-width="2"/>
<path d="M796.912 153.614H810.32V155.326H796.912V153.614ZM802.496 154.734H804.624V160.158H802.496V154.734ZM803.584 145.838C804.64 145.838 805.568 145.977 806.368 146.254C807.179 146.521 807.808 146.905 808.256 147.406C808.704 147.908 808.928 148.494 808.928 149.166C808.928 149.849 808.704 150.441 808.256 150.942C807.808 151.433 807.179 151.817 806.368 152.094C805.568 152.361 804.64 152.494 803.584 152.494C802.528 152.494 801.595 152.361 800.784 152.094C799.984 151.817 799.355 151.433 798.896 150.942C798.448 150.441 798.224 149.849 798.224 149.166C798.224 148.494 798.448 147.908 798.896 147.406C799.355 146.905 799.984 146.521 800.784 146.254C801.595 145.977 802.528 145.838 803.584 145.838ZM803.568 147.518C802.928 147.518 802.368 147.582 801.888 147.71C801.419 147.838 801.056 148.025 800.8 148.27C800.544 148.505 800.416 148.804 800.416 149.166C800.416 149.518 800.544 149.817 800.8 150.062C801.056 150.308 801.419 150.494 801.888 150.622C802.368 150.74 802.928 150.798 803.568 150.798C804.229 150.798 804.795 150.74 805.264 150.622C805.733 150.494 806.096 150.308 806.352 150.062C806.619 149.817 806.752 149.518 806.752 149.166C806.752 148.804 806.619 148.505 806.352 148.27C806.096 148.025 805.733 147.838 805.264 147.71C804.795 147.582 804.229 147.518 803.568 147.518ZM816.783 146.974H818.639V147.422C818.639 147.934 818.553 148.43 818.383 148.91C818.223 149.39 817.977 149.838 817.647 150.254C817.316 150.66 816.911 151.028 816.431 151.358C815.961 151.678 815.417 151.95 814.799 152.174C814.18 152.398 813.492 152.558 812.735 152.654L811.951 151.006C812.612 150.921 813.199 150.793 813.711 150.622C814.233 150.441 814.687 150.233 815.071 149.998C815.455 149.753 815.775 149.492 816.031 149.214C816.287 148.937 816.473 148.644 816.591 148.334C816.719 148.025 816.783 147.721 816.783 147.422V146.974ZM817.407 146.974H819.247V147.422C819.247 147.721 819.305 148.025 819.423 148.334C819.551 148.644 819.743 148.937 819.999 149.214C820.255 149.492 820.575 149.753 820.959 149.998C821.353 150.233 821.807 150.441 822.319 150.622C822.831 150.793 823.417 150.921 824.079 151.006L823.295 152.654C822.537 152.558 821.849 152.398 821.231 152.174C820.612 151.95 820.063 151.678 819.583 151.358C819.113 151.028 818.713 150.66 818.383 150.254C818.063 149.838 817.817 149.39 817.647 148.91C817.487 148.43 817.407 147.934 817.407 147.422V146.974ZM816.895 154.734H819.023V160.158H816.895V154.734ZM811.311 153.502H824.719V155.214H811.311V153.502ZM812.495 146.094H823.487V147.774H812.495V146.094ZM835.229 145.342H837.357V154.734H835.229V145.342ZM836.781 149.118H839.325V150.846H836.781V149.118ZM832.557 154.878C833.571 154.878 834.451 154.985 835.197 155.198C835.944 155.412 836.515 155.716 836.909 156.11C837.315 156.505 837.517 156.974 837.517 157.518C837.517 158.073 837.315 158.548 836.909 158.942C836.515 159.337 835.944 159.636 835.197 159.838C834.451 160.052 833.571 160.158 832.557 160.158C831.533 160.158 830.648 160.052 829.901 159.838C829.155 159.636 828.579 159.337 828.173 158.942C827.768 158.548 827.565 158.073 827.565 157.518C827.565 156.974 827.768 156.505 828.173 156.11C828.579 155.716 829.155 155.412 829.901 155.198C830.648 154.985 831.533 154.878 832.557 154.878ZM832.557 156.494C831.619 156.494 830.904 156.58 830.413 156.75C829.933 156.91 829.693 157.166 829.693 157.518C829.693 157.881 829.933 158.148 830.413 158.318C830.904 158.489 831.619 158.574 832.557 158.574C833.485 158.574 834.189 158.489 834.669 158.318C835.16 158.148 835.405 157.881 835.405 157.518C835.405 157.166 835.16 156.91 834.669 156.75C834.189 156.58 833.485 156.494 832.557 156.494ZM825.709 146.734H834.413V148.398H825.709V146.734ZM830.061 148.894C830.787 148.894 831.421 149.006 831.965 149.23C832.509 149.444 832.936 149.753 833.245 150.158C833.555 150.553 833.709 151.017 833.709 151.55C833.709 152.073 833.555 152.537 833.245 152.942C832.936 153.337 832.509 153.646 831.965 153.87C831.421 154.084 830.787 154.19 830.061 154.19C829.347 154.19 828.712 154.084 828.157 153.87C827.613 153.646 827.187 153.337 826.877 152.942C826.568 152.537 826.413 152.073 826.413 151.55C826.413 151.017 826.568 150.553 826.877 150.158C827.187 149.753 827.613 149.444 828.157 149.23C828.712 149.006 829.347 148.894 830.061 148.894ZM830.061 150.43C829.592 150.43 829.208 150.526 828.909 150.718C828.611 150.9 828.461 151.177 828.461 151.55C828.461 151.913 828.611 152.185 828.909 152.366C829.208 152.548 829.592 152.638 830.061 152.638C830.541 152.638 830.925 152.548 831.213 152.366C831.512 152.185 831.661 151.913 831.661 151.55C831.661 151.177 831.512 150.9 831.213 150.718C830.925 150.526 830.541 150.43 830.061 150.43ZM829.005 145.23H831.117V147.63H829.005V145.23ZM846.716 154.558C847.783 154.558 848.711 154.67 849.5 154.894C850.289 155.118 850.897 155.438 851.324 155.854C851.761 156.27 851.98 156.772 851.98 157.358C851.98 157.934 851.761 158.43 851.324 158.846C850.897 159.273 850.289 159.598 849.5 159.822C848.711 160.046 847.783 160.158 846.716 160.158C845.66 160.158 844.737 160.046 843.948 159.822C843.159 159.598 842.545 159.273 842.108 158.846C841.681 158.43 841.468 157.934 841.468 157.358C841.468 156.772 841.681 156.27 842.108 155.854C842.545 155.438 843.159 155.118 843.948 154.894C844.737 154.67 845.66 154.558 846.716 154.558ZM846.716 156.158C846.055 156.158 845.489 156.201 845.02 156.286C844.551 156.372 844.193 156.505 843.948 156.686C843.713 156.868 843.596 157.092 843.596 157.358C843.596 157.625 843.713 157.849 843.948 158.03C844.193 158.201 844.551 158.334 845.02 158.43C845.489 158.516 846.055 158.558 846.716 158.558C847.388 158.558 847.959 158.516 848.428 158.43C848.897 158.334 849.255 158.201 849.5 158.03C849.745 157.849 849.868 157.625 849.868 157.358C849.868 157.092 849.745 156.868 849.5 156.686C849.255 156.505 848.897 156.372 848.428 156.286C847.959 156.201 847.388 156.158 846.716 156.158ZM841.628 145.998H851.02V147.662H841.628V145.998ZM840.14 151.95H853.468V153.63H840.14V151.95ZM845.068 149.358H847.196V152.366H845.068V149.358ZM849.772 145.998H851.9V147.214C851.9 147.801 851.884 148.414 851.852 149.054C851.82 149.694 851.697 150.398 851.484 151.166L849.372 150.958C849.575 150.201 849.692 149.529 849.724 148.942C849.756 148.356 849.772 147.78 849.772 147.214V145.998ZM857.515 150.286H859.627V153.006H857.515V150.286ZM862.715 150.286H864.843V153.006H862.715V150.286ZM854.491 152.366H867.899V154.03H854.491V152.366ZM861.163 154.782C862.763 154.782 864.022 155.017 864.939 155.486C865.856 155.945 866.315 156.606 866.315 157.47C866.315 158.324 865.856 158.985 864.939 159.454C864.022 159.924 862.763 160.158 861.163 160.158C859.563 160.158 858.304 159.924 857.387 159.454C856.48 158.985 856.027 158.324 856.027 157.47C856.027 156.606 856.48 155.945 857.387 155.486C858.304 155.017 859.563 154.782 861.163 154.782ZM861.163 156.382C860.502 156.382 859.947 156.425 859.499 156.51C859.062 156.585 858.731 156.702 858.507 156.862C858.283 157.022 858.171 157.225 858.171 157.47C858.171 157.716 858.283 157.924 858.507 158.094C858.731 158.254 859.062 158.372 859.499 158.446C859.947 158.521 860.502 158.558 861.163 158.558C861.824 158.558 862.374 158.521 862.811 158.446C863.259 158.372 863.595 158.254 863.819 158.094C864.043 157.924 864.155 157.716 864.155 157.47C864.155 157.225 864.043 157.022 863.819 156.862C863.595 156.702 863.259 156.585 862.811 156.51C862.374 156.425 861.824 156.382 861.163 156.382ZM861.195 145.55C862.294 145.55 863.243 145.668 864.043 145.902C864.854 146.126 865.478 146.452 865.915 146.878C866.352 147.305 866.571 147.812 866.571 148.398C866.571 148.985 866.352 149.492 865.915 149.918C865.478 150.334 864.854 150.66 864.043 150.894C863.243 151.118 862.294 151.23 861.195 151.23C860.118 151.23 859.174 151.118 858.363 150.894C857.552 150.66 856.928 150.334 856.491 149.918C856.054 149.492 855.835 148.985 855.835 148.398C855.835 147.812 856.054 147.305 856.491 146.878C856.928 146.452 857.552 146.126 858.363 145.902C859.174 145.668 860.118 145.55 861.195 145.55ZM861.195 147.166C860.534 147.166 859.963 147.214 859.483 147.31C859.003 147.396 858.64 147.529 858.395 147.71C858.16 147.892 858.043 148.121 858.043 148.398C858.043 148.665 858.16 148.889 858.395 149.07C858.64 149.252 859.003 149.39 859.483 149.486C859.963 149.572 860.534 149.614 861.195 149.614C861.878 149.614 862.454 149.572 862.923 149.486C863.392 149.39 863.75 149.252 863.995 149.07C864.24 148.889 864.363 148.665 864.363 148.398C864.363 148.121 864.24 147.892 863.995 147.71C863.75 147.529 863.392 147.396 862.923 147.31C862.454 147.214 861.878 147.166 861.195 147.166ZM797.271 167.534C800.263 167.534 802.135 169.086 802.135 171.598C802.135 174.094 800.263 175.646 797.271 175.646H795.015V178.734H792.423V167.534H797.271ZM797.127 173.534C798.711 173.534 799.511 172.814 799.511 171.598C799.511 170.366 798.711 169.646 797.127 169.646H795.015V173.534H797.127ZM811.346 167.534H813.938V178.734H811.346V174.142H806.258V178.734H803.666V167.534H806.258V171.95H811.346V167.534ZM825.996 167.534L821.644 174.766V178.734H819.052V174.734L814.716 167.534H817.468L820.46 172.51L823.452 167.534H825.996ZM840.891 178.734H838.107L835.947 175.614H835.819H833.563V178.734H830.971V167.534H835.819C838.811 167.534 840.683 169.086 840.683 171.598C840.683 173.278 839.835 174.51 838.379 175.134L840.891 178.734ZM838.059 171.598C838.059 170.366 837.259 169.646 835.675 169.646H833.563V173.55H835.675C837.259 173.55 838.059 172.814 838.059 171.598ZM844.581 178.734V169.646H840.997V167.534H850.757V169.646H847.173V178.734H844.581ZM857.099 178.926C853.563 178.926 850.971 176.462 850.971 173.134C850.971 169.806 853.563 167.342 857.099 167.342C860.619 167.342 863.227 169.79 863.227 173.134C863.227 176.478 860.619 178.926 857.099 178.926ZM857.099 176.718C859.099 176.718 860.603 175.262 860.603 173.134C860.603 171.006 859.099 169.55 857.099 169.55C855.099 169.55 853.595 171.006 853.595 173.134C853.595 175.262 855.099 176.718 857.099 176.718ZM868.535 178.926C866.759 178.926 864.967 178.398 863.975 177.63L864.855 175.678C865.799 176.366 867.207 176.846 868.551 176.846C870.087 176.846 870.711 176.334 870.711 175.646C870.711 173.55 864.199 174.99 864.199 170.83C864.199 168.926 865.735 167.342 868.919 167.342C870.327 167.342 871.767 167.678 872.807 168.334L872.007 170.302C870.967 169.71 869.895 169.422 868.903 169.422C867.367 169.422 866.775 169.998 866.775 170.702C866.775 172.766 873.287 171.342 873.287 175.454C873.287 177.326 871.735 178.926 868.535 178.926ZM825.198 187.39H829.566V189.102H825.198V187.39ZM825.198 190.99H829.566V192.702H825.198V190.99ZM828.766 185.342H830.91V196.174H828.766V185.342ZM821.118 198.19H831.246V199.902H821.118V198.19ZM821.118 195.118H823.246V199.086H821.118V195.118ZM822.59 186.222C823.326 186.222 823.987 186.388 824.574 186.718C825.171 187.038 825.641 187.486 825.982 188.062C826.334 188.638 826.51 189.3 826.51 190.046C826.51 190.782 826.334 191.444 825.982 192.03C825.641 192.606 825.171 193.06 824.574 193.39C823.987 193.721 823.326 193.886 822.59 193.886C821.865 193.886 821.203 193.721 820.606 193.39C820.019 193.06 819.55 192.606 819.198 192.03C818.857 191.444 818.686 190.782 818.686 190.046C818.686 189.3 818.857 188.638 819.198 188.062C819.55 187.486 820.019 187.038 820.606 186.718C821.203 186.388 821.865 186.222 822.59 186.222ZM822.59 188.078C822.238 188.078 821.918 188.158 821.63 188.318C821.342 188.478 821.113 188.708 820.942 189.006C820.782 189.294 820.702 189.641 820.702 190.046C820.702 190.462 820.782 190.82 820.942 191.118C821.113 191.406 821.342 191.63 821.63 191.79C821.918 191.94 822.238 192.014 822.59 192.014C822.953 192.014 823.273 191.94 823.55 191.79C823.838 191.63 824.062 191.406 824.222 191.118C824.393 190.82 824.478 190.462 824.478 190.046C824.478 189.641 824.393 189.294 824.222 189.006C824.062 188.708 823.838 188.478 823.55 188.318C823.273 188.158 822.953 188.078 822.59 188.078ZM834.445 186.19H843.725V187.87H834.445V186.19ZM832.909 192.494H846.317V194.222H832.909V192.494ZM838.461 193.71H840.605V200.158H838.461V193.71ZM842.637 186.19H844.733V187.502C844.733 188.036 844.722 188.601 844.701 189.198C844.69 189.796 844.647 190.452 844.573 191.166C844.498 191.87 844.359 192.66 844.157 193.534L842.077 193.278C842.354 192.052 842.514 190.98 842.557 190.062C842.61 189.134 842.637 188.281 842.637 187.502V186.19Z" fill="#2F80EB"/>
<rect x="2.21017" y="172.752" width="110.39" height="110.39" transform="rotate(-45 2.21017 172.752)" fill="white" stroke="#2F80EB" stroke-width="2"/>
<path d="M65.1278 177.678L64.1358 175.278H58.9358L57.9438 177.678H55.2878L60.2798 166.478H62.8398L67.8478 177.678H65.1278ZM59.7678 173.31H63.3198L61.5438 169.022L59.7678 173.31ZM68.6898 177.678V166.478H71.2818V177.678H68.6898ZM80.119 171.918H82.247V174.83H80.119V171.918ZM85.463 171.918H87.591V174.83H85.463V171.918ZM77.143 170.926H90.551V172.606H77.143V170.926ZM83.815 173.694C85.415 173.694 86.6737 173.928 87.591 174.398C88.5083 174.867 88.967 175.534 88.967 176.398C88.967 177.272 88.5083 177.944 87.591 178.414C86.6737 178.883 85.415 179.118 83.815 179.118C82.215 179.118 80.9563 178.883 80.039 178.414C79.1323 177.944 78.679 177.272 78.679 176.398C78.679 175.534 79.1323 174.867 80.039 174.398C80.9563 173.928 82.215 173.694 83.815 173.694ZM83.815 175.294C83.1537 175.294 82.599 175.336 82.151 175.422C81.7137 175.507 81.383 175.63 81.159 175.79C80.935 175.95 80.823 176.152 80.823 176.398C80.823 176.654 80.935 176.867 81.159 177.038C81.383 177.198 81.7137 177.315 82.151 177.39C82.599 177.464 83.1537 177.502 83.815 177.502C84.4763 177.502 85.0257 177.464 85.463 177.39C85.911 177.315 86.247 177.198 86.471 177.038C86.695 176.867 86.807 176.654 86.807 176.398C86.807 176.152 86.695 175.95 86.471 175.79C86.247 175.63 85.911 175.507 85.463 175.422C85.0257 175.336 84.4763 175.294 83.815 175.294ZM83.863 164.526C84.951 164.526 85.895 164.643 86.695 164.878C87.5057 165.102 88.1297 165.427 88.567 165.854C89.0043 166.28 89.223 166.787 89.223 167.374C89.223 167.96 89.0043 168.467 88.567 168.894C88.1297 169.32 87.5057 169.651 86.695 169.886C85.895 170.11 84.951 170.222 83.863 170.222C82.775 170.222 81.8257 170.11 81.015 169.886C80.2043 169.651 79.5803 169.32 79.143 168.894C78.7057 168.467 78.487 167.96 78.487 167.374C78.487 166.787 78.7057 166.28 79.143 165.854C79.5803 165.427 80.2043 165.102 81.015 164.878C81.8257 164.643 82.775 164.526 83.863 164.526ZM83.863 166.142C83.191 166.142 82.615 166.19 82.135 166.286C81.655 166.371 81.2923 166.504 81.047 166.686C80.8123 166.867 80.695 167.096 80.695 167.374C80.695 167.651 80.8123 167.88 81.047 168.062C81.2923 168.243 81.655 168.382 82.135 168.478C82.615 168.563 83.191 168.606 83.863 168.606C84.535 168.606 85.1057 168.563 85.575 168.478C86.0443 168.382 86.4017 168.243 86.647 168.062C86.8923 167.88 87.015 167.651 87.015 167.374C87.015 167.096 86.8923 166.867 86.647 166.686C86.4017 166.504 86.0443 166.371 85.575 166.286C85.1057 166.19 84.535 166.142 83.863 166.142ZM101.078 164.286H103.206V172.958H101.078V164.286ZM102.374 167.838H105.174V169.582H102.374V167.838ZM93.5738 173.534H95.6858V174.638H101.11V173.534H103.206V178.942H93.5738V173.534ZM95.6858 176.238V177.278H101.11V176.238H95.6858ZM91.5578 165.566H100.262V167.246H91.5578V165.566ZM95.9098 167.63C96.6351 167.63 97.2698 167.742 97.8138 167.966C98.3578 168.179 98.7844 168.483 99.0938 168.878C99.4031 169.272 99.5578 169.731 99.5578 170.254C99.5578 170.776 99.4031 171.235 99.0938 171.63C98.7844 172.024 98.3578 172.334 97.8138 172.558C97.2698 172.771 96.6351 172.878 95.9098 172.878C95.1951 172.878 94.5604 172.771 94.0058 172.558C93.4618 172.334 93.0351 172.024 92.7258 171.63C92.4164 171.235 92.2618 170.776 92.2618 170.254C92.2618 169.731 92.4164 169.272 92.7258 168.878C93.0351 168.483 93.4618 168.179 94.0058 167.966C94.5604 167.742 95.1951 167.63 95.9098 167.63ZM95.9098 169.182C95.4404 169.182 95.0564 169.278 94.7578 169.47C94.4591 169.651 94.3098 169.912 94.3098 170.254C94.3098 170.606 94.4591 170.878 94.7578 171.07C95.0564 171.251 95.4404 171.342 95.9098 171.342C96.3898 171.342 96.7738 171.251 97.0618 171.07C97.3604 170.878 97.5098 170.606 97.5098 170.254C97.5098 169.912 97.3604 169.651 97.0618 169.47C96.7738 169.278 96.3898 169.182 95.9098 169.182ZM94.8538 164.158H96.9658V166.494H94.8538V164.158Z" fill="#2F80EB"/>
<rect x="658.566" y="79.4707" width="110.39" height="110.39" transform="rotate(-45 658.566 79.4707)" fill="white" stroke="#2F80EB" stroke-width="2"/>
<path d="M717.481 73.1965H719.961L716.297 84.3965H713.513L711.049 76.8125L708.505 84.3965H705.737L702.057 73.1965H704.745L707.273 81.0685L709.913 73.1965H712.313L714.873 81.1325L717.481 73.1965ZM728.703 80.1245C728.703 80.3165 728.671 80.5885 728.655 80.7965H722.143C722.383 81.8685 723.295 82.5245 724.607 82.5245C725.519 82.5245 726.175 82.2525 726.767 81.6925L728.095 83.1325C727.295 84.0445 726.095 84.5245 724.543 84.5245C721.567 84.5245 719.631 82.6525 719.631 80.0925C719.631 77.5165 721.599 75.6605 724.223 75.6605C726.751 75.6605 728.703 77.3565 728.703 80.1245ZM724.239 77.5485C723.103 77.5485 722.287 78.2365 722.111 79.3405H726.351C726.175 78.2525 725.359 77.5485 724.239 77.5485ZM735.133 75.6605C737.549 75.6605 739.421 77.3885 739.421 80.0925C739.421 82.7965 737.549 84.5245 735.133 84.5245C733.981 84.5245 733.053 84.1565 732.429 83.4045V84.3965H730.045V72.5245H732.541V76.7005C733.181 75.9965 734.061 75.6605 735.133 75.6605ZM734.701 82.4765C735.949 82.4765 736.893 81.5805 736.893 80.0925C736.893 78.6045 735.949 77.7085 734.701 77.7085C733.453 77.7085 732.509 78.6045 732.509 80.0925C732.509 81.5805 733.453 82.4765 734.701 82.4765ZM750.868 84.3965H748.084L745.924 81.2765H745.796H743.54V84.3965H740.948V73.1965H745.796C748.788 73.1965 750.66 74.7485 750.66 77.2605C750.66 78.9405 749.812 80.1725 748.356 80.7965L750.868 84.3965ZM748.036 77.2605C748.036 76.0285 747.236 75.3085 745.652 75.3085H743.54V79.2125H745.652C747.236 79.2125 748.036 78.4765 748.036 77.2605ZM754.557 84.3965V75.3085H750.973V73.1965H760.733V75.3085H757.149V84.3965H754.557ZM767.012 84.5885C763.54 84.5885 760.948 82.1725 760.948 78.7965C760.948 75.4205 763.54 73.0045 767.028 73.0045C768.964 73.0045 770.58 73.7085 771.636 74.9885L769.972 76.5245C769.22 75.6605 768.276 75.2125 767.156 75.2125C765.06 75.2125 763.572 76.6845 763.572 78.7965C763.572 80.9085 765.06 82.3805 767.156 82.3805C768.276 82.3805 769.22 81.9325 769.972 81.0525L771.636 82.5885C770.58 83.8845 768.964 84.5885 767.012 84.5885Z" fill="#2F80EB"/>
<defs>
<filter id="filter0_f_196_134" x="337.662" y="53.4902" width="236.281" height="236.281" filterUnits="userSpaceOnUse" color-interpolation-filters="sRGB">
<feFlood flood-opacity="0" result="BackgroundImageFix"/>
<feBlend mode="normal" in="SourceGraphic" in2="BackgroundImageFix" result="shape"/>
<feGaussianBlur stdDeviation="6" result="effect1_foregroundBlur_196_134"/>
</filter>
<filter id="filter1_f_196_134" x="357.396" y="73.2246" width="196.812" height="196.812" filterUnits="userSpaceOnUse" color-interpolation-filters="sRGB">
<feFlood flood-opacity="0" result="BackgroundImageFix"/>
<feBlend mode="normal" in="SourceGraphic" in2="BackgroundImageFix" result="shape"/>
<feGaussianBlur stdDeviation="4" result="effect1_foregroundBlur_196_134"/>
</filter>
<filter id="filter2_d_196_134" x="186.734" y="88.1602" width="166.943" height="166.941" filterUnits="userSpaceOnUse" color-interpolation-filters="sRGB">
<feFlood flood-opacity="0" result="BackgroundImageFix"/>
<feColorMatrix in="SourceAlpha" type="matrix" values="0 0 0 0 0 0 0 0 0 0 0 0 0 0 0 0 0 0 127 0" result="hardAlpha"/>
<feOffset/>
<feGaussianBlur stdDeviation="2"/>
<feComposite in2="hardAlpha" operator="out"/>
<feColorMatrix type="matrix" values="0 0 0 0 1 0 0 0 0 1 0 0 0 0 1 0 0 0 0.25 0"/>
<feBlend mode="normal" in2="BackgroundImageFix" result="effect1_dropShadow_196_134"/>
<feBlend mode="normal" in="SourceGraphic" in2="effect1_dropShadow_196_134" result="shape"/>
</filter>
<filter id="filter3_d_196_134" x="557.62" y="88.1543" width="166.943" height="166.941" filterUnits="userSpaceOnUse" color-interpolation-filters="sRGB">
<feFlood flood-opacity="0" result="BackgroundImageFix"/>
<feColorMatrix in="SourceAlpha" type="matrix" values="0 0 0 0 0 0 0 0 0 0 0 0 0 0 0 0 0 0 127 0" result="hardAlpha"/>
<feOffset/>
<feGaussianBlur stdDeviation="2"/>
<feComposite in2="hardAlpha" operator="out"/>
<feColorMatrix type="matrix" values="0 0 0 0 1 0 0 0 0 1 0 0 0 0 1 0 0 0 0.25 0"/>
<feBlend mode="normal" in2="BackgroundImageFix" result="effect1_dropShadow_196_134"/>
<feBlend mode="normal" in="SourceGraphic" in2="effect1_dropShadow_196_134" result="shape"/>
</filter>
<linearGradient id="paint0_linear_196_134" x1="363.01" y1="157.992" x2="442.616" y2="337.37" gradientUnits="userSpaceOnUse">
<stop stop-color="#4896FC"/>
<stop offset="1" stop-color="#0D448C"/>
</linearGradient>
<linearGradient id="paint1_linear_196_134" x1="376.766" y1="160.014" x2="444.57" y2="312.8" gradientUnits="userSpaceOnUse">
<stop stop-color="#4896FC"/>
<stop offset="1" stop-color="#0D448C"/>
</linearGradient>
<linearGradient id="paint2_linear_196_134" x1="386.325" y1="161.419" x2="445.929" y2="295.726" gradientUnits="userSpaceOnUse">
<stop stop-color="#4896FC"/>
<stop offset="1" stop-color="#0D448C"/>
</linearGradient>
<linearGradient id="paint3_linear_196_134" x1="512.685" y1="170.956" x2="344.205" y2="261.553" gradientUnits="userSpaceOnUse">
<stop stop-color="#C7D3F3"/>
<stop offset="0.283654" stop-color="#1D64F0"/>
<stop offset="0.55728" stop-color="#155A8E"/>
<stop offset="0.849414" stop-color="#547DF2"/>
<stop offset="1" stop-color="#365ED4"/>
</linearGradient>
</defs>
</svg>
