<svg width="48" height="48" viewBox="0 0 48 48" fill="none" xmlns="http://www.w3.org/2000/svg">
<g clip-path="url(#clip0_285_321)">
<path d="M26.4999 32C26.4999 30.56 25.4286 29.504 24 29.504C22.5714 29.504 21.5 30.56 21.5 31.968C21.5 33.44 22.5389 34.496 24 34.496C25.4286 34.496 26.4999 33.44 26.4999 32Z" fill="#222222"/>
<path d="M26 26.0001V12H21.9999V26.0001H26Z" fill="#222222"/>
<path fill-rule="evenodd" clip-rule="evenodd" d="M19.53 2.14138C21.132 0.965382 21.933 0.377382 22.8 0.149382C23.5747 -0.0471898 24.3863 -0.0471898 25.161 0.149382C26.037 0.377382 26.841 0.965382 28.431 2.14138L30.462 3.63238C31.017 4.04038 31.296 4.24438 31.596 4.40338C31.864 4.54338 32.143 4.65938 32.433 4.75138C32.76 4.85038 33.099 4.90138 33.78 5.00638L36.27 5.38738C38.235 5.68738 39.216 5.84038 39.99 6.29938C40.68 6.70438 41.256 7.28038 41.661 7.97038C42.12 8.75038 42.27 9.73438 42.573 11.6904L42.954 14.1804C43.059 14.8614 43.11 15.2034 43.209 15.5304C43.299 15.8204 43.415 16.0984 43.557 16.3644C43.719 16.6644 43.92 16.9434 44.328 17.4984L45.819 19.5294C46.995 21.1314 47.583 21.9324 47.811 22.7994C48.0076 23.5741 48.0076 24.3857 47.811 25.1604C47.586 26.0364 46.995 26.8404 45.819 28.4304L44.328 30.4614C44.0425 30.8192 43.7848 31.1983 43.557 31.5954C43.4147 31.8637 43.2981 32.145 43.209 32.4354C43.11 32.7594 43.059 33.0984 42.954 33.7794L42.573 36.2694C42.273 38.2344 42.12 39.2154 41.661 39.9894C41.256 40.6794 40.68 41.2554 39.99 41.6604C39.21 42.1194 38.226 42.2694 36.27 42.5724L33.78 42.9534C33.3251 43.005 32.8748 43.0912 32.433 43.2114C32.143 43.2994 31.864 43.4154 31.596 43.5594C31.296 43.7184 31.017 43.9194 30.462 44.3304L28.431 45.8214C26.829 46.9974 26.028 47.5854 25.161 47.8134C24.3863 48.01 23.5747 48.01 22.8 47.8134C21.924 47.5854 21.12 46.9974 19.53 45.8214L17.499 44.3304C17.1412 44.0449 16.7621 43.7872 16.365 43.5594C16.0976 43.4172 15.8173 43.3007 15.528 43.2114C15.0862 43.0912 14.6359 43.005 14.181 42.9534L11.691 42.5724C9.72599 42.2724 8.74199 42.1224 7.97099 41.6604C7.28344 41.2513 6.70903 40.6769 6.29999 39.9894C5.84099 39.2094 5.69099 38.2254 5.38799 36.2694L5.00699 33.7794C4.90199 33.0984 4.85099 32.7594 4.75199 32.4324C4.66446 32.1424 4.54787 31.862 4.40399 31.5954C4.17621 31.1983 3.91846 30.8192 3.63299 30.4614L2.14199 28.4304C0.965992 26.8284 0.377992 26.0304 0.149992 25.1604C-0.0465794 24.3857 -0.0465794 23.5741 0.149992 22.7994C0.374992 21.9234 0.965992 21.1194 2.14199 19.5294L3.63299 17.4984C4.04099 16.9434 4.24499 16.6644 4.40399 16.3644C4.54399 16.0984 4.65999 15.8194 4.75199 15.5274C4.85099 15.2004 4.90199 14.8614 5.00699 14.1804L5.38799 11.6904C5.68799 9.72538 5.84099 8.74138 6.29999 7.97038C6.70499 7.28038 7.28099 6.71038 7.97099 6.29938C8.75099 5.84038 9.73499 5.69038 11.691 5.38738L14.181 5.00638C14.862 4.90438 15.204 4.85038 15.528 4.75138C15.818 4.66138 16.097 4.54538 16.365 4.40338C16.665 4.24438 16.944 4.04038 17.499 3.63238L19.53 2.14138ZM26.67 4.55938L28.803 6.12538C29.256 6.45838 29.703 6.78838 30.201 7.05238C30.641 7.28638 31.097 7.47538 31.569 7.61938C32.1086 7.76859 32.6579 7.87987 33.213 7.95238L35.829 8.35438C38.052 8.69638 38.328 8.78938 38.49 8.88538C38.744 9.03738 38.946 9.23938 39.096 9.49138C39.192 9.65338 39.288 9.92938 39.627 12.1524L40.029 14.7684C40.1015 15.3235 40.2128 15.8728 40.362 16.4124C40.508 16.8884 40.697 17.3444 40.929 17.7804C41.193 18.2784 41.523 18.7254 41.856 19.1784L43.422 21.3114C44.754 23.1234 44.88 23.3844 44.928 23.5704C44.9972 23.8522 44.9972 24.1466 44.928 24.4284C44.88 24.6114 44.754 24.8724 43.422 26.6874L41.856 28.8204C41.523 29.2734 41.193 29.7204 40.929 30.2184C40.697 30.6554 40.5072 31.1134 40.362 31.5864C40.2128 32.1259 40.1015 32.6753 40.029 33.2304L39.627 35.8464C39.285 38.0694 39.192 38.3454 39.096 38.5074C38.9457 38.7552 38.7378 38.9631 38.49 39.1134C38.328 39.2094 38.052 39.3054 35.829 39.6444L33.213 40.0464C32.6579 40.1189 32.1086 40.2302 31.569 40.3794C31.096 40.5246 30.638 40.7144 30.201 40.9464C29.703 41.2104 29.256 41.5404 28.803 41.8734L26.67 43.4394C24.858 44.7714 24.597 44.8974 24.411 44.9454C24.1292 45.0145 23.8348 45.0145 23.553 44.9454C23.37 44.8974 23.109 44.7714 21.294 43.4394L19.161 41.8734C18.7172 41.5322 18.25 41.2224 17.763 40.9464C17.326 40.7144 16.8679 40.5246 16.395 40.3794C15.8554 40.2302 15.3061 40.1189 14.751 40.0464L12.135 39.6444C9.91199 39.3024 9.63599 39.2094 9.47399 39.1134C9.22615 38.9631 9.01826 38.7552 8.86799 38.5074C8.77199 38.3454 8.67599 38.0694 8.33699 35.8464L7.93499 33.2304C7.86248 32.6753 7.7512 32.1259 7.60199 31.5864C7.4568 31.1134 7.26695 30.6554 7.03499 30.2184C6.77099 29.7204 6.44099 29.2734 6.10799 28.8204L4.54199 26.6874C3.20999 24.8754 3.08399 24.6144 3.03599 24.4284C2.96683 24.1466 2.96683 23.8522 3.03599 23.5704C3.08399 23.3874 3.20999 23.1264 4.54199 21.3114L6.10799 19.1784C6.44099 18.7254 6.77099 18.2784 7.03499 17.7804C7.26699 17.3404 7.45599 16.8844 7.60199 16.4124C7.7512 15.8728 7.86248 15.3235 7.93499 14.7684L8.33699 12.1524C8.67899 9.92938 8.77199 9.65338 8.86799 9.49138C9.01826 9.24354 9.22615 9.03565 9.47399 8.88538C9.63599 8.78938 9.91199 8.69338 12.135 8.35438L14.751 7.95238C15.3061 7.87987 15.8554 7.76859 16.395 7.61938C16.871 7.47338 17.327 7.28438 17.763 7.05238C18.261 6.78838 18.708 6.45838 19.161 6.12538L21.294 4.55938C23.106 3.22738 23.367 3.10138 23.553 3.05338C23.8348 2.98422 24.1292 2.98422 24.411 3.05338C24.594 3.10138 24.855 3.22738 26.67 4.55938Z" fill="#222222"/>
</g>
<defs>
<clipPath id="clip0_285_321">
<rect width="48" height="48" fill="white"/>
</clipPath>
</defs>
</svg>
