<svg width="24" height="24" viewBox="0 0 24 24" fill="none" xmlns="http://www.w3.org/2000/svg">
<rect width="24" height="24" transform="translate(24 24) rotate(-180)" fill="black" fill-opacity="0.2"/>
<path fill-rule="evenodd" clip-rule="evenodd" d="M9.29297 16.7072C9.1055 16.5197 9.00018 16.2654 9.00018 16.0002C9.00018 15.735 9.1055 15.4807 9.29297 15.2932L12.586 12.0002L9.29297 8.70721C9.11081 8.51861 9.01002 8.26601 9.0123 8.00381C9.01457 7.74162 9.11974 7.4908 9.30515 7.30539C9.49056 7.11999 9.74137 7.01482 10.0036 7.01254C10.2658 7.01026 10.5184 7.11105 10.707 7.29321L14.707 11.2932C14.8944 11.4807 14.9998 11.735 14.9998 12.0002C14.9998 12.2654 14.8944 12.5197 14.707 12.7072L10.707 16.7072C10.5194 16.8947 10.2651 17 9.99997 17C9.73481 17 9.4805 16.8947 9.29297 16.7072Z" fill="white" fill-opacity="0.5"/>
</svg>
