<svg width="796" height="651" viewBox="0 0 796 651" fill="none" xmlns="http://www.w3.org/2000/svg">
<line x1="107.846" y1="172.843" x2="693.291" y2="172.843" stroke="#D9D9D9"/>
<line x1="497.359" y1="173.343" x2="497.359" y2="399.331" stroke="#D9D9D9"/>
<line x1="693.289" y1="399.831" x2="496.857" y2="399.831" stroke="#D9D9D9"/>
<line x1="543.578" y1="35.9531" x2="543.578" y2="173.344" stroke="#D9D9D9" stroke-dasharray="4 4"/>
<line x1="427.529" y1="337.198" x2="496.858" y2="337.198" stroke="#D9D9D9" stroke-dasharray="4 4"/>
<rect y="70.6211" width="205.419" height="205.444" rx="100" fill="#F5F5F5"/>
<path d="M85.9459 171.64C85.6459 169.92 84.2859 168.94 82.5859 168.96C80.2459 168.94 78.6059 170.74 78.6259 173.92C78.6059 177.18 80.2659 178.9 82.5459 178.92C84.2459 178.9 85.6059 177.98 85.9459 176.32H88.5059C88.1259 179.02 85.8859 181.2 82.5459 181.2C78.7859 181.2 76.0659 178.48 76.0659 173.92C76.0659 169.36 78.8259 166.66 82.5459 166.68C85.6459 166.66 88.0659 168.48 88.5059 171.64H85.9459ZM99.8232 171.64C99.5232 169.92 98.1632 168.94 96.4632 168.96C94.1232 168.94 92.4832 170.74 92.5032 173.92C92.4832 177.18 94.1432 178.9 96.4232 178.92C98.1232 178.9 99.4832 177.98 99.8232 176.32H102.383C102.003 179.02 99.7632 181.2 96.4232 181.2C92.6632 181.2 89.9432 178.48 89.9432 173.92C89.9432 169.36 92.7032 166.66 96.4232 166.68C99.5232 166.66 101.943 168.48 102.383 171.64H99.8232ZM103.541 169V166.84H114.821V169H110.461V181H107.941V169H103.541ZM118.257 166.84L121.977 178H122.097L125.777 166.84H128.577L123.617 181H120.457L115.497 166.84H118.257Z" fill="#1B1B1D"/>
<path d="M470.012 4.84H473.132L477.332 15.12H477.492L481.692 4.84H484.812V19H482.372V9.28H482.252L478.332 18.96H476.492L472.572 9.24H472.452V19H470.012V4.84ZM492.294 14.24H494.614L495.834 15.82C496.634 14.98 497.114 13.66 497.094 11.92C497.114 8.7 495.494 6.94 493.174 6.96C490.874 6.94 489.234 8.7 489.254 11.92C489.234 15.16 490.874 16.9 493.174 16.92C493.534 16.92 493.894 16.88 494.234 16.78L492.294 14.24ZM486.694 11.92C486.694 7.36 489.454 4.66 493.174 4.68C496.874 4.66 499.674 7.36 499.654 11.92C499.674 14.48 498.794 16.46 497.374 17.7L499.334 20.24H496.854L495.674 18.74C494.914 19.04 494.074 19.2 493.174 19.2C489.454 19.2 486.694 16.48 486.694 11.92ZM500.272 7V4.84H511.552V7H507.192V19H504.672V7H500.272ZM512.508 7V4.84H523.788V7H519.428V19H516.908V7H512.508ZM537.431 8.76C537.311 7.52 536.291 6.82 534.751 6.84C533.151 6.82 532.191 7.6 532.191 8.68C532.171 9.86 533.431 10.36 534.591 10.64L535.911 10.96C538.031 11.46 540.071 12.58 540.071 15.04C540.071 17.52 538.111 19.22 534.711 19.2C531.431 19.22 529.351 17.64 529.231 14.84H531.751C531.851 16.32 533.091 17.04 534.711 17.04C536.371 17.04 537.531 16.22 537.511 15C537.531 13.9 536.511 13.44 534.991 13.04L533.391 12.64C531.051 12.02 529.611 10.86 529.591 8.84C529.611 6.32 531.831 4.66 534.791 4.68C537.791 4.66 539.831 6.36 539.871 8.76H537.431ZM548.432 14.52V8.4H550.912V19H548.512V17.12H548.392C547.912 18.3 546.812 19.14 545.192 19.12C543.112 19.14 541.672 17.7 541.672 15.16V8.4H544.152V14.76C544.152 16.12 544.972 16.96 546.152 16.96C547.272 16.96 548.432 16.16 548.432 14.52ZM553.033 19V4.84H555.513V10.12H555.633C556.013 9.38 556.773 8.26 558.633 8.24C561.093 8.26 563.033 10.18 563.033 13.72C563.033 17.2 561.153 19.18 558.673 19.2C556.833 19.18 556.013 18.1 555.633 17.32H555.473V19H553.033ZM555.473 13.68C555.453 15.76 556.373 17.14 557.953 17.16C559.613 17.14 560.493 15.7 560.513 13.68C560.493 11.72 559.633 10.3 557.953 10.28C556.353 10.3 555.453 11.64 555.473 13.68ZM570.583 11.4C570.423 10.62 569.763 10.1 568.703 10.12C567.643 10.1 566.863 10.64 566.863 11.36C566.863 11.92 567.303 12.32 568.383 12.56L570.183 12.96C572.183 13.38 573.163 14.32 573.143 15.84C573.163 17.82 571.403 19.22 568.663 19.2C565.943 19.22 564.343 18 564.103 15.96H566.623C566.783 16.88 567.483 17.32 568.623 17.32C569.843 17.32 570.623 16.84 570.623 16.04C570.623 15.44 570.143 15.04 569.103 14.8L567.383 14.44C565.403 14.04 564.383 13.02 564.383 11.52C564.383 9.54 566.083 8.26 568.663 8.24C571.203 8.26 572.763 9.5 572.943 11.4H570.583ZM579.311 19.2C576.131 19.22 574.211 16.94 574.231 13.76C574.211 10.5 576.191 8.26 579.271 8.24C581.871 8.26 583.671 9.76 583.831 12.04H581.471C581.271 11.04 580.531 10.26 579.311 10.24C577.771 10.26 576.731 11.56 576.751 13.68C576.731 15.88 577.751 17.18 579.311 17.16C580.411 17.18 581.231 16.54 581.471 15.4H583.831C583.651 17.62 581.951 19.22 579.311 19.2ZM585.306 19V8.4H587.706V10.16H587.826C588.206 8.94 589.226 8.24 590.426 8.24C590.726 8.24 591.126 8.26 591.346 8.32V10.6C591.126 10.52 590.606 10.46 590.186 10.44C588.806 10.46 587.786 11.4 587.786 12.76V19H585.306ZM592.426 19V8.4H594.906V19H592.426ZM592.226 5.52C592.226 4.78 592.886 4.18 593.666 4.16C594.466 4.18 595.106 4.78 595.106 5.52C595.106 6.28 594.466 6.88 593.666 6.88C592.886 6.88 592.226 6.28 592.226 5.52ZM597.029 19V4.84H599.509V10.12H599.629C600.009 9.38 600.769 8.26 602.629 8.24C605.089 8.26 607.029 10.18 607.029 13.72C607.029 17.2 605.149 19.18 602.669 19.2C600.829 19.18 600.009 18.1 599.629 17.32H599.469V19H597.029ZM599.469 13.68C599.449 15.76 600.369 17.14 601.949 17.16C603.609 17.14 604.489 15.7 604.509 13.68C604.489 11.72 603.629 10.3 601.949 10.28C600.349 10.3 599.449 11.64 599.469 13.68ZM613.259 19.2C610.079 19.22 608.119 17.08 608.139 13.76C608.119 10.48 610.119 8.26 613.139 8.24C615.739 8.26 617.979 9.88 617.979 13.6V14.4H610.579C610.639 16.22 611.679 17.28 613.299 17.28C614.399 17.28 615.119 16.8 615.459 16.16H617.899C617.439 18 615.739 19.22 613.259 19.2ZM610.579 12.68H615.579C615.579 11.26 614.619 10.2 613.179 10.2C611.679 10.2 610.679 11.32 610.579 12.68Z" fill="#1B85AB"/>
<path d="M386.413 345V330.84H388.933V336.84H395.533V330.84H398.093V345H395.533V339H388.933V345H386.413ZM400.329 345V330.84H402.849V342.88H409.089V345H400.329ZM418.449 334.76C418.329 333.52 417.309 332.82 415.769 332.84C414.169 332.82 413.209 333.6 413.209 334.68C413.189 335.86 414.449 336.36 415.609 336.64L416.929 336.96C419.049 337.46 421.089 338.58 421.089 341.04C421.089 343.52 419.129 345.22 415.729 345.2C412.449 345.22 410.369 343.64 410.249 340.84H412.769C412.869 342.32 414.109 343.04 415.729 343.04C417.389 343.04 418.549 342.22 418.529 341C418.549 339.9 417.529 339.44 416.009 339.04L414.409 338.64C412.069 338.02 410.629 336.86 410.609 334.84C410.629 332.32 412.849 330.66 415.809 330.68C418.809 330.66 420.849 332.36 420.889 334.76H418.449Z" fill="#1B85AB"/>
<rect y="522.598" width="251.639" height="128.402" rx="8" fill="#D6F5F0"/>
<rect x="272.18" y="522.598" width="251.639" height="128.402" rx="8" fill="#D6F5F0"/>
<rect x="544.359" y="522.598" width="251.639" height="128.402" rx="8" fill="#D6F5F0"/>
<path d="M90.1692 583.928C90.1492 586.648 92.8292 589.388 96.5292 590.008L95.5292 591.848C92.5692 591.228 90.1692 589.428 89.0292 587.068C87.8492 589.408 85.4292 591.208 82.4892 591.848L81.5292 590.008C85.1692 589.368 87.8292 586.628 87.8492 583.928V582.608H90.1692V583.928ZM81.0492 596.888V595.088H97.1692V596.888H81.0492ZM112.254 590.728V592.488H99.8944V582.888H112.134V584.648H102.094V586.768H111.694V588.488H102.094V590.728H112.254ZM97.9344 597.008V595.208H114.054V597.008H97.9344ZM129.5 581.528V591.968H127.34V581.528H129.5ZM115.7 584.248V582.528H123.86V587.648H117.86V589.488C120.88 589.488 123.04 589.408 125.58 589.008L125.86 590.728C123.06 591.188 120.66 591.288 117.26 591.288H115.74V586.008H121.7V584.248H115.7ZM117.78 598.928V592.808H129.5V598.928H117.78ZM119.94 597.168H127.38V594.528H119.94V597.168ZM145.91 582.808V583.848C145.89 585.048 145.89 586.808 145.47 589.048L143.35 588.848C143.69 587.008 143.75 585.648 143.77 584.568H136.91V582.808H145.91ZM135.87 590.448C136.91 590.448 138.07 590.428 139.31 590.408V586.808H141.47V590.328C143.29 590.268 145.17 590.128 146.87 589.888L146.99 591.448C143.33 592.108 139.15 592.188 136.07 592.208L135.87 590.448ZM138.51 598.808V593.528H140.67V597.048H150.71V598.808H138.51ZM147.91 594.728V581.488H150.15V587.008H152.43V588.808H150.15V594.728H147.91ZM167.635 581.488V599.168H165.475V581.488H167.635ZM153.915 595.008V587.928H159.995V584.808H153.915V583.048H162.235V589.648H156.155V593.208C158.935 593.188 161.315 593.048 164.075 592.608L164.275 594.368C161.275 594.888 158.635 594.988 155.475 595.008H153.915Z" fill="#1B85AB"/>
<path d="M363.462 582L359.502 567.84H362.222L364.782 578.28H364.902L367.662 567.84H370.142L372.862 578.28H372.982L375.542 567.84H378.302L374.302 582H371.782L368.942 572.04H368.822L365.982 582H363.462ZM383.001 582.2C379.821 582.22 377.861 580.08 377.881 576.76C377.861 573.48 379.861 571.26 382.881 571.24C385.481 571.26 387.721 572.88 387.721 576.6V577.4H380.321C380.381 579.22 381.421 580.28 383.041 580.28C384.141 580.28 384.861 579.8 385.201 579.16H387.641C387.181 581 385.481 582.22 383.001 582.2ZM380.321 575.68H385.321C385.321 574.26 384.361 573.2 382.921 573.2C381.421 573.2 380.421 574.32 380.321 575.68ZM389.409 582V567.84H391.889V573.12H392.009C392.389 572.38 393.149 571.26 395.009 571.24C397.469 571.26 399.409 573.18 399.409 576.72C399.409 580.2 397.529 582.18 395.049 582.2C393.209 582.18 392.389 581.1 392.009 580.32H391.849V582H389.409ZM391.849 576.68C391.829 578.76 392.749 580.14 394.329 580.16C395.989 580.14 396.869 578.7 396.889 576.68C396.869 574.72 396.009 573.3 394.329 573.28C392.729 573.3 391.829 574.64 391.849 576.68ZM401.079 582V567.84H406.359C409.619 567.86 411.359 569.68 411.359 572.36C411.359 574.3 410.479 575.74 408.799 576.4L411.879 582H409.039L406.239 576.8H403.599V582H401.079ZM403.599 574.72H405.999C407.899 574.7 408.759 573.88 408.759 572.36C408.759 570.88 407.899 569.98 405.999 570H403.599V574.72ZM412.519 570V567.84H423.799V570H419.439V582H416.919V570H412.519ZM434.291 572.64C433.991 570.92 432.631 569.94 430.931 569.96C428.591 569.94 426.951 571.74 426.971 574.92C426.951 578.18 428.611 579.9 430.891 579.92C432.591 579.9 433.951 578.98 434.291 577.32H436.851C436.471 580.02 434.231 582.2 430.891 582.2C427.131 582.2 424.411 579.48 424.411 574.92C424.411 570.36 427.171 567.66 430.891 567.68C433.991 567.66 436.411 569.48 436.851 572.64H434.291ZM362.137 603.8V605.6H346.017V603.8H362.137ZM347.337 593.48V591.72H360.737V593.48H358.137V599.08H360.657V600.8H347.377V599.08H349.897V593.48H347.337ZM352.057 599.08H356.017V593.48H352.057V599.08ZM379.022 603.88V605.68H362.902V603.88H369.862V601H364.822V595.24H374.982V593.04H364.782V591.28H377.102V596.96H366.982V599.24H377.502V601H371.982V603.88H379.022ZM394.107 598.96V600.72H388.907V603.92H395.907V605.68H379.787V603.92H386.747V600.72H381.747V591.4H393.987V593.12H383.947V595.16H393.547V596.88H383.947V598.96H394.107ZM410.832 590.48V591.64C410.852 592.88 410.852 594.52 410.472 596.68L408.312 596.56C408.432 595.9 408.512 595.3 408.572 594.76L398.312 595.2L398.072 593.52L408.672 593.26C408.692 592.88 408.692 592.52 408.712 592.2H398.512V590.48H410.832ZM396.672 599.2V597.48H402.872V595.68H405.032V597.48H412.712V599.2H396.672ZM398.552 607.44V603.12H408.592V601.96H398.552V600.28H410.752V604.64H400.712V605.8H411.232V607.44H398.552ZM424.563 595.08C424.563 598 426.263 601.04 429.123 602.24L427.923 603.96C425.843 603.04 424.303 601.18 423.503 598.94C422.703 601.36 421.143 603.42 419.083 604.4L417.843 602.68C420.623 601.4 422.363 598.1 422.363 595.08V593.6H418.483V591.84H428.443V593.6H424.563V595.08ZM430.403 607.72V590.08H432.603V607.72H430.403ZM449.608 590.12V603.44H447.408V601.92H443.968V600.4H447.408V590.12H449.608ZM434.728 598.04C437.968 598.02 442.348 597.98 446.088 597.52L446.208 599.08C444.768 599.32 443.248 599.48 441.768 599.58V602.96H439.608V599.7C437.948 599.76 436.368 599.76 434.968 599.76L434.728 598.04ZM436.048 593.88C436.068 592 437.848 590.74 440.488 590.76C443.048 590.74 444.848 592 444.848 593.88C444.848 595.76 443.048 596.98 440.488 596.96C437.868 596.98 436.068 595.76 436.048 593.88ZM437.048 607.4V602.16H439.248V605.64H450.008V607.4H437.048ZM438.128 593.88C438.108 594.84 439.068 595.38 440.488 595.4C441.828 595.38 442.788 594.84 442.808 593.88C442.788 592.92 441.828 592.34 440.488 592.36C439.068 592.34 438.108 592.92 438.128 593.88Z" fill="#1B85AB"/>
<path d="M634.531 583.928C634.511 586.648 637.191 589.388 640.891 590.008L639.891 591.848C636.931 591.228 634.531 589.428 633.391 587.068C632.211 589.408 629.791 591.208 626.851 591.848L625.891 590.008C629.531 589.368 632.191 586.628 632.211 583.928V582.608H634.531V583.928ZM625.411 596.888V595.088H641.531V596.888H625.411ZM656.616 590.728V592.488H644.256V582.888H656.496V584.648H646.456V586.768H656.056V588.488H646.456V590.728H656.616ZM642.296 597.008V595.208H658.416V597.008H642.296ZM673.861 581.528V591.968H671.701V581.528H673.861ZM660.061 584.248V582.528H668.221V587.648H662.221V589.488C665.241 589.488 667.401 589.408 669.941 589.008L670.221 590.728C667.421 591.188 665.021 591.288 661.621 591.288H660.101V586.008H666.061V584.248H660.061ZM662.141 598.928V592.808H673.861V598.928H662.141ZM664.301 597.168H671.741V594.528H664.301V597.168ZM694.712 586.088V587.808H689.552V589.888H696.512V591.608H680.432V589.888H687.352V587.808H682.472V581.808H684.632V586.088H694.712ZM682.232 594.888V593.128H694.552V599.128H692.352V594.888H682.232ZM711.277 581.488V588.768H713.757V590.608H711.277V599.128H709.077V581.488H711.277ZM697.077 594.248C698.417 594.248 699.977 594.248 701.597 594.208V592.548C699.677 592.228 698.417 591.028 698.437 589.368C698.417 587.368 700.177 586.048 702.717 586.048C705.217 586.048 706.997 587.368 706.997 589.368C706.997 591.028 705.717 592.228 703.797 592.568V594.128C705.277 594.048 706.757 593.928 708.157 593.728L708.277 595.328C704.497 596.008 700.417 596.028 697.397 596.048L697.077 594.248ZM697.437 585.248V583.528H701.597V581.568H703.797V583.528H707.957V585.248H697.437ZM700.477 589.368C700.477 590.368 701.377 590.968 702.717 590.968C704.037 590.968 704.917 590.368 704.917 589.368C704.917 588.328 704.037 587.708 702.717 587.728C701.377 587.708 700.477 588.328 700.477 589.368Z" fill="#1B85AB"/>
<rect x="243.936" y="70.6211" width="205.419" height="205.444" rx="100" fill="#F5F5F5"/>
<path d="M311.195 165.655V177.375H302.795V165.655H311.195ZM304.955 175.655H309.075V167.375H304.955V175.655ZM314.355 181.695V164.015H316.555V181.695H314.355ZM333.441 164.015V181.695H331.241V164.015H333.441ZM319.841 177.455V165.615H328.361V167.415H322.041V175.575C325.301 175.575 327.321 175.475 329.681 175.055L329.881 176.855C327.361 177.335 325.081 177.435 321.321 177.455H319.841ZM340.446 165.295C342.846 165.315 344.626 167.315 344.926 170.535H348.286V164.015H350.446V181.695H348.286V172.255H344.946C344.726 175.675 342.926 177.795 340.446 177.775C337.806 177.795 335.926 175.375 335.926 171.535C335.926 167.735 337.806 165.315 340.446 165.295ZM338.006 171.535C338.006 174.255 339.006 175.835 340.446 175.815C341.926 175.835 342.906 174.255 342.926 171.535C342.906 168.855 341.926 167.255 340.446 167.255C339.006 167.255 338.006 168.855 338.006 171.535ZM363.416 168.255C363.396 171.535 364.976 174.755 367.776 176.015L366.456 177.735C364.476 176.755 363.076 174.895 362.316 172.595C361.556 175.015 360.116 177.035 358.096 178.055L356.696 176.295C359.576 174.955 361.176 171.555 361.216 168.255V165.455H363.416V168.255ZM365.816 171.495V169.735H369.536V164.015H371.696V181.695H369.536V171.495H365.816ZM388.582 164.015V181.695H386.422V172.135H382.822V177.415H374.422V165.375H376.622V169.775H380.702V165.375H382.822V170.335H386.422V164.015H388.582ZM376.622 175.655H380.702V171.495H376.622V175.655Z" fill="#1B1B1D"/>
<rect x="590.582" y="70.6211" width="205.419" height="205.444" rx="100" fill="#F5F5F5"/>
<rect x="590.582" y="296.609" width="205.419" height="205.444" rx="100" fill="#F5F5F5"/>
<path d="M666.214 152.8V154.28C666.214 155.64 666.214 157.14 665.834 159.04H668.094V160.76H652.054V159.04H663.654C663.774 158.42 663.854 157.84 663.914 157.32L653.814 157.72L653.574 156.04L664.034 155.78L664.054 154.52H654.054V152.8H666.214ZM653.854 163.72V162.04H666.294V166.48H656.054V167.84H666.934V169.52H653.894V164.92H664.134V163.72H653.854ZM682.739 152.08V158.88H685.459V160.68H682.739V169.76H680.619V152.08H682.739ZM669.619 155.4V153.64H677.739V160.28H671.819V163.8C674.619 163.78 676.779 163.66 679.259 163.24L679.459 165C676.719 165.48 674.319 165.6 671.099 165.6H669.659V158.56H675.579V155.4H669.619ZM700.505 152.08V169.76H698.305V152.08H700.505ZM686.385 159.6C686.365 155.8 688.305 153.38 690.985 153.36C693.645 153.38 695.585 155.8 695.585 159.6C695.585 163.44 693.645 165.86 690.985 165.84C688.305 165.86 686.365 163.44 686.385 159.6ZM688.465 159.6C688.465 162.32 689.485 163.9 690.985 163.88C692.465 163.9 693.485 162.32 693.505 159.6C693.485 156.92 692.465 155.32 690.985 155.32C689.485 155.32 688.465 156.92 688.465 159.6ZM717.47 152.12V165.04H715.31V158.6H712.13C711.67 160.66 709.85 162.08 707.59 162.08C704.93 162.08 702.93 160.22 702.95 157.64C702.93 155.02 704.93 153.2 707.59 153.2C709.91 153.2 711.77 154.66 712.15 156.84H715.31V152.12H717.47ZM704.99 157.64C705.01 159.18 706.11 160.2 707.59 160.2C709.05 160.2 710.15 159.18 710.15 157.64C710.15 156.06 709.05 155.1 707.59 155.08C706.11 155.1 705.01 156.06 704.99 157.64ZM705.91 169.4V163.72H708.07V167.64H717.91V169.4H705.91ZM733.915 161.32V163.08H721.555V153.48H733.795V155.24H723.755V157.36H733.355V159.08H723.755V161.32H733.915ZM719.595 167.6V165.8H735.715V167.6H719.595ZM682.067 192V177.84H687.347C690.607 177.86 692.347 179.84 692.347 182.52C692.347 185.26 690.587 187.22 687.307 187.2H684.587V192H682.067ZM684.587 185.12H686.987C688.887 185.12 689.747 184.04 689.747 182.52C689.747 181.04 688.887 179.98 686.987 180H684.587V185.12ZM703.55 182.64C703.25 180.92 701.89 179.94 700.19 179.96C697.85 179.94 696.21 181.74 696.23 184.92C696.21 188.18 697.87 189.9 700.15 189.92C701.85 189.9 703.21 188.98 703.55 187.32H706.11C705.73 190.02 703.49 192.2 700.15 192.2C696.39 192.2 693.67 189.48 693.67 184.92C693.67 180.36 696.43 177.66 700.15 177.68C703.25 177.66 705.67 179.48 706.11 182.64H703.55Z" fill="#1B1B1D"/>
<path d="M666.214 383.8V385.28C666.214 386.64 666.214 388.14 665.834 390.04H668.094V391.76H652.054V390.04H663.654C663.774 389.42 663.854 388.84 663.914 388.32L653.814 388.72L653.574 387.04L664.034 386.78L664.054 385.52H654.054V383.8H666.214ZM653.854 394.72V393.04H666.294V397.48H656.054V398.84H666.934V400.52H653.894V395.92H664.134V394.72H653.854ZM682.739 383.08V389.88H685.459V391.68H682.739V400.76H680.619V383.08H682.739ZM669.619 386.4V384.64H677.739V391.28H671.819V394.8C674.619 394.78 676.779 394.66 679.259 394.24L679.459 396C676.719 396.48 674.319 396.6 671.099 396.6H669.659V389.56H675.579V386.4H669.619ZM700.505 383.08V400.76H698.305V383.08H700.505ZM686.385 390.6C686.365 386.8 688.305 384.38 690.985 384.36C693.645 384.38 695.585 386.8 695.585 390.6C695.585 394.44 693.645 396.86 690.985 396.84C688.305 396.86 686.365 394.44 686.385 390.6ZM688.465 390.6C688.465 393.32 689.485 394.9 690.985 394.88C692.465 394.9 693.485 393.32 693.505 390.6C693.485 387.92 692.465 386.32 690.985 386.32C689.485 386.32 688.465 387.92 688.465 390.6ZM717.47 383.12V396.04H715.31V389.6H712.13C711.67 391.66 709.85 393.08 707.59 393.08C704.93 393.08 702.93 391.22 702.95 388.64C702.93 386.02 704.93 384.2 707.59 384.2C709.91 384.2 711.77 385.66 712.15 387.84H715.31V383.12H717.47ZM704.99 388.64C705.01 390.18 706.11 391.2 707.59 391.2C709.05 391.2 710.15 390.18 710.15 388.64C710.15 387.06 709.05 386.1 707.59 386.08C706.11 386.1 705.01 387.06 704.99 388.64ZM705.91 400.4V394.72H708.07V398.64H717.91V400.4H705.91ZM733.915 392.32V394.08H721.555V384.48H733.795V386.24H723.755V388.36H733.355V390.08H723.755V392.32H733.915ZM719.595 398.6V396.8H735.715V398.6H719.595ZM665.045 408.84H668.165L672.365 419.12H672.525L676.725 408.84H679.845V423H677.405V413.28H677.285L673.365 422.96H671.525L667.605 413.24H667.485V423H665.045V408.84ZM686.606 423.2C683.486 423.22 681.506 421.02 681.526 417.76C681.506 414.44 683.486 412.26 686.606 412.24C689.686 412.26 691.666 414.44 691.686 417.76C691.666 421.02 689.686 423.22 686.606 423.2ZM684.046 417.72C684.026 419.68 684.886 421.22 686.606 421.2C688.306 421.22 689.146 419.68 689.166 417.72C689.146 415.78 688.306 414.22 686.606 414.24C684.886 414.22 684.026 415.78 684.046 417.72ZM693.327 423V408.84H695.807V414.12H695.927C696.307 413.38 697.067 412.26 698.927 412.24C701.387 412.26 703.327 414.18 703.327 417.72C703.327 421.2 701.447 423.18 698.967 423.2C697.127 423.18 696.307 422.1 695.927 421.32H695.767V423H693.327ZM695.767 417.68C695.747 419.76 696.667 421.14 698.247 421.16C699.907 421.14 700.787 419.7 700.807 417.68C700.787 415.72 699.927 414.3 698.247 414.28C696.647 414.3 695.747 415.64 695.767 417.68ZM704.877 423V412.4H707.357V423H704.877ZM704.677 409.52C704.677 408.78 705.337 408.18 706.117 408.16C706.917 408.18 707.557 408.78 707.557 409.52C707.557 410.28 706.917 410.88 706.117 410.88C705.337 410.88 704.677 410.28 704.677 409.52ZM711.84 408.84V423H709.36V408.84H711.84ZM718.523 423.2C715.343 423.22 713.383 421.08 713.403 417.76C713.383 414.48 715.383 412.26 718.403 412.24C721.003 412.26 723.243 413.88 723.243 417.6V418.4H715.843C715.903 420.22 716.943 421.28 718.563 421.28C719.663 421.28 720.383 420.8 720.723 420.16H723.163C722.703 422 721.003 423.22 718.523 423.2ZM715.843 416.68H720.843C720.843 415.26 719.883 414.2 718.443 414.2C716.943 414.2 715.943 415.32 715.843 416.68Z" fill="#1B1B1D"/>
<rect width="20.5432" height="20.5432" transform="matrix(0.707065 -0.707149 0.707065 0.707149 528.953 173.746)" fill="#7AE1D0"/>
<rect width="20.5432" height="20.5432" transform="matrix(0.707065 -0.707149 0.707065 0.707149 482.734 338.101)" fill="#7AE1D0"/>
</svg>
