<svg width="723" height="251" viewBox="0 0 723 251" fill="none" xmlns="http://www.w3.org/2000/svg">
<line x1="97.9551" y1="92.4629" x2="629.71" y2="92.4629" stroke="#D9D9D9"/>
<line x1="227.895" y1="92.9629" x2="227.895" y2="217.301" stroke="#D9D9D9" stroke-dasharray="4 4"/>
<line x1="496.105" y1="92.9629" x2="496.105" y2="217.301" stroke="#D9D9D9" stroke-dasharray="4 4"/>
<rect width="186.581" height="185.926" rx="92.963" fill="#F5F5F5"/>
<path d="M65.3497 87.16C68.1497 87.18 70.1897 88.92 70.1897 91.44C70.1897 93.6 68.6497 95.2 66.4297 95.58V98.16C68.0097 98.08 69.6097 97.94 71.1097 97.72L71.2697 99.32C67.3097 100.06 63.0897 100.08 59.9497 100.08L59.7097 98.32C61.0497 98.32 62.6297 98.32 64.2697 98.26V95.58C62.0497 95.2 60.4897 93.6 60.5097 91.44C60.4897 88.92 62.5697 87.18 65.3497 87.16ZM62.6297 91.44C62.6297 92.9 63.7897 93.84 65.3497 93.84C66.9097 93.84 68.0697 92.9 68.0697 91.44C68.0697 89.94 66.9097 89.04 65.3497 89.04C63.7897 89.04 62.6297 89.94 62.6297 91.44ZM72.1497 103.76V86.08H74.3097V103.76H72.1497ZM92.6348 96.36V98.08H85.5948V103.72H83.4348V98.08H76.4748V96.36H92.6348ZM78.4348 94.52V86.8H80.5948V88.96H88.4748V86.8H90.6348V94.52H78.4348ZM80.5948 92.76H88.4748V90.68H80.5948V92.76ZM108.16 86.12V99.04H106V94.68H101.8C100.96 95.62 99.7 96.2 98.28 96.2C95.62 96.2 93.62 94.3 93.64 91.68C93.62 89.06 95.62 87.16 98.28 87.16C99.7 87.16 100.96 87.74 101.8 88.68H106V86.12H108.16ZM95.68 91.68C95.7 93.26 96.78 94.26 98.28 94.28C99.74 94.26 100.84 93.26 100.84 91.68C100.84 90.1 99.74 89.1 98.28 89.08C96.78 89.1 95.7 90.1 95.68 91.68ZM96.6 103.4V97.72H98.76V101.64H108.6V103.4H96.6ZM102.76 92.92H106V90.44H102.76C102.86 90.82 102.92 91.24 102.92 91.68C102.92 92.12 102.86 92.54 102.76 92.92ZM125.485 86.08V103.72H123.445V86.08H125.485ZM110.085 98.48C113.745 96.3 115.425 93.54 115.745 90H111.045V88.24H117.925C117.925 89.14 117.865 90 117.725 90.84H119.805V86.52H121.845V102.92H119.805V97H117.045V95.24H119.805V92.6H117.345C116.505 95.54 114.665 98.04 111.365 100L110.085 98.48Z" fill="#1B1B1D"/>
<path d="M198.08 226.191V243.871H195.88V226.191H198.08ZM183.96 233.711C183.94 229.911 185.88 227.491 188.56 227.471C191.22 227.491 193.16 229.911 193.16 233.711C193.16 237.551 191.22 239.971 188.56 239.951C185.88 239.971 183.94 237.551 183.96 233.711ZM186.04 233.711C186.04 236.431 187.06 238.011 188.56 237.991C190.04 238.011 191.06 236.431 191.08 233.711C191.06 231.031 190.04 229.431 188.56 229.431C187.06 229.431 186.04 231.031 186.04 233.711ZM215.365 226.191V239.551H213.325V226.191H215.365ZM200.965 236.391V227.591H203.005V230.391H205.925V227.591H207.925V231.151H209.805V226.511H211.845V238.991H209.805V232.911H207.925V236.391H200.965ZM203.005 234.631H205.925V232.031H203.005V234.631ZM203.525 243.511V237.791H205.725V241.751H215.845V243.511H203.525ZM231.49 235.431V237.191H219.13V227.591H231.37V229.351H221.33V231.471H230.93V233.191H221.33V235.431H231.49ZM217.17 241.711V239.911H233.29V241.711H217.17ZM253.181 226.191V236.671H251.021V232.391H248.021V230.591H251.021V226.191H253.181ZM238.341 234.911C241.181 233.951 242.681 231.571 242.701 229.231V229.111H239.021V227.351H248.541V229.111H244.901V229.231C244.901 231.371 246.321 233.531 249.061 234.431L247.941 236.151C245.981 235.511 244.601 234.151 243.841 232.511C243.061 234.371 241.601 235.891 239.501 236.631L238.341 234.911ZM241.221 240.471C241.201 238.371 243.501 237.131 247.221 237.111C250.961 237.131 253.241 238.371 253.261 240.471C253.241 242.611 250.961 243.851 247.221 243.871C243.501 243.851 241.201 242.611 241.221 240.471ZM243.381 240.471C243.361 241.591 244.761 242.171 247.221 242.151C249.681 242.171 251.081 241.591 251.101 240.471C251.081 239.391 249.681 238.791 247.221 238.791C244.761 238.791 243.361 239.391 243.381 240.471ZM271.426 239.951V241.711H255.306V239.951H262.266V236.511H257.066V227.351H259.226V230.271H267.426V227.351H269.586V236.511H264.386V239.951H271.426ZM259.226 234.751H267.426V231.991H259.226V234.751Z" fill="#1B85AB"/>
<path d="M422.48 227.951H425.6L429.8 238.231H429.96L434.16 227.951H437.28V242.111H434.84V232.391H434.72L430.8 242.071H428.96L425.04 232.351H424.92V242.111H422.48V227.951ZM444.762 237.351H447.082L448.302 238.931C449.102 238.091 449.582 236.771 449.562 235.031C449.582 231.811 447.962 230.051 445.642 230.071C443.342 230.051 441.702 231.811 441.722 235.031C441.702 238.271 443.342 240.011 445.642 240.031C446.002 240.031 446.362 239.991 446.702 239.891L444.762 237.351ZM439.162 235.031C439.162 230.471 441.922 227.771 445.642 227.791C449.342 227.771 452.142 230.471 452.122 235.031C452.142 237.591 451.262 239.571 449.842 240.811L451.802 243.351H449.322L448.142 241.851C447.382 242.151 446.542 242.311 445.642 242.311C441.922 242.311 439.162 239.591 439.162 235.031ZM452.74 230.111V227.951H464.02V230.111H459.66V242.111H457.14V230.111H452.74ZM464.976 230.111V227.951H476.256V230.111H471.896V242.111H469.376V230.111H464.976ZM489.899 231.871C489.779 230.631 488.759 229.931 487.219 229.951C485.619 229.931 484.659 230.711 484.659 231.791C484.639 232.971 485.899 233.471 487.059 233.751L488.379 234.071C490.499 234.571 492.539 235.691 492.539 238.151C492.539 240.631 490.579 242.331 487.179 242.311C483.899 242.331 481.819 240.751 481.699 237.951H484.219C484.319 239.431 485.559 240.151 487.179 240.151C488.839 240.151 489.999 239.331 489.979 238.111C489.999 237.011 488.979 236.551 487.459 236.151L485.859 235.751C483.519 235.131 482.079 233.971 482.059 231.951C482.079 229.431 484.299 227.771 487.259 227.791C490.259 227.771 492.299 229.471 492.339 231.871H489.899ZM500.9 237.631V231.511H503.38V242.111H500.98V240.231H500.86C500.38 241.411 499.28 242.251 497.66 242.231C495.58 242.251 494.14 240.811 494.14 238.271V231.511H496.62V237.871C496.62 239.231 497.44 240.071 498.62 240.071C499.74 240.071 500.9 239.271 500.9 237.631ZM505.501 242.111V227.951H507.981V233.231H508.101C508.481 232.491 509.241 231.371 511.101 231.351C513.561 231.371 515.501 233.291 515.501 236.831C515.501 240.311 513.621 242.291 511.141 242.311C509.301 242.291 508.481 241.211 508.101 240.431H507.941V242.111H505.501ZM507.941 236.791C507.921 238.871 508.841 240.251 510.421 240.271C512.081 240.251 512.961 238.811 512.981 236.791C512.961 234.831 512.101 233.411 510.421 233.391C508.821 233.411 507.921 234.751 507.941 236.791ZM523.051 234.511C522.891 233.731 522.231 233.211 521.171 233.231C520.111 233.211 519.331 233.751 519.331 234.471C519.331 235.031 519.771 235.431 520.851 235.671L522.651 236.071C524.651 236.491 525.631 237.431 525.611 238.951C525.631 240.931 523.871 242.331 521.131 242.311C518.411 242.331 516.811 241.111 516.571 239.071H519.091C519.251 239.991 519.951 240.431 521.091 240.431C522.311 240.431 523.091 239.951 523.091 239.151C523.091 238.551 522.611 238.151 521.571 237.911L519.851 237.551C517.871 237.151 516.851 236.131 516.851 234.631C516.851 232.651 518.551 231.371 521.131 231.351C523.671 231.371 525.231 232.611 525.411 234.511H523.051ZM531.779 242.311C528.599 242.331 526.679 240.051 526.699 236.871C526.679 233.611 528.659 231.371 531.739 231.351C534.339 231.371 536.139 232.871 536.299 235.151H533.939C533.739 234.151 532.999 233.371 531.779 233.351C530.239 233.371 529.199 234.671 529.219 236.791C529.199 238.991 530.219 240.291 531.779 240.271C532.879 240.291 533.699 239.651 533.939 238.511H536.299C536.119 240.731 534.419 242.331 531.779 242.311ZM537.774 242.111V231.511H540.174V233.271H540.294C540.674 232.051 541.694 231.351 542.894 231.351C543.194 231.351 543.594 231.371 543.814 231.431V233.711C543.594 233.631 543.074 233.571 542.654 233.551C541.274 233.571 540.254 234.511 540.254 235.871V242.111H537.774ZM544.894 242.111V231.511H547.374V242.111H544.894ZM544.694 228.631C544.694 227.891 545.354 227.291 546.134 227.271C546.934 227.291 547.574 227.891 547.574 228.631C547.574 229.391 546.934 229.991 546.134 229.991C545.354 229.991 544.694 229.391 544.694 228.631ZM549.497 242.111V227.951H551.977V233.231H552.097C552.477 232.491 553.237 231.371 555.097 231.351C557.557 231.371 559.497 233.291 559.497 236.831C559.497 240.311 557.617 242.291 555.137 242.311C553.297 242.291 552.477 241.211 552.097 240.431H551.937V242.111H549.497ZM551.937 236.791C551.917 238.871 552.837 240.251 554.417 240.271C556.077 240.251 556.957 238.811 556.977 236.791C556.957 234.831 556.097 233.411 554.417 233.391C552.817 233.411 551.917 234.751 551.937 236.791ZM565.727 242.311C562.547 242.331 560.587 240.191 560.607 236.871C560.587 233.591 562.587 231.371 565.607 231.351C568.207 231.371 570.447 232.991 570.447 236.711V237.511H563.047C563.107 239.331 564.147 240.391 565.767 240.391C566.867 240.391 567.587 239.911 567.927 239.271H570.367C569.907 241.111 568.207 242.331 565.727 242.311ZM563.047 235.791H568.047C568.047 234.371 567.087 233.311 565.647 233.311C564.147 233.311 563.147 234.431 563.047 235.791Z" fill="#1B85AB"/>
<rect x="268.209" width="186.581" height="185.926" rx="92.963" fill="#F5F5F5"/>
<path d="M334.274 61.64C333.974 59.92 332.614 58.94 330.914 58.96C328.574 58.94 326.934 60.74 326.954 63.92C326.934 67.18 328.594 68.9 330.874 68.92C332.574 68.9 333.934 67.98 334.274 66.32H336.834C336.454 69.02 334.214 71.2 330.874 71.2C327.114 71.2 324.394 68.48 324.394 63.92C324.394 59.36 327.154 56.66 330.874 56.68C333.974 56.66 336.394 58.48 336.834 61.64H334.274ZM338.632 71V56.84H347.832V59H341.152V62.84H347.352V65H341.152V68.88H347.872V71H338.632ZM361.472 56.84V71H359.232L352.512 61.36H352.392V71H349.872V56.84H352.152L358.832 66.52H358.952V56.84H361.472ZM363.711 71V56.84H368.991C372.251 56.86 373.991 58.84 373.991 61.52C373.991 64.26 372.231 66.22 368.951 66.2H366.231V71H363.711ZM366.231 64.12H368.631C370.531 64.12 371.391 63.04 371.391 61.52C371.391 60.04 370.531 58.98 368.631 59H366.231V64.12ZM378.034 56.84V71H375.554V56.84H378.034ZM386.797 66.52V60.4H389.277V71H386.877V69.12H386.757C386.277 70.3 385.177 71.14 383.557 71.12C381.477 71.14 380.037 69.7 380.037 67.16V60.4H382.517V66.76C382.517 68.12 383.337 68.96 384.517 68.96C385.637 68.96 386.797 68.16 386.797 66.52ZM397.277 63.4C397.117 62.62 396.457 62.1 395.397 62.12C394.337 62.1 393.557 62.64 393.557 63.36C393.557 63.92 393.997 64.32 395.077 64.56L396.877 64.96C398.877 65.38 399.857 66.32 399.837 67.84C399.857 69.82 398.097 71.22 395.357 71.2C392.637 71.22 391.037 70 390.797 67.96H393.317C393.477 68.88 394.177 69.32 395.317 69.32C396.537 69.32 397.317 68.84 397.317 68.04C397.317 67.44 396.837 67.04 395.797 66.8L394.077 66.44C392.097 66.04 391.077 65.02 391.077 63.52C391.077 61.54 392.777 60.26 395.357 60.24C397.897 60.26 399.457 61.5 399.637 63.4H397.277ZM344.71 88.28V90H328.59V88.28H335.55V86.96H330.63V79.56H342.79V81.24H332.83V82.44H342.35V84.04H332.83V85.28H342.91V86.96H337.71V88.28H344.71ZM330.47 93.84C330.49 91.98 332.71 90.96 336.63 90.96C340.53 90.96 342.75 91.98 342.75 93.84C342.75 95.72 340.53 96.72 336.63 96.72C332.71 96.72 330.49 95.72 330.47 93.84ZM332.67 93.84C332.65 94.7 333.99 95.1 336.63 95.08C339.25 95.1 340.57 94.7 340.59 93.84C340.57 93 339.25 92.58 336.63 92.56C333.99 92.58 332.65 93 332.67 93.84ZM359.435 79.08V83.44H361.915V85.24H359.435V89.4H357.235V79.08H359.435ZM345.515 82.44V80.72H349.675V78.96H351.835V80.72H355.995V82.44H345.515ZM346.435 86.16C346.415 84.3 348.175 83.06 350.755 83.08C353.315 83.06 355.055 84.3 355.075 86.16C355.055 88.06 353.315 89.28 350.755 89.28C348.175 89.28 346.415 88.06 346.435 86.16ZM347.995 96.52V90.08H350.155V91.64H357.235V90.08H359.435V96.52H347.995ZM348.515 86.16C348.515 87.12 349.415 87.68 350.755 87.68C352.095 87.68 352.995 87.12 352.995 86.16C352.995 85.24 352.095 84.66 350.755 84.68C349.415 84.66 348.515 85.24 348.515 86.16ZM350.155 94.8H357.235V93.32H350.155V94.8ZM372.24 80.4V81.44C372.22 82.64 372.22 84.4 371.8 86.64L369.68 86.44C370.02 84.6 370.08 83.24 370.1 82.16H363.24V80.4H372.24ZM362.2 88.04C363.24 88.04 364.4 88.02 365.64 88V84.4H367.8V87.92C369.62 87.86 371.5 87.72 373.2 87.48L373.32 89.04C369.66 89.7 365.48 89.78 362.4 89.8L362.2 88.04ZM364.84 96.4V91.12H367V94.64H377.04V96.4H364.84ZM374.24 92.32V79.08H376.48V84.6H378.76V86.4H376.48V92.32H374.24ZM394.445 79.08V96.72H392.405V79.08H394.445ZM378.965 91.72C381.505 90.16 382.625 86.98 382.645 83.92V82.72H379.565V80.96H387.565V82.72H384.725V83.92C384.725 86.88 385.785 89.88 388.325 91.32L387.045 92.92C385.385 91.96 384.305 90.26 383.705 88.24C383.085 90.42 381.945 92.28 380.285 93.32L378.965 91.72ZM386.285 87V85.24H388.845V79.44H390.885V95.88H388.845V87H386.285ZM351.672 103.6V105.24H349.232V107.92H351.552V109.56H338.592V107.92H340.952V105.24H338.512V103.6H351.672ZM337.072 112.4V110.68H353.152V112.4H337.072ZM338.952 120.6V116.28H348.992V115.16H338.952V113.56H351.152V117.76H341.112V118.96H351.632V120.6H338.952ZM343.112 107.92H347.072V105.24H343.112V107.92ZM369.037 103.12V115H366.997V109.24H365.117V113.52H363.117V103.44H365.117V107.48H366.997V103.12H369.037ZM354.677 113.32V108H359.277V106.12H354.677V104.36H361.357V109.6H356.797V111.64C358.857 111.62 360.417 111.5 362.197 111.16L362.397 112.84C360.297 113.28 358.517 113.34 355.877 113.32H354.677ZM356.117 118.96C359.637 118.48 361.897 116.6 361.917 114.56V114.2H364.077V114.56C364.077 116.6 366.317 118.48 369.877 118.96L369.037 120.64C366.257 120.22 364.077 118.98 362.997 117.22C361.897 118.98 359.717 120.22 356.957 120.64L356.117 118.96ZM386.923 111.76V113.48H370.843V111.76H377.763V110.12H372.363V108.36H374.723V105.36H372.283V103.6H385.443V105.36H383.003V108.36H385.323V110.12H379.923V111.76H386.923ZM372.723 120.52V114.84H384.963V120.52H372.723ZM374.883 118.76H382.843V116.56H374.883V118.76ZM376.883 108.36H380.843V105.36H376.883V108.36Z" fill="#1B1B1D"/>
<rect x="536.42" width="186.581" height="185.926" rx="92.963" fill="#F5F5F5"/>
<path d="M602.347 86.8V88.28C602.347 89.64 602.347 91.14 601.967 93.04H604.227V94.76H588.187V93.04H599.787C599.907 92.42 599.987 91.84 600.047 91.32L589.947 91.72L589.707 90.04L600.167 89.78L600.187 88.52H590.187V86.8H602.347ZM589.987 97.72V96.04H602.427V100.48H592.187V101.84H603.067V103.52H590.027V98.92H600.267V97.72H589.987ZM618.872 86.08V92.88H621.592V94.68H618.872V103.76H616.752V86.08H618.872ZM605.752 89.4V87.64H613.872V94.28H607.952V97.8C610.752 97.78 612.912 97.66 615.392 97.24L615.592 99C612.852 99.48 610.452 99.6 607.232 99.6H605.792V92.56H611.712V89.4H605.752ZM636.637 86.08V103.76H634.437V86.08H636.637ZM622.517 93.6C622.497 89.8 624.437 87.38 627.117 87.36C629.777 87.38 631.717 89.8 631.717 93.6C631.717 97.44 629.777 99.86 627.117 99.84C624.437 99.86 622.497 97.44 622.517 93.6ZM624.597 93.6C624.597 96.32 625.617 97.9 627.117 97.88C628.597 97.9 629.617 96.32 629.637 93.6C629.617 90.92 628.597 89.32 627.117 89.32C625.617 89.32 624.597 90.92 624.597 93.6ZM653.603 86.12V99.04H651.443V92.6H648.263C647.803 94.66 645.983 96.08 643.723 96.08C641.063 96.08 639.063 94.22 639.083 91.64C639.063 89.02 641.063 87.2 643.723 87.2C646.043 87.2 647.903 88.66 648.283 90.84H651.443V86.12H653.603ZM641.123 91.64C641.143 93.18 642.243 94.2 643.723 94.2C645.183 94.2 646.283 93.18 646.283 91.64C646.283 90.06 645.183 89.1 643.723 89.08C642.243 89.1 641.143 90.06 641.123 91.64ZM642.043 103.4V97.72H644.203V101.64H654.043V103.4H642.043ZM670.048 95.32V97.08H657.688V87.48H669.928V89.24H659.888V91.36H669.488V93.08H659.888V95.32H670.048ZM655.728 101.6V99.8H671.848V101.6H655.728Z" fill="#1B1B1D"/>
<rect width="18.6254" height="18.6254" transform="matrix(0.708348 -0.705863 0.708348 0.705863 214.568 93.3271)" fill="#7AE1D0"/>
<rect width="18.6254" height="18.6254" transform="matrix(0.708348 -0.705863 0.708348 0.705863 482.777 93.3271)" fill="#7AE1D0"/>
</svg>
