<svg width="408" height="648" viewBox="0 0 408 648" fill="none" xmlns="http://www.w3.org/2000/svg">
<g filter="url(#filter0_d_410_12)">
<rect x="24" y="8" width="360" height="528" rx="16" fill="#F9F8FF"/>
<path d="M169.128 51H166.448L171.408 36.84H174.568L179.528 51H176.808L175.648 47.52H170.308L169.128 51ZM171.008 45.44H174.948L173.048 39.76H172.928L171.008 45.44ZM187.494 46.52V40.4H189.974V51H187.574V49.12H187.454C186.974 50.3 185.874 51.14 184.254 51.12C182.174 51.14 180.734 49.7 180.734 47.16V40.4H183.214V46.76C183.214 48.12 184.034 48.96 185.214 48.96C186.334 48.96 187.494 48.16 187.494 46.52ZM197.255 40.4V42.32H195.175V47.8C195.175 48.84 195.675 49.04 196.295 49.04C196.595 49.06 197.075 49.02 197.415 49V51.04C197.095 51.1 196.615 51.14 195.975 51.16C194.115 51.14 192.675 50.22 192.695 48.24V42.32H191.175V40.4H192.695V37.84H195.175V40.4H197.255ZM203.305 51.2C200.185 51.22 198.205 49.02 198.225 45.76C198.205 42.44 200.185 40.26 203.305 40.24C206.385 40.26 208.365 42.44 208.385 45.76C208.365 49.02 206.385 51.22 203.305 51.2ZM200.745 45.72C200.725 47.68 201.585 49.22 203.305 49.2C205.005 49.22 205.845 47.68 205.865 45.72C205.845 43.78 205.005 42.22 203.305 42.24C201.585 42.22 200.725 43.78 200.745 45.72ZM214.391 36.84H217.511L221.711 47.12H221.871L226.071 36.84H229.191V51H226.751V41.28H226.631L222.711 50.96H220.871L216.951 41.24H216.831V51H214.391V36.84ZM231.433 51V36.84H233.953V48.88H240.193V51H231.433Z" fill="#3471FF"/>
<g opacity="0.2">
<rect x="130.75" y="150.75" width="146.5" height="37.5" rx="18.75" fill="#F5F5F5"/>
<rect x="130.75" y="150.75" width="146.5" height="37.5" rx="18.75" stroke="#D9D9D9" stroke-width="1.5"/>
<path d="M180.963 162.264V176.376H179.299V162.264H180.963ZM169.251 173.144V163.928H174.627V165.304H170.947V171.704C172.627 171.688 173.827 171.608 175.203 171.32L175.363 172.76C173.763 173.08 172.355 173.144 170.211 173.144H169.251ZM173.667 168.92V167.512H176.387V162.552H178.019V175.704H176.387V168.92H173.667ZM194.056 162.264V176.408H192.296V162.264H194.056ZM182.76 168.28C182.744 165.24 184.296 163.304 186.44 163.288C188.568 163.304 190.12 165.24 190.12 168.28C190.12 171.352 188.568 173.288 186.44 173.272C184.296 173.288 182.744 171.352 182.76 168.28ZM184.424 168.28C184.424 170.456 185.24 171.72 186.44 171.704C187.624 171.72 188.44 170.456 188.456 168.28C188.44 166.136 187.624 164.856 186.44 164.856C185.24 164.856 184.424 166.136 184.424 168.28ZM207.66 162.264V176.408H205.932V168.76H203.276V167.384H205.932V162.264H207.66ZM196.46 173.144V163.48H203.052V164.888H198.188V167.448H202.508V168.824H198.188V171.736C200.348 171.704 201.948 171.64 203.756 171.352L203.948 172.728C201.884 173.064 200.076 173.144 197.548 173.144H196.46ZM219.988 163.096V164.504H215.124V165.816H219.7V167.224H215.124V168.6C217.556 168.6 219.092 168.536 220.82 168.216L221.012 169.592C219.076 169.928 217.396 169.976 214.516 169.976H213.396V163.096H219.988ZM214.836 176.216V171.192H223.956V176.216H214.836ZM216.532 174.808H222.228V172.568H216.532V174.808ZM222.196 170.552V162.264H223.956V165.624H225.94V167.096H223.956V170.552H222.196ZM230.744 164.824C230.728 166.408 231.608 167.96 233.464 168.696L232.536 170.04C231.288 169.544 230.408 168.616 229.896 167.48C229.384 168.744 228.456 169.816 227.128 170.392L226.2 169.048C228.136 168.216 229.048 166.424 229.048 164.824V163.096H230.744V164.824ZM228.728 172.888V171.512H238.392V176.376H236.664V172.888H228.728ZM233.72 170.744V162.52H235.32V165.784H236.76V162.296H238.392V170.808H236.76V167.224H235.32V170.744H233.72Z" fill="#999999"/>
</g>
<g opacity="0.2">
<rect x="130.75" y="223.75" width="146.5" height="38.5" rx="19.25" fill="#F5F5F5"/>
<rect x="130.75" y="223.75" width="146.5" height="38.5" rx="19.25" stroke="#D9D9D9" stroke-width="1.5"/>
<path d="M174.066 235.828V249.812H172.626V235.828H174.066ZM162.546 246.548V237.492H167.858V238.708H163.986V245.3C165.826 245.284 167.042 245.204 168.498 244.884L168.626 246.132C167.026 246.468 165.65 246.532 163.474 246.548H162.546ZM166.898 242.324V241.108H169.778V236.116H171.186V249.14H169.778V242.324H166.898ZM187.159 235.828V249.844H185.655V235.828H187.159ZM176.023 241.78C176.023 238.788 177.543 236.884 179.639 236.884C181.735 236.884 183.271 238.788 183.255 241.78C183.271 244.804 181.735 246.708 179.639 246.708C177.543 246.708 176.023 244.804 176.023 241.78ZM177.463 241.78C177.463 244.004 178.359 245.38 179.639 245.364C180.935 245.38 181.831 244.004 181.815 241.78C181.831 239.588 180.935 238.212 179.639 238.196C178.359 238.212 177.463 239.588 177.463 241.78ZM200.731 235.828V249.844H199.259V242.196H196.475V241.012H199.259V235.828H200.731ZM189.691 246.548V237.076H196.251V238.292H191.195V241.012H195.643V242.196H191.195V245.332C193.547 245.316 195.163 245.236 197.019 244.916L197.179 246.132C195.147 246.452 193.387 246.532 190.779 246.548H189.691ZM217.825 235.828V246.1H216.353V240.82H213.665V239.636H216.353V235.828H217.825ZM206.145 243.156C208.321 242.436 209.649 240.596 209.665 238.676V238.132H206.625V236.916H214.177V238.132H211.169V238.676C211.153 240.42 212.417 242.164 214.529 242.868L213.761 244.052C212.193 243.508 211.041 242.388 210.433 240.996C209.825 242.548 208.593 243.78 206.913 244.372L206.145 243.156ZM208.737 249.524V245.172H210.209V248.34H218.177V249.524H208.737ZM231.333 235.828V249.844H229.861V242.58H226.981V241.364H229.861V235.828H231.333ZM219.653 246.004C221.781 245.028 223.157 242.628 223.173 240.34V239.412H220.037V238.228H223.173V236.116H224.645V238.228H227.685V239.412H224.645V240.34C224.629 242.548 226.053 244.804 228.197 245.748L227.365 246.9C225.765 246.196 224.533 244.724 223.909 242.98C223.301 244.836 222.085 246.404 220.485 247.156L219.653 246.004ZM244.777 235.828V249.844H243.305V235.828H244.777ZM233.929 238.292V237.076H240.489V242.196H235.497V245.268C237.769 245.252 239.753 245.156 242.089 244.756L242.217 246.004C239.737 246.404 237.625 246.5 235.145 246.484H233.961V241.012H238.985V238.292H233.929Z" fill="#999999"/>
</g>
<g opacity="0.2">
<rect x="130.75" y="297.75" width="146.5" height="38.5" rx="19.25" fill="#F5F5F5"/>
<rect x="130.75" y="297.75" width="146.5" height="38.5" rx="19.25" stroke="#D9D9D9" stroke-width="1.5"/>
<path d="M152.752 322.5V311.172H156.784C159.424 311.188 160.72 312.772 160.72 314.852C160.72 316.948 159.408 318.532 156.784 318.532H154.48V322.5H152.752ZM154.48 317.06H156.624C158.288 317.06 158.976 316.132 158.992 314.852C158.976 313.572 158.288 312.66 156.624 312.676H154.48V317.06ZM162.198 322.5V311.172H163.926V316.1H169.526V311.172H171.254V322.5H169.526V317.572H163.926V322.5H162.198ZM172.373 311.172H174.325L177.269 316.324H177.397L180.341 311.172H182.293L178.197 318.052V322.5H176.469V318.052L172.373 311.172ZM186.972 322.5V311.172H191.004C193.644 311.188 194.94 312.644 194.94 314.724C194.94 316.244 194.252 317.412 192.86 317.924L195.356 322.5H193.404L191.084 318.212H191.004H188.7V322.5H186.972ZM188.7 316.74H190.844C192.508 316.74 193.196 316.004 193.212 314.724C193.196 313.46 192.508 312.66 190.844 312.676H188.7V316.74ZM195.935 312.676V311.172H204.703V312.676H201.183V322.5H199.487V312.676H195.935ZM215.484 316.836C215.484 320.468 213.324 322.66 210.396 322.66C207.452 322.66 205.292 320.452 205.276 316.836C205.292 313.22 207.452 311.028 210.396 311.044C213.324 311.028 215.484 313.22 215.484 316.836ZM207.004 316.836C207.004 319.588 208.444 321.076 210.396 321.092C212.332 321.076 213.788 319.588 213.788 316.836C213.788 314.1 212.332 312.596 210.396 312.612C208.444 312.596 207.004 314.1 207.004 316.836ZM223.297 314.18C223.169 313.124 222.257 312.516 220.961 312.516C219.569 312.516 218.689 313.22 218.689 314.18C218.689 315.252 219.857 315.668 220.737 315.908L221.857 316.196C223.297 316.532 225.105 317.332 225.089 319.364C225.105 321.284 223.569 322.692 220.897 322.692C218.369 322.692 216.785 321.428 216.673 319.364H218.401C218.497 320.596 219.585 321.188 220.897 321.188C222.353 321.188 223.393 320.452 223.393 319.364C223.393 318.356 222.465 317.956 221.249 317.636L219.937 317.284C218.097 316.788 216.977 315.86 216.961 314.276C216.977 312.324 218.705 311.028 220.993 311.044C223.297 311.028 224.897 312.34 224.961 314.18H223.297ZM241.256 309.828V320.164H239.784V316.516H236.28C235.624 317.3 234.616 317.78 233.448 317.796C231.352 317.78 229.784 316.308 229.8 314.244C229.784 312.18 231.352 310.708 233.448 310.692C234.6 310.708 235.592 311.172 236.264 311.94H239.784V309.828H241.256ZM231.208 314.244C231.192 315.572 232.136 316.468 233.448 316.484C234.712 316.468 235.672 315.572 235.688 314.244C235.672 312.932 234.712 312.02 233.448 312.004C232.136 312.02 231.192 312.932 231.208 314.244ZM232.168 323.524V319.076H233.64V322.34H241.608V323.524H232.168ZM236.936 313.156C237.032 313.492 237.096 313.86 237.096 314.244C237.096 314.612 237.032 314.964 236.936 315.3H239.784V313.156H236.936ZM254.22 310.724V311.94C254.22 313.252 254.22 314.708 253.836 316.708H255.852V317.924H250.188V323.844H248.684V317.924H243.084V316.708H252.332C252.748 314.724 252.748 313.252 252.748 311.94V311.908H244.652V310.724H254.22Z" fill="#999999"/>
</g>
<g opacity="0.2">
<rect x="130.75" y="371.75" width="146.5" height="38.5" rx="19.25" fill="#F5F5F5"/>
<rect x="130.75" y="371.75" width="146.5" height="38.5" rx="19.25" stroke="#D9D9D9" stroke-width="1.5"/>
<path d="M196.922 394.836V396.084H184.09V394.836H189.722V391.604H185.562V384.948H195.386V391.604H191.194V394.836H196.922ZM187.002 390.452H193.914V386.132H187.002V390.452ZM209.598 383.828V391.252H208.19V383.828H209.598ZM198.27 390.644V384.596H203.646V385.78H199.742V389.46C201.534 389.444 202.782 389.396 204.254 389.108L204.318 390.324C202.702 390.612 201.342 390.66 199.166 390.644H198.27ZM200.158 397.652V394.1H208.158V392.98H200.158V391.796H209.598V395.22H201.63V396.468H210.078V397.652H200.158ZM202.782 388.02V386.868H205.438V384.116H206.846V391.156H205.438V388.02H202.782ZM222.722 383.828V392.404H221.25V383.828H222.722ZM211.81 385.908V384.692H218.242V388.66H213.282V390.42C215.746 390.42 217.538 390.324 219.682 390.004L219.874 391.22C217.57 391.572 215.666 391.636 213.026 391.636H211.842V387.54H216.77V385.908H211.81ZM213.282 395.252C213.282 393.62 215.074 392.676 218.05 392.692C221.01 392.676 222.818 393.62 222.818 395.252C222.818 396.868 221.01 397.812 218.05 397.812C215.074 397.812 213.282 396.868 213.282 395.252ZM214.754 395.252C214.754 396.132 215.97 396.628 218.05 396.628C220.114 396.628 221.33 396.132 221.346 395.252C221.33 394.356 220.114 393.86 218.05 393.844C215.97 393.86 214.754 394.356 214.754 395.252Z" fill="#999999"/>
</g>
<line x1="204.5" y1="117" x2="204.5" y2="446" stroke="#3471FF"/>
<rect x="130" y="76" width="148" height="40" rx="20" fill="black"/>
<path d="M177.152 88.592H179.168V103.408H177.152V88.592ZM171.52 94H174.96V95.712H171.52V94ZM174.08 88.864H176.064V102.768H174.08V88.864ZM166.864 98.384H167.904C168.598 98.384 169.227 98.3733 169.792 98.352C170.368 98.3307 170.912 98.2933 171.424 98.24C171.947 98.1867 172.475 98.1067 173.008 98L173.184 99.728C172.63 99.8453 172.086 99.9307 171.552 99.984C171.019 100.037 170.454 100.075 169.856 100.096C169.27 100.117 168.619 100.128 167.904 100.128H166.864V98.384ZM166.864 90.272H172.528V91.952H168.96V99.12H166.864V90.272ZM191.007 88.576H193.135V103.44H191.007V88.576ZM185.151 89.616C185.908 89.616 186.58 89.8347 187.167 90.272C187.754 90.6987 188.212 91.312 188.543 92.112C188.884 92.9013 189.055 93.8347 189.055 94.912C189.055 96 188.884 96.944 188.543 97.744C188.212 98.5333 187.754 99.1467 187.167 99.584C186.58 100.011 185.908 100.224 185.151 100.224C184.404 100.224 183.738 100.011 183.151 99.584C182.564 99.1467 182.1 98.5333 181.759 97.744C181.428 96.944 181.263 96 181.263 94.912C181.263 93.8347 181.428 92.9013 181.759 92.112C182.1 91.312 182.564 90.6987 183.151 90.272C183.738 89.8347 184.404 89.616 185.151 89.616ZM185.151 91.552C184.788 91.552 184.468 91.68 184.191 91.936C183.914 92.192 183.695 92.5707 183.535 93.072C183.386 93.5627 183.311 94.176 183.311 94.912C183.311 95.6373 183.386 96.256 183.535 96.768C183.695 97.2693 183.914 97.648 184.191 97.904C184.468 98.16 184.788 98.288 185.151 98.288C185.524 98.288 185.85 98.16 186.127 97.904C186.404 97.648 186.618 97.2693 186.767 96.768C186.927 96.256 187.007 95.6373 187.007 94.912C187.007 94.176 186.927 93.5627 186.767 93.072C186.618 92.5707 186.404 92.192 186.127 91.936C185.85 91.68 185.524 91.552 185.151 91.552ZM205.55 88.576H207.678V103.44H205.55V88.576ZM203.006 93.808H205.806V95.536H203.006V93.808ZM195.902 98.384H197.102C197.923 98.384 198.68 98.3733 199.374 98.352C200.078 98.3307 200.76 98.2933 201.422 98.24C202.083 98.1867 202.76 98.112 203.454 98.016L203.662 99.696C202.947 99.8133 202.243 99.8987 201.55 99.952C200.867 100.005 200.163 100.043 199.438 100.064C198.712 100.085 197.934 100.096 197.102 100.096H195.902V98.384ZM195.902 89.824H202.766V91.552H198.03V98.912H195.902V89.824ZM197.534 93.952H202.27V95.616H197.534V93.952ZM219.33 89.024H221.186V89.728C221.186 90.2933 221.096 90.8427 220.914 91.376C220.744 91.8987 220.488 92.3893 220.146 92.848C219.805 93.3067 219.389 93.7173 218.898 94.08C218.408 94.4427 217.837 94.752 217.186 95.008C216.546 95.2533 215.842 95.44 215.074 95.568L214.242 93.856C214.925 93.7707 215.533 93.6267 216.066 93.424C216.61 93.2213 217.085 92.9813 217.49 92.704C217.906 92.4267 218.248 92.1227 218.514 91.792C218.781 91.4613 218.984 91.12 219.122 90.768C219.261 90.416 219.33 90.0693 219.33 89.728V89.024ZM219.73 89.024H221.586V89.728C221.586 90.0693 221.656 90.416 221.794 90.768C221.933 91.12 222.136 91.4613 222.402 91.792C222.669 92.1227 223.005 92.4267 223.41 92.704C223.826 92.9813 224.301 93.2213 224.834 93.424C225.378 93.6267 225.992 93.7707 226.674 93.856L225.842 95.568C225.064 95.44 224.354 95.2533 223.714 95.008C223.074 94.752 222.509 94.4427 222.018 94.08C221.528 93.7067 221.112 93.2907 220.77 92.832C220.429 92.3733 220.168 91.8827 219.986 91.36C219.816 90.8373 219.73 90.2933 219.73 89.728V89.024ZM219.33 97.984H221.458V103.424H219.33V97.984ZM213.746 96.64H227.154V98.368H213.746V96.64ZM231.729 89.872H233.473V90.784C233.473 91.6693 233.318 92.512 233.009 93.312C232.71 94.112 232.246 94.8053 231.617 95.392C230.998 95.9787 230.209 96.4213 229.249 96.72L228.193 95.056C228.812 94.8747 229.34 94.6347 229.777 94.336C230.225 94.0267 230.593 93.6853 230.881 93.312C231.169 92.928 231.382 92.5227 231.521 92.096C231.66 91.6587 231.729 91.2213 231.729 90.784V89.872ZM232.177 89.872H233.905V90.784C233.905 91.2 233.974 91.6107 234.113 92.016C234.252 92.4107 234.46 92.7893 234.737 93.152C235.025 93.5147 235.388 93.84 235.825 94.128C236.262 94.4053 236.785 94.6347 237.393 94.816L236.337 96.464C235.409 96.1867 234.636 95.7707 234.017 95.216C233.398 94.6507 232.934 93.984 232.625 93.216C232.326 92.448 232.177 91.6373 232.177 90.784V89.872ZM228.769 89.392H236.833V91.072H228.769V89.392ZM238.321 88.608H240.449V96.64H238.321V88.608ZM230.609 97.28H232.705V98.624H238.337V97.28H240.449V103.264H230.609V97.28ZM232.705 100.256V101.552H238.337V100.256H232.705Z" fill="white"/>
<rect x="130" y="445" width="148" height="40" rx="20" fill="#3471FF"/>
<path d="M202.972 457.764V471.876H201.308V457.764H202.972ZM190.94 463.876C190.94 460.772 192.14 458.836 193.98 458.852C195.18 458.836 196.108 459.62 196.636 460.996H198.492V458.02H200.124V471.204H198.492V466.756H196.636C196.124 468.148 195.18 468.932 193.98 468.932C192.14 468.932 190.94 466.996 190.94 463.876ZM192.54 463.876C192.524 466.084 193.068 467.268 193.98 467.268C194.924 467.268 195.5 466.084 195.516 463.876C195.5 461.668 194.924 460.468 193.98 460.484C193.068 460.468 192.524 461.668 192.54 463.876ZM196.988 462.404C197.052 462.852 197.084 463.348 197.084 463.876C197.084 464.388 197.052 464.868 196.988 465.316H198.492V462.404H196.988ZM217.184 464.804V466.212H204.32V464.804H217.184ZM204.928 462.884C207.872 462.676 209.536 461.7 209.744 460.484H205.568V459.14H209.856V457.796H211.584V459.14H215.904V460.484H211.696C211.904 461.7 213.568 462.676 216.544 462.884L216 464.196C213.472 463.988 211.6 463.204 210.736 461.972C209.84 463.204 207.968 463.988 205.472 464.196L204.928 462.884ZM205.728 468.804V467.428H215.616V471.876H213.856V468.804H205.728Z" fill="white"/>
<g filter="url(#filter1_d_410_12)">
<rect x="130" y="260" width="148" height="40" rx="20" fill="white" shape-rendering="crispEdges"/>
<path d="M154.61 285.5H152.786L156.85 274.172H158.834L162.93 285.5H161.074L160.05 282.524H155.634L154.61 285.5ZM156.146 281.084H159.554L157.906 276.252H157.81L156.146 281.084ZM169.297 281.98V277.02H170.961V285.5H169.329V284.028H169.233C168.849 284.94 167.985 285.612 166.705 285.596C165.073 285.612 163.921 284.508 163.921 282.396V277.02H165.585V282.204C165.585 283.356 166.289 284.092 167.313 284.092C168.225 284.092 169.297 283.42 169.297 281.98ZM176.663 277.02V278.332H174.935V283.004C174.919 283.964 175.399 284.124 175.927 284.124C176.183 284.14 176.551 284.108 176.759 284.092V285.532C176.551 285.58 176.199 285.612 175.735 285.628C174.423 285.612 173.255 284.892 173.271 283.356V278.332H172.023V277.02H173.271V274.972H174.935V277.02H176.663ZM181.459 285.66C179.059 285.676 177.491 283.916 177.491 281.308C177.491 278.652 179.059 276.908 181.459 276.892C183.843 276.908 185.411 278.652 185.427 281.308C185.411 283.916 183.843 285.676 181.459 285.66ZM179.155 281.308C179.171 282.908 179.907 284.284 181.459 284.284C182.995 284.284 183.731 282.908 183.731 281.308C183.731 279.676 182.995 278.284 181.459 278.3C179.907 278.284 179.171 279.676 179.155 281.308ZM190.457 274.172H192.537L196.153 282.94H196.281L199.865 274.172H201.945V285.5H200.313V277.34H200.217L196.889 285.468H195.513L192.185 277.308H192.089V285.5H190.457V274.172ZM203.934 285.5V274.172H205.662V284.028H210.782V285.5H203.934ZM220.065 276.956C220.049 279.164 221.505 281.628 223.617 282.62L222.785 283.804C221.201 283.052 219.969 281.468 219.329 279.644C218.689 281.644 217.377 283.356 215.777 284.156L214.913 282.972C217.025 281.964 218.577 279.324 218.593 276.956V275.452H215.425V274.236H223.105V275.452H220.065V276.956ZM224.609 286.812V272.828H226.081V278.364H228.321V279.644H226.081V286.812H224.609ZM241.477 279.644V280.828H228.677V279.644H234.341V278.14H230.277V273.468H239.877V274.652H231.749V276.956H239.973V278.14H235.781V279.644H241.477ZM230.181 284.284C230.197 282.652 232.021 281.74 235.045 281.756C238.069 281.74 239.877 282.652 239.877 284.284C239.877 285.9 238.069 286.812 235.045 286.812C232.021 286.812 230.197 285.9 230.181 284.284ZM231.717 284.284C231.685 285.18 232.917 285.676 235.045 285.66C237.173 285.676 238.389 285.18 238.405 284.284C238.389 283.404 237.173 282.892 235.045 282.876C232.917 282.892 231.685 283.404 231.717 284.284ZM253.161 272.828V278.684H255.273V279.932H253.161V286.812H251.689V272.828H253.161ZM242.025 283.036C243.129 283.036 244.409 283.02 245.737 282.988V281.548C244.153 281.324 243.129 280.364 243.145 279.004C243.129 277.436 244.489 276.396 246.505 276.412C248.473 276.396 249.849 277.436 249.865 279.004C249.849 280.38 248.793 281.34 247.209 281.548V282.924C248.441 282.86 249.689 282.748 250.857 282.588L250.985 283.708C247.945 284.22 244.665 284.252 242.249 284.252L242.025 283.036ZM242.281 275.676V274.492H245.737V272.86H247.209V274.492H250.665V275.676H242.281ZM244.521 279.004C244.537 279.9 245.321 280.46 246.505 280.444C247.657 280.46 248.441 279.9 248.425 279.004C248.441 278.124 247.657 277.548 246.505 277.532C245.321 277.548 244.537 278.124 244.521 279.004Z" fill="#3471FF"/>
</g>
<circle cx="204.5" cy="444.5" r="8.5" transform="rotate(180 204.5 444.5)" fill="#88AAF9" fill-opacity="0.6"/>
<circle cx="204.5" cy="444.5" r="4.5" transform="rotate(180 204.5 444.5)" fill="#3471FF"/>
</g>
<g filter="url(#filter2_d_410_12)">
<rect x="24" y="552" width="360" height="56" rx="16" fill="#3471FF"/>
<path d="M80.1429 572.68C80.1429 574.54 81.4229 576.24 84.3829 576.88L83.2229 578.84C81.1229 578.32 79.6629 577.26 78.8629 575.84C78.0629 577.42 76.5629 578.62 74.3829 579.16L73.2229 577.24C76.2229 576.52 77.5429 574.64 77.5429 572.68V571.76H80.1429V572.68ZM73.0229 580.28C76.2229 580.3 80.6429 580.26 84.4229 579.72L84.5829 581.52C83.1229 581.8 81.6229 581.98 80.1429 582.1V588.28H77.6629V582.26C76.1029 582.32 74.6429 582.32 73.3429 582.32L73.0229 580.28ZM85.5029 588.8V571.04H87.9829V588.8H85.5029ZM106.108 579.68V581.64H99.388V584.76H96.868V581.64H89.868V579.68H106.108ZM91.548 575.04C91.528 572.8 94.108 571.38 97.988 571.36C101.828 571.38 104.388 572.8 104.388 575.04C104.388 577.32 101.828 578.72 97.988 578.72C94.108 578.72 91.528 577.32 91.548 575.04ZM91.788 588.48V583.16H94.308V586.48H104.308V588.48H91.788ZM94.228 575.04C94.208 576.14 95.688 576.72 97.988 576.72C100.268 576.72 101.728 576.14 101.748 575.04C101.728 573.92 100.268 573.32 97.988 573.32C95.688 573.32 94.208 573.92 94.228 575.04ZM111.643 572.84H115.243L119.203 582.44H119.363L123.283 572.84H126.923V587H124.043V577.72H123.923L120.243 586.92H118.283L114.603 577.72H114.483V587H111.643V572.84ZM128.879 587V572.84H131.799V584.56H137.879V587H128.879ZM157.927 571V580.76H155.447V577.04H152.607V575H155.447V571H157.927ZM142.847 579.12C145.647 578.16 146.987 576 147.127 573.84H143.527V571.84H153.167V573.84H149.647C149.767 575.84 151.027 577.9 153.727 578.76L152.487 580.72C150.527 580.06 149.167 578.78 148.407 577.18C147.627 578.94 146.207 580.36 144.127 581.04L142.847 579.12ZM146.047 588.6V581.44H148.527V583.12H155.447V581.44H157.927V588.6H146.047ZM148.527 586.6H155.447V585.04H148.527V586.6ZM174.172 572V573.52C174.152 575.02 174.152 576.72 173.772 578.88H176.092V580.88H159.812V578.88H171.212C171.632 576.88 171.672 575.4 171.652 574H161.812V572H174.172ZM161.892 588.48V582.44H164.332V586.48H174.652V588.48H161.892ZM187.626 572.2L183.066 589.12H180.586L185.146 572.2H187.626ZM208.397 580.12V582.08H201.717V584.96H199.237V582.08H192.157V580.12H208.397ZM194.037 588.48V583.56H196.517V586.48H206.597V588.48H194.037ZM194.237 578.88V571.6H196.677V573.44H203.837V571.6H206.317V578.88H194.237ZM196.677 576.92H203.837V575.28H196.677V576.92ZM215.722 573.8C215.702 576.02 216.942 578.16 219.762 579.04L218.442 581.04C216.522 580.38 215.202 579.1 214.462 577.5C213.662 579.24 212.282 580.64 210.282 581.36L208.922 579.36C211.902 578.4 213.182 576.08 213.202 573.64V571.92H215.722V573.8ZM211.802 584.36V582.4H224.042V588.8H221.562V584.36H211.802ZM218.202 576.36V574.32H221.562V571H224.042V581.6H221.562V576.36H218.202ZM246.417 584.68V586.68H230.137V584.68H236.937V580.64H239.417V584.68H246.417ZM230.537 579.16C234.557 578.52 236.817 575.82 236.857 573.32V572.04H239.497V573.32C239.497 575.84 241.777 578.52 245.857 579.16L244.777 581.24C241.657 580.66 239.337 578.98 238.177 576.78C236.997 578.98 234.697 580.68 231.577 581.24L230.537 579.16ZM263.302 584.68V586.72H247.022V584.68H250.662V580.32C249.282 579.48 248.462 578.22 248.462 576.64C248.462 573.8 251.282 571.88 255.142 571.88C258.982 571.88 261.822 573.8 261.822 576.64C261.822 578.2 261.002 579.46 259.662 580.28V584.68H263.302ZM250.902 576.64C250.922 578.4 252.582 579.48 255.142 579.48C257.642 579.48 259.362 578.4 259.382 576.64C259.362 574.88 257.642 573.84 255.142 573.84C252.582 573.84 250.922 574.88 250.902 576.64ZM253.142 584.68H257.142V581.22C256.522 581.34 255.842 581.4 255.142 581.4C254.442 581.4 253.762 581.34 253.142 581.22V584.68ZM270.827 575.04C270.827 578.32 272.307 581.58 275.347 582.84L273.867 584.84C271.827 583.92 270.407 582.16 269.607 579.96C268.807 582.36 267.347 584.3 265.187 585.28L263.667 583.2C266.787 581.9 268.287 578.5 268.307 575.04V572.4H270.827V575.04ZM276.267 588.84V571H278.787V588.84H276.267ZM294.912 571V576H297.312V578.04H294.912V583.76H292.392V571H294.912ZM280.672 580.04C284.652 578.94 286.892 576.9 287.312 574.4H281.472V572.36H290.072C290.052 577.16 287.052 580.52 281.712 582.04L280.672 580.04ZM283.352 588.48V582.44H285.872V586.48H295.512V588.48H283.352ZM317.207 571V588.8H314.847V579.76H313.207V588H310.887V571.48H313.207V577.76H314.847V571H317.207ZM301.687 583.4C305.307 581.28 306.867 578.68 307.187 575.2H302.567V573.2H309.607C309.607 578.18 308.127 582.24 303.127 585.16L301.687 583.4ZM325.452 574.08C325.432 576.36 326.672 578.66 329.492 579.6L328.132 581.56C326.272 580.86 324.972 579.56 324.232 577.9C323.452 579.76 322.072 581.22 320.012 581.96L318.652 580C321.632 579.04 322.912 576.6 322.932 574.04V572.12H325.452V574.08ZM321.932 588.48V582.8H324.452V586.48H334.132V588.48H321.932ZM327.932 576.84V574.84H331.292V571.04H333.772V584.16H331.292V576.84H327.932Z" fill="white"/>
</g>
<defs>
<filter id="filter0_d_410_12" x="0" y="0" width="408" height="576" filterUnits="userSpaceOnUse" color-interpolation-filters="sRGB">
<feFlood flood-opacity="0" result="BackgroundImageFix"/>
<feColorMatrix in="SourceAlpha" type="matrix" values="0 0 0 0 0 0 0 0 0 0 0 0 0 0 0 0 0 0 127 0" result="hardAlpha"/>
<feOffset dy="16"/>
<feGaussianBlur stdDeviation="12"/>
<feComposite in2="hardAlpha" operator="out"/>
<feColorMatrix type="matrix" values="0 0 0 0 0.00679188 0 0 0 0 0.116097 0 0 0 0 0.826579 0 0 0 0.06 0"/>
<feBlend mode="normal" in2="BackgroundImageFix" result="effect1_dropShadow_410_12"/>
<feBlend mode="normal" in="SourceGraphic" in2="effect1_dropShadow_410_12" result="shape"/>
</filter>
<filter id="filter1_d_410_12" x="105" y="235" width="198" height="90" filterUnits="userSpaceOnUse" color-interpolation-filters="sRGB">
<feFlood flood-opacity="0" result="BackgroundImageFix"/>
<feColorMatrix in="SourceAlpha" type="matrix" values="0 0 0 0 0 0 0 0 0 0 0 0 0 0 0 0 0 0 127 0" result="hardAlpha"/>
<feOffset/>
<feGaussianBlur stdDeviation="12.5"/>
<feComposite in2="hardAlpha" operator="out"/>
<feColorMatrix type="matrix" values="0 0 0 0 0.203922 0 0 0 0 0.443137 0 0 0 0 1 0 0 0 0.5 0"/>
<feBlend mode="normal" in2="BackgroundImageFix" result="effect1_dropShadow_410_12"/>
<feBlend mode="normal" in="BackgroundImageFix" in2="effect1_dropShadow_410_12" result="BackgroundImageFix"/>
<feBlend mode="normal" in="SourceGraphic" in2="BackgroundImageFix" result="shape"/>
</filter>
<filter id="filter2_d_410_12" x="0" y="544" width="408" height="104" filterUnits="userSpaceOnUse" color-interpolation-filters="sRGB">
<feFlood flood-opacity="0" result="BackgroundImageFix"/>
<feColorMatrix in="SourceAlpha" type="matrix" values="0 0 0 0 0 0 0 0 0 0 0 0 0 0 0 0 0 0 127 0" result="hardAlpha"/>
<feOffset dy="16"/>
<feGaussianBlur stdDeviation="12"/>
<feComposite in2="hardAlpha" operator="out"/>
<feColorMatrix type="matrix" values="0 0 0 0 0.00679188 0 0 0 0 0.116097 0 0 0 0 0.826579 0 0 0 0.06 0"/>
<feBlend mode="normal" in2="BackgroundImageFix" result="effect1_dropShadow_410_12"/>
<feBlend mode="normal" in="SourceGraphic" in2="effect1_dropShadow_410_12" result="shape"/>
</filter>
</defs>
</svg>
