<svg width="48" height="48" viewBox="0 0 48 48" fill="none" xmlns="http://www.w3.org/2000/svg">
<rect width="48" height="48" fill="#222222"/>
<path d="M42.2097 21.6744C42.1585 21.1587 41.9391 20.7582 41.5513 20.4727C41.1635 20.1871 40.6372 20.0444 39.9724 20.0444C39.5207 20.0444 39.1393 20.1083 38.8283 20.2362C38.5172 20.3597 38.2785 20.5323 38.1124 20.7539C37.9504 20.9755 37.8695 21.2269 37.8695 21.5082C37.8609 21.7425 37.9099 21.9471 38.0165 22.1218C38.1273 22.2965 38.2785 22.4478 38.4703 22.5756C38.6621 22.6992 38.8837 22.8079 39.1351 22.9016C39.3865 22.9911 39.655 23.0678 39.9405 23.1317L41.1166 23.413C41.6876 23.5408 42.2118 23.7113 42.6891 23.9244C43.1663 24.1374 43.5797 24.3995 43.9291 24.7106C44.2786 25.0217 44.5491 25.3881 44.7409 25.81C44.9369 26.2319 45.0371 26.7156 45.0413 27.261C45.0371 28.0621 44.8325 28.7567 44.4277 29.3448C44.0271 29.9286 43.4476 30.3825 42.6891 30.7063C41.9348 31.0259 41.025 31.1857 39.9597 31.1857C38.9028 31.1857 37.9824 31.0238 37.1983 30.6999C36.4185 30.3761 35.8091 29.8967 35.3702 29.2617C34.9355 28.6225 34.7075 27.832 34.6862 26.8903H37.3645C37.3943 27.3292 37.52 27.6957 37.7416 27.9897C37.9675 28.2795 38.2679 28.4989 38.6429 28.6481C39.0222 28.793 39.4504 28.8654 39.9277 28.8654C40.3964 28.8654 40.8034 28.7972 41.1486 28.6609C41.498 28.5245 41.7686 28.3349 41.9604 28.092C42.1521 27.8491 42.248 27.57 42.248 27.2546C42.248 26.9606 42.1607 26.7134 41.9859 26.5131C41.8155 26.3129 41.5641 26.1424 41.2317 26.0018C40.9035 25.8612 40.5009 25.7333 40.0236 25.6183L38.5982 25.2603C37.4945 24.9918 36.623 24.5721 35.9838 24.0011C35.3446 23.43 35.0271 22.6609 35.0314 21.6935C35.0271 20.9009 35.2381 20.2085 35.6642 19.6161C36.0946 19.0238 36.6848 18.5614 37.4348 18.229C38.1848 17.8967 39.0371 17.7305 39.9916 17.7305C40.9632 17.7305 41.8112 17.8967 42.5357 18.229C43.2643 18.5614 43.8311 19.0238 44.2359 19.6161C44.6408 20.2085 44.8496 20.8945 44.8624 21.6744H42.2097Z" fill="white"/>
<path d="M17.7374 17.9092H21.1507L24.7558 26.7046H24.9092L28.5144 17.9092H31.9277V31.0001H29.243V22.4795H29.1344L25.7466 30.9362H23.9185L20.5307 22.4475H20.422V31.0001H17.7374V17.9092Z" fill="white"/>
<path d="M5.7376 17.9092L8.90166 27.8552H9.02311L12.1936 17.9092H15.2617L10.749 31.0001H7.1822L2.66302 17.9092H5.7376Z" fill="white"/>
</svg>
