<svg width="48" height="48" viewBox="0 0 48 48" fill="none" xmlns="http://www.w3.org/2000/svg">
<path d="M37.5 15L39.8895 19.5L45 20.121L41.25 23.5005L42 28.5L37.5 25.6875L33 28.5L33.75 23.5005L30 20.121L35.25 19.5L37.5 15ZM33 45H30V37.5C29.9976 35.5116 29.2067 33.6053 27.8007 32.1993C26.3947 30.7933 24.4884 30.0024 22.5 30H13.5C11.5116 30.0024 9.60534 30.7933 8.19933 32.1993C6.79332 33.6053 6.00238 35.5116 6 37.5V45H3V37.5C3.00397 34.7164 4.11149 32.048 6.07976 30.0798C8.04803 28.1115 10.7164 27.004 13.5 27H22.5C25.2836 27.004 27.952 28.1115 29.9202 30.0798C31.8885 32.048 32.996 34.7164 33 37.5V45ZM18 6C19.4834 6 20.9334 6.43987 22.1668 7.26398C23.4001 8.08809 24.3614 9.25943 24.9291 10.6299C25.4968 12.0003 25.6453 13.5083 25.3559 14.9632C25.0665 16.418 24.3522 17.7544 23.3033 18.8033C22.2544 19.8522 20.918 20.5665 19.4632 20.8559C18.0083 21.1453 16.5003 20.9968 15.1299 20.4291C13.7594 19.8614 12.5881 18.9001 11.764 17.6668C10.9399 16.4334 10.5 14.9834 10.5 13.5C10.5 11.5109 11.2902 9.60322 12.6967 8.1967C14.1032 6.79018 16.0109 6 18 6ZM18 3C15.9233 3 13.8932 3.61581 12.1665 4.76957C10.4398 5.92332 9.09398 7.5632 8.29926 9.48182C7.50454 11.4004 7.29661 13.5116 7.70175 15.5484C8.1069 17.5852 9.10693 19.4562 10.5754 20.9246C12.0438 22.3931 13.9148 23.3931 15.9516 23.7982C17.9884 24.2034 20.0996 23.9955 22.0182 23.2007C23.9368 22.406 25.5767 21.0602 26.7304 19.3335C27.8842 17.6068 28.5 15.5767 28.5 13.5C28.5 10.7152 27.3938 8.04451 25.4246 6.07538C23.4555 4.10625 20.7848 3 18 3Z" fill="#222222"/>
</svg>
