<svg width="620" height="507" viewBox="0 0 620 507" fill="none" xmlns="http://www.w3.org/2000/svg">
<line x1="84" y1="134.5" x2="540" y2="134.5" stroke="#D9D9D9"/>
<line x1="387.5" y1="135" x2="387.5" y2="311" stroke="#D9D9D9"/>
<line x1="540" y1="311.5" x2="387" y2="311.5" stroke="#D9D9D9"/>
<line x1="423.5" y1="28" x2="423.5" y2="135" stroke="#D9D9D9" stroke-dasharray="4 4"/>
<line x1="333" y1="262.5" x2="387" y2="262.5" stroke="#D9D9D9" stroke-dasharray="4 4"/>
<rect y="55" width="160" height="160" rx="80" fill="#F5F5F5"/>
<path d="M63.9009 132.64C63.6009 130.92 62.2409 129.94 60.5409 129.96C58.2009 129.94 56.5609 131.74 56.5809 134.92C56.5609 138.18 58.2209 139.9 60.5009 139.92C62.2009 139.9 63.5609 138.98 63.9009 137.32H66.4609C66.0809 140.02 63.8409 142.2 60.5009 142.2C56.7409 142.2 54.0209 139.48 54.0209 134.92C54.0209 130.36 56.7809 127.66 60.5009 127.68C63.6009 127.66 66.0209 129.48 66.4609 132.64H63.9009ZM77.7783 132.64C77.4783 130.92 76.1183 129.94 74.4183 129.96C72.0783 129.94 70.4383 131.74 70.4583 134.92C70.4383 138.18 72.0983 139.9 74.3783 139.92C76.0783 139.9 77.4383 138.98 77.7783 137.32H80.3383C79.9583 140.02 77.7183 142.2 74.3783 142.2C70.6183 142.2 67.8983 139.48 67.8983 134.92C67.8983 130.36 70.6583 127.66 74.3783 127.68C77.4783 127.66 79.8983 129.48 80.3383 132.64H77.7783ZM81.4956 130V127.84H92.7756V130H88.4156V142H85.8956V130H81.4956ZM96.2123 127.84L99.9323 139H100.052L103.732 127.84H106.532L101.572 142H98.4123L93.4523 127.84H96.2123Z" fill="#1B1B1D"/>
<path d="M349.793 4.84H352.913L357.113 15.12H357.273L361.473 4.84H364.593V19H362.153V9.28H362.033L358.113 18.96H356.273L352.353 9.24H352.233V19H349.793V4.84ZM372.074 14.24H374.394L375.614 15.82C376.414 14.98 376.894 13.66 376.874 11.92C376.894 8.7 375.274 6.94 372.954 6.96C370.654 6.94 369.014 8.7 369.034 11.92C369.014 15.16 370.654 16.9 372.954 16.92C373.314 16.92 373.674 16.88 374.014 16.78L372.074 14.24ZM366.474 11.92C366.474 7.36 369.234 4.66 372.954 4.68C376.654 4.66 379.454 7.36 379.434 11.92C379.454 14.48 378.574 16.46 377.154 17.7L379.114 20.24H376.634L375.454 18.74C374.694 19.04 373.854 19.2 372.954 19.2C369.234 19.2 366.474 16.48 366.474 11.92ZM380.052 7V4.84H391.332V7H386.972V19H384.452V7H380.052ZM392.289 7V4.84H403.569V7H399.209V19H396.689V7H392.289ZM417.211 8.76C417.091 7.52 416.071 6.82 414.531 6.84C412.931 6.82 411.971 7.6 411.971 8.68C411.951 9.86 413.211 10.36 414.371 10.64L415.691 10.96C417.811 11.46 419.851 12.58 419.851 15.04C419.851 17.52 417.891 19.22 414.491 19.2C411.211 19.22 409.131 17.64 409.011 14.84H411.531C411.631 16.32 412.871 17.04 414.491 17.04C416.151 17.04 417.311 16.22 417.291 15C417.311 13.9 416.291 13.44 414.771 13.04L413.171 12.64C410.831 12.02 409.391 10.86 409.371 8.84C409.391 6.32 411.611 4.66 414.571 4.68C417.571 4.66 419.611 6.36 419.651 8.76H417.211ZM428.213 14.52V8.4H430.693V19H428.293V17.12H428.173C427.693 18.3 426.593 19.14 424.973 19.12C422.893 19.14 421.453 17.7 421.453 15.16V8.4H423.933V14.76C423.933 16.12 424.753 16.96 425.933 16.96C427.053 16.96 428.213 16.16 428.213 14.52ZM432.813 19V4.84H435.293V10.12H435.413C435.793 9.38 436.553 8.26 438.413 8.24C440.873 8.26 442.813 10.18 442.813 13.72C442.813 17.2 440.933 19.18 438.453 19.2C436.613 19.18 435.793 18.1 435.413 17.32H435.253V19H432.813ZM435.253 13.68C435.233 15.76 436.153 17.14 437.733 17.16C439.393 17.14 440.273 15.7 440.293 13.68C440.273 11.72 439.413 10.3 437.733 10.28C436.133 10.3 435.233 11.64 435.253 13.68ZM450.364 11.4C450.204 10.62 449.544 10.1 448.484 10.12C447.424 10.1 446.644 10.64 446.644 11.36C446.644 11.92 447.084 12.32 448.164 12.56L449.964 12.96C451.964 13.38 452.944 14.32 452.924 15.84C452.944 17.82 451.184 19.22 448.444 19.2C445.724 19.22 444.124 18 443.884 15.96H446.404C446.564 16.88 447.264 17.32 448.404 17.32C449.624 17.32 450.404 16.84 450.404 16.04C450.404 15.44 449.924 15.04 448.884 14.8L447.164 14.44C445.184 14.04 444.164 13.02 444.164 11.52C444.164 9.54 445.864 8.26 448.444 8.24C450.984 8.26 452.544 9.5 452.724 11.4H450.364ZM459.092 19.2C455.912 19.22 453.992 16.94 454.012 13.76C453.992 10.5 455.972 8.26 459.052 8.24C461.652 8.26 463.452 9.76 463.612 12.04H461.252C461.052 11.04 460.312 10.26 459.092 10.24C457.552 10.26 456.512 11.56 456.532 13.68C456.512 15.88 457.532 17.18 459.092 17.16C460.192 17.18 461.012 16.54 461.252 15.4H463.612C463.432 17.62 461.732 19.22 459.092 19.2ZM465.087 19V8.4H467.487V10.16H467.607C467.987 8.94 469.007 8.24 470.207 8.24C470.507 8.24 470.907 8.26 471.127 8.32V10.6C470.907 10.52 470.387 10.46 469.967 10.44C468.587 10.46 467.567 11.4 467.567 12.76V19H465.087ZM472.207 19V8.4H474.687V19H472.207ZM472.007 5.52C472.007 4.78 472.667 4.18 473.447 4.16C474.247 4.18 474.887 4.78 474.887 5.52C474.887 6.28 474.247 6.88 473.447 6.88C472.667 6.88 472.007 6.28 472.007 5.52ZM476.809 19V4.84H479.289V10.12H479.409C479.789 9.38 480.549 8.26 482.409 8.24C484.869 8.26 486.809 10.18 486.809 13.72C486.809 17.2 484.929 19.18 482.449 19.2C480.609 19.18 479.789 18.1 479.409 17.32H479.249V19H476.809ZM479.249 13.68C479.229 15.76 480.149 17.14 481.729 17.16C483.389 17.14 484.269 15.7 484.289 13.68C484.269 11.72 483.409 10.3 481.729 10.28C480.129 10.3 479.229 11.64 479.249 13.68ZM493.04 19.2C489.86 19.22 487.9 17.08 487.92 13.76C487.9 10.48 489.9 8.26 492.92 8.24C495.52 8.26 497.76 9.88 497.76 13.6V14.4H490.36C490.42 16.22 491.46 17.28 493.08 17.28C494.18 17.28 494.9 16.8 495.24 16.16H497.68C497.22 18 495.52 19.22 493.04 19.2ZM490.36 12.68H495.36C495.36 11.26 494.4 10.2 492.96 10.2C491.46 10.2 490.46 11.32 490.36 12.68Z" fill="#1B85AB"/>
<path d="M293.522 270V255.84H296.042V261.84H302.642V255.84H305.202V270H302.642V264H296.042V270H293.522ZM315.119 259.76C314.999 258.52 313.979 257.82 312.439 257.84C310.839 257.82 309.879 258.6 309.879 259.68C309.859 260.86 311.119 261.36 312.279 261.64L313.599 261.96C315.719 262.46 317.759 263.58 317.759 266.04C317.759 268.52 315.799 270.22 312.399 270.2C309.119 270.22 307.039 268.64 306.919 265.84H309.439C309.539 267.32 310.779 268.04 312.399 268.04C314.059 268.04 315.219 267.22 315.199 266C315.219 264.9 314.199 264.44 312.679 264.04L311.079 263.64C308.739 263.02 307.299 261.86 307.279 259.84C307.299 257.32 309.519 255.66 312.479 255.68C315.479 255.66 317.519 257.36 317.559 259.76H315.119ZM319.48 270V255.84H322V267.88H328.24V270H319.48Z" fill="#1B85AB"/>
<rect y="407" width="196" height="100" rx="8" fill="#D6F5F0"/>
<rect x="212" y="407" width="196" height="100" rx="8" fill="#D6F5F0"/>
<rect x="424" y="407" width="196" height="100" rx="8" fill="#D6F5F0"/>
<path d="M63.1243 450.52C63.1043 453.24 65.7843 455.98 69.4843 456.6L68.4843 458.44C65.5243 457.82 63.1243 456.02 61.9843 453.66C60.8043 456 58.3843 457.8 55.4443 458.44L54.4843 456.6C58.1243 455.96 60.7843 453.22 60.8043 450.52V449.2H63.1243V450.52ZM54.0043 463.48V461.68H70.1243V463.48H54.0043ZM85.2095 457.32V459.08H72.8495V449.48H85.0895V451.24H75.0495V453.36H84.6495V455.08H75.0495V457.32H85.2095ZM70.8895 463.6V461.8H87.0095V463.6H70.8895ZM102.455 448.12V458.56H100.295V448.12H102.455ZM88.6546 450.84V449.12H96.8146V454.24H90.8146V456.08C93.8346 456.08 95.9946 456 98.5346 455.6L98.8146 457.32C96.0146 457.78 93.6146 457.88 90.2146 457.88H88.6946V452.6H94.6546V450.84H88.6546ZM90.7346 465.52V459.4H102.455V465.52H90.7346ZM92.8946 463.76H100.335V461.12H92.8946V463.76ZM118.865 449.4V450.44C118.845 451.64 118.845 453.4 118.425 455.64L116.305 455.44C116.645 453.6 116.705 452.24 116.725 451.16H109.865V449.4H118.865ZM108.825 457.04C109.865 457.04 111.025 457.02 112.265 457V453.4H114.425V456.92C116.245 456.86 118.125 456.72 119.825 456.48L119.945 458.04C116.285 458.7 112.105 458.78 109.025 458.8L108.825 457.04ZM111.465 465.4V460.12H113.625V463.64H123.665V465.4H111.465ZM120.865 461.32V448.08H123.105V453.6H125.385V455.4H123.105V461.32H120.865ZM140.591 448.08V465.76H138.431V448.08H140.591ZM126.871 461.6V454.52H132.951V451.4H126.871V449.64H135.191V456.24H129.111V459.8C131.891 459.78 134.271 459.64 137.031 459.2L137.231 460.96C134.231 461.48 131.591 461.58 128.431 461.6H126.871Z" fill="#1B85AB"/>
<path d="M275.507 452L271.547 437.84H274.267L276.827 448.28H276.947L279.707 437.84H282.187L284.907 448.28H285.027L287.587 437.84H290.347L286.347 452H283.827L280.987 442.04H280.867L278.027 452H275.507ZM295.046 452.2C291.866 452.22 289.906 450.08 289.926 446.76C289.906 443.48 291.906 441.26 294.926 441.24C297.526 441.26 299.766 442.88 299.766 446.6V447.4H292.366C292.426 449.22 293.466 450.28 295.086 450.28C296.186 450.28 296.906 449.8 297.246 449.16H299.686C299.226 451 297.526 452.22 295.046 452.2ZM292.366 445.68H297.366C297.366 444.26 296.406 443.2 294.966 443.2C293.466 443.2 292.466 444.32 292.366 445.68ZM301.454 452V437.84H303.934V443.12H304.054C304.434 442.38 305.194 441.26 307.054 441.24C309.514 441.26 311.454 443.18 311.454 446.72C311.454 450.2 309.574 452.18 307.094 452.2C305.254 452.18 304.434 451.1 304.054 450.32H303.894V452H301.454ZM303.894 446.68C303.874 448.76 304.794 450.14 306.374 450.16C308.034 450.14 308.914 448.7 308.934 446.68C308.914 444.72 308.054 443.3 306.374 443.28C304.774 443.3 303.874 444.64 303.894 446.68ZM313.124 452V437.84H318.404C321.664 437.86 323.404 439.68 323.404 442.36C323.404 444.3 322.524 445.74 320.844 446.4L323.924 452H321.084L318.284 446.8H315.644V452H313.124ZM315.644 444.72H318.044C319.944 444.7 320.804 443.88 320.804 442.36C320.804 440.88 319.944 439.98 318.044 440H315.644V444.72ZM324.564 440V437.84H335.844V440H331.484V452H328.964V440H324.564ZM346.336 442.64C346.036 440.92 344.676 439.94 342.976 439.96C340.636 439.94 338.996 441.74 339.016 444.92C338.996 448.18 340.656 449.9 342.936 449.92C344.636 449.9 345.996 448.98 346.336 447.32H348.896C348.516 450.02 346.276 452.2 342.936 452.2C339.176 452.2 336.456 449.48 336.456 444.92C336.456 440.36 339.216 437.66 342.936 437.68C346.036 437.66 348.456 439.48 348.896 442.64H346.336ZM274.182 473.8V475.6H258.062V473.8H274.182ZM259.382 463.48V461.72H272.782V463.48H270.182V469.08H272.702V470.8H259.422V469.08H261.942V463.48H259.382ZM264.102 469.08H268.062V463.48H264.102V469.08ZM291.067 473.88V475.68H274.947V473.88H281.907V471H276.867V465.24H287.027V463.04H276.827V461.28H289.147V466.96H279.027V469.24H289.547V471H284.027V473.88H291.067ZM306.152 468.96V470.72H300.952V473.92H307.952V475.68H291.832V473.92H298.792V470.72H293.792V461.4H306.032V463.12H295.992V465.16H305.592V466.88H295.992V468.96H306.152ZM322.877 460.48V461.64C322.897 462.88 322.897 464.52 322.517 466.68L320.357 466.56C320.477 465.9 320.557 465.3 320.617 464.76L310.357 465.2L310.117 463.52L320.717 463.26C320.737 462.88 320.737 462.52 320.757 462.2H310.557V460.48H322.877ZM308.717 469.2V467.48H314.917V465.68H317.077V467.48H324.757V469.2H308.717ZM310.597 477.44V473.12H320.637V471.96H310.597V470.28H322.797V474.64H312.757V475.8H323.277V477.44H310.597ZM336.608 465.08C336.608 468 338.308 471.04 341.168 472.24L339.968 473.96C337.888 473.04 336.348 471.18 335.548 468.94C334.748 471.36 333.188 473.42 331.128 474.4L329.888 472.68C332.668 471.4 334.408 468.1 334.408 465.08V463.6H330.528V461.84H340.488V463.6H336.608V465.08ZM342.448 477.72V460.08H344.648V477.72H342.448ZM361.653 460.12V473.44H359.453V471.92H356.013V470.4H359.453V460.12H361.653ZM346.773 468.04C350.013 468.02 354.393 467.98 358.133 467.52L358.253 469.08C356.813 469.32 355.293 469.48 353.813 469.58V472.96H351.653V469.7C349.993 469.76 348.413 469.76 347.013 469.76L346.773 468.04ZM348.093 463.88C348.113 462 349.893 460.74 352.533 460.76C355.093 460.74 356.893 462 356.893 463.88C356.893 465.76 355.093 466.98 352.533 466.96C349.913 466.98 348.113 465.76 348.093 463.88ZM349.093 477.4V472.16H351.293V475.64H362.053V477.4H349.093ZM350.173 463.88C350.153 464.84 351.113 465.38 352.533 465.4C353.873 465.38 354.833 464.84 354.853 463.88C354.833 462.92 353.873 462.34 352.533 462.36C351.113 462.34 350.153 462.92 350.173 463.88Z" fill="#1B85AB"/>
<path d="M487.124 450.52C487.104 453.24 489.784 455.98 493.484 456.6L492.484 458.44C489.524 457.82 487.124 456.02 485.984 453.66C484.804 456 482.384 457.8 479.444 458.44L478.484 456.6C482.124 455.96 484.784 453.22 484.804 450.52V449.2H487.124V450.52ZM478.004 463.48V461.68H494.124V463.48H478.004ZM509.209 457.32V459.08H496.849V449.48H509.089V451.24H499.049V453.36H508.649V455.08H499.049V457.32H509.209ZM494.889 463.6V461.8H511.009V463.6H494.889ZM526.455 448.12V458.56H524.295V448.12H526.455ZM512.655 450.84V449.12H520.815V454.24H514.815V456.08C517.835 456.08 519.995 456 522.535 455.6L522.815 457.32C520.015 457.78 517.615 457.88 514.215 457.88H512.695V452.6H518.655V450.84H512.655ZM514.735 465.52V459.4H526.455V465.52H514.735ZM516.895 463.76H524.335V461.12H516.895V463.76ZM547.305 452.68V454.4H542.145V456.48H549.105V458.2H533.025V456.48H539.945V454.4H535.065V448.4H537.225V452.68H547.305ZM534.825 461.48V459.72H547.145V465.72H544.945V461.48H534.825ZM563.871 448.08V455.36H566.351V457.2H563.871V465.72H561.671V448.08H563.871ZM549.671 460.84C551.011 460.84 552.571 460.84 554.191 460.8V459.14C552.271 458.82 551.011 457.62 551.031 455.96C551.011 453.96 552.771 452.64 555.311 452.64C557.811 452.64 559.591 453.96 559.591 455.96C559.591 457.62 558.311 458.82 556.391 459.16V460.72C557.871 460.64 559.351 460.52 560.751 460.32L560.871 461.92C557.091 462.6 553.011 462.62 549.991 462.64L549.671 460.84ZM550.031 451.84V450.12H554.191V448.16H556.391V450.12H560.551V451.84H550.031ZM553.071 455.96C553.071 456.96 553.971 457.56 555.311 457.56C556.631 457.56 557.511 456.96 557.511 455.96C557.511 454.92 556.631 454.3 555.311 454.32C553.971 454.3 553.071 454.92 553.071 455.96Z" fill="#1B85AB"/>
<rect x="190" y="55" width="160" height="160" rx="80" fill="#F5F5F5"/>
<path d="M235.324 127.72V139.44H226.924V127.72H235.324ZM229.084 137.72H233.204V129.44H229.084V137.72ZM238.484 143.76V126.08H240.684V143.76H238.484ZM257.569 126.08V143.76H255.369V126.08H257.569ZM243.969 139.52V127.68H252.489V129.48H246.169V137.64C249.429 137.64 251.449 137.54 253.809 137.12L254.009 138.92C251.489 139.4 249.209 139.5 245.449 139.52H243.969ZM264.575 127.36C266.975 127.38 268.755 129.38 269.055 132.6H272.415V126.08H274.575V143.76H272.415V134.32H269.075C268.855 137.74 267.055 139.86 264.575 139.84C261.935 139.86 260.055 137.44 260.055 133.6C260.055 129.8 261.935 127.38 264.575 127.36ZM262.135 133.6C262.135 136.32 263.135 137.9 264.575 137.88C266.055 137.9 267.035 136.32 267.055 133.6C267.035 130.92 266.055 129.32 264.575 129.32C263.135 129.32 262.135 130.92 262.135 133.6ZM287.545 130.32C287.525 133.6 289.105 136.82 291.905 138.08L290.585 139.8C288.605 138.82 287.205 136.96 286.445 134.66C285.685 137.08 284.245 139.1 282.225 140.12L280.825 138.36C283.705 137.02 285.305 133.62 285.345 130.32V127.52H287.545V130.32ZM289.945 133.56V131.8H293.665V126.08H295.825V143.76H293.665V133.56H289.945ZM312.711 126.08V143.76H310.551V134.2H306.951V139.48H298.551V127.44H300.751V131.84H304.831V127.44H306.951V132.4H310.551V126.08H312.711ZM300.751 137.72H304.831V133.56H300.751V137.72Z" fill="#1B1B1D"/>
<rect x="460" y="55" width="160" height="160" rx="80" fill="#F5F5F5"/>
<rect x="460" y="231" width="160" height="160" rx="80" fill="#F5F5F5"/>
<path d="M512.847 114.8V116.28C512.847 117.64 512.847 119.14 512.467 121.04H514.727V122.76H498.687V121.04H510.287C510.407 120.42 510.487 119.84 510.547 119.32L500.447 119.72L500.207 118.04L510.667 117.78L510.687 116.52H500.687V114.8H512.847ZM500.487 125.72V124.04H512.927V128.48H502.687V129.84H513.567V131.52H500.527V126.92H510.767V125.72H500.487ZM529.372 114.08V120.88H532.092V122.68H529.372V131.76H527.252V114.08H529.372ZM516.252 117.4V115.64H524.372V122.28H518.452V125.8C521.252 125.78 523.412 125.66 525.892 125.24L526.092 127C523.352 127.48 520.952 127.6 517.732 127.6H516.292V120.56H522.212V117.4H516.252ZM547.137 114.08V131.76H544.937V114.08H547.137ZM533.017 121.6C532.997 117.8 534.937 115.38 537.617 115.36C540.277 115.38 542.217 117.8 542.217 121.6C542.217 125.44 540.277 127.86 537.617 127.84C534.937 127.86 532.997 125.44 533.017 121.6ZM535.097 121.6C535.097 124.32 536.117 125.9 537.617 125.88C539.097 125.9 540.117 124.32 540.137 121.6C540.117 118.92 539.097 117.32 537.617 117.32C536.117 117.32 535.097 118.92 535.097 121.6ZM564.103 114.12V127.04H561.943V120.6H558.763C558.303 122.66 556.483 124.08 554.223 124.08C551.563 124.08 549.563 122.22 549.583 119.64C549.563 117.02 551.563 115.2 554.223 115.2C556.543 115.2 558.403 116.66 558.783 118.84H561.943V114.12H564.103ZM551.623 119.64C551.643 121.18 552.743 122.2 554.223 122.2C555.683 122.2 556.783 121.18 556.783 119.64C556.783 118.06 555.683 117.1 554.223 117.08C552.743 117.1 551.643 118.06 551.623 119.64ZM552.543 131.4V125.72H554.703V129.64H564.543V131.4H552.543ZM580.548 123.32V125.08H568.188V115.48H580.428V117.24H570.388V119.36H579.988V121.08H570.388V123.32H580.548ZM566.228 129.6V127.8H582.348V129.6H566.228ZM528.7 154V139.84H533.98C537.24 139.86 538.98 141.84 538.98 144.52C538.98 147.26 537.22 149.22 533.94 149.2H531.22V154H528.7ZM531.22 147.12H533.62C535.52 147.12 536.38 146.04 536.38 144.52C536.38 143.04 535.52 141.98 533.62 142H531.22V147.12ZM550.183 144.64C549.883 142.92 548.523 141.94 546.823 141.96C544.483 141.94 542.843 143.74 542.863 146.92C542.843 150.18 544.503 151.9 546.783 151.92C548.483 151.9 549.843 150.98 550.183 149.32H552.743C552.363 152.02 550.123 154.2 546.783 154.2C543.023 154.2 540.303 151.48 540.303 146.92C540.303 142.36 543.063 139.66 546.783 139.68C549.883 139.66 552.303 141.48 552.743 144.64H550.183Z" fill="#1B1B1D"/>
<path d="M512.847 290.8V292.28C512.847 293.64 512.847 295.14 512.467 297.04H514.727V298.76H498.687V297.04H510.287C510.407 296.42 510.487 295.84 510.547 295.32L500.447 295.72L500.207 294.04L510.667 293.78L510.687 292.52H500.687V290.8H512.847ZM500.487 301.72V300.04H512.927V304.48H502.687V305.84H513.567V307.52H500.527V302.92H510.767V301.72H500.487ZM529.372 290.08V296.88H532.092V298.68H529.372V307.76H527.252V290.08H529.372ZM516.252 293.4V291.64H524.372V298.28H518.452V301.8C521.252 301.78 523.412 301.66 525.892 301.24L526.092 303C523.352 303.48 520.952 303.6 517.732 303.6H516.292V296.56H522.212V293.4H516.252ZM547.137 290.08V307.76H544.937V290.08H547.137ZM533.017 297.6C532.997 293.8 534.937 291.38 537.617 291.36C540.277 291.38 542.217 293.8 542.217 297.6C542.217 301.44 540.277 303.86 537.617 303.84C534.937 303.86 532.997 301.44 533.017 297.6ZM535.097 297.6C535.097 300.32 536.117 301.9 537.617 301.88C539.097 301.9 540.117 300.32 540.137 297.6C540.117 294.92 539.097 293.32 537.617 293.32C536.117 293.32 535.097 294.92 535.097 297.6ZM564.103 290.12V303.04H561.943V296.6H558.763C558.303 298.66 556.483 300.08 554.223 300.08C551.563 300.08 549.563 298.22 549.583 295.64C549.563 293.02 551.563 291.2 554.223 291.2C556.543 291.2 558.403 292.66 558.783 294.84H561.943V290.12H564.103ZM551.623 295.64C551.643 297.18 552.743 298.2 554.223 298.2C555.683 298.2 556.783 297.18 556.783 295.64C556.783 294.06 555.683 293.1 554.223 293.08C552.743 293.1 551.643 294.06 551.623 295.64ZM552.543 307.4V301.72H554.703V305.64H564.543V307.4H552.543ZM580.548 299.32V301.08H568.188V291.48H580.428V293.24H570.388V295.36H579.988V297.08H570.388V299.32H580.548ZM566.228 305.6V303.8H582.348V305.6H566.228ZM511.677 315.84H514.797L518.997 326.12H519.157L523.357 315.84H526.477V330H524.037V320.28H523.917L519.997 329.96H518.157L514.237 320.24H514.117V330H511.677V315.84ZM533.239 330.2C530.119 330.22 528.139 328.02 528.159 324.76C528.139 321.44 530.119 319.26 533.239 319.24C536.319 319.26 538.299 321.44 538.319 324.76C538.299 328.02 536.319 330.22 533.239 330.2ZM530.679 324.72C530.659 326.68 531.519 328.22 533.239 328.2C534.939 328.22 535.779 326.68 535.799 324.72C535.779 322.78 534.939 321.22 533.239 321.24C531.519 321.22 530.659 322.78 530.679 324.72ZM539.959 330V315.84H542.439V321.12H542.559C542.939 320.38 543.699 319.26 545.559 319.24C548.019 319.26 549.959 321.18 549.959 324.72C549.959 328.2 548.079 330.18 545.599 330.2C543.759 330.18 542.939 329.1 542.559 328.32H542.399V330H539.959ZM542.399 324.68C542.379 326.76 543.299 328.14 544.879 328.16C546.539 328.14 547.419 326.7 547.439 324.68C547.419 322.72 546.559 321.3 544.879 321.28C543.279 321.3 542.379 322.64 542.399 324.68ZM551.51 330V319.4H553.99V330H551.51ZM551.31 316.52C551.31 315.78 551.97 315.18 552.75 315.16C553.55 315.18 554.19 315.78 554.19 316.52C554.19 317.28 553.55 317.88 552.75 317.88C551.97 317.88 551.31 317.28 551.31 316.52ZM558.473 315.84V330H555.993V315.84H558.473ZM565.155 330.2C561.975 330.22 560.015 328.08 560.035 324.76C560.015 321.48 562.015 319.26 565.035 319.24C567.635 319.26 569.875 320.88 569.875 324.6V325.4H562.475C562.535 327.22 563.575 328.28 565.195 328.28C566.295 328.28 567.015 327.8 567.355 327.16H569.795C569.335 329 567.635 330.22 565.155 330.2ZM562.475 323.68H567.475C567.475 322.26 566.515 321.2 565.075 321.2C563.575 321.2 562.575 322.32 562.475 323.68Z" fill="#1B1B1D"/>
<rect x="412" y="135.313" width="16" height="16" transform="rotate(-45 412 135.313)" fill="#7AE1D0"/>
<rect x="376" y="263.313" width="16" height="16" transform="rotate(-45 376 263.313)" fill="#7AE1D0"/>
</svg>
